<svg width="100" height="100" viewBox="0 0 100 100" fill="none" xmlns="http://www.w3.org/2000/svg">
<path d="M50 48.5C59.9411 48.5 68 40.4411 68 30.5C68 20.5589 59.9411 12.5 50 12.5C40.0589 12.5 32 20.5589 32 30.5C32 40.4411 40.0589 48.5 50 48.5Z" fill="#09D3CD"/>
<path d="M25 75.5C33.2843 75.5 40 68.7843 40 60.5C40 52.2157 33.2843 45.5 25 45.5C16.7157 45.5 10 52.2157 10 60.5C10 68.7843 16.7157 75.5 25 75.5Z" fill="#09D3CD"/>
<path d="M75 75.5C83.2843 75.5 90 68.7843 90 60.5C90 52.2157 83.2843 45.5 75 45.5C66.7157 45.5 60 52.2157 60 60.5C60 68.7843 66.7157 75.5 75 75.5Z" fill="#09D3CD"/>
<path d="M50 87.5C56.6274 87.5 62 82.1274 62 75.5C62 68.8726 56.6274 63.5 50 63.5C43.3726 63.5 38 68.8726 38 75.5C38 82.1274 43.3726 87.5 50 87.5Z" fill="#09D3CD"/>
<path d="M54.1916 34.794C51.9064 32.3943 48.0936 32.3943 45.8084 34.794C39.6888 41.2202 34.2575 47.6464 29.5144 54.0726C27.1651 57.2557 28.7111 61.724 32.3096 63.3681C37.195 65.6003 41.6056 68.3074 45.5411 71.4895C48.118 73.5729 51.882 73.5729 54.4589 71.4895C58.3944 68.3074 62.805 65.6003 67.6904 63.3681C71.2889 61.724 72.8349 57.2557 70.4856 54.0726C65.7425 47.6464 60.3112 41.2202 54.1916 34.794Z" fill="#09D3CD" fill-opacity="0.5"/>
</svg>
