<svg width="224" height="225" viewBox="0 0 224 225" fill="none" xmlns="http://www.w3.org/2000/svg">
<rect width="224" height="225" fill="white"/>
<path d="M112 84C121.941 84 130 75.9411 130 66C130 56.0589 121.941 48 112 48C102.059 48 94 56.0589 94 66C94 75.9411 102.059 84 112 84Z" fill="#09D3CD"/>
<path d="M87 111C95.2843 111 102 104.284 102 96C102 87.7157 95.2843 81 87 81C78.7157 81 72 87.7157 72 96C72 104.284 78.7157 111 87 111Z" fill="#09D3CD"/>
<path d="M137 111C145.284 111 152 104.284 152 96C152 87.7157 145.284 81 137 81C128.716 81 122 87.7157 122 96C122 104.284 128.716 111 137 111Z" fill="#09D3CD"/>
<path d="M112 123C118.627 123 124 117.627 124 111C124 104.373 118.627 99 112 99C105.373 99 100 104.373 100 111C100 117.627 105.373 123 112 123Z" fill="#09D3CD"/>
<path d="M116.192 70.294C113.906 67.8943 110.094 67.8943 107.808 70.294C101.689 76.7202 96.2575 83.1464 91.5144 89.5726C89.1651 92.7557 90.7111 97.224 94.3096 98.8681C99.195 101.1 103.606 103.807 107.541 106.989C110.118 109.073 113.882 109.073 116.459 106.989C120.394 103.807 124.805 101.1 129.69 98.8681C133.289 97.224 134.835 92.7557 132.486 89.5726C127.742 83.1464 122.311 76.7202 116.192 70.294Z" fill="#09D3CD" fill-opacity="0.6"/>
<path d="M10.372 177.496V168.816C16.696 168.816 18.99 166.212 18.99 161.624L18.928 135.274H28.042V160.942C28.042 171.42 22.338 177.496 10.372 177.496ZM51.8544 177.806C42.4304 177.806 35.2384 170.49 35.2384 161.562C35.2384 152.696 42.4924 145.38 51.8544 145.38C61.3404 145.38 68.5324 152.758 68.5324 161.562C68.5324 170.49 61.2784 177.806 51.8544 177.806ZM51.8544 169.56C56.3804 169.56 59.7284 165.964 59.7284 161.624C59.7284 157.284 56.3804 153.688 51.8544 153.688C47.3284 153.688 44.0424 157.284 44.0424 161.624C44.0424 165.964 47.3284 169.56 51.8544 169.56ZM80.03 141.722C77.054 141.722 74.574 139.304 74.574 136.266C74.574 133.29 77.054 130.81 80.03 130.81C83.006 130.81 85.424 133.29 85.424 136.266C85.424 139.304 83.006 141.722 80.03 141.722ZM75.628 146.31H84.432V177H75.628V146.31ZM109.032 153.998C104.072 153.998 101.84 158.028 101.84 162.74V177H93.0364V161.686C93.0364 152.758 98.3064 145.442 109.032 145.442C119.758 145.442 125.152 152.696 125.152 161.686V177H116.348V162.74C116.348 158.028 114.054 153.998 109.032 153.998ZM151.485 177.682C139.023 177.682 133.319 170.49 133.319 158.462V135.274H142.371V158.276C142.371 165.53 145.347 169.064 151.485 169.064C157.623 169.064 160.599 165.53 160.599 158.276V135.274H169.651V158.462C169.651 170.49 163.885 177.682 151.485 177.682ZM186.727 191.136H177.923V161.562C177.923 152.324 184.991 145.442 194.539 145.442C204.025 145.442 211.155 152.758 211.155 161.562C211.155 171.172 204.583 177.868 195.035 177.868C191.935 177.868 189.021 176.752 186.727 175.016V191.136ZM194.539 169.56C199.065 169.56 202.351 165.964 202.351 161.624C202.351 157.284 199.065 153.75 194.539 153.75C190.013 153.75 186.727 157.284 186.727 161.624C186.727 165.964 190.013 169.56 194.539 169.56Z" fill="black"/>
</svg>
