<svg width="800" height="450" viewBox="0 0 800 450" fill="none" xmlns="http://www.w3.org/2000/svg">
<g filter="url(#filter0_i_1753_20779)">
<rect width="800" height="450" rx="48" fill="url(#paint0_linear_1753_20779)"/>
<g opacity="0.1">
<path d="M454.217 27.7603C388.702 -0.894987 184.749 84.4517 99 118.065L120.228 101.422" fill="#535353"/>
<path d="M482.022 63.2327C391.679 62.8812 282.849 134.905 192.015 136.778" stroke="#535353" stroke-width="11" stroke-miterlimit="10" stroke-linecap="round" stroke-linejoin="round"/>
<path d="M521.216 93.8564C489.035 94.5262 444.537 100.775 396.977 110.717C349.426 120.659 298.872 134.357 254.804 149.889C238.19 155.818 222.685 162.523 208.853 169.73C201.687 173.472 194.991 177.382 188.797 181.303C187.312 182.245 186.788 183.785 187.28 185.054C187.73 186.338 189.121 187.17 190.178 187.02C198.088 185.892 205.987 184.659 213.886 183.428C205.935 182.587 197.984 181.744 190.032 181.007C190.492 182.912 190.942 184.818 191.403 186.724C198.245 184.381 205.474 182.022 213.007 179.521C227.539 174.675 243.244 169.432 259.67 163.765C303.12 148.574 352.91 134.016 399.677 122.758C446.442 111.5 490.25 103.606 521.53 101.783C523.719 101.656 525.412 99.8451 525.329 97.6638C525.247 95.4825 523.405 93.8105 521.216 93.8564Z" fill="#535353"/>
<path d="M578.197 110.521C506.678 107.522 424.024 118.01 342.136 138.854C284.761 153.557 227.5 172.034 173.881 192.043C177.752 198.96 181.623 205.876 185.505 212.793C193.581 206.445 201.658 200.097 209.746 193.749C220.177 185.558 205.372 166.682 194.931 174.853C186.843 181.186 178.746 187.518 170.648 193.851C168.283 195.704 166.777 198.29 166.254 201.05C165.72 203.807 166.191 206.745 167.572 209.193C168.932 211.648 171.192 213.591 173.818 214.577C176.444 215.579 179.436 215.654 182.271 214.6C235.221 194.949 291.749 176.826 348.162 162.349C428.556 141.576 508.196 125.536 578.085 123.738C581.736 123.644 584.707 120.827 584.736 117.184C584.769 113.54 581.838 110.674 578.197 110.521Z" fill="#535353"/>
<path d="M574.596 155.757C577.264 152.846 579.941 149.934 582.608 147.02C582.997 146.597 583.258 145.632 583.037 144.753C582.839 143.87 582.169 143.124 580.934 142.66C572.262 139.394 560.062 136.669 545.175 134.632C530.277 132.609 512.689 131.277 493.283 131.143C482.601 131.066 471.384 131.391 459.771 132.148C448.158 132.866 436.146 133.849 423.853 135.088C399.277 137.567 373.624 141.086 347.96 145.518C296.621 154.386 245.345 166.851 202.24 181.545C188.105 186.394 174.881 191.639 162.954 197.459C151.027 203.264 140.428 209.664 131.452 216.5C125.478 221.034 120.205 225.724 115.706 230.53C112.431 234.033 111.176 236.792 110.966 239.681C110.736 242.569 111.49 245.52 113.08 247.94C114.66 250.366 117.066 252.241 119.807 253.182C122.538 254.136 125.551 254.063 126.702 253.657C149.321 245.616 171.711 236.373 194.1 227.134C194.247 227.068 194.341 226.906 194.31 226.754C194.278 226.602 194.132 226.483 193.964 226.483C169.754 226.507 145.534 226.53 121.554 227.751C125.216 235.462 128.878 243.17 132.551 250.878C136.861 248.396 141.935 245.89 147.679 243.345C156.321 239.532 166.417 235.545 177.654 231.286C188.89 227.045 201.298 222.556 214.648 218.063C255.347 204.282 305.137 191.929 354.823 181.542C379.681 176.347 404.529 171.629 428.289 167.499C440.163 165.434 451.766 163.519 462.973 161.776C474.167 160.073 484.944 158.373 495.187 156.739C513.789 153.776 530.611 151.155 544.957 149.562C559.29 147.955 571.12 147.378 579.647 148.159C579.082 146.705 578.528 145.251 577.973 143.798C576.174 147.317 574.375 150.838 572.586 154.359C571.969 155.564 573.675 156.752 574.596 155.757Z" fill="#535353"/>
<path d="M614.183 198.152C545.446 188.604 469.688 188.585 392.162 201.056C367.554 205.008 342.79 210.287 318.276 217.58C297.99 223.553 278.07 231.535 258.369 240.183C279.534 236.268 300.543 233.037 321.081 229.151C345.908 224.527 370.358 219.864 394.578 215.852C470.774 203.245 544.839 197.758 613.734 202.474C614.916 202.555 615.952 201.703 616.078 200.532C616.203 199.362 615.355 198.315 614.183 198.152Z" fill="#535353"/>
<path d="M636.48 256.011C595.575 236.776 531.806 233.214 463.224 238.413C412.986 242.216 360.203 251.01 311.804 261.715C287.301 267.162 264.274 274.549 243.244 281.838C234.048 285.036 225.249 288.271 216.89 291.444C214.253 292.441 212.82 293.679 211.962 295.256C211.094 296.828 210.8 298.706 211.136 300.472C211.47 302.235 212.432 303.872 213.824 305.017C215.195 306.166 216.984 306.793 218.03 306.777C238.63 306.48 259.262 305.796 279.904 305.11C259.806 300.356 239.718 295.606 219.578 291.242C219.965 296.352 220.342 301.466 220.729 306.576C229.559 305.381 238.808 304.08 248.381 302.644C270.279 299.333 293.913 295.61 318.102 290.321C365.915 279.818 417.264 268.885 465.862 261.335C532.235 251.03 593.554 247.573 634.203 261.606C635.626 262.098 637.111 261.005 637.633 259.741C638.144 258.477 637.841 256.655 636.48 256.011Z" fill="#535353"/>
<path d="M604.37 308.104C582.91 305.998 557.509 302.145 529.919 298.805C502.339 295.471 472.521 292.672 442.36 292.85C414.235 293.074 385.779 295.266 358.807 301.855C336.428 307.318 315.273 316.062 296.473 327.933C294.359 329.27 294.652 332.607 295.657 334.469C296.672 336.334 299.308 338.404 301.589 337.367C320.724 328.686 341.262 323.371 362.574 319.519C388.238 314.894 415.295 312.761 442.528 312.507C471.696 312.174 501.032 313.29 528.612 314.547C556.178 315.802 581.959 317.221 603.907 317.327C606.439 317.34 608.575 315.472 608.71 312.95C608.836 310.428 606.901 308.351 604.37 308.104Z" fill="#535353"/>
<path d="M685.587 319.502C597.024 306.744 496.826 318.37 398.083 338.935C361.307 346.613 324.688 355.391 288.907 365.208C263.714 372.09 239.138 380.455 214.844 388.229C210.963 389.474 208.703 393.389 209.456 397.198C210.209 401.007 213.788 403.767 217.847 403.437C243.448 401.36 269.51 398.819 295.352 394.438C332.086 388.255 368.798 380.33 405.164 372.638C502.873 351.925 597.84 331.901 683.87 336.651C688.568 336.912 692.671 333.555 693.13 328.913C693.602 324.276 690.254 320.176 685.587 319.502Z" fill="#535353"/>
<path d="M640.387 375.857C607.146 368.493 563.173 367.047 519.066 372.315C500.537 374.464 482.071 378.432 464.629 383.806C454.062 387.038 444.05 391.445 434.613 396.073C434.444 396.155 434.392 396.37 434.444 396.531C434.497 396.693 434.666 396.828 434.854 396.799C445.189 395.02 455.861 393.693 466.543 391.89C484.214 388.942 502.419 386.493 520.508 384.205C563.54 378.924 606.509 378.155 638.816 383.773C640.962 384.146 642.972 382.644 643.378 380.561C643.787 378.475 642.51 376.326 640.387 375.857Z" fill="#535353"/>
<path d="M346.341 1.87276C323.816 13.9683 302.923 35.4842 283.41 62.5431C263.908 89.6186 245.808 122.317 229.341 157.048C196.363 226.491 170.05 304.151 152.139 360.604C147.881 374.013 144.073 386.217 140.735 396.8C147.515 397.968 154.305 399.137 161.095 400.305C161.953 371.2 168.983 338.187 180.46 303.784C191.917 269.378 207.778 233.575 226.087 198.75C262.663 129.085 309.2 63.3456 349.155 19.9236C344.604 17.9199 340.053 15.9165 335.513 13.9128C335.408 15.1005 335.293 16.2869 335.167 17.4713C331.746 50.1221 320.29 81.2539 304.471 111.893C288.673 142.526 268.543 172.596 248.131 203.019C227.729 233.45 207.035 264.232 190.212 296.495C173.409 328.753 160.446 362.555 155.832 398.925C155.571 400.992 156.093 403.002 157.181 404.62C158.259 406.247 159.923 407.472 161.796 408.013C163.669 408.568 165.73 408.439 167.519 407.65C169.308 406.874 170.835 405.461 171.735 403.553C231.475 278.01 283.724 146.856 340.242 20.2752C334.414 18.4075 328.576 16.5391 322.738 14.6714C302.734 112.058 256.888 212.883 217.393 312.271C205.016 343.429 193.748 374.683 185.21 405.924C184.896 407.049 184.593 408.178 184.3 409.304C188.904 410.628 193.507 411.948 198.1 413.268C201.532 395.017 203.792 376.472 206.052 357.93C206.24 356.323 203.781 355.706 203.195 357.217C196.468 374.643 189.73 392.066 184.164 409.782C183.714 411.232 183.903 413.176 184.74 414.793C185.556 416.417 187.021 417.702 188.747 418.299C190.452 418.913 192.398 418.834 194.062 418.088C195.725 417.352 197.095 415.959 197.964 413.747C198.382 412.677 198.801 411.608 199.219 410.532C210.739 380.763 222.843 350.305 235.147 319.322C274.37 220.479 320.53 118.756 340.859 18.3669C341.329 16.0116 340.879 13.6722 339.729 11.7639C338.588 9.8483 336.726 8.37738 334.602 7.70761C332.478 7.02463 330.114 7.15006 328.074 8.05519C326.034 8.94547 324.307 10.5923 323.345 12.7631C267.058 140.014 215.499 271.266 156.575 396.377C161.88 397.919 167.184 399.46 172.478 401.002C176.621 367.252 188.611 335.266 204.754 304.038C220.877 272.817 241.132 242.419 261.471 211.94C281.799 181.456 302.21 150.895 318.542 119.141C334.864 87.394 347.136 54.3844 350.84 19.1139C350.965 17.8364 351.091 16.5556 351.206 15.2722C351.499 11.9052 349.521 8.64609 346.529 7.38246C343.579 6.03268 339.844 6.77441 337.553 9.26139C296.53 53.9358 248.706 119.781 210.184 190.227C190.944 225.457 174.068 261.842 161.681 297.383C149.304 332.932 141.384 367.629 140.243 399.625C140.149 402.236 141.049 404.706 142.618 406.6C144.187 408.508 146.447 409.822 148.874 410.238C151.291 410.674 153.865 410.202 155.979 408.941C158.113 407.693 159.787 405.676 160.614 403.131C164.024 392.512 167.885 380.338 172.143 366.982C190.149 310.809 215.112 233.555 245.547 164.47C260.78 129.939 277.426 97.4704 295.295 70.8082C313.144 44.1325 332.238 23.3418 351.928 11.8979C354.303 10.521 354.041 6.86123 352.88 4.79183C351.729 2.72244 348.758 0.575467 346.341 1.87276Z" fill="#535353"/>
<path d="M390.831 86.1104C343.719 156.826 303.386 233.312 278.559 315.431C274.102 330.183 270.116 345.1 266.643 360.183C266.329 361.569 266.559 362.975 267.207 364.137C267.856 365.306 268.934 366.22 270.189 366.663C271.445 367.115 272.868 367.095 274.102 366.603C275.347 366.115 276.414 365.177 277.053 363.89C320.566 276.06 344.147 178.016 379.636 88.023C375.995 86.6105 372.365 85.198 368.734 83.7858C333.026 176.515 294.682 270.339 264.383 365.372C263.881 366.927 264.048 368.564 264.739 369.924C265.429 371.294 266.653 372.377 268.086 372.892C269.53 373.416 271.162 373.36 272.564 372.743C273.966 372.139 275.138 370.984 275.745 369.465C293.897 324.499 308.869 263.879 328.663 206.673C338.551 178.084 349.63 150.381 362.76 126.045C375.89 101.701 391.082 80.7651 409.014 65.5372C405.687 63.4847 402.35 61.4308 399.022 59.3779C385.955 113.257 355.845 161.749 325.567 210.76C295.341 259.78 264.948 309.324 252.487 365.867C252.152 367.402 252.414 368.944 253.125 370.224C253.837 371.508 255.008 372.525 256.379 373.037C257.749 373.558 259.308 373.572 260.69 373.073C262.07 372.581 263.274 371.591 264.038 370.211C292.129 319.231 315.533 266.751 341.114 215.82C366.694 164.883 394.429 115.508 431.058 70.5623C427.447 68.656 423.839 66.751 420.218 64.8447C403.951 119.947 377.826 173.612 351.618 227.232C340.413 250.164 329.657 273.343 320.21 296.817C315.857 307.674 312.416 318.867 309.224 330.025C308.775 331.613 311.191 332.61 311.987 331.164C317.574 321.04 323.401 310.998 328.663 300.646C340.015 278.242 351.639 255.663 362.854 232.718C389.052 179.085 415.521 124.85 432.21 68.385C433.046 65.5415 431.686 62.3722 429.134 61.0875C426.632 59.7067 423.242 60.3689 421.37 62.6664C383.863 108.704 355.698 158.945 329.95 210.217C304.213 261.496 280.871 313.82 253.115 364.197C256.965 365.646 260.815 367.095 264.665 368.541C276.456 314.731 305.897 266.273 336.133 217.282C366.328 168.285 397.306 118.766 411.021 62.2897C411.652 59.6865 410.467 56.8922 408.262 55.5771C406.083 54.195 403.059 54.396 401.019 56.1304C381.477 72.771 365.533 94.9835 351.931 120.207C338.341 145.438 327.094 173.721 317.102 202.677C297.14 260.559 282.158 321.254 264.54 364.943C268.327 366.309 272.114 367.673 275.902 369.039C305.908 274.591 344.033 180.915 379.647 87.9811C380.233 86.4682 380.149 84.8392 379.521 83.4656C378.893 82.0855 377.721 80.9704 376.309 80.4294C374.897 79.8781 373.275 79.9062 371.884 80.5079C370.492 81.0978 369.331 82.2466 368.745 83.7439C333.058 174.842 309.685 272.581 267.082 358.958C270.545 360.196 274.019 361.431 277.492 362.665C280.872 347.83 284.753 333.141 289.115 318.607C313.325 237.762 351.084 161.147 396.083 89.5098C397.923 86.5834 392.745 83.2342 390.831 86.1104Z" fill="#535353"/>
<path d="M457.444 176.435C457.151 161.006 456.86 145.577 456.566 130.147C456.543 129.459 455.969 128.831 455.279 128.763C454.589 128.666 453.886 129.141 453.688 129.87C451.994 136.367 445.485 151.712 436.803 170.86C428.108 190.029 417.238 213.095 406.721 235.36C396.208 257.625 386.07 279.089 378.726 295.026C375.043 302.998 372.071 309.58 370.063 314.224C369.058 316.555 368.295 318.384 367.793 319.75C367.531 320.447 367.343 320.995 367.175 321.635C367.091 321.985 366.997 322.295 366.966 323.091C366.987 323.517 366.924 324.085 367.416 325.24C367.667 325.804 368.138 326.56 368.985 327.174C369.812 327.798 370.942 328.118 371.8 328.108C373.066 328.122 374.101 327.755 374.886 327.349C375.692 326.937 376.299 326.461 376.853 325.963C377.951 324.966 378.841 323.844 379.782 322.513C382.251 318.958 384.94 313.818 388.058 307.213C391.155 300.628 394.629 292.629 398.383 283.641C405.916 265.67 414.621 243.741 423.735 221.498C432.859 199.258 442.389 176.702 451.532 157.569C456.104 148.004 460.574 139.296 464.819 131.944C469.057 124.596 473.094 118.594 476.623 114.543C473.451 112.869 470.292 111.196 467.123 109.522C457.098 146.946 438.394 181.913 418.912 217.188C399.462 252.466 379.249 288.038 366.694 326.88C365.857 329.462 366.987 332.393 369.258 333.694C371.486 335.074 374.604 334.677 376.477 332.713C403.658 304.295 422.114 268.172 440.131 231.957C458.105 195.719 475.64 159.357 500.13 130.179C496.74 128.233 493.363 126.287 489.972 124.341C479.122 154.543 462.822 182.191 445.558 209.748C428.297 237.308 410.082 264.759 395.675 294.676C392.191 301.915 388.927 309.299 385.966 316.865C385.39 318.341 385.432 319.929 385.997 321.298C386.562 322.672 387.65 323.817 388.989 324.441C390.329 325.075 391.909 325.18 393.321 324.728C394.733 324.286 395.989 323.305 396.752 321.919C433.591 254.968 469.727 181.54 519.236 124.387C515.866 122.746 512.499 121.105 509.128 119.464C500.496 164.457 476.069 205.953 450.529 247.544C430.786 279.722 411.095 312.452 398.112 346.696C396.825 350.096 402.737 352.516 404.203 349.189C418.641 316.426 439.639 285.347 459.716 253.232C485.609 211.752 511.168 169.361 520.553 121.683C521.055 119.114 519.685 116.425 517.394 115.35C515.146 114.199 512.185 114.768 510.445 116.759C459.392 175.377 422.992 249.568 386.3 316.162C389.889 317.849 393.488 319.532 397.076 321.216C399.911 313.964 403.051 306.853 406.421 299.852C420.344 270.909 438.289 243.808 455.665 216.079C473.022 188.348 489.824 159.97 501.176 128.367C502.15 125.664 500.968 122.519 498.542 121.19C496.165 119.765 492.848 120.33 491.009 122.529C465.228 153.323 447.452 190.55 429.521 226.695C411.62 262.861 393.562 297.911 368.023 324.636C371.287 326.58 374.551 328.524 377.815 330.469C389.805 293.121 409.507 258.101 428.934 222.696C448.33 187.288 467.446 151.483 477.782 112.357C478.432 109.869 477.217 107.165 475.009 106.057C472.857 104.871 469.935 105.401 468.272 107.335C464.037 112.274 459.768 118.767 455.342 126.496C450.925 134.22 446.386 143.173 441.771 152.932C432.565 172.446 423.088 195.194 414.056 217.562C405.038 239.926 396.472 261.907 389.115 279.792C385.443 288.731 382.063 296.65 379.113 303.044C376.173 309.425 373.599 314.34 371.779 316.981C371.13 317.955 370.565 318.602 370.345 318.796C370.314 318.823 370.293 318.839 370.283 318.849C370.272 318.859 370.283 318.856 370.272 318.859C370.293 318.852 370.335 318.816 370.45 318.76C370.659 318.658 371.151 318.443 371.904 318.45C372.741 318.44 373.861 318.753 374.667 319.367C375.503 319.971 375.964 320.711 376.204 321.256C376.675 322.371 376.602 322.88 376.622 323.223C376.602 323.86 376.539 323.929 376.539 323.962C376.539 323.956 376.55 323.946 376.56 323.9C376.571 323.857 376.591 323.791 376.613 323.711C376.665 323.55 376.738 323.325 376.832 323.058C377.219 321.978 377.92 320.216 378.862 317.951C380.745 313.409 383.601 306.81 387.117 298.799C394.137 282.773 403.74 261.055 413.535 238.443C423.339 215.835 433.327 192.333 441.24 172.762C449.159 153.172 454.985 137.606 456.523 130.547C455.573 130.454 454.609 130.361 453.658 130.268C454.642 145.669 455.635 161.069 456.629 176.47C456.649 176.923 457.454 176.889 457.444 176.435Z" fill="#535353"/>
<path d="M551.717 175.758C536.569 212.156 516.43 245.705 499.406 281.504C500.776 281.858 502.146 282.211 503.516 282.567C505.86 248.194 519.859 217.307 539.969 189.438C538.484 188.914 536.998 188.391 535.523 187.867C534.202 209.597 525.375 230.385 515.172 251.155C504.992 271.928 493.465 292.639 487.09 314.399C486.674 315.845 487.543 317.459 488.942 317.865C490.335 318.344 491.966 317.525 492.471 316.086C509.263 267.063 529.277 217.504 554.229 172.186C555.045 170.701 554.49 168.715 553.038 167.929C551.635 167.07 549.634 167.577 548.746 169.039C525.95 206.826 499.522 242.602 473.576 278.527C475.553 279.56 477.517 280.59 479.485 281.623C493.359 242.609 513.267 199.215 538.774 167.049C536.734 166.067 534.694 165.085 532.644 164.103C527.498 186.388 520.298 208.02 510.306 228.111C501.664 245.471 491.131 261.788 478.032 276.609C479.59 277.722 481.158 278.837 482.72 279.95C495.128 255.948 507.316 231.828 519.493 207.708C519.945 206.815 518.407 205.983 517.902 206.848C504.407 230.256 490.9 253.664 477.613 277.19C476.923 278.411 477.29 280.092 478.438 280.904C479.548 281.762 481.264 281.627 482.301 280.534C496.363 265.779 507.672 249.105 516.575 231.227C526.871 210.541 534.215 188.382 539.434 165.67C539.801 164.085 538.975 162.396 537.553 161.745C536.15 161.042 534.318 161.45 533.314 162.724C507.075 195.918 487.08 239.892 473.134 279.372C472.579 280.947 473.312 282.772 474.748 283.485C476.157 284.261 478.072 283.818 479.046 282.468C504.876 246.517 531.307 210.506 554.167 172.295C552.344 171.245 550.516 170.197 548.684 169.148C523.659 215.016 503.757 264.97 487.133 314.277C488.922 314.838 490.712 315.402 492.501 315.964C498.495 295.012 509.755 274.447 519.922 253.466C530.073 232.485 539.141 211.043 540.418 188.151C540.481 187.055 539.781 186.026 538.787 185.694C537.804 185.331 536.609 185.695 535.972 186.579C515.664 215.063 501.413 246.887 499.208 282.283C499.146 283.32 499.855 284.29 500.829 284.515C501.78 284.782 502.879 284.274 503.308 283.346C519.985 247.696 539.989 213.946 555.055 177.137C555.807 175.29 552.48 173.916 551.717 175.758Z" fill="#535353"/>
<path d="M348.569 50.4209C277.467 60.5652 198.142 78.4734 130.879 104.944C128.881 105.729 127.709 108.006 128.232 110.036C128.672 112.087 130.733 113.604 132.93 113.416C142.242 112.614 151.364 111.147 160.32 109.203C192.031 102.314 221.776 89.6338 251.563 79.3525C281.359 69.0461 311.104 61.1594 342.962 63.1598C342.177 59.7492 341.392 56.3396 340.597 52.9297C314.692 67.3867 286.423 76.3152 257.704 85.2428C229.006 94.1839 199.857 103.114 172.457 117.956C171.086 118.699 170.103 119.922 169.632 121.315C169.151 122.704 169.203 124.268 169.778 125.621C170.343 126.979 171.421 128.112 172.75 128.742C174.068 129.381 175.637 129.531 177.155 129.063C233.023 111.873 289.332 90.8598 345.944 81.1311C344.604 77.1596 343.255 73.1869 341.916 69.2155C313.761 83.865 283.002 94.139 251.814 104.011C228.974 111.245 205.968 118.529 183.735 127.381C185.127 130.912 186.518 134.443 187.91 137.974C228.922 120.185 277.352 106.878 322.225 101.985C323.135 101.885 323.816 101.099 323.753 100.185C323.68 99.2707 322.895 98.5957 321.974 98.6346C276.484 100.528 226.453 110.701 183.578 127.444C182.218 127.974 181.109 129.087 180.534 130.429C179.938 131.766 179.895 133.331 180.408 134.698C180.921 136.069 181.978 137.225 183.296 137.849C184.614 138.482 186.183 138.596 187.753 138.037C209.828 130.191 232.741 123.497 255.685 116.234C286.988 106.314 318.459 95.8265 347.795 80.5032C349.218 79.7615 350.243 78.5603 350.788 77.1762C351.332 75.794 351.363 74.2208 350.882 72.8155C350.411 71.4073 349.427 70.18 348.151 69.4142C346.885 68.6411 345.337 68.3146 343.768 68.5876C285.565 78.7362 228.891 100.19 173.566 117.489C175.135 121.191 176.694 124.893 178.264 128.595C204.179 114.365 232.5 105.427 261.188 96.3058C289.855 87.1709 318.888 77.8469 345.965 62.4652C348.099 61.2548 349.176 58.7061 348.611 56.4442C348.109 54.1642 346.006 52.3658 343.6 52.2351C309.451 50.379 278.325 59.092 248.215 69.8077C218.083 80.5504 188.851 93.3177 158.333 100.269C149.712 102.235 140.996 103.751 132.114 104.646C132.794 107.47 133.484 110.294 134.164 113.117C200.15 86.043 278.493 65.8362 349.072 53.5743C349.919 53.4258 350.484 52.6012 350.348 51.7558C350.212 50.9104 349.427 50.2984 348.569 50.4209Z" fill="#535353"/>
<path d="M455.693 99.3403C367.433 129.528 274.213 148.918 185.45 180.179C162.339 188.322 139.52 197.218 117.183 207.251C114.882 208.282 113.532 210.866 113.982 213.265C114.348 215.678 116.472 217.676 119.025 217.898C177.352 222.995 244.144 204.002 309.586 179.268C374.997 154.507 439.122 123.851 491.235 105.123C492.855 104.541 494.133 103.373 494.876 101.934C495.628 100.501 495.826 98.788 495.417 97.2207C495.031 95.6504 494.037 94.2409 492.687 93.3401C491.347 92.431 489.673 92.0167 487.947 92.2824C411.083 104.137 331.693 130.7 255.067 160.957C203.32 181.392 152.839 203.539 105.319 224.046C103.593 224.793 102.275 226.156 101.573 227.777C100.862 229.395 100.768 231.276 101.333 232.953C101.887 234.633 103.08 236.089 104.618 236.957C106.146 237.835 108.019 238.146 109.87 237.707C174.067 222.454 237.825 192.942 301.875 168.344C365.936 143.698 430.133 124.05 494.833 127.465C493.651 122.806 492.456 118.146 491.264 113.486C402.471 168.097 282.949 199.388 175.877 225.345C159.723 229.266 143.852 233.102 128.42 236.898C130.011 241.658 131.6 246.415 133.18 251.171C186.36 228.097 244.605 201.336 304.376 179.085C364.137 156.83 425.479 139.139 484.454 134.179C496.444 133.168 508.34 132.684 520.089 132.784C519.022 129.373 517.953 125.964 516.887 122.553C472.485 153.554 415.11 173.783 354.846 190.254C294.573 206.748 231.401 219.592 175.135 236.399C162.737 240.097 150.684 243.982 139.05 248.125C137.146 248.805 135.66 250.171 134.812 251.855C133.944 253.528 133.746 255.529 134.258 257.341C134.75 259.157 135.953 260.767 137.554 261.761C139.144 262.768 141.121 263.174 143.088 262.778C209.493 249.419 275.604 225.524 341.632 204.152C407.65 182.766 473.561 163.887 539.664 160.22C539.852 160.209 540.04 160.199 540.228 160.188C539.495 157.297 538.762 154.404 538.02 151.512C478.04 181.729 415.173 206.132 355.39 238.066C355.286 238.126 355.286 238.288 355.327 238.383C355.38 238.482 355.505 238.575 355.621 238.525C416.929 209.806 480.708 188.872 542.05 159.727C543.942 158.824 545.011 156.553 544.476 154.543C544.027 152.515 542.05 150.98 539.842 151.05C539.644 151.057 539.456 151.063 539.254 151.069C471.669 153.292 404.313 171.148 337.667 191.571C271.011 212.009 205.046 235 140.106 247.834C141.456 252.716 142.806 257.602 144.145 262.487C155.486 258.483 167.309 254.7 179.508 251.059C234.895 234.541 297.9 220.826 358.508 203.229C419.118 185.609 477.308 164.214 523.353 131.764C525.36 130.343 526.228 127.701 525.486 125.467C524.806 123.211 522.587 121.541 520.151 121.533C508.037 121.494 495.816 122.032 483.514 123.072C423.072 128.194 360.684 145.432 299.992 167.023C239.31 188.618 180.366 214.619 127.217 237.301C125.418 238.07 124.036 239.492 123.294 241.189C122.54 242.879 122.446 244.85 123.032 246.606C123.608 248.366 124.863 249.891 126.474 250.798C128.075 251.719 130.031 252.04 131.988 251.571C147.409 247.874 163.291 244.101 179.476 240.176C286.778 214.097 407.492 182.74 499.183 126.356C502.009 124.622 503.379 121.12 502.544 118.051C501.811 114.958 498.923 112.545 495.618 112.376C427.278 108.895 361.144 129.559 296.539 154.483C231.934 179.455 168.7 208.769 106.512 223.648C108.029 228.203 109.546 232.755 111.063 237.307C158.583 216.665 208.865 194.451 260.235 173.989C336.296 143.683 414.764 117.279 490 105.441C488.901 101.16 487.801 96.8797 486.702 92.5993C433.659 111.882 369.786 142.728 305.129 167.582C240.503 192.465 175.135 211.204 119.956 206.771C120.574 210.32 121.18 213.868 121.797 217.417C143.716 207.34 166.168 198.332 188.976 190.021C276.514 158.124 369.305 135.716 456.874 102.642C457.723 102.322 458.017 101.27 457.723 100.471C457.439 99.674 456.551 99.0475 455.693 99.3403Z" fill="#535353"/>
<path d="M586.237 217.348C602.639 217.174 619.055 217.001 635.471 216.824C635.418 215.191 635.365 213.556 635.316 211.923C529.865 215.336 387.336 246.502 275.19 296.403C242.15 311.086 211.704 327.274 185.538 344.75C183.592 346.047 182.829 348.665 183.749 350.718C184.586 352.808 187.003 354.082 189.284 353.583C325.577 323.95 468.295 263.301 590.785 197.824C592.67 196.818 593.674 194.609 593.235 192.608C592.849 190.595 591.059 188.962 588.934 188.779C523.273 183.114 445.914 198.67 370.408 222.221C294.922 245.789 221.309 277.426 163.546 304.24C162.406 304.768 161.569 305.696 161.15 306.785C160.721 307.868 160.721 309.116 161.15 310.202C161.569 311.288 162.416 312.202 163.463 312.71C164.519 313.222 165.764 313.338 166.946 312.958C228.047 293.34 289.638 265.252 352.109 242.548C414.578 219.827 477.855 202.521 542.221 204.105C541.353 201.361 540.472 198.618 539.603 195.874C495.423 228.786 439.26 247.453 381.33 264.172C323.401 280.918 263.765 295.717 212.646 321.616C214.184 324.181 215.712 326.743 217.239 329.304C252.058 305.052 303.124 280.763 358.345 261.182C413.565 241.587 473.002 226.657 524.614 220.858C547.483 218.296 568.827 217.588 587.491 219.035C586.488 216.419 585.494 213.802 584.487 211.185C548.486 248.146 498.915 271.27 444.304 288.336C389.7 305.415 330.117 316.464 274.248 329.737C237.766 338.409 202.864 348.021 171.958 360.743C170.41 361.38 169.259 362.536 168.631 363.922C167.983 365.302 167.878 366.923 168.338 368.375C168.777 369.834 169.782 371.108 171.09 371.887C172.397 372.673 173.998 372.977 175.547 372.647C277.764 350.91 373.118 312.875 471.609 284.437C521.431 270.045 571.953 257.897 624.254 251.011C623.545 248.153 622.822 245.294 622.102 242.432C511.212 283.457 387.891 304.006 278.706 356.049C261.955 364.041 245.634 372.95 229.846 382.873C227.837 384.137 226.959 386.603 227.66 388.68C228.288 390.779 230.432 392.284 232.609 392.169C274.385 389.914 316.035 378.205 355.363 366.741C355.991 366.556 356.315 365.87 356.169 365.259C356.012 364.652 355.395 364.203 354.756 364.341C314.696 372.967 272.627 381.516 232.252 382.157C233.184 385.256 234.105 388.353 235.025 391.452C250.855 382.305 267.029 373.937 283.497 366.084C390.684 314.889 513.502 292.894 625.218 250.77C627.331 249.972 628.555 247.595 627.971 245.505C627.489 243.389 625.281 241.884 623.063 242.191C570.207 249.526 519.362 262.027 469.309 276.482C370.418 305.049 274.217 340.419 173.046 360.416C174.239 364.384 175.442 368.352 176.635 372.32C206.704 360.423 241.093 351.302 277.324 342.72C332.806 329.575 392.609 317.672 447.872 299.424C503.124 281.163 553.897 256.587 591.165 217.629C592.439 216.303 592.796 214.341 592.159 212.73C591.541 211.105 589.95 209.902 588.161 209.78C568.722 208.462 546.899 209.358 523.62 211.992C471.088 217.914 411.148 232.985 355.353 252.761C299.567 272.55 247.977 297.001 212.112 321.937C210.198 323.27 209.622 326.013 210.826 327.921C211.934 329.889 214.623 330.678 216.705 329.625C266.538 304.359 325.692 289.617 383.842 272.864C441.98 256.078 499.166 237.289 545.057 203.205C546.625 202.04 547.285 199.937 546.687 198.159C546.143 196.365 544.397 195.021 542.452 194.973C476.267 193.324 411.881 211.022 348.949 233.849C286.018 256.696 224.469 284.698 164.08 304.029C165.22 306.934 166.35 309.842 167.49 312.747C225.054 286.065 298.364 254.626 373.243 231.301C448.113 207.96 524.591 192.806 588.098 198.374C587.481 195.359 586.864 192.345 586.247 189.33C464.298 254.454 322.197 314.724 187.212 344.037C188.457 346.981 189.713 349.929 190.958 352.874C216.538 335.798 246.523 319.841 279.166 305.339C389.962 256.197 530.942 222.439 635.524 216.823C636.874 216.749 637.963 215.549 637.868 214.268C637.848 212.983 636.663 211.88 635.365 211.921C618.963 212.445 602.557 212.971 586.151 213.499C585.085 213.532 584.249 214.402 584.269 215.464C584.289 216.526 585.167 217.358 586.237 217.348Z" fill="#535353"/>
<path d="M552.748 345.488C466.737 361.735 371.531 397.135 296.328 442.613C294.622 443.643 293.932 445.904 294.758 447.647C295.501 449.423 297.646 450.417 299.561 449.832C394.507 420.82 476.281 362.016 568.369 331.161C570.504 330.445 571.769 328.042 571.151 325.949C570.63 323.826 568.306 322.4 566.101 322.873C481.615 340.846 397.793 362.973 314.553 385.522C315.903 388.173 317.242 390.82 318.592 393.468C340.699 375.824 369.585 355.651 399.843 338.483C430.09 321.308 461.759 307.156 489.148 301.433C489.966 301.261 491.274 300.98 492.832 300.743C494.38 300.505 496.149 300.32 497.697 300.333C499.236 300.33 500.543 300.597 500.972 300.825C501.088 300.878 501.14 300.918 501.16 300.931C501.17 300.937 501.15 300.924 501.16 300.931C501.16 300.924 501.137 300.911 501.127 300.891C501.088 300.852 501.045 300.786 501.025 300.736C501.015 300.71 501.002 300.69 501.002 300.677C501.002 300.69 501.002 300.667 501.002 300.683C501.233 302.212 501.064 303.766 500.355 305.621C499.632 307.46 498.344 309.546 496.453 311.758C492.663 316.191 486.491 321.044 478.654 325.86C462.994 335.532 440.782 345.154 417.493 353.697C394.192 362.247 369.774 369.753 349.477 375.398C339.328 378.224 330.215 380.581 322.798 382.37C315.38 384.159 309.625 385.384 306.372 385.922C307.46 388.906 308.538 391.893 309.626 394.877C343.137 375.223 386.314 353.46 430.79 336.275C475.244 319.08 521.059 306.5 559.519 305.011C558.063 302.515 556.6 300.02 555.135 297.521C545.644 313.085 525.673 330.94 501.464 347.277C474 365.792 441.379 382.904 412.357 394.841C393.691 402.608 376.553 408.524 362.638 410.531C362.544 410.547 362.47 410.626 362.481 410.722C362.492 410.818 362.565 410.887 362.669 410.887C376.762 410.89 395.103 407.645 414.73 401.294C445.185 391.296 478.855 374.513 506.977 355.437C531.846 338.589 552.613 320.374 563.526 302.667C564.487 301.109 564.477 299.112 563.579 297.61C562.711 296.085 560.974 295.101 559.142 295.174C518.883 296.781 472.336 309.708 427.254 327.144C382.192 344.593 338.648 366.584 304.718 386.522C302.71 387.701 301.81 390.262 302.616 392.352C303.338 394.474 305.671 395.861 307.962 395.481C311.665 394.861 317.514 393.603 325.068 391.774C332.611 389.945 341.829 387.552 352.071 384.694C372.557 378.97 397.175 371.374 420.797 362.679C444.423 353.971 467.011 344.204 483.645 333.934C491.964 328.778 498.817 323.52 503.629 317.905C506.036 315.092 507.94 312.167 509.152 309.038C510.367 305.922 510.859 302.552 510.324 299.211C510.073 297.603 509.373 296.032 508.356 294.837C507.343 293.632 506.108 292.807 504.894 292.256C502.457 291.166 500.061 290.949 497.76 290.916C495.469 290.902 493.271 291.153 491.399 291.44C489.547 291.724 488.009 292.061 487.213 292.229C458.274 298.353 426.02 312.933 395.27 330.435C364.532 347.94 335.363 368.387 312.911 386.361C311.226 387.704 310.724 390.15 311.697 391.976C312.597 393.837 314.878 394.867 316.949 394.303C400.103 371.622 483.731 349.376 567.9 331.29C567.134 328.527 566.381 325.764 565.619 323.001C471.989 354.724 390.468 413.61 297.228 442.21C298.305 444.617 299.383 447.02 300.46 449.426C374.576 404.354 469.081 368.948 554.121 352.697C556.076 352.324 557.28 350.35 556.914 348.432C556.548 346.511 554.706 345.115 552.748 345.488Z" fill="#535353"/>
</g>
<path d="M51.488 130H41.696V65.68H51.488V93.424H85.568V65.68H95.36V130H85.568V102.448H51.488V130ZM132.487 131.152C118.855 131.152 108.871 120.016 108.871 106.384C108.871 92.944 119.623 81.808 133.927 81.808C148.135 81.808 158.983 92.368 158.983 106.384V130H149.959V121.744C146.407 127.504 140.167 131.152 132.487 131.152ZM133.927 122.128C142.759 122.128 149.479 115.024 149.479 106.48C149.479 97.84 142.759 90.736 133.927 90.736C125.191 90.736 118.375 97.84 118.375 106.48C118.375 115.024 125.191 122.128 133.927 122.128ZM194.197 131.056C180.661 131.248 169.621 120.016 169.621 106.384C169.621 92.848 180.661 81.712 194.197 81.808C202.837 81.808 210.805 85.744 215.125 94.192L207.253 98.608C204.469 93.52 199.765 90.832 194.197 90.832C185.941 90.832 179.125 97.84 179.125 106.384C179.125 115.024 185.941 122.128 194.197 122.128C199.765 122.128 204.469 119.44 207.253 114.352L215.125 118.672C210.805 127.216 202.837 131.056 194.197 131.056ZM236.24 130H226.736V61.264H236.24V102.544H242C242.48 101.392 243.248 100.336 244.208 99.376L259.28 82.96H270.896L250.64 105.04C250.064 105.52 249.776 105.904 249.776 106.384C249.776 106.864 250.064 107.248 250.64 107.728L270.8 130H259.088L244.112 113.584C243.152 112.432 242.384 111.28 241.904 110.032H236.24V130ZM297.862 131.152C284.23 131.152 274.246 120.016 274.246 106.384C274.246 92.944 284.998 81.808 299.302 81.808C313.51 81.808 324.358 92.368 324.358 106.384V130H315.334V121.744C311.782 127.504 305.542 131.152 297.862 131.152ZM299.302 122.128C308.134 122.128 314.854 115.024 314.854 106.48C314.854 97.84 308.134 90.736 299.302 90.736C290.566 90.736 283.75 97.84 283.75 106.48C283.75 115.024 290.566 122.128 299.302 122.128ZM359.38 131.248C347.668 131.248 341.428 123.856 341.428 113.104V91.216H332.116V82.96H341.428V70.768H350.932V82.96H368.98V91.216H350.932V112.816C350.932 118.96 354.58 122.608 360.244 122.608C363.316 122.608 366.676 121.456 368.98 119.824V128.56C366.58 130.192 362.836 131.248 359.38 131.248ZM392.615 130H383.111V61.36H392.615V88.24C396.263 84.304 401.927 81.808 408.263 81.808C422.087 81.808 429.863 91.024 429.863 105.424V130H420.359V106.384C420.359 98.032 415.751 90.832 406.823 90.832C398.471 90.832 392.615 97.552 392.615 106.672V130ZM465.617 131.152C451.409 131.152 440.465 120.016 440.465 106.384C440.465 92.848 451.505 81.808 465.617 81.808C479.825 81.808 490.577 92.944 490.577 106.384C490.577 120.016 479.729 131.152 465.617 131.152ZM465.617 122.128C474.353 122.128 481.073 115.024 481.073 106.48C481.073 97.84 474.353 90.736 465.617 90.736C456.785 90.736 449.969 97.84 449.969 106.48C449.969 115.024 456.785 122.128 465.617 122.128ZM524.519 90.928C515.303 90.928 510.695 98.512 510.695 107.248V130H501.191V106.288C501.191 92.56 509.351 81.808 524.519 81.808C539.879 81.808 548.231 92.56 548.231 106.192V130H538.727V107.344C538.727 98.512 533.927 90.928 524.519 90.928Z" fill="black"/>
<path d="M628.227 90.209C627.73 89.7035 627.233 89.198 626.736 88.6925C626.64 88.5922 626.456 88.5657 626.325 88.632C626.191 88.6944 626.129 88.8383 626.191 88.9633C628.338 93.3175 630.486 97.6718 632.637 102.024C632.729 102.208 632.994 102.312 633.219 102.252C633.449 102.198 633.601 101.992 633.55 101.792C632.117 95.9623 629.196 90.3547 626.477 84.9289C626.348 84.6734 625.973 84.537 625.662 84.6317C625.349 84.7169 625.161 85.016 625.257 85.2886C628.287 93.8306 631.445 102.261 634.155 110.842C634.402 111.621 634.648 112.4 634.889 113.181C634.984 113.48 635.342 113.682 635.697 113.648C636.053 113.625 636.357 113.368 636.375 113.067C636.658 108.741 635.706 104.989 634.075 101.462C632.442 97.9292 630.132 94.6087 627.629 91.04C627.595 90.9889 627.486 91.0363 627.516 91.0874C629.725 94.7885 631.749 98.2208 633.118 101.737C634.487 105.258 635.202 108.853 634.869 112.993C635.363 112.955 635.86 112.918 636.355 112.879C636.122 112.092 635.883 111.308 635.635 110.524C632.911 101.905 629.663 93.4822 626.5 84.9838C626.092 85.1031 625.688 85.2224 625.28 85.3436C628.092 90.7485 631.082 96.2557 632.61 101.954C632.916 101.876 633.219 101.799 633.523 101.72C631.28 97.3991 629.032 93.079 626.785 88.7588C626.603 88.8478 626.421 88.9387 626.24 89.0295C626.748 89.5274 627.256 90.0253 627.765 90.5232C627.979 90.7315 628.436 90.421 628.227 90.209Z" fill="black"/>
<path d="M637.39 83.4329C639.044 93.4855 644.123 102.273 647.958 111.738C648.024 111.899 648.243 111.995 648.434 111.948C648.63 111.91 648.76 111.738 648.72 111.569C646.304 101.732 640.235 92.2304 636.028 82.9199C635.759 83.0051 635.489 83.0902 635.22 83.1754C640.815 94.7615 644.261 107.796 652.6 118.468C652.711 118.61 652.927 118.676 653.116 118.63C653.306 118.591 653.454 118.443 653.461 118.275C653.806 111.552 650.566 104.6 646.327 97.9382C642.085 91.2781 636.831 84.9001 633.083 79.3607C632.973 79.196 632.722 79.1146 632.51 79.1733C632.296 79.2244 632.147 79.408 632.17 79.5973C632.508 82.4371 633.217 85.4775 634.277 88.5463C637.732 98.5933 645.257 108.847 655.536 113.029C645.485 108.5 638.657 98.2185 635.22 88.3267C634.176 85.3014 633.477 82.3045 633.143 79.5178C632.839 79.5955 632.533 79.675 632.23 79.7526C636.009 85.3374 641.259 91.7003 645.473 98.3074C649.69 104.913 652.855 111.751 652.524 118.242C652.812 118.178 653.099 118.114 653.387 118.049C645.149 107.552 641.67 94.5666 636.023 82.9123C635.936 82.7324 635.676 82.6397 635.466 82.7116C635.252 82.7741 635.135 82.988 635.218 83.1679C639.478 92.5295 645.54 101.992 647.946 111.7C648.199 111.643 648.452 111.588 648.708 111.531C644.822 102.026 639.752 93.2868 638.094 83.3534C638.038 83.0334 637.337 83.1111 637.39 83.4329Z" fill="black"/>
<path d="M638.876 74.5144C637.061 72.2956 635.244 70.0749 633.426 67.8561C633.309 67.7141 633.065 67.6649 632.888 67.7463C632.704 67.8201 632.614 68.0132 632.69 68.178C635.895 75.0066 638.223 83.8249 641.443 92.2778C644.765 100.996 649.269 109.282 656.364 114.441C656.387 114.458 656.424 114.424 656.401 114.407C649.644 108.972 645.782 100.685 642.481 92.0109C639.281 83.6052 636.824 74.7964 633.47 67.9242C633.226 68.0322 632.98 68.1382 632.736 68.2461C634.59 70.4441 636.444 72.6401 638.301 74.8381C638.519 75.0994 639.092 74.7775 638.876 74.5144Z" fill="black"/>
<path d="M688.258 125.871C683.095 121.735 678.851 116.43 675.081 110.631C667.913 99.6433 663.004 86.5505 659.652 75.6573C659.481 75.6952 659.314 75.733 659.146 75.7709C662.658 85.1875 670.535 94.2689 676.463 103.592C680.117 109.331 683.064 115.133 683.848 121.091C683.935 121.756 684.044 122.882 683.834 123.88C683.627 124.881 683.107 125.735 681.962 125.904C680.508 126.123 678.821 124.873 677.112 122.784C675.403 120.7 673.661 117.791 672.047 114.734C668.814 108.617 666.084 101.912 665.037 99.9671C662.679 95.5828 660.758 91.5617 659.081 86.9557C658.242 84.6536 657.464 82.2038 656.721 79.4909C656.351 78.1354 655.99 76.7118 655.633 75.2086C655.456 74.4571 655.279 73.6846 655.104 72.8895C655.017 72.4939 654.929 72.0906 654.844 71.6817C654.8 71.4772 654.756 71.2728 654.713 71.0645C654.692 70.9623 654.669 70.8582 654.648 70.7541C654.637 70.7011 654.625 70.6499 654.616 70.5969C654.609 70.5704 654.604 70.5439 654.6 70.5193C654.68 70.4795 654.374 70.4966 654.839 70.4038C654.508 70.3565 654.177 70.311 653.843 70.2656C652.734 71.9145 652.207 73.9819 652.12 76.354C652.033 78.728 652.389 81.4106 653.087 84.2977C654.48 90.0718 657.239 96.6713 660.584 103.214C667.273 116.296 676.307 129.149 681.403 134.648C681.423 134.671 681.471 134.641 681.453 134.618C676.482 129.056 667.752 116.076 661.294 102.972C658.069 96.4196 655.41 89.8352 654.08 84.1387C653.415 81.2895 653.084 78.6636 653.178 76.3824C653.268 74.0992 653.786 72.1663 654.779 70.6916C654.448 70.6462 654.117 70.6007 653.785 70.5534C654.262 70.5136 653.967 70.5817 654.059 70.5969C654.064 70.6215 654.071 70.648 654.076 70.6745C654.087 70.7275 654.098 70.7787 654.11 70.8316C654.133 70.9358 654.156 71.0399 654.179 71.144C654.225 71.3504 654.271 71.5568 654.317 71.7612C654.409 72.1682 654.501 72.5715 654.593 72.969C654.777 73.7642 654.961 74.5366 655.148 75.2882C655.52 76.7932 655.897 78.2169 656.281 79.5743C657.055 82.2891 657.857 84.7407 658.72 87.0466C660.443 91.6564 662.403 95.6793 664.795 100.058C665.842 101.972 668.624 108.68 671.885 114.791C673.519 117.846 675.274 120.756 676.999 122.848C678.727 124.936 680.42 126.223 681.985 126C683.204 125.818 683.738 124.908 683.945 123.895C684.154 122.882 684.041 121.75 683.952 121.082C683.153 115.107 680.195 109.303 676.539 103.561C670.602 94.2462 662.911 85.0246 659.647 75.6479C659.61 75.5381 659.461 75.468 659.329 75.5002C659.198 75.5248 659.109 75.6459 659.141 75.7595C662.258 86.7115 666.852 99.95 674.115 111.059C677.954 116.913 682.69 122.081 688.156 125.962C688.219 126.006 688.316 125.919 688.258 125.871Z" fill="black"/>
<path d="M642.002 70.539C640.139 75.6353 641.144 82.8293 643.955 90.118C645.363 93.7604 647.229 97.4218 649.435 100.847C650.539 102.558 651.726 104.209 652.984 105.769C654.245 107.327 655.568 108.8 656.967 110.134C661.717 114.659 667.277 117.59 672.591 117.737C667.305 117.239 662.322 114.059 657.769 109.572C656.428 108.249 655.115 106.816 653.879 105.281C652.642 103.747 651.471 102.119 650.385 100.432C648.209 97.0564 646.366 93.4405 644.977 89.8492C642.193 82.6722 641.252 75.5842 643.021 70.7927C643.106 70.5617 642.947 70.3175 642.665 70.2474C642.384 70.1774 642.085 70.308 642.002 70.539Z" fill="black"/>
<path d="M689.006 111.636C683.381 111.84 678.46 110.554 674.15 108.239C669.838 105.92 666.128 102.564 662.928 98.5746C658.426 92.9879 655.017 86.1044 652.673 79.1092C650.326 72.114 649.038 65.007 648.757 58.9736C648.476 58.9963 648.196 59.0171 647.915 59.0398C649.831 69.0092 651.966 79.0788 656.266 88.1982C660.563 97.3175 667.029 105.481 677.568 111.636C667.131 105.361 660.846 97.1717 656.703 88.0619C652.56 78.9501 650.565 68.9088 648.752 58.9338C648.72 58.7539 648.509 58.6196 648.297 58.6385C648.081 58.6498 647.904 58.8145 647.91 58.9981C648.134 65.0941 649.387 72.2597 651.732 79.3212C654.078 86.3846 657.508 93.3457 662.102 99.0272C665.385 103.071 669.305 106.437 673.811 108.682C678.318 110.927 683.402 112.044 689.006 111.636Z" fill="black"/>
<path d="M663.795 75.6222C660.249 70.6319 656.702 65.6415 653.157 60.6511C653.107 60.583 652.996 60.5546 652.913 60.5887C652.828 60.6208 652.782 60.7079 652.817 60.7818C661.28 79.9821 670.622 99.226 685.193 115.819C670.726 99.1653 661.515 79.9045 653.171 60.6776C653.058 60.7212 652.944 60.7647 652.83 60.8082C656.346 65.8119 659.861 70.8174 663.376 75.8229C663.443 75.9175 663.592 75.9497 663.707 75.8948C663.822 75.8399 663.861 75.7169 663.795 75.6222Z" fill="black"/>
<path d="M650.933 61.9169C655.674 70.1218 664.966 82.9498 670.746 95.6718C676.527 108.394 678.798 120.972 669.495 128.702C669.472 128.721 669.513 128.755 669.539 128.736C678.966 121.044 676.813 108.347 671.145 95.5506C665.476 82.7529 656.292 69.8208 651.666 61.6329C651.572 61.4663 651.328 61.3943 651.126 61.4738C650.923 61.5515 650.836 61.7502 650.933 61.9169Z" fill="black"/>
<path d="M621.096 81.6588C621.252 78.8702 621.409 76.0816 621.563 73.2929C621.388 73.3687 621.211 73.4463 621.034 73.524C622.996 74.5387 625.269 76.517 627.602 79.1447C629.934 81.7743 632.336 85.0532 634.593 88.6749C636.852 92.2965 638.968 96.2627 640.739 100.263C641.625 102.264 642.426 104.274 643.114 106.255C643.804 108.237 644.37 110.189 644.825 112.071C646.677 119.759 646.447 126.303 641.977 129.416C646.679 126.519 647.487 119.738 645.743 111.927C645.317 110.012 644.726 108.04 644.032 106.039C643.334 104.038 642.522 102.012 641.623 99.998C639.822 95.9673 637.666 91.986 635.363 88.3474C633.061 84.7106 630.613 81.4184 628.223 78.768C625.83 76.1195 623.505 74.1127 621.402 73.0393C621.294 72.9844 621.16 72.9825 621.055 73.0298C620.949 73.0753 620.875 73.168 620.87 73.2683C620.744 76.0589 620.617 78.8494 620.491 81.638C620.479 81.9144 621.082 81.9334 621.096 81.6588Z" fill="black"/>
<path d="M622.256 76.7635C623.337 76.3546 624.418 75.9475 625.5 75.5386C625.309 75.4856 625.12 75.4326 624.931 75.3815C628.007 80.0103 635.417 91.905 639.04 102.31C640.852 107.51 641.713 112.34 640.632 115.692C639.546 119.038 636.569 120.942 630.544 120.323C630.526 120.321 630.51 120.33 630.508 120.346C630.505 120.361 630.517 120.374 630.535 120.376C636.553 121.073 639.705 119.157 640.852 115.742C642.003 112.332 641.198 107.461 639.456 102.213C635.973 91.7175 628.727 79.7263 625.704 75.037C625.601 74.876 625.345 74.8041 625.136 74.8798C624.05 75.2774 622.962 75.6749 621.876 76.0706C621.642 76.1558 621.54 76.383 621.644 76.5742C621.75 76.7654 622.024 76.8506 622.256 76.7635Z" fill="black"/>
<path d="M627.731 71.1632C629.487 70.5782 631.069 70.5858 632.578 71.0515C634.085 71.5191 635.518 72.4676 636.857 73.7928C639.542 76.4451 641.833 80.5836 643.738 85.1555C647.556 94.3051 649.868 105.187 651.157 109.57C651.196 109.698 651.479 109.643 651.442 109.515C650.207 105.136 648.026 94.2294 644.297 85.0003C642.429 80.3847 640.181 76.1858 637.43 73.4066C636.052 72.017 634.541 70.9777 632.864 70.44C631.189 69.9004 629.346 69.8853 627.416 70.5176C627.2 70.5876 627.094 70.7921 627.182 70.9701C627.269 71.1481 627.515 71.2351 627.731 71.1632Z" fill="black"/>
<path d="M608.681 122.75C607.137 113.337 608.197 103.708 608.683 94.2012C607.919 103.695 606.566 113.288 607.839 122.833C607.864 123.024 608.078 123.161 608.31 123.138C608.543 123.113 608.71 122.939 608.681 122.75Z" fill="black"/>
<path d="M592.444 71.5912C592.78 73.3859 593.226 77.6229 593.852 82.9331C594.48 88.2453 595.292 94.6423 596.368 100.801C597.447 106.961 598.788 112.879 600.488 117.25C601.34 119.439 602.278 121.239 603.343 122.508C603.877 123.142 604.445 123.645 605.069 123.99C605.69 124.332 606.38 124.515 607.098 124.476C607.845 124.44 608.531 124.196 609.12 123.795C609.711 123.395 610.217 122.843 610.661 122.165C611.549 120.81 612.198 118.947 612.681 116.718C613.647 112.262 613.941 106.337 613.907 100.216C613.87 94.0933 613.502 87.7796 613.134 82.5639C612.766 77.3521 612.398 73.2288 612.359 71.5306C612.071 71.5439 611.786 71.5572 611.501 71.5685C611.692 73.3367 611.883 77.8878 612.31 83.609C612.736 89.332 613.401 96.2364 614.542 102.747C615.683 109.261 617.296 115.378 619.656 119.564C620.841 121.658 622.209 123.278 623.863 124.219C625.513 125.166 627.493 125.368 629.601 124.62C632.902 123.464 635.527 121.519 637.514 119.079C639.504 116.637 640.863 113.699 641.662 110.524C643.256 104.174 642.612 96.8743 640.158 90.6667C637.843 84.8225 633.967 79.9098 628.655 77.7005C626 76.5986 622.98 76.1973 619.704 76.733C616.428 77.2688 612.909 78.7265 609.186 81.2936C600.134 87.5354 593.93 95.108 588.742 103.173C584.201 110.231 580.396 117.65 576.012 124.922C576.534 125.084 577.054 125.247 577.574 125.41C579.805 118.394 582.616 109.248 586.884 100.833C591.146 92.4178 596.877 84.7563 604.852 80.6954C607.712 79.2377 611.202 78.5637 615.108 78.5542C619.012 78.5429 623.323 79.1979 627.793 80.3812C639.762 83.539 652.819 90.5058 662.403 98.2923C667.197 102.184 671.126 106.279 673.636 110.175C676.155 114.076 677.223 117.758 676.457 120.813C676.012 122.567 674.998 123.822 673.447 124.768C671.897 125.711 669.766 126.328 667.144 126.625C661.899 127.229 654.754 126.542 646.753 125.043C639.909 123.763 632.428 121.902 624.91 119.791C617.392 117.678 609.838 115.306 602.86 112.97C588.903 108.303 577.265 103.744 572.77 101.837C572.745 102.101 572.722 102.364 572.699 102.63C576.446 101.546 580.242 101.242 584.075 101.532C595.699 102.408 607.645 108.786 619.255 115.426C625.064 118.744 630.797 122.123 636.408 124.903C642.019 127.68 647.508 129.865 652.868 130.766C653.212 130.822 653.576 130.678 653.735 130.428C653.902 130.184 653.847 129.853 653.594 129.643C640.836 119.056 628.848 108.69 621.248 96.2685C617.139 89.5573 614.28 82.2478 613.24 73.9084C612.826 74.1564 612.414 74.4044 612 74.6524C616.985 76.3828 621.197 79.6674 624.963 83.8873C628.726 88.1033 632.035 93.2376 635.235 98.5782C638.437 103.921 641.533 109.469 644.91 114.528C648.29 119.588 651.945 124.16 656.309 127.553C656.803 127.935 657.307 128.305 657.82 128.657C657.944 128.742 658.115 128.765 658.26 128.721C658.404 128.679 658.522 128.574 658.552 128.443C660.618 119.903 660.3 104.345 656.598 89.934C654.742 82.7306 652.037 75.8187 648.312 70.2168C644.586 64.6206 639.829 60.3023 633.801 58.4054C633.597 58.341 633.369 58.3562 633.185 58.4376C632.998 58.5171 632.854 58.6628 632.801 58.8446C631.462 63.4449 629.614 71.4738 628.565 80.3944C627.516 89.3168 627.261 99.1236 629.136 107.296C630.054 111.266 631.482 114.852 633.592 117.759C635.702 120.664 638.517 122.894 642.152 124.064C642.373 124.134 642.608 124.117 642.794 124.032C642.985 123.947 643.127 123.793 643.169 123.613C646.61 109.161 649.38 93.4591 648.211 78.3101C647.544 69.6999 645.593 61.247 641.618 53.2503C641.547 53.1045 641.367 53.0042 641.181 53.0005C640.992 52.9928 640.806 53.0818 640.717 53.2276C637.466 58.5871 635.683 65.6448 635.142 73.3764C634.604 81.1081 635.317 89.5137 637.098 97.5483C639.766 109.564 644.841 120.715 651.342 127.583C651.524 127.776 651.883 127.803 652.094 127.644C656.534 124.367 659.548 119.868 661.391 114.85C663.233 109.827 663.91 104.276 663.636 98.8508C663.309 92.4197 661.726 86.1477 658.975 81.129C658.897 80.9851 658.71 80.8904 658.52 80.898C658.329 80.8999 658.147 81.0021 658.073 81.1612C657.317 82.7609 656.399 85.5324 655.543 88.9401C654.687 92.3478 653.9 96.384 653.452 100.477C652.93 105.212 652.817 110.015 653.422 114C653.725 115.994 654.208 117.782 654.924 119.267C655.64 120.747 656.592 121.936 657.878 122.676C658.278 122.913 658.771 123.015 659.231 122.952C659.693 122.892 660.104 122.699 660.486 122.434C661.246 121.898 661.938 121.044 662.64 119.95C664.03 117.762 665.398 114.598 666.645 111.242C669.127 104.532 671.149 97.0845 671.508 95.3636C671.513 95.3352 671.519 95.3087 671.524 95.2841C671.335 95.2652 671.147 95.2443 670.96 95.2254C669.046 111.716 666.507 127.748 666.288 144.41C666.283 144.735 666.608 145 667.006 145C667.404 145 667.728 144.735 667.724 144.41C667.505 127.839 669.617 111.764 671.527 95.2689C671.54 95.144 671.426 95.0266 671.278 95.0152C671.133 94.9963 670.986 95.0872 670.963 95.2103C670.958 95.2349 670.954 95.2594 670.947 95.286C670.611 96.9671 668.536 104.419 665.893 111.046C664.577 114.362 663.123 117.477 661.731 119.547C661.039 120.58 660.351 121.351 659.775 121.732C659.488 121.923 659.244 122.01 659.065 122.027C658.888 122.04 658.754 122.018 658.552 121.9C657.549 121.296 656.727 120.27 656.102 118.892C655.478 117.515 655.053 115.8 654.802 113.867C654.296 110.001 654.476 105.27 654.991 100.593C655.435 96.5468 656.1 92.5352 656.824 89.1427C657.547 85.752 658.338 82.9767 658.991 81.4413C658.693 81.4508 658.391 81.4621 658.089 81.4735C660.979 86.2821 662.838 92.4784 663.165 98.8678C663.443 104.254 662.688 109.765 660.765 114.689C658.844 119.613 655.759 123.943 651.411 127.004C651.664 127.025 651.915 127.045 652.166 127.067C646.01 120.262 641.34 109.17 638.729 97.3041C636.978 89.3661 636.157 81.0683 636.546 73.4332C636.935 65.8019 638.543 58.8351 641.607 53.5873C641.306 53.5797 641.006 53.5722 640.705 53.5646C644.781 61.406 646.856 69.7833 647.519 78.346C648.687 93.4269 645.432 109.017 641.696 123.365C642.034 123.214 642.373 123.064 642.713 122.915C639.467 121.811 636.969 119.793 635.034 117.059C633.104 114.327 631.761 110.884 630.884 107.025C629.069 99.0799 629.269 89.3736 630.252 80.525C631.232 71.6764 632.994 63.676 634.271 59.1286C633.937 59.2743 633.603 59.4201 633.27 59.5659C638.828 61.2641 643.449 65.304 647.144 70.7488C650.839 76.1859 653.596 82.9994 655.501 90.129C659.318 104.386 659.702 119.923 657.666 128.297C657.91 128.227 658.154 128.155 658.398 128.085C657.901 127.743 657.41 127.385 656.93 127.011C648.409 120.405 642.584 108.919 636.355 98.1314C633.233 92.7378 630.001 87.5127 626.217 83.1413C622.433 78.772 618.082 75.2374 612.704 73.3046C612.416 73.2004 612.076 73.2345 611.83 73.3841C611.581 73.5279 611.434 73.7835 611.464 74.0486C612.407 82.5867 615.283 90.1328 619.49 96.9974C627.289 109.718 639.553 120.101 652.455 130.584C652.697 130.209 652.938 129.836 653.18 129.463C648.101 128.66 642.707 126.597 637.13 123.903C631.551 121.209 625.789 117.892 619.934 114.613C608.216 108.061 596.152 101.647 584.167 100.723C580.215 100.42 576.267 100.715 572.354 101.812C572.156 101.867 572.013 102.02 572.002 102.186C571.984 102.353 572.094 102.524 572.283 102.605C576.796 104.557 588.358 109.265 602.246 114.179C609.191 116.633 616.723 119.128 624.261 121.326C631.798 123.526 639.343 125.418 646.302 126.692C654.443 128.181 661.768 128.85 667.413 128.153C670.234 127.801 672.652 127.103 674.515 125.94C676.381 124.781 677.645 123.14 678.108 121.079C678.911 117.54 677.602 113.611 674.922 109.604C672.235 105.594 668.145 101.488 663.217 97.6032C653.358 89.8374 640.167 82.952 628.048 79.7261C623.518 78.524 619.131 77.8368 615.106 77.8273C611.082 77.8178 607.413 78.488 604.349 80.0195C596.044 84.175 590.123 91.9445 585.671 100.41C581.224 108.877 578.259 118.059 575.952 125.054C575.841 125.391 576.074 125.762 576.46 125.878C576.842 126.006 577.318 125.859 577.514 125.543C582.011 118.252 585.869 110.857 590.362 103.877C595.497 95.8994 601.413 88.446 610.137 82.21C613.668 79.6864 616.957 78.2835 619.959 77.7497C622.962 77.2177 625.688 77.5414 628.158 78.5259C633.097 80.4853 636.994 85.1803 639.267 90.9071C641.683 96.9804 642.322 104.173 640.767 110.372C639.992 113.473 638.669 116.323 636.764 118.665C634.857 121.008 632.373 122.844 629.249 123.941C627.36 124.594 625.821 124.424 624.37 123.615C622.923 122.801 621.604 121.287 620.461 119.257C618.163 115.198 616.546 109.123 615.407 102.645C614.268 96.1644 613.601 89.279 613.173 83.5654C612.743 77.85 612.552 73.3178 612.357 71.506C612.336 71.3186 612.126 71.1709 611.906 71.1842C611.682 71.1898 611.494 71.3565 611.498 71.5439C611.54 73.2875 611.91 77.3938 612.281 82.6056C612.649 87.8137 613.017 94.1179 613.053 100.218C613.093 106.318 612.796 112.217 611.846 116.595C611.372 118.784 610.732 120.59 609.916 121.834C609.509 122.456 609.058 122.933 608.581 123.257C608.103 123.579 607.604 123.75 607.045 123.78C606.532 123.805 606.046 123.685 605.54 123.409C605.039 123.135 604.533 122.697 604.04 122.11C603.054 120.94 602.131 119.189 601.296 117.039C599.621 112.735 598.28 106.842 597.208 100.702C596.131 94.5609 595.322 88.1734 594.694 82.865C594.068 77.5547 593.626 73.3329 593.281 71.4852C593.247 71.294 593.03 71.1653 592.798 71.1937C592.568 71.222 592.409 71.4 592.444 71.5912Z" fill="black"/>
<path d="M643.153 74.1508C637.738 81.8825 635.654 90.0212 632.325 98.3359C632.445 98.3662 632.562 98.3965 632.682 98.4249C633.533 95.7726 636.144 90.0666 639.797 83.9952C643.446 77.922 648.143 71.4796 653.128 67.3298C657.388 63.7782 661.847 61.9191 665.985 63.3541C668.115 64.0906 668.863 66.1011 668.739 68.8197C668.615 71.5364 667.616 74.9403 666.293 78.4105C664.971 81.8806 663.321 85.4208 661.902 88.4157C660.483 91.4126 659.295 93.8567 658.877 95.1819C658.844 95.2898 658.9 95.4091 659.01 95.4678C659.118 95.5302 659.272 95.5302 659.386 95.464C668.868 89.8318 677 82.7855 687.396 78.5581C687.196 78.3177 686.995 78.0772 686.793 77.8368C685.843 78.5486 683.593 79.9363 680.692 81.5096C677.789 83.0846 674.221 84.8567 670.591 86.3674C665.801 88.3684 660.901 89.936 657.312 90.0136C655.513 90.0553 654.08 89.7353 653.089 88.9761C652.098 88.217 651.476 86.9618 651.474 84.9986C651.469 82.2725 651.978 80.3339 652.868 79.0484C653.76 77.7649 655.017 77.1174 656.602 76.9527C659.772 76.6214 664.237 78.3423 668.985 81.1195C675.166 84.7336 681.854 90.1026 687.209 94.8469C689.887 97.217 692.236 99.4318 694.028 101.193C695.82 102.949 697.06 104.26 697.503 104.801C697.596 104.672 697.688 104.545 697.78 104.417C692.783 103.945 687.371 101.015 682.01 96.7683C676.65 92.5239 671.338 86.9789 666.491 81.3278C659.114 72.7215 652.886 63.8255 649.482 58.7784C649.266 58.981 649.049 59.1835 648.831 59.3842C656.629 61.9059 663.911 67.8656 670.335 74.6563C676.765 81.4433 682.344 89.0481 686.862 94.8317C687.011 95.021 687.156 95.2084 687.304 95.3939C687.396 95.5132 687.596 95.553 687.738 95.4848C687.886 95.4205 687.95 95.2595 687.879 95.1327C679.772 80.8886 667.685 69.4445 653.271 59.263C653.08 59.1286 652.806 59.0965 652.581 59.1741C652.355 59.2498 652.19 59.4334 652.171 59.6435C652.035 61.1581 652.496 63.1327 653.378 65.3761C654.264 67.6157 655.583 70.1128 657.202 72.6079C659.811 76.6309 663.271 80.6084 666.931 83.4311C668.762 84.8434 670.644 85.9679 672.509 86.6646C674.375 87.3594 676.239 87.6225 677.996 87.2818C679.922 86.9126 681.235 86.0209 682.01 84.8169C682.79 83.6128 683.057 82.1078 682.985 80.455C682.843 77.3957 681.589 73.7968 679.99 70.6485C679.19 69.0753 678.298 67.6195 677.4 66.4097C676.501 65.1981 675.608 64.2364 674.746 63.6249C674.554 63.4924 674.37 63.3863 674.138 63.3182C674.021 63.286 673.885 63.2633 673.735 63.2671C673.586 63.2727 673.423 63.3106 673.287 63.3769C673.009 63.5189 672.887 63.7233 672.82 63.8899C672.751 64.0622 672.728 64.2288 672.719 64.4068C672.703 64.7608 672.751 65.1659 672.841 65.6297C672.928 66.0916 673.059 66.6066 673.216 67.1481C673.844 69.312 674.925 71.8885 675.465 72.9392C675.553 73.1077 675.622 73.2365 675.695 73.3482C677.172 75.5897 678.801 77.072 680.458 77.9295C682.112 78.7891 683.816 78.9955 685.335 78.6736C686.857 78.3537 688.18 77.5452 689.263 76.451C690.347 75.353 691.196 73.9634 691.764 72.4148C692.7 69.8912 692.829 66.9209 691.716 64.1285C691.675 64.0244 691.559 63.9505 691.433 63.9391C691.309 63.9259 691.175 63.9751 691.107 64.0679C685.008 72.129 680.446 80.7163 675.44 89.209C675.634 89.2658 675.824 89.3226 676.015 89.3775C678.785 79.7584 683.554 67.1404 694.09 61.6276C693.942 61.5708 693.795 61.514 693.649 61.4553C694.014 63.8521 693.103 67.68 691.891 71.8128C690.681 75.9513 689.179 80.404 688.394 84.1259C688.003 85.9887 687.791 87.6661 687.888 89.0443C687.989 90.4169 688.392 91.5111 689.323 92.1604C689.788 92.4823 690.379 92.6753 691.076 92.7246C691.773 92.7738 692.583 92.6848 693.52 92.4501C695.394 91.9787 697.794 90.928 700.876 89.1655C701.007 89.0897 701.039 88.9439 700.948 88.8361C700.858 88.73 700.68 88.7035 700.549 88.7774C697.497 90.5266 695.13 91.5546 693.352 91.9995C691.567 92.4444 690.423 92.3043 689.691 91.7988C688.953 91.2953 688.552 90.3354 688.461 89.0159C688.366 87.7002 688.571 86.0493 688.96 84.2073C689.735 80.5213 691.235 76.0705 692.45 71.9245C693.662 67.7728 694.598 63.9372 694.223 61.3967C694.198 61.2301 693.952 61.1335 693.78 61.2263C682.981 66.9001 678.228 79.6183 675.419 89.262C675.383 89.3851 675.472 89.5176 675.613 89.5574C675.753 89.6009 675.923 89.5441 675.992 89.4305C681.017 80.9302 685.592 72.3656 691.681 64.3632C691.476 64.3443 691.274 64.3234 691.071 64.3026C692.128 66.9701 691.999 69.8307 691.086 72.2426C690.52 73.7192 689.639 75.0141 688.585 75.974C687.531 76.9375 686.314 77.5566 685.084 77.7422C683.848 77.9258 682.588 77.7137 681.256 76.9414C679.926 76.1652 678.553 74.8021 677.198 72.6874C677.175 72.6533 677.112 72.5435 677.039 72.3959C676.556 71.436 675.433 68.8765 674.731 66.8243C674.557 66.3113 674.41 65.8285 674.308 65.4139C674.205 64.9993 674.15 64.651 674.147 64.4314C674.145 64.3235 674.159 64.2497 674.163 64.2345C674.163 64.2307 674.163 64.2307 674.159 64.2364C674.157 64.2402 674.15 64.2497 674.14 64.261C674.119 64.2856 674.076 64.3254 674.011 64.3575C673.947 64.3897 673.862 64.4068 673.805 64.4068C673.745 64.4087 673.71 64.3992 673.703 64.3954C673.703 64.3954 673.708 64.3954 673.71 64.3973C673.72 64.3992 673.731 64.403 673.747 64.4105C673.781 64.4257 673.83 64.4503 673.889 64.4882C674.6 64.9349 675.518 65.7963 676.454 66.9152C677.393 68.0341 678.366 69.4142 679.247 70.923C681.012 73.9388 682.399 77.4847 682.502 80.4683C682.567 82.0775 682.27 83.5125 681.53 84.5992C680.784 85.6877 679.62 86.4393 677.849 86.7365C676.268 87.0016 674.598 86.7252 672.88 86.0228C671.163 85.3224 669.411 84.1922 667.704 82.776C664.285 79.9458 661.044 75.9758 658.477 72.0456C656.889 69.6073 655.587 67.1689 654.713 65.0145C653.836 62.862 653.402 60.9802 653.505 59.7231C653.14 59.8499 652.771 59.9768 652.406 60.1036C666.852 70.073 679.192 81.199 687.28 95.3618C687.474 95.2747 687.664 95.1876 687.856 95.1005C687.711 94.915 687.563 94.7275 687.416 94.5401C682.903 88.766 677.361 81.1271 670.961 74.2569C664.557 67.3885 657.299 61.2773 649.218 58.5872C649.015 58.5191 648.775 58.5683 648.636 58.7008C648.493 58.8295 648.461 59.0321 648.568 59.193C651.932 64.2761 658.09 73.2402 665.509 81.8995C670.379 87.5847 675.822 93.1203 681.348 97.3458C686.871 101.567 692.475 104.49 697.718 104.905C697.837 104.914 697.95 104.865 698.005 104.784C698.062 104.704 698.058 104.598 697.994 104.523C697.506 103.955 696.236 102.671 694.394 100.935C692.556 99.1995 690.151 97.0183 687.423 94.6802C681.962 90.0041 675.212 84.6938 669.043 81.0514C664.301 78.2514 659.917 76.4169 656.565 76.682C654.888 76.8145 653.464 77.5017 652.47 78.8553C651.474 80.2089 650.887 82.21 650.791 84.9911C650.72 87.0394 651.322 88.5161 652.507 89.4759C653.692 90.4338 655.384 90.8163 657.327 90.8068C661.219 90.7841 666.245 89.2412 671.115 87.2174C674.798 85.6839 678.391 83.8873 681.315 82.2819C684.242 80.6747 686.487 79.2699 687.52 78.49C687.715 78.3404 687.75 78.081 687.598 77.9106C687.455 77.7346 687.152 77.6683 686.915 77.7668C676.335 82.1702 668.32 89.3377 659.001 95.0304C659.171 95.1251 659.339 95.2179 659.51 95.3125C659.88 94.0517 661.025 91.5811 662.394 88.5691C663.761 85.5552 665.353 81.9904 666.627 78.4956C667.902 74.9989 668.858 71.5723 668.951 68.8254C669.043 66.0841 668.269 64.0017 666.04 63.2463C661.799 61.8113 657.335 63.7271 653.072 67.2844C648.087 71.4493 643.362 77.8785 639.645 83.9328C635.928 89.989 633.227 95.6647 632.32 98.3454C632.295 98.423 632.353 98.5101 632.447 98.5328C632.539 98.5574 632.647 98.5138 632.679 98.4343C636.144 90.1348 638.398 82.0415 643.883 74.5029C644.002 74.3383 643.933 74.1243 643.731 74.0278C643.531 73.9293 643.269 73.9842 643.153 74.1508Z" fill="black"/>
<path d="M615.093 87.4336C614.923 87.0266 614.414 85.8869 613.782 84.3913C613.151 82.8977 612.399 81.0556 611.76 79.2703C611.12 77.487 610.593 75.7529 610.407 74.511C610.31 73.8919 610.31 73.3921 610.388 73.1176C610.423 72.9813 610.478 72.9112 610.494 72.9018C610.513 72.8942 610.467 72.9018 610.522 72.898C611.014 72.915 611.451 73.0324 611.872 73.252C612.291 73.4735 612.689 73.8029 613.061 74.2403C613.807 75.1111 614.43 76.4022 614.913 77.9811C615.884 81.1389 616.314 85.4307 616.429 89.8645C616.662 98.732 615.645 108.185 615.351 110.545C615.321 110.773 615.535 110.986 615.799 111.002C616.064 111.032 616.326 110.858 616.353 110.632C618.226 95.9283 619.468 79.1359 626.043 65.4068C625.737 65.3746 625.429 65.3424 625.118 65.3102C627.651 82.2937 621.049 99.2638 622.167 116.537C622.178 116.709 622.337 116.857 622.535 116.889C622.73 116.927 622.947 116.844 623.043 116.691C627.702 109.245 630.087 96.2444 628.044 85.2016C626.864 78.8406 624.295 73.1062 619.659 69.4297C619.496 69.301 619.245 69.2593 619.036 69.3218C618.826 69.3824 618.663 69.5452 618.635 69.7402C618.481 70.7928 618.392 72.4266 618.369 74.5053C618.346 76.584 618.392 79.1038 618.518 81.9C618.771 87.4943 619.356 94.2017 620.412 100.697C621.578 107.899 623.264 114.835 625.521 119.746C626.653 122.201 627.918 124.157 629.413 125.412C630.163 126.037 630.984 126.491 631.889 126.701C632.79 126.914 633.759 126.861 634.702 126.537C635.751 126.183 636.616 125.495 637.349 124.585C638.081 123.671 638.693 122.518 639.216 121.164C640.258 118.459 640.946 114.943 641.387 110.953C642.266 102.973 642.153 93.0923 641.771 84.1755C641.346 74.0017 640.614 65.0868 640.129 61.7151C640.094 61.4861 639.83 61.3024 639.549 61.3195C639.271 61.327 639.029 61.5296 639.022 61.7757C638.826 71.516 638.422 81.669 639.052 91.7993C639.795 103.785 641.778 115.725 646.496 126.826C646.607 127.084 646.913 127.255 647.226 127.243C647.538 127.239 647.831 127.055 647.92 126.804C652.703 113.22 651.794 98.7869 650.904 84.7264C650.628 80.393 650.38 76.0936 650.292 71.8738C649.935 71.9192 649.579 71.9628 649.22 72.0082C651.134 77.8922 651.723 84.1339 652.137 90.457C652.553 96.7783 652.795 103.186 654.037 109.388C654.865 113.514 656.172 117.539 658.233 121.338C658.385 121.618 658.712 121.791 659.05 121.793C659.386 121.802 659.721 121.639 659.869 121.393C664.451 113.777 666.427 104.625 667.361 95.4909C668.106 88.1834 667.964 80.8511 667.412 74.3103C667.403 74.1816 667.26 74.0755 667.106 74.0831C666.954 74.085 666.821 74.1986 666.821 74.3274C666.83 82.9658 667.591 93.6943 666.968 104.167C666.347 114.638 664.332 124.85 658.831 132.44C658.753 132.546 658.797 132.686 658.926 132.748C659.056 132.813 659.225 132.778 659.303 132.671C664.881 124.967 666.89 114.693 667.522 104.188C668.153 93.6849 667.403 82.945 667.414 74.3274C667.216 74.333 667.019 74.3387 666.821 74.3443C667.355 80.8644 667.476 88.1758 666.706 95.4455C665.744 104.544 663.037 113.523 658.265 120.706C658.811 120.723 659.356 120.742 659.901 120.759C658.095 117.035 656.975 113.129 656.17 109.099C654.96 103.047 654.536 96.6931 653.894 90.3567C653.253 84.0203 652.39 77.7123 650.272 71.7659C650.193 71.5444 649.917 71.4043 649.657 71.4441C649.397 71.4743 649.19 71.6807 649.202 71.9003C649.413 76.1315 649.749 80.4309 650.025 84.7643C650.927 98.8153 651.466 113.209 646.487 126.451C646.963 126.444 647.437 126.437 647.911 126.429C643.49 115.422 641.76 103.62 641.021 91.7179C640.395 81.6633 640.329 71.5273 640.133 61.7757C639.765 61.7965 639.397 61.8155 639.029 61.8363C639.625 65.1379 640.792 74.032 641.272 84.1907C641.682 93.0942 641.601 102.973 640.534 110.881C640 114.833 639.22 118.296 638.146 120.874C637.612 122.164 637.003 123.229 636.335 124.021C635.668 124.814 634.953 125.318 634.221 125.548C633.496 125.776 632.875 125.787 632.263 125.637C631.654 125.484 631.037 125.147 630.421 124.609C629.185 123.542 628.01 121.688 626.977 119.303C624.902 114.53 623.351 107.645 622.217 100.501C621.203 94.0559 620.478 87.3939 620.078 81.8375C619.878 79.0602 619.758 76.5594 619.721 74.5015C619.685 72.4474 619.731 70.8307 619.848 69.85C619.507 69.9542 619.165 70.0564 618.824 70.1605C623.257 73.5019 625.969 79.0527 627.133 85.3171C629.158 96.18 626.765 109.114 622.22 116.34C622.509 116.393 622.802 116.445 623.094 116.495C621.971 99.41 628.601 82.43 626.075 65.2156C626.048 65.0357 625.868 64.8899 625.659 64.8691C625.449 64.8445 625.231 64.9487 625.15 65.1172C618.488 79.0129 617.241 95.8657 615.351 110.545C615.684 110.574 616.02 110.602 616.356 110.632C616.655 108.245 617.685 98.7794 617.465 89.8455C617.352 85.3777 616.931 81.0462 615.93 77.7691C615.429 76.1315 614.787 74.7533 613.927 73.7404C613.494 73.235 613.006 72.8185 612.443 72.5213C611.881 72.2221 611.244 72.048 610.561 72.0272C610.26 72.0101 609.928 72.1161 609.726 72.2979C609.521 72.4796 609.418 72.6954 609.353 72.9245C609.229 73.3864 609.254 73.9468 609.351 74.6189C609.553 75.9536 610.089 77.7104 610.734 79.5183C611.38 81.3263 612.132 83.1797 612.765 84.6829C613.397 86.1822 613.91 87.3371 614.069 87.7214C614.166 87.9524 614.474 88.0773 614.755 87.9978C615.038 87.9183 615.189 87.6665 615.093 87.4336Z" fill="black"/>
<path d="M613.122 86.393C612.306 86.2908 610.456 86.145 608.116 85.9178C605.781 85.6926 602.975 85.3896 600.313 84.9826C597.654 84.5756 595.133 84.0607 593.421 83.4416C592.565 83.1349 591.921 82.7979 591.579 82.495C591.406 82.3435 591.312 82.2091 591.266 82.0955C591.222 81.9801 591.217 81.8835 591.256 81.7491C591.392 81.3175 591.682 80.9521 592.154 80.6113C592.625 80.2744 593.278 79.9752 594.07 79.731C595.65 79.2388 597.767 78.9662 599.973 78.8526C604.39 78.6235 609.186 79.0154 611.079 79.2615C634.335 82.2584 655.669 92.1312 678.432 97.4604C678.538 96.9379 678.644 96.4135 678.75 95.891C669.24 95.4499 657.779 92.9093 646.03 90.8666C634.277 88.8295 622.216 87.279 611.365 88.9337C606.136 89.7345 601.187 91.3001 596.766 93.9278C596.439 94.1209 596.285 94.4616 596.368 94.7684C596.442 95.077 596.75 95.3363 597.136 95.4045C608.609 97.4169 622.906 98.7837 637.24 100.774C651.57 102.759 665.943 105.387 677.457 109.864C681.201 111.321 684.641 112.975 687.671 114.853C687.687 114.591 687.703 114.328 687.719 114.065C686.477 114.673 684.634 115.19 682.359 115.582C680.083 115.976 677.376 116.25 674.388 116.407C668.411 116.723 661.312 116.566 654.256 115.994C647.201 115.422 640.182 114.44 634.369 113.106C631.464 112.439 628.86 111.684 626.711 110.855C624.565 110.027 622.881 109.121 621.811 108.201C621.075 107.572 620.633 106.951 620.447 106.345C620.265 105.737 620.306 105.122 620.663 104.391C621.008 103.696 621.498 103.151 622.147 102.699C622.796 102.248 623.61 101.892 624.599 101.635C626.578 101.118 629.241 101.014 632.352 101.275C638.576 101.794 646.548 103.742 654.648 106.199C670.859 111.114 687.625 118.06 692.649 119.754C692.681 119.766 692.717 119.745 692.73 119.72C692.743 119.698 692.736 119.662 692.704 119.65C687.76 117.827 671.316 110.396 655.165 105.09C647.084 102.437 639.087 100.313 632.566 99.6771C629.301 99.361 626.398 99.4105 623.989 100.007C622.786 100.308 621.705 100.751 620.797 101.368C619.89 101.985 619.168 102.778 618.692 103.721C618.172 104.74 618.059 105.794 618.358 106.773C618.652 107.755 619.324 108.641 620.244 109.434C621.597 110.595 623.488 111.589 625.791 112.475C628.091 113.359 630.808 114.13 633.808 114.794C639.805 116.12 646.941 117.015 654.098 117.473C661.255 117.933 668.425 117.958 674.489 117.541C677.524 117.333 680.279 117.013 682.623 116.575C684.97 116.137 686.905 115.586 688.315 114.879C688.483 114.794 688.586 114.646 688.593 114.493C688.602 114.34 688.515 114.184 688.361 114.092C685.228 112.197 681.712 110.54 677.912 109.068C666.242 104.545 651.839 101.775 637.493 99.5981C623.152 97.4207 608.873 95.8569 597.562 93.7915C597.686 94.2837 597.808 94.7778 597.932 95.2701C602.112 92.8336 606.755 91.3796 611.744 90.6166C622.085 89.0302 633.928 90.5012 645.611 92.5136C657.3 94.5203 668.814 97.0572 678.641 97.4907C679.134 97.5116 679.589 97.2087 679.656 96.8205C679.743 96.4362 679.431 96.0273 678.959 95.9194C656.469 90.7473 634.981 80.9123 611.323 77.9628C609.306 77.7129 604.463 77.338 599.874 77.5974C597.576 77.7281 595.347 78.0139 593.538 78.5819C592.634 78.8696 591.829 79.2275 591.181 79.697C590.534 80.1645 590.044 80.7571 589.835 81.4576C589.731 81.7984 589.75 82.1542 589.881 82.4742C590.012 82.7941 590.242 83.0743 590.525 83.3186C591.098 83.807 591.891 84.1856 592.848 84.5264C594.758 85.2023 597.346 85.7077 600.063 86.111C602.777 86.5123 605.611 86.8039 607.965 87.0178C610.311 87.2317 612.193 87.3737 612.927 87.4627C613.283 87.5062 613.608 87.2942 613.661 87.0064C613.713 86.7167 613.476 86.4385 613.122 86.393Z" fill="black"/>
<path fill-rule="evenodd" clip-rule="evenodd" d="M313.295 150.008C320.917 149.93 327.897 150.436 329.452 151.179L338.726 155.606C339.13 155.583 339.546 155.562 339.976 155.542C344.581 155.332 349.953 155.368 354.236 155.637L354.643 155.662L357.703 154.488C359.276 153.885 364.496 153.444 370.762 153.386C377.025 153.327 382.992 153.662 385.682 154.225L387.139 154.53C389.677 154.322 392.897 154.198 396.331 154.19C402.304 154.176 407.784 154.516 410.268 155.054L420.705 157.313L441.685 152.329C444.117 151.752 449.956 151.388 456.268 151.421C462.58 151.454 468.001 151.876 469.806 152.476L480.612 156.068L483.954 155.641C486.313 155.34 489.718 155.145 493.421 155.087V153.507C493.421 152.815 498.258 152.216 505.067 152.064C511.879 151.911 518.849 152.246 521.854 152.87L549.54 158.613C553.095 159.351 549.934 160.234 542.484 160.585C535.036 160.937 526.115 160.624 522.561 159.887L522.197 159.811C520.379 160.25 516.48 160.588 511.572 160.695C504.717 160.844 497.736 160.501 494.796 159.87L492.503 159.378L486.408 160.156C482.976 160.594 477.354 160.806 471.849 160.704C466.341 160.602 461.871 160.204 460.274 159.672L453.135 157.301L435.133 161.576C432.848 162.119 427.533 162.476 421.593 162.486C415.654 162.496 410.216 162.157 407.746 161.622L396.399 159.166C393.94 159.356 390.889 159.469 387.639 159.479C382.916 159.493 378.482 159.285 375.59 158.932C373.993 159.127 371.9 159.281 369.477 159.376C365.67 159.525 361.444 159.512 357.773 159.345L352.825 162.771C351.798 163.482 345.755 164.017 338.497 164.04C331.242 164.062 324.873 163.565 323.398 162.862L321.183 161.805C320.349 161.844 319.466 161.875 318.547 161.899C311.944 162.067 305.026 161.772 301.733 161.181L280.393 157.353L251.595 161.328C248.669 161.732 243.889 161.964 238.871 161.944C233.854 161.925 229.269 161.658 226.667 161.233L218.052 159.826L214.18 162.252C213.168 162.886 208.135 163.383 201.724 163.482C195.313 163.581 188.988 163.259 186.07 162.686L156.708 156.915L140.898 163.511C139.267 164.191 133.041 164.666 125.975 164.648C118.909 164.63 112.936 164.125 111.658 163.437L105.826 160.297L96.2941 163.457C94.2983 164.119 87.9402 164.556 80.9773 164.51C74.0143 164.464 68.3002 163.947 67.2117 163.265L65.2061 162.008L61.7742 164.706C60.7433 165.516 53.269 166.09 45.0798 165.988C36.8906 165.886 31.0877 165.147 32.1186 164.336L48.7086 151.294C49.6382 150.564 55.8599 150.012 63.3019 150C70.7439 149.989 77.1373 150.521 78.2984 151.248L86.4729 156.372L94.9651 153.556C96.9411 152.901 103.196 152.465 110.094 152.502C116.992 152.539 122.735 153.039 123.984 153.712L128.212 155.988L137.083 152.286C138.533 151.682 143.647 151.231 149.883 151.159C156.12 151.086 162.149 151.408 164.973 151.963L191.896 157.254L194.902 155.37C195.881 154.757 200.626 154.27 206.782 154.15C212.939 154.03 219.195 154.304 222.446 154.835L240.498 157.784L269.896 153.726C272.885 153.313 277.802 153.081 282.922 153.111C288.042 153.141 292.649 153.429 295.127 153.873L299.874 154.724V151.479C299.874 150.721 305.67 150.085 313.295 150.008Z" fill="black"/>
<path d="M39.944 198H34.424V181.92H40.064C44 181.92 46.4 183.48 46.4 186.192C46.4 188.16 45.344 189.432 43.64 189.96C45.488 190.392 46.64 191.496 46.64 193.56C46.64 196.896 43.688 198 39.944 198ZM36.872 183.96V188.976H40.136C42.824 188.976 43.952 188.16 43.952 186.36C43.952 184.776 42.56 183.96 40.184 183.96H36.872ZM36.872 191.016V195.96H40.064C42.272 195.96 44.192 195.528 44.192 193.392C44.192 191.64 42.896 191.016 40.136 191.016H36.872ZM55.3278 195.984C57.5118 195.984 58.7118 194.088 58.7118 191.904V186.24H61.0878V192.192C61.0878 195.6 59.0238 198.288 55.3278 198.288C51.6798 198.288 49.6158 195.576 49.6158 192.168V186.24H51.9918V191.928C51.9918 194.088 53.1678 195.984 55.3278 195.984ZM66.0631 183.912C65.1991 183.912 64.5031 183.216 64.5031 182.352C64.5031 181.488 65.1991 180.768 66.0631 180.768C66.9271 180.768 67.5991 181.488 67.5991 182.352C67.5991 183.216 66.9271 183.912 66.0631 183.912ZM64.8871 186.24H67.2631V198H64.8871V186.24ZM71.4965 180.84H73.8725V198H71.4965V180.84ZM83.2631 198.288C79.6871 198.288 76.9991 195.528 76.9991 192.144C76.9991 188.568 79.5911 185.952 83.1431 185.952C84.7271 185.952 86.1671 186.648 87.1271 187.704L87.1511 180.84H89.5271V192.144C89.5271 195.624 86.8151 198.288 83.2631 198.288ZM83.2631 196.056C85.4711 196.056 87.1511 194.28 87.1511 192.12C87.1511 189.984 85.4711 188.208 83.2631 188.208C81.0791 188.208 79.3751 189.984 79.3751 192.12C79.3751 194.28 81.0791 196.056 83.2631 196.056ZM94.0972 198.216C93.2332 198.216 92.5372 197.52 92.5372 196.656C92.5372 195.792 93.2332 195.12 94.0972 195.12C94.9612 195.12 95.6572 195.792 95.6572 196.656C95.6572 197.52 94.9612 198.216 94.0972 198.216ZM112.366 198H106.846V181.92H112.486C116.422 181.92 118.822 183.48 118.822 186.192C118.822 188.16 117.766 189.432 116.062 189.96C117.91 190.392 119.062 191.496 119.062 193.56C119.062 196.896 116.11 198 112.366 198ZM109.294 183.96V188.976H112.558C115.246 188.976 116.374 188.16 116.374 186.36C116.374 184.776 114.982 183.96 112.606 183.96H109.294ZM109.294 191.016V195.96H112.486C114.694 195.96 116.614 195.528 116.614 193.392C116.614 191.64 115.318 191.016 112.558 191.016H109.294ZM124.51 198H122.134V190.992C122.134 188.136 123.766 186 126.838 186C127.582 186 128.35 186.144 128.95 186.432V188.784C128.374 188.448 127.702 188.28 127.054 188.28C125.47 188.28 124.51 189.36 124.51 191.088V198ZM136.184 198.264C132.608 198.264 129.944 195.672 129.944 192.048C129.944 188.664 132.368 185.904 135.896 185.904C139.448 185.904 141.656 188.472 141.656 191.76V192.72H132.248C132.512 194.736 134.048 196.152 136.16 196.152C137.6 196.152 138.896 195.528 139.592 194.232L141.416 195.168C140.384 197.184 138.488 198.264 136.184 198.264ZM132.344 191.184H139.28C139.184 189.312 137.816 188.04 135.872 188.04C133.88 188.04 132.584 189.432 132.344 191.184ZM149.653 198.288C146.245 198.288 143.749 195.504 143.749 192.096C143.749 188.736 146.437 185.952 150.013 185.952C153.565 185.952 156.277 188.592 156.277 192.096V198H154.021V195.936C153.133 197.376 151.573 198.288 149.653 198.288ZM150.013 196.032C152.221 196.032 153.901 194.256 153.901 192.12C153.901 189.96 152.221 188.184 150.013 188.184C147.829 188.184 146.125 189.96 146.125 192.12C146.125 194.256 147.829 196.032 150.013 196.032ZM162.537 198H160.161V180.816H162.537V191.136H163.977C164.097 190.848 164.289 190.584 164.529 190.344L168.297 186.24H171.201L166.137 191.76C165.993 191.88 165.921 191.976 165.921 192.096C165.921 192.216 165.993 192.312 166.137 192.432L171.177 198H168.249L164.505 193.896C164.265 193.608 164.073 193.32 163.953 193.008H162.537V198ZM175.285 198.216C174.421 198.216 173.725 197.52 173.725 196.656C173.725 195.792 174.421 195.12 175.285 195.12C176.149 195.12 176.845 195.792 176.845 196.656C176.845 197.52 176.149 198.216 175.285 198.216ZM193.553 198H188.033V181.92H193.673C197.609 181.92 200.009 183.48 200.009 186.192C200.009 188.16 198.953 189.432 197.249 189.96C199.097 190.392 200.249 191.496 200.249 193.56C200.249 196.896 197.297 198 193.553 198ZM190.481 183.96V188.976H193.745C196.433 188.976 197.561 188.16 197.561 186.36C197.561 184.776 196.169 183.96 193.793 183.96H190.481ZM190.481 191.016V195.96H193.673C195.881 195.96 197.801 195.528 197.801 193.392C197.801 191.64 196.505 191.016 193.745 191.016H190.481ZM208.817 198.264C205.241 198.264 202.577 195.672 202.577 192.048C202.577 188.664 205.001 185.904 208.529 185.904C212.081 185.904 214.289 188.472 214.289 191.76V192.72H204.881C205.145 194.736 206.681 196.152 208.793 196.152C210.233 196.152 211.529 195.528 212.225 194.232L214.049 195.168C213.017 197.184 211.121 198.264 208.817 198.264ZM204.977 191.184H211.913C211.817 189.312 210.449 188.04 208.505 188.04C206.513 188.04 205.217 189.432 204.977 191.184ZM217.606 180.84H219.982V198H217.606V180.84ZM229.396 198.288C225.844 198.288 223.108 195.504 223.108 192.096C223.108 188.712 225.868 185.952 229.396 185.952C232.948 185.952 235.636 188.736 235.636 192.096C235.636 195.504 232.924 198.288 229.396 198.288ZM229.396 196.032C231.58 196.032 233.26 194.256 233.26 192.12C233.26 189.96 231.58 188.184 229.396 188.184C227.188 188.184 225.484 189.96 225.484 192.12C225.484 194.256 227.188 196.032 229.396 196.032ZM244.122 188.232C241.818 188.232 240.666 190.128 240.666 192.312V198H238.29V192.072C238.29 188.64 240.33 185.952 244.122 185.952C247.962 185.952 250.05 188.64 250.05 192.048V198H247.674V192.336C247.674 190.128 246.474 188.232 244.122 188.232ZM258.758 203.688C256.214 203.688 254.102 202.584 253.022 200.496L255.014 199.416C255.71 200.688 257.006 201.504 258.71 201.504C261.182 201.504 262.862 199.728 262.862 196.968V196.032C262.094 197.256 260.654 198.168 258.686 198.168C255.35 198.168 252.71 195.528 252.71 192.072C252.71 188.712 255.398 185.952 258.974 185.952C262.526 185.952 265.238 188.592 265.238 192.096V196.944C265.238 201.024 262.502 203.688 258.758 203.688ZM258.95 195.936C261.11 195.936 262.838 194.208 262.838 192.048C262.838 189.888 261.11 188.208 258.95 188.208C256.814 188.208 255.062 189.888 255.062 192.048C255.062 194.208 256.814 195.936 258.95 195.936ZM270.418 198.216C269.554 198.216 268.858 197.52 268.858 196.656C268.858 195.792 269.554 195.12 270.418 195.12C271.282 195.12 271.978 195.792 271.978 196.656C271.978 197.52 271.282 198.216 270.418 198.216Z" fill="black"/>
<path d="M176.958 363H172.818V350.94H177.048C180 350.94 181.8 352.11 181.8 354.144C181.8 355.62 181.008 356.574 179.73 356.97C181.116 357.294 181.98 358.122 181.98 359.67C181.98 362.172 179.766 363 176.958 363ZM174.654 352.47V356.232H177.102C179.118 356.232 179.964 355.62 179.964 354.27C179.964 353.082 178.92 352.47 177.138 352.47H174.654ZM174.654 357.762V361.47H177.048C178.704 361.47 180.144 361.146 180.144 359.544C180.144 358.23 179.172 357.762 177.102 357.762H174.654ZM186.066 363H184.284V357.744C184.284 355.602 185.508 354 187.812 354C188.37 354 188.946 354.108 189.396 354.324V356.088C188.964 355.836 188.46 355.71 187.974 355.71C186.786 355.71 186.066 356.52 186.066 357.816V363ZM191.678 352.434C191.03 352.434 190.508 351.912 190.508 351.264C190.508 350.616 191.03 350.076 191.678 350.076C192.326 350.076 192.83 350.616 192.83 351.264C192.83 351.912 192.326 352.434 191.678 352.434ZM190.796 354.18H192.578V363H190.796V354.18ZM199.855 355.674C198.127 355.674 197.263 357.096 197.263 358.734V363H195.481V358.554C195.481 355.98 197.011 353.964 199.855 353.964C202.735 353.964 204.301 355.98 204.301 358.536V363H202.519V358.752C202.519 357.096 201.619 355.674 199.855 355.674ZM210.832 367.266C208.924 367.266 207.34 366.438 206.53 364.872L208.024 364.062C208.546 365.016 209.518 365.628 210.796 365.628C212.65 365.628 213.91 364.296 213.91 362.226V361.524C213.334 362.442 212.254 363.126 210.778 363.126C208.276 363.126 206.296 361.146 206.296 358.554C206.296 356.034 208.312 353.964 210.994 353.964C213.658 353.964 215.692 355.944 215.692 358.572V362.208C215.692 365.268 213.64 367.266 210.832 367.266ZM210.976 361.452C212.596 361.452 213.892 360.156 213.892 358.536C213.892 356.916 212.596 355.656 210.976 355.656C209.374 355.656 208.06 356.916 208.06 358.536C208.06 360.156 209.374 361.452 210.976 361.452ZM227.41 367.284C225.538 367.284 223.99 366.492 223.198 364.926L224.674 364.116C225.178 365.07 226.168 365.628 227.374 365.628C229.246 365.628 230.218 364.224 230.218 362.316V361.542C229.696 362.532 228.76 363.126 227.428 363.126C224.728 363.126 223.414 361.344 223.414 358.752V354.18H225.178V358.662C225.178 360.318 226.042 361.452 227.644 361.452C229.192 361.452 230.2 360.156 230.2 358.536V354.18H232V362.298C232 365.25 230.272 367.284 227.41 367.284ZM238.909 363.216C236.245 363.216 234.193 361.128 234.193 358.572C234.193 356.034 236.263 353.964 238.909 353.964C241.573 353.964 243.589 356.052 243.589 358.572C243.589 361.128 241.555 363.216 238.909 363.216ZM238.909 361.524C240.547 361.524 241.807 360.192 241.807 358.59C241.807 356.97 240.547 355.638 238.909 355.638C237.253 355.638 235.975 356.97 235.975 358.59C235.975 360.192 237.253 361.524 238.909 361.524ZM249.791 361.488C251.429 361.488 252.329 360.066 252.329 358.428V354.18H254.111V358.644C254.111 361.2 252.563 363.216 249.791 363.216C247.055 363.216 245.507 361.182 245.507 358.626V354.18H247.289V358.446C247.289 360.066 248.171 361.488 249.791 361.488ZM258.382 363H256.6V357.744C256.6 355.602 257.824 354 260.128 354C260.686 354 261.262 354.108 261.712 354.324V356.088C261.28 355.836 260.776 355.71 260.29 355.71C259.102 355.71 258.382 356.52 258.382 357.816V363ZM269.127 352.434C268.479 352.434 267.957 351.912 267.957 351.264C267.957 350.616 268.479 350.076 269.127 350.076C269.775 350.076 270.279 350.616 270.279 351.264C270.279 351.912 269.775 352.434 269.127 352.434ZM268.245 354.18H270.027V363H268.245V354.18ZM277.07 363.216C274.388 363.216 272.372 361.146 272.372 358.608C272.372 355.926 274.316 353.964 276.98 353.964C278.168 353.964 279.248 354.486 279.968 355.278L279.986 350.13H281.768V358.608C281.768 361.218 279.734 363.216 277.07 363.216ZM277.07 361.542C278.726 361.542 279.986 360.21 279.986 358.59C279.986 356.988 278.726 355.656 277.07 355.656C275.432 355.656 274.154 356.988 274.154 358.59C274.154 360.21 275.432 361.542 277.07 361.542ZM288.443 363.198C285.761 363.198 283.763 361.254 283.763 358.536C283.763 355.998 285.581 353.928 288.227 353.928C290.891 353.928 292.547 355.854 292.547 358.32V359.04H285.491C285.689 360.552 286.841 361.614 288.425 361.614C289.505 361.614 290.477 361.146 290.999 360.174L292.367 360.876C291.593 362.388 290.171 363.198 288.443 363.198ZM285.563 357.888H290.765C290.693 356.484 289.667 355.53 288.209 355.53C286.715 355.53 285.743 356.574 285.563 357.888ZM298.544 363.216C295.988 363.216 294.116 361.128 294.116 358.572C294.116 356.052 296.132 353.964 298.814 353.964C301.478 353.964 303.512 355.944 303.512 358.572V363H301.82V361.452C301.154 362.532 299.984 363.216 298.544 363.216ZM298.814 361.524C300.47 361.524 301.73 360.192 301.73 358.59C301.73 356.97 300.47 355.638 298.814 355.638C297.176 355.638 295.898 356.97 295.898 358.59C295.898 360.192 297.176 361.524 298.814 361.524ZM309.233 363.198C307.595 363.198 306.335 362.55 305.651 361.236L307.019 360.48C307.469 361.362 308.189 361.686 309.161 361.686C310.169 361.686 310.943 361.272 310.943 360.498C310.943 358.644 305.885 360.048 305.885 356.682C305.885 355.134 307.253 354 309.179 354C310.817 354 311.933 354.756 312.491 355.782L311.123 356.556C310.745 355.782 310.025 355.512 309.215 355.512C308.387 355.512 307.667 355.944 307.667 356.646C307.667 358.446 312.725 357.132 312.725 360.462C312.725 362.136 311.105 363.198 309.233 363.198ZM316.186 366.366H314.998L315.52 362.946C315.232 362.73 315.034 362.388 315.034 361.992C315.034 361.344 315.556 360.84 316.204 360.84C316.852 360.84 317.374 361.344 317.374 361.992C317.374 362.136 317.356 362.28 317.302 362.406L316.186 366.366ZM329.257 367.284C327.385 367.284 325.837 366.492 325.045 364.926L326.521 364.116C327.025 365.07 328.015 365.628 329.221 365.628C331.093 365.628 332.065 364.224 332.065 362.316V361.542C331.543 362.532 330.607 363.126 329.275 363.126C326.575 363.126 325.261 361.344 325.261 358.752V354.18H327.025V358.662C327.025 360.318 327.889 361.452 329.491 361.452C331.039 361.452 332.047 360.156 332.047 358.536V354.18H333.847V362.298C333.847 365.25 332.119 367.284 329.257 367.284ZM340.756 363.216C338.092 363.216 336.04 361.128 336.04 358.572C336.04 356.034 338.11 353.964 340.756 353.964C343.42 353.964 345.436 356.052 345.436 358.572C345.436 361.128 343.402 363.216 340.756 363.216ZM340.756 361.524C342.394 361.524 343.654 360.192 343.654 358.59C343.654 356.97 342.394 355.638 340.756 355.638C339.1 355.638 337.822 356.97 337.822 358.59C337.822 360.192 339.1 361.524 340.756 361.524ZM351.638 361.488C353.276 361.488 354.176 360.066 354.176 358.428V354.18H355.958V358.644C355.958 361.2 354.41 363.216 351.638 363.216C348.902 363.216 347.354 361.182 347.354 358.626V354.18H349.136V358.446C349.136 360.066 350.018 361.488 351.638 361.488ZM360.23 363H358.448V357.744C358.448 355.602 359.672 354 361.976 354C362.534 354 363.11 354.108 363.56 354.324V356.088C363.128 355.836 362.624 355.71 362.138 355.71C360.95 355.71 360.23 356.52 360.23 357.816V363ZM370.093 350.13H371.875V363H370.093V350.13ZM378.648 363.216C376.092 363.216 374.22 361.128 374.22 358.572C374.22 356.052 376.236 353.964 378.918 353.964C381.582 353.964 383.616 355.944 383.616 358.572V363H381.924V361.452C381.258 362.532 380.088 363.216 378.648 363.216ZM378.918 361.524C380.574 361.524 381.834 360.192 381.834 358.59C381.834 356.97 380.574 355.638 378.918 355.638C377.28 355.638 376.002 356.97 376.002 358.59C376.002 360.192 377.28 361.524 378.918 361.524ZM387.951 367.05H386.169V358.572C386.169 355.944 388.203 353.964 390.867 353.964C393.531 353.964 395.547 356.052 395.547 358.572C395.547 361.236 393.621 363.216 390.939 363.216C389.751 363.216 388.671 362.694 387.951 361.902V367.05ZM390.867 361.542C392.505 361.542 393.765 360.192 393.765 358.59C393.765 356.97 392.505 355.656 390.867 355.656C389.211 355.656 387.951 356.97 387.951 358.59C387.951 360.192 389.211 361.542 390.867 361.542ZM401.573 363.234C399.377 363.234 398.207 361.848 398.207 359.832V355.728H396.461V354.18H398.207V351.894H399.989V354.18H403.373V355.728H399.989V359.778C399.989 360.93 400.673 361.614 401.735 361.614C402.311 361.614 402.941 361.398 403.373 361.092V362.73C402.923 363.036 402.221 363.234 401.573 363.234ZM409.645 363.216C406.981 363.216 404.929 361.128 404.929 358.572C404.929 356.034 406.999 353.964 409.645 353.964C412.309 353.964 414.325 356.052 414.325 358.572C414.325 361.128 412.291 363.216 409.645 363.216ZM409.645 361.524C411.283 361.524 412.543 360.192 412.543 358.59C412.543 356.97 411.283 355.638 409.645 355.638C407.989 355.638 406.711 356.97 406.711 358.59C406.711 360.192 407.989 361.524 409.645 361.524ZM418.097 367.05H416.315V358.572C416.315 355.944 418.349 353.964 421.013 353.964C423.677 353.964 425.693 356.052 425.693 358.572C425.693 361.236 423.767 363.216 421.085 363.216C419.897 363.216 418.817 362.694 418.097 361.902V367.05ZM421.013 361.542C422.651 361.542 423.911 360.192 423.911 358.59C423.911 356.97 422.651 355.656 421.013 355.656C419.357 355.656 418.097 356.97 418.097 358.59C418.097 360.192 419.357 361.542 421.013 361.542ZM428.563 366.366H427.375L427.897 362.946C427.609 362.73 427.411 362.388 427.411 361.992C427.411 361.344 427.933 360.84 428.581 360.84C429.229 360.84 429.751 361.344 429.751 361.992C429.751 362.136 429.733 362.28 429.679 362.406L428.563 366.366ZM441.472 363.216C438.916 363.216 437.044 361.128 437.044 358.572C437.044 356.052 439.06 353.964 441.742 353.964C444.406 353.964 446.44 355.944 446.44 358.572V363H444.748V361.452C444.082 362.532 442.912 363.216 441.472 363.216ZM441.742 361.524C443.398 361.524 444.658 360.192 444.658 358.59C444.658 356.97 443.398 355.638 441.742 355.638C440.104 355.638 438.826 356.97 438.826 358.59C438.826 360.192 440.104 361.524 441.742 361.524ZM453.367 355.674C451.639 355.674 450.775 357.096 450.775 358.734V363H448.993V358.554C448.993 355.98 450.523 353.964 453.367 353.964C456.247 353.964 457.813 355.98 457.813 358.536V363H456.031V358.752C456.031 357.096 455.131 355.674 453.367 355.674ZM464.506 363.216C461.824 363.216 459.808 361.146 459.808 358.608C459.808 355.926 461.752 353.964 464.416 353.964C465.604 353.964 466.684 354.486 467.404 355.278L467.422 350.13H469.204V358.608C469.204 361.218 467.17 363.216 464.506 363.216ZM464.506 361.542C466.162 361.542 467.422 360.21 467.422 358.59C467.422 356.988 466.162 355.656 464.506 355.656C462.868 355.656 461.59 356.988 461.59 358.59C461.59 360.21 462.868 361.542 464.506 361.542ZM480.921 367.284C479.049 367.284 477.501 366.492 476.709 364.926L478.185 364.116C478.689 365.07 479.679 365.628 480.885 365.628C482.757 365.628 483.729 364.224 483.729 362.316V361.542C483.207 362.532 482.271 363.126 480.939 363.126C478.239 363.126 476.925 361.344 476.925 358.752V354.18H478.689V358.662C478.689 360.318 479.553 361.452 481.155 361.452C482.703 361.452 483.711 360.156 483.711 358.536V354.18H485.511V362.298C485.511 365.25 483.783 367.284 480.921 367.284ZM492.42 363.216C489.756 363.216 487.704 361.128 487.704 358.572C487.704 356.034 489.774 353.964 492.42 353.964C495.084 353.964 497.1 356.052 497.1 358.572C497.1 361.128 495.066 363.216 492.42 363.216ZM492.42 361.524C494.058 361.524 495.318 360.192 495.318 358.59C495.318 356.97 494.058 355.638 492.42 355.638C490.764 355.638 489.486 356.97 489.486 358.59C489.486 360.192 490.764 361.524 492.42 361.524ZM503.303 361.488C504.941 361.488 505.841 360.066 505.841 358.428V354.18H507.623V358.644C507.623 361.2 506.075 363.216 503.303 363.216C500.567 363.216 499.019 361.182 499.019 358.626V354.18H500.801V358.446C500.801 360.066 501.683 361.488 503.303 361.488ZM511.894 363H510.112V357.744C510.112 355.602 511.336 354 513.64 354C514.198 354 514.774 354.108 515.224 354.324V356.088C514.792 355.836 514.288 355.71 513.802 355.71C512.614 355.71 511.894 356.52 511.894 357.816V363ZM526.095 363.216C523.431 363.216 521.397 361.218 521.397 358.608V350.13H523.179V355.278C523.899 354.486 524.979 353.964 526.167 353.964C528.849 353.964 530.775 355.926 530.775 358.608C530.775 361.146 528.759 363.216 526.095 363.216ZM526.095 361.542C527.733 361.542 528.993 360.21 528.993 358.59C528.993 356.988 527.733 355.656 526.095 355.656C524.439 355.656 523.179 356.988 523.179 358.59C523.179 360.21 524.439 361.542 526.095 361.542ZM536.91 363.198C534.228 363.198 532.23 361.254 532.23 358.536C532.23 355.998 534.048 353.928 536.694 353.928C539.358 353.928 541.014 355.854 541.014 358.32V359.04H533.958C534.156 360.552 535.308 361.614 536.892 361.614C537.972 361.614 538.944 361.146 539.466 360.174L540.834 360.876C540.06 362.388 538.638 363.198 536.91 363.198ZM534.03 357.888H539.232C539.16 356.484 538.134 355.53 536.676 355.53C535.182 355.53 534.21 356.574 534.03 357.888ZM546.309 363.198C544.671 363.198 543.411 362.55 542.727 361.236L544.095 360.48C544.545 361.362 545.265 361.686 546.237 361.686C547.245 361.686 548.019 361.272 548.019 360.498C548.019 358.644 542.961 360.048 542.961 356.682C542.961 355.134 544.329 354 546.255 354C547.893 354 549.009 354.756 549.567 355.782L548.199 356.556C547.821 355.782 547.101 355.512 546.291 355.512C545.463 355.512 544.743 355.944 544.743 356.646C544.743 358.446 549.801 357.132 549.801 360.462C549.801 362.136 548.181 363.198 546.309 363.198ZM555.962 363.234C553.766 363.234 552.596 361.848 552.596 359.832V355.728H550.85V354.18H552.596V351.894H554.378V354.18H557.762V355.728H554.378V359.778C554.378 360.93 555.062 361.614 556.124 361.614C556.7 361.614 557.33 361.398 557.762 361.092V362.73C557.312 363.036 556.61 363.234 555.962 363.234ZM568.352 363.198C566.714 363.198 565.454 362.55 564.77 361.236L566.138 360.48C566.588 361.362 567.308 361.686 568.28 361.686C569.288 361.686 570.062 361.272 570.062 360.498C570.062 358.644 565.004 360.048 565.004 356.682C565.004 355.134 566.372 354 568.298 354C569.936 354 571.052 354.756 571.61 355.782L570.242 356.556C569.864 355.782 569.144 355.512 568.334 355.512C567.506 355.512 566.786 355.944 566.786 356.646C566.786 358.446 571.844 357.132 571.844 360.462C571.844 362.136 570.224 363.198 568.352 363.198ZM578.365 355.674C576.637 355.674 575.773 357.096 575.773 358.734V363H573.991V358.554C573.991 355.98 575.521 353.964 578.365 353.964C581.245 353.964 582.811 355.98 582.811 358.536V363H581.029V358.752C581.029 357.096 580.129 355.674 578.365 355.674ZM589.234 363.216C586.678 363.216 584.806 361.128 584.806 358.572C584.806 356.052 586.822 353.964 589.504 353.964C592.168 353.964 594.202 355.944 594.202 358.572V363H592.51V361.452C591.844 362.532 590.674 363.216 589.234 363.216ZM589.504 361.524C591.16 361.524 592.42 360.192 592.42 358.59C592.42 356.97 591.16 355.638 589.504 355.638C587.866 355.638 586.588 356.97 586.588 358.59C586.588 360.192 587.866 361.524 589.504 361.524ZM600.805 363.198C598.267 363.234 596.197 361.128 596.197 358.572C596.197 356.034 598.267 353.946 600.805 353.964C602.425 353.964 603.919 354.702 604.729 356.286L603.253 357.114C602.731 356.16 601.849 355.656 600.805 355.656C599.257 355.656 597.979 356.97 597.979 358.572C597.979 360.192 599.257 361.524 600.805 361.524C601.849 361.524 602.731 361.02 603.253 360.066L604.729 360.876C603.919 362.478 602.425 363.198 600.805 363.198ZM608.688 363H606.906V350.112H608.688V357.852H609.768C609.858 357.636 610.002 357.438 610.182 357.258L613.008 354.18H615.186L611.388 358.32C611.28 358.41 611.226 358.482 611.226 358.572C611.226 358.662 611.28 358.734 611.388 358.824L615.168 363H612.972L610.164 359.922C609.984 359.706 609.84 359.49 609.75 359.256H608.688V363ZM620.085 363.198C618.447 363.198 617.187 362.55 616.503 361.236L617.871 360.48C618.321 361.362 619.041 361.686 620.013 361.686C621.021 361.686 621.795 361.272 621.795 360.498C621.795 358.644 616.737 360.048 616.737 356.682C616.737 355.134 618.105 354 620.031 354C621.669 354 622.785 354.756 623.343 355.782L621.975 356.556C621.597 355.782 620.877 355.512 620.067 355.512C619.239 355.512 618.519 355.944 618.519 356.646C618.519 358.446 623.577 357.132 623.577 360.462C623.577 362.136 621.957 363.198 620.085 363.198ZM627.055 363.162C626.407 363.162 625.885 362.64 625.885 361.992C625.885 361.344 626.407 360.84 627.055 360.84C627.703 360.84 628.225 361.344 628.225 361.992C628.225 362.64 627.703 363.162 627.055 363.162Z" fill="black"/>
</g>
<defs>
<filter id="filter0_i_1753_20779" x="0" y="0" width="800" height="474" filterUnits="userSpaceOnUse" color-interpolation-filters="sRGB">
<feFlood flood-opacity="0" result="BackgroundImageFix"/>
<feBlend mode="normal" in="SourceGraphic" in2="BackgroundImageFix" result="shape"/>
<feColorMatrix in="SourceAlpha" type="matrix" values="0 0 0 0 0 0 0 0 0 0 0 0 0 0 0 0 0 0 127 0" result="hardAlpha"/>
<feMorphology radius="8" operator="erode" in="SourceAlpha" result="effect1_innerShadow_1753_20779"/>
<feOffset dy="24"/>
<feGaussianBlur stdDeviation="30"/>
<feComposite in2="hardAlpha" operator="arithmetic" k2="-1" k3="1"/>
<feColorMatrix type="matrix" values="0 0 0 0 0.847059 0 0 0 0 0.658824 0 0 0 0 1 0 0 0 1 0"/>
<feBlend mode="normal" in2="shape" result="effect1_innerShadow_1753_20779"/>
</filter>
<linearGradient id="paint0_linear_1753_20779" x1="400" y1="0" x2="400" y2="450" gradientUnits="userSpaceOnUse">
<stop stop-color="white"/>
<stop offset="1" stop-color="#EFEFEF"/>
</linearGradient>
</defs>
</svg>
