<svg width="800" height="450" viewBox="0 0 800 450" fill="none" xmlns="http://www.w3.org/2000/svg">
<g filter="url(#filter0_i_1753_20755)">
<rect width="800" height="450" rx="48" fill="url(#paint0_linear_1753_20755)"/>
<g opacity="0.1">
<path d="M191.783 207.454C176.19 208.507 159.68 208.947 143.607 211.14C130.908 212.874 120.789 216.193 113.232 220.628C105.653 225.06 100.698 230.565 97.9711 236.49C92.5581 248.36 95.7434 261.869 104.071 273.488C112.441 285.08 125.952 294.936 142.754 299.042C151.144 301.074 160.45 301.551 169.735 299.851C179.021 298.164 188.119 294.383 196.634 288.322C213.415 276.322 225.365 256.845 226.719 237.89C227.364 228.415 225.303 219.049 219.411 210.85C213.519 202.663 203.588 195.659 189.16 191.427C175.628 187.419 162.178 186.923 149.957 188.921C137.694 190.905 126.66 195.211 116.688 200.545C96.8261 211.23 80.9202 226.197 69.2402 236.961C67.3459 238.697 68.1161 241.055 70.9268 242.218C73.7374 243.378 77.5474 242.915 79.4211 241.17C90.9758 230.366 106.424 215.854 124.495 206.088C133.51 201.197 143.087 197.533 152.934 195.922C162.782 194.324 172.9 194.606 184.226 197.868C196.114 201.336 204.005 206.813 209.084 213.718C214.143 220.612 216.163 228.946 215.642 237.617C214.664 254.952 203.255 273.531 188.577 284.001C181.103 289.37 173.691 292.322 166.738 293.612C159.784 294.892 153.101 294.594 146.501 293.041C133.364 289.979 120.893 281.429 113.294 270.93C105.653 260.456 102.864 248.185 107.444 238.141C109.713 233.108 113.752 228.621 119.915 224.974C126.078 221.329 134.426 218.477 145.689 216.894C160.638 214.791 176.835 214.281 192.804 213.164C195.344 212.986 197.134 211.552 196.842 209.996C196.572 208.439 194.303 207.283 191.783 207.454Z" fill="#535353"/>
<path d="M344.302 329.558C324.273 334.788 297.853 343.741 280.823 356.122C272.35 362.32 266.145 369.506 265.021 377.608C263.876 385.705 268.123 394.457 279.012 403.139C284.966 407.895 291.233 411.43 297.812 413.824C304.37 416.219 311.282 417.435 318.069 417.549C331.726 417.773 344.177 413.77 354.69 408.056C365.225 402.304 374.073 394.695 380.798 386.752C387.501 378.795 392.082 370.541 393.623 363.22C395.495 354.274 395.644 346.915 394.163 340.816C392.665 334.737 389.542 329.811 384.441 326.144C379.548 322.602 372.824 320.515 365.87 319.894C358.875 319.251 351.63 319.87 344.26 321.256C329.582 324.058 314.113 329.994 299.206 337.402C269.455 352.233 242.307 373.018 233.396 386.767C232.605 388.008 235.999 388.953 236.956 387.76C247.137 375.267 276.846 356.411 306.618 343.486C321.462 337.015 336.411 332.044 348.382 330.071C354.378 329.069 359.541 328.836 363.455 329.264C367.411 329.717 370.138 330.631 372.657 332.414C375.239 334.273 377.592 337.373 378.799 342.261C380.027 347.128 380.048 353.682 378.404 362.031C377.279 367.864 373.386 375.352 367.515 382.511C361.644 389.684 353.795 396.563 345.113 401.448C336.411 406.372 327.188 409.158 318.339 409.107C313.863 409.082 309.304 408.394 304.411 406.712C299.519 405.032 294.314 402.322 288.984 398.263C279.303 390.855 276.139 384.288 276.68 378.13C277.221 371.976 281.78 365.971 289.068 360.326C303.579 349.025 328.708 339.7 347.695 334.371C349.652 333.827 350.006 332.194 349.215 331.092C348.445 329.988 346.258 329.045 344.302 329.558Z" fill="#535353"/>
<path d="M350.47 84.9126C343.225 89.5994 331.92 95.3515 321.823 101.728C311.767 108.141 302.606 115.13 300.254 123.207C296.985 134.61 301.295 143.936 310.726 150.385C320.095 156.845 333.794 160.341 348.472 161.611C363.17 162.872 379.055 161.931 393.608 159.139C408.118 156.327 421.382 151.692 430.54 145.071C437.288 140.154 443.761 133.094 449.343 124.852C454.899 116.614 459.482 107.229 461.897 97.8029C464.311 88.3754 464.601 78.9041 461.126 70.4001C459.377 66.1526 456.648 62.1372 452.63 58.6009C448.611 55.0671 443.261 52.0409 436.684 49.8909C429.773 47.6222 421.61 46.3313 412.325 46.1033C390.173 45.5314 370.686 50.4923 354.759 58.4193C338.749 66.3562 325.903 77.2086 315.473 89.0981C294.612 112.887 283.265 140.976 277.581 159.362C277.477 159.702 278.414 159.84 278.581 159.508C286.888 141.563 302.502 114.411 325.112 92.6178C336.375 81.7164 349.388 72.1908 363.794 65.7378C378.264 59.2734 393.754 55.8285 411.553 56.4068C418.801 56.6544 424.379 57.6386 428.814 59.0839C433.02 60.4727 436.267 62.2918 438.91 64.5965C441.556 66.8985 443.576 69.7149 444.97 72.9779C447.739 79.4954 447.801 87.7621 445.781 96.2829C443.782 104.805 439.764 113.579 434.874 121.204C430.023 128.822 424.191 135.327 419.112 139.169C412.679 144.11 401.83 148.334 389.319 150.961C376.807 153.607 362.691 154.685 350.033 153.829C337.354 152.982 326.299 150.225 319.137 145.579C312.038 140.923 307.999 134.291 310.184 124.166C311.309 118.428 318.783 111.72 328.131 105.426C337.458 99.0977 348.367 93.1343 355.821 87.9684C358.506 86.1119 353.26 83.1141 350.47 84.9126Z" fill="#535353"/>
<path d="M421.382 216.969C417.074 219.53 413.577 223.305 410.576 227.588C407.6 231.869 405.247 236.635 403.875 241.053C402.543 245.488 402.084 249.486 403.437 252.665C404.143 254.23 405.476 255.814 408.162 256.717C410.869 257.615 414.011 257.38 416.781 256.616C424.278 254.557 430.772 250.79 435.851 246.314C440.933 241.832 444.553 236.615 445.972 231.499C447.366 226.396 446.573 221.312 442.266 217.318C437.976 213.31 430.233 210.735 419.239 210.442C386.844 209.514 362.547 219.024 344.58 232.449C326.592 245.893 314.663 263.341 306.689 278.877C315.37 263.493 328.154 246.308 346.454 233.437C364.796 220.545 388.384 212.054 418.946 213.473C428.901 213.961 434.501 216.206 437.581 219.212C440.64 222.233 441.288 226.354 439.851 230.798C438.414 235.229 434.917 239.901 430.211 243.799C425.527 247.703 419.655 250.805 413.783 252.261C412.994 252.461 412.451 252.512 412.162 252.508C411.89 252.503 411.89 252.474 411.89 252.47C411.89 252.461 411.829 252.443 411.662 252.279C411.496 252.123 411.286 251.825 411.119 251.397C410.37 249.659 410.703 246.059 412.162 242.103C413.577 238.127 415.992 233.703 418.862 229.882C421.715 226.065 425.15 222.824 427.898 221.344C429.918 220.266 430.001 218.357 428.191 217.149C426.399 215.942 423.3 215.83 421.382 216.969Z" fill="#535353"/>
<path d="M634.886 116.346C609.9 118.391 566.949 124.717 534.72 136.939C518.647 143.066 505.116 150.714 498.328 160.348C491.501 169.979 492.084 181.473 503.139 194.061C506.947 198.431 511.57 201.623 516.859 203.687C522.148 205.756 528.019 206.638 533.931 206.575C545.797 206.432 557.852 202.803 569.262 197.77C580.669 192.718 591.435 186.173 600.22 179.827C609.028 173.469 615.833 167.352 619.352 162.981C625.973 154.699 629.575 147.532 630.596 141.433C631.635 135.344 630.053 130.276 626.183 126.402C622.331 122.522 616.21 119.963 608.84 118.774C601.469 117.577 592.85 117.676 583.46 118.974C545.986 124.198 495.559 148.541 466.143 192.246C465.498 193.205 468.286 193.933 468.934 192.979C498.81 149.972 549.193 126.634 584.542 122.065C593.35 120.913 601.176 120.933 607.442 122.006C613.712 123.089 618.353 125.15 621.372 128.223C624.348 131.303 625.745 135.522 624.702 141.032C623.664 146.534 620.206 153.283 613.647 161.212C610.483 165.075 603.757 171.011 595.12 177.083C586.479 183.165 575.923 189.42 565.077 194.097C554.228 198.791 543.111 201.816 533.848 201.803C529.203 201.806 525.019 201.123 521.127 199.566C517.232 198.002 513.547 195.506 510.321 191.695C500.475 179.963 500.576 170.612 506.365 162.537C512.196 154.464 524.334 147.544 539.593 141.908C570.051 130.603 612.42 124.619 636.218 122.891C639.132 122.679 641.192 121.017 640.837 119.211C640.464 117.403 637.8 116.107 634.886 116.346Z" fill="#535353"/>
<path d="M671.299 279.343C652.497 279.426 624.373 280.956 600.409 286.925C588.459 289.927 577.443 294.066 569.429 299.931C561.371 305.77 556.603 313.429 557.269 322.55C557.602 328.074 562.413 332.588 568.824 335.825C575.257 339.102 583.442 341.395 592.079 343.082C609.383 346.424 628.514 347.311 639.758 346.704C659.578 345.663 673.297 339.126 680.291 330.225C687.35 321.334 688.393 310.302 685.269 299.308C682.105 288.307 674.713 277.302 664.135 268.465C653.561 259.649 639.736 252.936 623.602 250.993C603.696 248.597 586.106 250.92 570.989 256.217C555.832 261.51 543.05 269.689 531.871 279.088C509.532 297.886 493.564 321.704 479.74 337.903C478.509 339.346 482.694 340.73 483.942 339.299C498.227 323.018 514.673 299.46 536.784 281.354C547.817 272.3 560.248 264.646 574.301 259.891C588.354 255.142 603.949 253.209 622.143 255.514C635.758 257.245 648.062 263.186 657.641 271.407C667.219 279.605 673.985 290.017 676.671 300.215C679.397 310.418 678.003 320.366 671.965 327.64C665.822 334.902 655.809 339.713 638.904 340.602C629.43 341.084 610.798 340.089 595.286 336.911C587.5 335.338 580.484 333.213 575.717 330.704C570.927 328.153 568.491 325.512 568.303 322.302C567.992 314.742 571.738 309.169 578.153 304.547C584.586 299.949 593.976 296.392 604.822 293.78C626.473 288.529 653.579 287.176 671.299 287.261C674.836 287.279 677.689 285.492 677.689 283.303C677.689 281.115 674.836 279.325 671.299 279.343Z" fill="#535353"/>
<path d="M325.158 227.765C314.228 232.96 296.948 241.926 287.204 252.127C282.354 257.232 279.272 262.778 280.542 268.412C281.813 274.061 287.662 279.346 298.614 283.548C307.254 286.885 317.872 287.172 328.427 285.68C339.003 284.175 349.746 280.86 359.157 276.498C368.567 272.13 376.645 266.716 381.683 260.883C386.721 255.068 388.741 248.709 385.41 242.764C383.182 238.737 379.393 235.946 374.459 234.566C369.566 233.177 363.924 233.186 357.97 234.037C346.103 235.762 332.487 240.869 318.954 247.096C291.972 259.548 265.615 276.615 259.202 280.434C258.057 281.129 260.035 282.426 261.222 281.747C267.801 277.95 294.595 261.253 321.536 249.289C334.985 243.306 348.539 238.542 359.115 237.169C364.403 236.47 368.796 236.622 372.148 237.626C375.479 238.636 378.144 240.486 379.955 243.9C382.474 248.655 380.829 253.87 376.187 259.031C371.565 264.17 363.945 269.133 355.097 273.082C346.248 277.034 336.172 279.966 326.824 281.176C317.434 282.399 308.982 281.872 302.882 279.39C293.388 275.526 289.765 271.622 288.953 267.715C288.162 263.793 290.432 259.412 294.845 254.97C303.61 246.082 320.453 237.491 331.113 232.666C333.319 231.667 333.736 229.732 332.091 228.379C330.446 227.024 327.324 226.735 325.158 227.765Z" fill="#535353"/>
<path d="M491.327 296.139C467.866 300.46 447.692 310.022 440.05 321.982C436.26 327.953 435.826 334.579 439.967 341.046C444.112 347.524 452.666 353.778 466.367 359.472C470.281 361.117 474.422 361.84 478.379 361.625C482.335 361.419 485.937 360.335 489.141 358.765C495.512 355.606 500.678 350.483 505.091 344.767C513.876 333.336 519.437 319.462 521.019 314.52C523.39 307.086 523.683 302.014 521.996 298.587C521.142 296.882 519.686 295.538 517.623 294.739C515.563 293.935 513.084 293.749 510.568 293.97C505.507 294.432 499.762 296.385 493.264 299.288C486.792 302.2 479.649 306.096 472.257 310.533C442.758 328.269 409.385 354.679 402.659 360.476C402.221 360.848 403.282 361.329 403.72 360.964C410.551 355.297 444.734 329.244 474.505 311.991C481.941 307.679 489.101 303.918 495.429 301.181C501.76 298.435 507.317 296.746 511.107 296.479C513 296.338 514.354 296.52 515.353 296.927C516.374 297.339 517.25 298.052 517.873 299.358C519.122 301.956 518.915 306.747 516.374 313.92C514.709 318.628 508.776 332.366 499.99 343.228C495.639 348.656 490.517 353.348 485.354 355.763C482.773 356.982 480.294 357.62 477.901 357.719C475.504 357.804 473.007 357.405 470.053 356.139C457.267 350.622 450.001 344.888 446.711 339.44C443.424 333.984 443.945 328.746 447.232 323.762C453.77 313.808 472.279 305.074 493.785 301.436C496.16 301.035 497.514 299.494 496.844 298.032C496.16 296.567 493.68 295.704 491.327 296.139Z" fill="#535353"/>
<path d="M171.068 340.207C162.99 357.952 154.912 375.697 146.855 393.44C146.564 394.056 146.876 394.71 147.605 395.109C148.312 395.519 149.374 395.658 150.29 395.445C156.89 393.913 164.968 390.083 173.296 384.946C181.561 379.812 189.931 373.37 196.447 366.645C202.943 359.921 207.606 352.921 208.314 346.589C209.064 340.278 205.545 334.515 195.989 330.998C186.537 327.457 176.648 328.265 167.466 331.522C158.243 334.777 149.457 340.444 141.421 346.92C125.349 359.872 112.337 376.103 106.299 382.771C106.195 382.906 106.57 383.038 106.694 382.908C112.919 376.3 126.452 360.226 142.775 347.574C150.915 341.251 159.784 335.792 168.632 332.815C177.522 329.84 186.079 329.311 194.469 332.541C202.922 335.866 205.628 340.628 204.879 346.425C204.067 352.202 199.445 358.891 192.949 365.328C186.454 371.766 178.084 377.964 169.923 382.834C161.803 387.704 153.746 391.25 148.5 392.354C149.645 393.024 150.79 393.691 151.935 394.361C160.554 376.712 169.153 359.065 177.772 341.419C178.334 340.276 177.251 339.073 175.399 338.737C173.546 338.404 171.588 339.058 171.068 340.207Z" fill="#535353"/>
<path d="M245.138 119.266C210.308 123.61 185.97 129.837 167.648 140.277C149.348 150.717 137.335 165.119 126.176 185.589C125.51 186.808 128.987 187.571 129.715 186.365C141.707 166.224 154.116 152.562 171.729 143.086C189.342 133.61 212.389 128.07 246.679 124.395C248.969 124.149 250.489 122.766 250.052 121.351C249.615 119.934 247.408 118.982 245.138 119.266Z" fill="#535353"/>
<path d="M580.756 35.7307C568.969 38.4077 546.84 42.5961 530.123 49.2717C521.772 52.6252 514.651 56.6214 511.009 61.6058C507.302 66.5862 507.596 72.5252 513.402 78.8068C516.4 82.0597 519.752 84.278 523.542 85.5252C527.332 86.7785 531.473 86.9526 535.347 86.3265C543.155 85.0537 550.337 80.9917 557.02 75.9855C570.283 65.9396 581.067 51.8766 583.688 46.9903C584.043 46.3048 583.254 45.5486 582.106 45.4855C548.983 43.6549 523.542 52.9227 503.534 66.3466C483.465 79.7846 468.619 97.4429 456.398 112.855C456.17 113.139 457.003 113.393 457.234 113.111C469.828 97.8307 485.13 80.3694 505.221 67.3308C525.352 54.2781 550.044 45.7124 581.755 47.7644C581.234 47.2633 580.691 46.7609 580.169 46.2598C577.693 50.7302 566.515 64.708 553.523 74.1884C547.068 78.9446 540.074 82.5169 534.159 83.3506C531.205 83.7756 528.603 83.6197 525.978 82.7373C523.375 81.8485 520.649 80.1221 518.068 77.2003C513.091 71.497 513.257 67.0746 516.233 63.0898C519.234 59.1091 525.522 55.5379 533.432 52.4899C549.255 46.3642 571.011 42.4234 583.105 39.8236C584.941 39.4294 585.896 38.1759 585.23 37.046C584.586 35.9162 582.566 35.3172 580.756 35.7307Z" fill="#535353"/>
<path d="M685.659 196.574C685.015 198.43 684.389 200.287 683.744 202.148C682.934 204.532 679.6 213.492 679.267 221.5C679.143 225.528 679.6 229.322 682.119 232.312C683.368 233.793 685.388 235.124 688.179 235.751C690.948 236.387 694.069 236.264 697.319 235.581C704.23 234.109 708.998 230.442 712.411 225.997C715.829 221.521 717.928 216.105 718.992 210.547C720.053 204.989 720.053 199.296 719.076 194.282C718.055 189.26 716.201 184.946 712.911 181.93C708.726 178.083 702.898 176.017 696.86 175.623C690.822 175.207 684.783 176.25 679.1 177.934C667.777 181.337 657.576 187.382 651.993 191.912C638.65 202.816 628.8 215.415 618.06 226.865C617.039 227.951 617.643 229.344 619.413 229.974C621.162 230.606 623.41 230.234 624.431 229.145C635.32 217.489 645.061 205.059 657.825 194.645C662.654 190.666 672.461 184.894 682.268 181.997C687.158 180.53 691.987 179.802 696.049 180.097C700.107 180.415 703.607 181.54 706.916 184.472C709.081 186.373 710.996 190.222 711.872 194.823C712.788 199.433 712.788 204.824 711.81 210.025C710.829 215.224 708.831 220.243 705.895 224.09C702.959 227.969 699.151 230.514 695.006 231.358C692.78 231.826 691.47 231.752 690.655 231.573C689.866 231.383 689.178 231.036 688.45 230.211C686.992 228.592 686.264 225.275 686.452 221.609C686.742 214.226 689.927 205.45 690.738 203.072C691.386 201.214 692.031 199.358 692.653 197.5C693.486 195.109 686.492 194.183 685.659 196.574Z" fill="#535353"/>
</g>
<path d="M68.576 131.152C50.432 131.152 35.84 116.464 35.84 97.744C35.84 79.216 50.432 64.528 68.576 64.528C79.616 64.528 89.696 70.192 94.592 79.6L86.624 84.208C82.88 77.776 76.448 73.84 68.192 73.84C55.712 73.84 45.92 84.208 45.92 97.744C45.92 111.472 55.616 121.936 68.192 121.936C76.448 121.936 82.976 118 86.624 111.568L94.592 116.176C89.696 125.584 79.616 131.152 68.576 131.152ZM125.773 131.152C111.565 131.152 100.621 120.016 100.621 106.384C100.621 92.848 111.661 81.808 125.773 81.808C139.981 81.808 150.733 92.944 150.733 106.384C150.733 120.016 139.885 131.152 125.773 131.152ZM125.773 122.128C134.509 122.128 141.229 115.024 141.229 106.48C141.229 97.84 134.509 90.736 125.773 90.736C116.941 90.736 110.125 97.84 110.125 106.48C110.125 115.024 116.941 122.128 125.773 122.128ZM198.307 96.016V104.656H165.091V96.016H198.307ZM230.602 131.248C225.898 131.248 221.866 128.368 220.522 122.608L211.306 82.96H220.234L228.874 120.784C229.162 121.936 229.546 122.512 230.602 122.512C231.37 122.512 231.946 121.84 232.138 120.976L239.818 90.352C241.258 84.592 244.522 81.808 249.514 81.808C254.506 81.808 257.674 84.496 259.114 90.256L266.698 120.976C266.986 121.936 267.466 122.512 268.426 122.512C269.29 122.512 269.77 121.936 270.058 120.784L278.41 82.96H287.242L278.314 122.608C276.97 128.368 273.034 131.248 268.33 131.248C263.434 131.248 260.17 128.368 258.826 122.704L251.146 91.6C250.858 90.64 250.378 90.064 249.418 90.064C248.554 90.064 248.074 90.64 247.882 91.6L240.106 122.704C238.762 128.368 235.498 131.248 230.602 131.248ZM317.961 131.152C303.753 131.152 292.809 120.016 292.809 106.384C292.809 92.848 303.849 81.808 317.961 81.808C332.169 81.808 342.921 92.944 342.921 106.384C342.921 120.016 332.073 131.152 317.961 131.152ZM317.961 122.128C326.697 122.128 333.417 115.024 333.417 106.48C333.417 97.84 326.697 90.736 317.961 90.736C309.129 90.736 302.313 97.84 302.313 106.48C302.313 115.024 309.129 122.128 317.961 122.128ZM363.039 130H353.535V101.968C353.535 90.544 360.063 82 372.351 82C375.327 82 378.399 82.576 380.799 83.728V93.136C378.495 91.792 375.807 91.12 373.215 91.12C366.879 91.12 363.039 95.44 363.039 102.352V130ZM397.771 130H388.267V61.264H397.771V102.544H403.531C404.011 101.392 404.779 100.336 405.739 99.376L420.811 82.96H432.427L412.171 105.04C411.595 105.52 411.307 105.904 411.307 106.384C411.307 106.864 411.595 107.248 412.171 107.728L432.331 130H420.619L405.643 113.584C404.683 112.432 403.915 111.28 403.435 110.032H397.771V130ZM448.284 73.648C444.828 73.648 442.044 70.864 442.044 67.408C442.044 63.952 444.828 61.072 448.284 61.072C451.74 61.072 454.428 63.952 454.428 67.408C454.428 70.864 451.74 73.648 448.284 73.648ZM443.58 82.96H453.084V130H443.58V82.96ZM491.894 90.928C482.678 90.928 478.07 98.512 478.07 107.248V130H468.566V106.288C468.566 92.56 476.726 81.808 491.894 81.808C507.254 81.808 515.606 92.56 515.606 106.192V130H506.102V107.344C506.102 98.512 501.302 90.928 491.894 90.928ZM550.438 152.752C540.262 152.752 531.814 148.336 527.494 139.984L535.462 135.664C538.246 140.752 543.43 144.016 550.246 144.016C560.134 144.016 566.854 136.912 566.854 125.872V122.128C563.782 127.024 558.022 130.672 550.15 130.672C536.806 130.672 526.246 120.112 526.246 106.288C526.246 92.848 536.998 81.808 551.302 81.808C565.51 81.808 576.358 92.368 576.358 106.384V125.776C576.358 142.096 565.414 152.752 550.438 152.752ZM551.206 121.744C559.846 121.744 566.758 114.832 566.758 106.192C566.758 97.552 559.846 90.832 551.206 90.832C542.662 90.832 535.654 97.552 535.654 106.192C535.654 114.832 542.662 121.744 551.206 121.744Z" fill="black"/>
<path d="M648.389 56.0134C646.229 57.4673 642.924 60.3495 639.008 64.2425C635.094 68.1333 630.582 73.0308 626.099 78.5133C621.908 83.6602 617.694 89.2739 613.903 94.9586C610.114 100.646 606.75 106.405 604.273 111.885C601.8 117.37 600.188 122.567 600.013 127.273C599.932 129.624 600.22 131.869 601.016 133.917C601.809 135.964 603.128 137.791 604.945 139.204C607.514 141.206 610.842 142.563 614.739 143.486C618.64 144.402 623.123 144.875 628.034 144.978C637.847 145.185 649.363 143.916 661.088 141.561C672.809 139.204 684.728 135.757 695.312 131.579C705.901 127.393 715.142 122.513 721.617 117.115C725.11 114.187 727.833 111.101 729.436 107.677C730.012 106.438 730.542 104.981 730.979 103.385C731.415 101.789 731.753 100.06 731.909 98.2924C732.063 96.5244 732.041 94.7134 731.69 92.9432C731.34 91.1795 730.648 89.4158 729.376 87.9489C727.52 85.8175 725.214 84.4259 722.828 83.4537C720.433 82.4794 717.926 81.8965 715.457 81.3997C712.991 80.9071 710.561 80.5049 708.346 79.9758C706.134 79.4532 704.15 78.7993 702.566 77.8981C699.906 76.3882 696.974 74.388 693.884 72.1769C690.793 69.9659 687.543 67.544 684.207 65.1846C680.871 62.825 677.45 60.5302 674.002 58.5686C670.553 56.6092 667.079 54.9766 663.613 53.9743C661.122 53.2624 658.626 52.9054 656.188 53.0216C653.753 53.1377 651.38 53.7377 649.184 54.8971C646.984 56.0564 644.974 57.7663 643.191 60.0548C641.406 62.3476 639.844 65.2168 638.495 68.7528C638.46 68.8474 638.604 68.9205 638.654 68.8323C640.547 65.5889 642.499 63.1068 644.453 61.2722C646.411 59.4353 648.362 58.2481 650.304 57.5361C652.247 56.8264 654.188 56.5855 656.196 56.6887C658.202 56.7963 660.277 57.2566 662.435 57.9944C665.438 59.0096 668.58 60.6162 671.771 62.5842C674.963 64.5479 678.201 66.8643 681.413 69.2711C684.626 71.6757 687.812 74.1708 690.917 76.4915C694.022 78.8144 697.041 80.9631 699.958 82.6859C702.195 84.0001 704.637 84.7958 707.093 85.4196C709.55 86.0369 712.037 86.4756 714.381 86.9703C716.723 87.465 718.917 88.02 720.762 88.7922C722.614 89.5665 724.082 90.5279 725.185 91.8097C725.612 92.3044 725.964 93.0573 726.164 94.0983C726.367 95.1306 726.4 96.4126 726.275 97.7547C726.152 99.0989 725.877 100.501 725.52 101.789C725.166 103.078 724.726 104.257 724.315 105.137C723.264 107.405 721.12 109.978 718.032 112.548C712.323 117.325 703.501 122.074 693.29 126.178C683.072 130.291 671.455 133.796 660.048 136.263C648.644 138.73 637.44 140.158 628.086 140.141C623.411 140.135 619.201 139.765 615.685 139.015C612.168 138.266 609.363 137.123 607.472 135.702C606.229 134.766 605.395 133.661 604.826 132.299C604.261 130.937 603.981 129.294 604.008 127.38C604.05 123.554 605.366 118.708 607.616 113.447C609.857 108.182 613.006 102.488 616.603 96.8297C620.2 91.1666 624.245 85.5379 628.272 80.3522C632.555 74.8095 636.76 69.7206 640.397 65.6426C644.031 61.5668 647.111 58.4976 649.055 56.9984C649.57 56.6027 648.927 55.652 648.389 56.0134Z" fill="black"/>
<path d="M627.979 124.586C633.474 114.167 638.021 102.009 643.576 91.1085C646.593 85.1464 649.448 79.3004 653.093 74.1578C653.439 73.6695 652.709 73.0177 652.292 73.4415C647.801 77.9754 643.849 83.4837 640.732 89.5685C635.058 100.712 630.623 112.912 625.348 123.123C624.572 124.627 627.191 126.081 627.979 124.586Z" fill="black"/>
<path d="M655.181 122.951C655.235 114.72 658.35 105.284 662.341 96.427C665.169 90.1207 667.998 83.8381 670.574 78.4933C670.709 78.2159 670.275 77.9513 670.105 78.2072C666.81 83.1133 663.025 88.9313 660.121 95.3645C656.065 104.396 652.87 114.109 652.852 122.941C652.847 124.27 655.172 124.28 655.181 122.951Z" fill="black"/>
<path d="M690.965 117.12C691.293 108.546 694.258 100.853 697.232 92.6343C697.409 92.1462 696.589 91.8021 696.385 92.2795C692.953 100.277 689.442 107.86 688.534 116.939C688.465 117.629 688.991 118.233 689.662 118.283C690.334 118.332 690.938 117.814 690.965 117.12Z" fill="black"/>
<path fill-rule="evenodd" clip-rule="evenodd" d="M313.295 150.008C320.917 149.93 327.897 150.436 329.452 151.179L338.726 155.606C339.13 155.583 339.546 155.562 339.976 155.542C344.581 155.332 349.953 155.368 354.236 155.637L354.643 155.662L357.703 154.488C359.276 153.885 364.496 153.444 370.762 153.386C377.025 153.327 382.992 153.662 385.682 154.225L387.139 154.53C389.677 154.322 392.897 154.198 396.331 154.19C402.304 154.176 407.784 154.516 410.268 155.054L420.705 157.313L441.685 152.329C444.117 151.752 449.956 151.388 456.268 151.421C462.58 151.454 468.001 151.876 469.806 152.476L480.612 156.068L483.954 155.641C486.313 155.34 489.718 155.145 493.421 155.087V153.507C493.421 152.815 498.258 152.216 505.067 152.064C511.879 151.911 518.849 152.246 521.854 152.87L549.54 158.613C553.095 159.351 549.934 160.234 542.484 160.585C535.036 160.937 526.115 160.624 522.561 159.887L522.197 159.811C520.379 160.25 516.48 160.588 511.572 160.695C504.717 160.844 497.736 160.501 494.796 159.87L492.503 159.378L486.408 160.156C482.976 160.594 477.354 160.806 471.849 160.704C466.341 160.602 461.871 160.204 460.274 159.672L453.135 157.301L435.133 161.576C432.848 162.119 427.533 162.476 421.593 162.486C415.654 162.496 410.216 162.157 407.746 161.622L396.399 159.166C393.94 159.356 390.889 159.469 387.639 159.479C382.916 159.493 378.482 159.285 375.59 158.932C373.993 159.127 371.9 159.281 369.477 159.376C365.67 159.525 361.444 159.512 357.773 159.345L352.825 162.771C351.798 163.482 345.755 164.017 338.497 164.04C331.242 164.062 324.873 163.565 323.398 162.862L321.183 161.805C320.349 161.844 319.466 161.875 318.547 161.899C311.944 162.067 305.026 161.772 301.733 161.181L280.393 157.353L251.595 161.328C248.669 161.732 243.889 161.964 238.871 161.944C233.854 161.925 229.269 161.658 226.667 161.233L218.052 159.826L214.18 162.252C213.168 162.886 208.135 163.383 201.724 163.482C195.313 163.581 188.988 163.259 186.07 162.686L156.708 156.915L140.898 163.511C139.267 164.191 133.041 164.666 125.975 164.648C118.909 164.63 112.936 164.125 111.658 163.437L105.826 160.297L96.2941 163.457C94.2983 164.119 87.9402 164.556 80.9773 164.51C74.0143 164.464 68.3002 163.947 67.2117 163.265L65.2061 162.008L61.7742 164.706C60.7433 165.516 53.269 166.09 45.0798 165.988C36.8906 165.886 31.0877 165.147 32.1186 164.336L48.7086 151.294C49.6382 150.564 55.8599 150.012 63.3019 150C70.7439 149.989 77.1373 150.521 78.2984 151.248L86.4729 156.372L94.9651 153.556C96.9411 152.901 103.196 152.465 110.094 152.502C116.992 152.539 122.735 153.039 123.984 153.712L128.212 155.988L137.083 152.286C138.533 151.682 143.647 151.231 149.883 151.159C156.12 151.086 162.149 151.408 164.973 151.963L191.896 157.254L194.902 155.37C195.881 154.757 200.626 154.27 206.782 154.15C212.939 154.03 219.195 154.304 222.446 154.835L240.498 157.784L269.896 153.726C272.885 153.313 277.802 153.081 282.922 153.111C288.042 153.141 292.649 153.429 295.127 153.873L299.874 154.724V151.479C299.874 150.721 305.67 150.085 313.295 150.008Z" fill="black"/>
<path d="M39.224 198.264C36.512 198.264 34.232 197.04 33.272 194.832L35.336 193.824C35.96 195.216 37.328 195.96 39.224 195.96C41.096 195.96 42.536 195.072 42.536 193.488C42.536 191.712 40.904 191.4 39.008 191.04C36.584 190.56 33.584 189.768 33.584 186.36C33.584 183.696 36.008 181.68 39.056 181.68C41.504 181.68 43.688 182.832 44.648 185.04L42.608 186.096C41.96 184.776 40.736 183.96 38.96 183.96C37.328 183.96 36.008 184.92 36.008 186.288C36.008 188.016 37.712 188.4 39.656 188.784C42.056 189.264 44.984 190.056 44.984 193.464C44.984 196.296 42.464 198.264 39.224 198.264ZM49.6334 183.912C48.7694 183.912 48.0734 183.216 48.0734 182.352C48.0734 181.488 48.7694 180.768 49.6334 180.768C50.4974 180.768 51.1694 181.488 51.1694 182.352C51.1694 183.216 50.4974 183.912 49.6334 183.912ZM48.4574 186.24H50.8334V198H48.4574V186.24ZM60.056 198.312C57.128 198.312 55.568 196.464 55.568 193.776V188.304H53.24V186.24H55.568V183.192H57.944V186.24H62.456V188.304H57.944V193.704C57.944 195.24 58.856 196.152 60.272 196.152C61.04 196.152 61.88 195.864 62.456 195.456V197.64C61.856 198.048 60.92 198.312 60.056 198.312ZM67.2847 198.216C66.4207 198.216 65.7247 197.52 65.7247 196.656C65.7247 195.792 66.4207 195.12 67.2847 195.12C68.1487 195.12 68.8447 195.792 68.8447 196.656C68.8447 197.52 68.1487 198.216 67.2847 198.216ZM81.3054 196.128L78.2094 181.92H80.6574L83.4654 195.384C83.5374 195.744 83.6574 195.912 83.8494 195.912C84.0414 195.912 84.1854 195.768 84.2574 195.384L86.9214 183.936C87.2334 182.448 88.0494 181.776 89.1534 181.776C90.2814 181.776 91.0734 182.424 91.4094 183.912L94.1694 195.384C94.2654 195.72 94.3614 195.888 94.5774 195.888C94.7934 195.888 94.8894 195.72 94.9374 195.384L97.5294 181.92H99.9774L97.1214 195.984C96.8334 197.4 96.0174 198.288 94.6974 198.288C93.4254 198.288 92.5374 197.52 92.1774 196.056L89.3934 184.44C89.3454 184.224 89.2734 184.128 89.1534 184.128C89.0574 184.128 88.9614 184.224 88.9134 184.44L86.2014 196.2C85.8894 197.544 84.9534 198.312 83.8014 198.312C82.5534 198.312 81.6174 197.544 81.3054 196.128ZM107.24 198.288C103.688 198.288 100.952 195.504 100.952 192.096C100.952 188.712 103.712 185.952 107.24 185.952C110.792 185.952 113.48 188.736 113.48 192.096C113.48 195.504 110.768 198.288 107.24 198.288ZM107.24 196.032C109.424 196.032 111.104 194.256 111.104 192.12C111.104 189.96 109.424 188.184 107.24 188.184C105.032 188.184 103.328 189.96 103.328 192.12C103.328 194.256 105.032 196.032 107.24 196.032ZM118.51 198H116.134V190.992C116.134 188.136 117.766 186 120.838 186C121.582 186 122.35 186.144 122.95 186.432V188.784C122.374 188.448 121.702 188.28 121.054 188.28C119.47 188.28 118.51 189.36 118.51 191.088V198ZM127.193 198H124.817V180.816H127.193V191.136H128.633C128.753 190.848 128.945 190.584 129.185 190.344L132.953 186.24H135.857L130.793 191.76C130.649 191.88 130.577 191.976 130.577 192.096C130.577 192.216 130.649 192.312 130.793 192.432L135.833 198H132.905L129.161 193.896C128.921 193.608 128.729 193.32 128.609 193.008H127.193V198ZM139.941 198.216C139.077 198.216 138.381 197.52 138.381 196.656C138.381 195.792 139.077 195.12 139.941 195.12C140.805 195.12 141.501 195.792 141.501 196.656C141.501 197.52 140.805 198.216 139.941 198.216ZM159.41 198.288C154.874 198.288 151.226 194.616 151.226 189.936C151.226 185.304 154.874 181.632 159.41 181.632C162.17 181.632 164.69 183.048 165.914 185.4L163.922 186.552C162.986 184.944 161.378 183.96 159.314 183.96C156.194 183.96 153.746 186.552 153.746 189.936C153.746 193.368 156.17 195.984 159.314 195.984C161.378 195.984 163.01 195 163.922 193.392L165.914 194.544C164.69 196.896 162.17 198.288 159.41 198.288ZM171.021 198H168.645V180.84H171.021V187.56C171.933 186.576 173.349 185.952 174.933 185.952C178.389 185.952 180.333 188.256 180.333 191.856V198H177.957V192.096C177.957 190.008 176.805 188.208 174.573 188.208C172.485 188.208 171.021 189.888 171.021 192.168V198ZM185.383 183.912C184.519 183.912 183.823 183.216 183.823 182.352C183.823 181.488 184.519 180.768 185.383 180.768C186.247 180.768 186.919 181.488 186.919 182.352C186.919 183.216 186.247 183.912 185.383 183.912ZM184.207 186.24H186.583V198H184.207V186.24ZM190.817 180.84H193.193V198H190.817V180.84ZM197.543 180.84H199.919V198H197.543V180.84ZM205.566 198.216C204.702 198.216 204.006 197.52 204.006 196.656C204.006 195.792 204.702 195.12 205.566 195.12C206.43 195.12 207.126 195.792 207.126 196.656C207.126 197.52 206.43 198.216 205.566 198.216Z" fill="black"/>
<path d="M251.858 363.216C248.402 363.216 245.72 360.426 245.72 356.952C245.72 353.55 248.384 350.742 251.858 350.742C253.856 350.742 255.8 351.714 256.736 353.55L255.242 354.414C254.522 353.172 253.262 352.47 251.786 352.47C249.41 352.47 247.61 354.468 247.61 356.988C247.61 359.562 249.41 361.524 251.858 361.524C253.298 361.524 254.468 360.966 255.044 360.282V357.384H256.826V360.912C255.998 362.118 254.216 363.216 251.858 363.216ZM263.179 363.198C260.497 363.198 258.499 361.254 258.499 358.536C258.499 355.998 260.317 353.928 262.963 353.928C265.627 353.928 267.283 355.854 267.283 358.32V359.04H260.227C260.425 360.552 261.577 361.614 263.161 361.614C264.241 361.614 265.213 361.146 265.735 360.174L267.103 360.876C266.329 362.388 264.907 363.198 263.179 363.198ZM260.299 357.888H265.501C265.429 356.484 264.403 355.53 262.945 355.53C261.451 355.53 260.479 356.574 260.299 357.888ZM273.425 363.234C271.229 363.234 270.059 361.848 270.059 359.832V355.728H268.313V354.18H270.059V351.894H271.841V354.18H275.225V355.728H271.841V359.778C271.841 360.93 272.525 361.614 273.587 361.614C274.163 361.614 274.793 361.398 275.225 361.092V362.73C274.775 363.036 274.073 363.234 273.425 363.234ZM285.815 363.198C284.177 363.198 282.917 362.55 282.233 361.236L283.601 360.48C284.051 361.362 284.771 361.686 285.743 361.686C286.751 361.686 287.525 361.272 287.525 360.498C287.525 358.644 282.467 360.048 282.467 356.682C282.467 355.134 283.835 354 285.761 354C287.399 354 288.515 354.756 289.073 355.782L287.705 356.556C287.327 355.782 286.607 355.512 285.797 355.512C284.969 355.512 284.249 355.944 284.249 356.646C284.249 358.446 289.307 357.132 289.307 360.462C289.307 362.136 287.687 363.198 285.815 363.198ZM295.468 363.234C293.272 363.234 292.102 361.848 292.102 359.832V355.728H290.356V354.18H292.102V351.894H293.884V354.18H297.268V355.728H293.884V359.778C293.884 360.93 294.568 361.614 295.63 361.614C296.206 361.614 296.836 361.398 297.268 361.092V362.73C296.818 363.036 296.116 363.234 295.468 363.234ZM303.769 361.488C305.407 361.488 306.307 360.066 306.307 358.428V354.18H308.089V358.644C308.089 361.2 306.541 363.216 303.769 363.216C301.033 363.216 299.485 361.182 299.485 358.626V354.18H301.267V358.446C301.267 360.066 302.149 361.488 303.769 361.488ZM313.297 363H311.515V355.728H309.841V354.18H311.515V353.262C311.515 351.39 312.685 349.986 314.899 349.986C315.493 349.986 316.051 350.094 316.501 350.31V352.002C316.087 351.75 315.565 351.606 315.061 351.606C313.963 351.606 313.297 352.092 313.297 353.262V354.18H316.393V355.728H313.297V363ZM320.574 363H318.792V355.728H317.118V354.18H318.792V353.262C318.792 351.39 319.962 349.986 322.176 349.986C322.77 349.986 323.328 350.094 323.778 350.31V352.002C323.364 351.75 322.842 351.606 322.338 351.606C321.24 351.606 320.574 352.092 320.574 353.262V354.18H323.67V355.728H320.574V363ZM334.406 363.216C331.724 363.216 329.708 361.146 329.708 358.608C329.708 355.926 331.652 353.964 334.316 353.964C335.504 353.964 336.584 354.486 337.304 355.278L337.322 350.13H339.104V358.608C339.104 361.218 337.07 363.216 334.406 363.216ZM334.406 361.542C336.062 361.542 337.322 360.21 337.322 358.59C337.322 356.988 336.062 355.656 334.406 355.656C332.768 355.656 331.49 356.988 331.49 358.59C331.49 360.21 332.768 361.542 334.406 361.542ZM345.815 363.216C343.151 363.216 341.099 361.128 341.099 358.572C341.099 356.034 343.169 353.964 345.815 353.964C348.479 353.964 350.495 356.052 350.495 358.572C350.495 361.128 348.461 363.216 345.815 363.216ZM345.815 361.524C347.453 361.524 348.713 360.192 348.713 358.59C348.713 356.97 347.453 355.638 345.815 355.638C344.159 355.638 342.881 356.97 342.881 358.59C342.881 360.192 344.159 361.524 345.815 361.524ZM356.859 355.674C355.131 355.674 354.267 357.096 354.267 358.734V363H352.485V358.554C352.485 355.98 354.015 353.964 356.859 353.964C359.739 353.964 361.305 355.98 361.305 358.536V363H359.523V358.752C359.523 357.096 358.623 355.674 356.859 355.674ZM367.98 363.198C365.298 363.198 363.3 361.254 363.3 358.536C363.3 355.998 365.118 353.928 367.764 353.928C370.428 353.928 372.084 355.854 372.084 358.32V359.04H365.028C365.226 360.552 366.378 361.614 367.962 361.614C369.042 361.614 370.014 361.146 370.536 360.174L371.904 360.876C371.13 362.388 369.708 363.198 367.98 363.198ZM365.1 357.888H370.302C370.23 356.484 369.204 355.53 367.746 355.53C366.252 355.53 365.28 356.574 365.1 357.888ZM384.96 352.452C383.934 352.452 383.214 353.208 383.214 354.108C383.214 354.936 383.79 355.782 384.834 356.826L387.588 359.544C388.164 358.752 388.596 357.78 388.83 356.736L390.378 357.402C390.036 358.626 389.478 359.76 388.74 360.678L391.098 363H388.614L387.516 361.902C386.454 362.73 385.158 363.216 383.628 363.216C380.946 363.216 379.236 361.704 379.236 359.598C379.236 358.05 380.244 356.754 382.008 356.142C381.576 355.458 381.288 354.72 381.288 353.928C381.288 352.11 382.728 350.724 384.762 350.724C386.58 350.724 387.876 351.66 388.56 353.172L387.12 354.018C386.688 353.064 385.914 352.452 384.96 352.452ZM381.144 359.526C381.144 360.732 382.224 361.614 383.826 361.614C384.762 361.614 385.626 361.308 386.364 360.768L383.358 357.78C383.214 357.636 383.07 357.492 382.944 357.348C381.882 357.654 381.144 358.482 381.144 359.526ZM399.913 363.018H398.041L399.733 352.326C399.895 351.282 400.651 350.724 401.623 350.724C402.487 350.724 403.225 351.138 403.495 352.092L405.817 360.498C405.853 360.66 405.889 360.714 405.979 360.714C406.087 360.714 406.105 360.66 406.159 360.498L408.463 352.128C408.715 351.174 409.489 350.742 410.353 350.742C411.307 350.742 412.045 351.318 412.207 352.38L413.737 363H411.883L410.551 352.956C410.515 352.704 410.443 352.542 410.245 352.542C410.083 352.542 409.975 352.668 409.921 352.902L407.437 361.542C407.239 362.262 406.663 362.622 405.979 362.622C405.331 362.622 404.719 362.262 404.521 361.578L402.055 352.884C401.983 352.632 401.893 352.524 401.731 352.524C401.569 352.524 401.443 352.65 401.407 352.938L399.913 363.018ZM420.134 363.198C417.452 363.198 415.454 361.254 415.454 358.536C415.454 355.998 417.272 353.928 419.918 353.928C422.582 353.928 424.238 355.854 424.238 358.32V359.04H417.182C417.38 360.552 418.532 361.614 420.116 361.614C421.196 361.614 422.168 361.146 422.69 360.174L424.058 360.876C423.284 362.388 421.862 363.198 420.134 363.198ZM417.254 357.888H422.456C422.384 356.484 421.358 355.53 419.9 355.53C418.406 355.53 417.434 356.574 417.254 357.888ZM430.488 363.198C427.806 363.198 425.808 361.254 425.808 358.536C425.808 355.998 427.626 353.928 430.272 353.928C432.936 353.928 434.592 355.854 434.592 358.32V359.04H427.536C427.734 360.552 428.886 361.614 430.47 361.614C431.55 361.614 432.522 361.146 433.044 360.174L434.412 360.876C433.638 362.388 432.216 363.198 430.488 363.198ZM427.608 357.888H432.81C432.738 356.484 431.712 355.53 430.254 355.53C428.76 355.53 427.788 356.574 427.608 357.888ZM440.733 363.234C438.537 363.234 437.367 361.848 437.367 359.832V355.728H435.621V354.18H437.367V351.894H439.149V354.18H442.533V355.728H439.149V359.778C439.149 360.93 439.833 361.614 440.895 361.614C441.471 361.614 442.101 361.398 442.533 361.092V362.73C442.083 363.036 441.381 363.234 440.733 363.234ZM454.006 363.198C451.468 363.234 449.398 361.128 449.398 358.572C449.398 356.034 451.468 353.946 454.006 353.964C455.626 353.964 457.12 354.702 457.93 356.286L456.454 357.114C455.932 356.16 455.05 355.656 454.006 355.656C452.458 355.656 451.18 356.97 451.18 358.572C451.18 360.192 452.458 361.524 454.006 361.524C455.05 361.524 455.932 361.02 456.454 360.066L457.93 360.876C457.12 362.478 455.626 363.198 454.006 363.198ZM463.905 363.216C461.241 363.216 459.189 361.128 459.189 358.572C459.189 356.034 461.259 353.964 463.905 353.964C466.569 353.964 468.585 356.052 468.585 358.572C468.585 361.128 466.551 363.216 463.905 363.216ZM463.905 361.524C465.543 361.524 466.803 360.192 466.803 358.59C466.803 356.97 465.543 355.638 463.905 355.638C462.249 355.638 460.971 356.97 460.971 358.59C460.971 360.192 462.249 361.524 463.905 361.524ZM474.733 363.216C472.069 363.216 470.017 361.128 470.017 358.572C470.017 356.034 472.087 353.964 474.733 353.964C477.397 353.964 479.413 356.052 479.413 358.572C479.413 361.128 477.379 363.216 474.733 363.216ZM474.733 361.524C476.371 361.524 477.631 360.192 477.631 358.59C477.631 356.97 476.371 355.638 474.733 355.638C473.077 355.638 471.799 356.97 471.799 358.59C471.799 360.192 473.077 361.524 474.733 361.524ZM481.763 350.13H483.545V363H481.763V350.13ZM493.363 367.05H491.581V358.572C491.581 355.944 493.615 353.964 496.279 353.964C498.943 353.964 500.959 356.052 500.959 358.572C500.959 361.236 499.033 363.216 496.351 363.216C495.163 363.216 494.083 362.694 493.363 361.902V367.05ZM496.279 361.542C497.917 361.542 499.177 360.192 499.177 358.59C499.177 356.97 497.917 355.656 496.279 355.656C494.623 355.656 493.363 356.97 493.363 358.59C493.363 360.192 494.623 361.542 496.279 361.542ZM507.093 363.198C504.411 363.198 502.413 361.254 502.413 358.536C502.413 355.998 504.231 353.928 506.877 353.928C509.541 353.928 511.197 355.854 511.197 358.32V359.04H504.141C504.339 360.552 505.491 361.614 507.075 361.614C508.155 361.614 509.127 361.146 509.649 360.174L511.017 360.876C510.243 362.388 508.821 363.198 507.093 363.198ZM504.213 357.888H509.415C509.343 356.484 508.317 355.53 506.859 355.53C505.365 355.53 504.393 356.574 504.213 357.888ZM517.483 363.216C514.819 363.216 512.767 361.128 512.767 358.572C512.767 356.034 514.837 353.964 517.483 353.964C520.147 353.964 522.163 356.052 522.163 358.572C522.163 361.128 520.129 363.216 517.483 363.216ZM517.483 361.524C519.121 361.524 520.381 360.192 520.381 358.59C520.381 356.97 519.121 355.638 517.483 355.638C515.827 355.638 514.549 356.97 514.549 358.59C514.549 360.192 515.827 361.524 517.483 361.524ZM525.935 367.05H524.153V358.572C524.153 355.944 526.187 353.964 528.851 353.964C531.515 353.964 533.531 356.052 533.531 358.572C533.531 361.236 531.605 363.216 528.923 363.216C527.735 363.216 526.655 362.694 525.935 361.902V367.05ZM528.851 361.542C530.489 361.542 531.749 360.192 531.749 358.59C531.749 356.97 530.489 355.656 528.851 355.656C527.195 355.656 525.935 356.97 525.935 358.59C525.935 360.192 527.195 361.542 528.851 361.542ZM535.904 350.13H537.686V363H535.904V350.13ZM544.711 363.198C542.029 363.198 540.031 361.254 540.031 358.536C540.031 355.998 541.849 353.928 544.495 353.928C547.159 353.928 548.815 355.854 548.815 358.32V359.04H541.759C541.957 360.552 543.109 361.614 544.693 361.614C545.773 361.614 546.745 361.146 547.267 360.174L548.635 360.876C547.861 362.388 546.439 363.198 544.711 363.198ZM541.831 357.888H547.033C546.961 356.484 545.935 355.53 544.477 355.53C542.983 355.53 542.011 356.574 541.831 357.888ZM552.098 363.162C551.45 363.162 550.928 362.64 550.928 361.992C550.928 361.344 551.45 360.84 552.098 360.84C552.746 360.84 553.268 361.344 553.268 361.992C553.268 362.64 552.746 363.162 552.098 363.162Z" fill="black"/>
</g>
<defs>
<filter id="filter0_i_1753_20755" x="0" y="0" width="800" height="474" filterUnits="userSpaceOnUse" color-interpolation-filters="sRGB">
<feFlood flood-opacity="0" result="BackgroundImageFix"/>
<feBlend mode="normal" in="SourceGraphic" in2="BackgroundImageFix" result="shape"/>
<feColorMatrix in="SourceAlpha" type="matrix" values="0 0 0 0 0 0 0 0 0 0 0 0 0 0 0 0 0 0 127 0" result="hardAlpha"/>
<feMorphology radius="8" operator="erode" in="SourceAlpha" result="effect1_innerShadow_1753_20755"/>
<feOffset dy="24"/>
<feGaussianBlur stdDeviation="30"/>
<feComposite in2="hardAlpha" operator="arithmetic" k2="-1" k3="1"/>
<feColorMatrix type="matrix" values="0 0 0 0 0.54902 0 0 0 0 0.952941 0 0 0 0 0.662745 0 0 0 1 0"/>
<feBlend mode="normal" in2="shape" result="effect1_innerShadow_1753_20755"/>
</filter>
<linearGradient id="paint0_linear_1753_20755" x1="400" y1="0" x2="400" y2="450" gradientUnits="userSpaceOnUse">
<stop stop-color="white"/>
<stop offset="1" stop-color="#EFEFEF"/>
</linearGradient>
</defs>
</svg>
