<svg width="800" height="450" viewBox="0 0 800 450" fill="none" xmlns="http://www.w3.org/2000/svg">
<g filter="url(#filter0_i_4240_72179)">
<rect width="800" height="450" rx="48" fill="url(#paint0_linear_4240_72179)"/>
<g opacity="0.1">
<path fill-rule="evenodd" clip-rule="evenodd" d="M666.895 130.991C671.262 128.097 678.548 127.972 683.162 130.712C703.461 142.764 709.522 157.214 711.19 170.925C711.988 177.469 711.806 184.035 711.638 190.08C711.63 190.282 711.627 190.483 711.62 190.685C711.444 197.04 711.326 202.76 712.146 208.042C712.762 212.008 708.133 215.537 701.811 215.923C695.485 216.309 689.857 213.407 689.241 209.441C688.271 203.199 688.439 196.649 688.611 190.434L688.622 190.094C688.794 183.856 688.958 177.882 688.246 172.025C686.814 160.283 681.942 149.862 667.339 141.192C662.724 138.452 662.527 133.885 666.895 130.991Z" fill="black"/>
<path fill-rule="evenodd" clip-rule="evenodd" d="M598.969 129.062C603.157 126.067 610.428 125.769 615.204 128.398C641.771 143.017 646.654 161.27 648.641 177.881C649.003 180.903 649.264 183.786 649.518 186.59C649.991 191.789 650.435 196.715 651.448 201.75C652.955 209.238 655.59 215.987 660.824 222.056C663.845 225.562 661.765 229.94 656.174 231.835C650.585 233.73 643.604 232.425 640.579 228.919C633.476 220.679 630.312 211.98 628.615 203.555C627.512 198.06 626.979 192.237 626.47 186.715C626.227 184.035 625.987 181.426 625.69 178.96C623.81 163.225 619.489 149.955 600.025 139.245C595.249 136.616 594.777 132.057 598.969 129.062Z" fill="black"/>
<path fill-rule="evenodd" clip-rule="evenodd" d="M531.61 126.706C535.999 123.825 543.285 123.72 547.878 126.472C574.373 142.342 585.335 162.539 593.315 181.774C595.077 186.013 596.684 190.17 598.259 194.235C604.048 209.187 609.357 222.901 619.879 234.942C622.933 238.438 620.892 242.822 615.318 244.737C609.744 246.652 602.752 245.372 599.698 241.877C587.559 227.987 581.333 211.832 575.48 196.641C574.008 192.819 572.558 189.057 571.044 185.409C563.265 166.662 553.588 149.849 531.983 136.908C527.386 134.156 527.221 129.588 531.61 126.706Z" fill="black"/>
<path fill-rule="evenodd" clip-rule="evenodd" d="M481.479 132.282C486.76 130.062 493.906 130.947 497.446 134.257C516.334 151.922 526.791 169.561 536.658 186.206C538.745 189.726 540.807 193.201 542.912 196.622C555.07 216.351 569.239 235.275 599.469 254.22C603.962 257.038 603.965 261.606 599.473 264.426C594.98 267.243 587.694 267.246 583.198 264.428C549.693 243.426 534.102 222.363 521.446 201.823C519.152 198.096 516.964 194.418 514.802 190.775C504.964 174.22 495.574 158.421 478.333 142.293C474.792 138.983 476.202 134.501 481.479 132.282Z" fill="black"/>
<path fill-rule="evenodd" clip-rule="evenodd" d="M415.364 133.608C420.365 131.149 427.597 131.698 431.517 134.834C498.434 188.354 524.436 233.727 523.183 292.305C523.097 296.29 517.877 299.478 511.523 299.424C505.168 299.37 500.085 296.097 500.17 292.112C501.345 237.283 477.563 195.049 413.406 143.739C409.486 140.603 410.363 136.067 415.364 133.608Z" fill="black"/>
<path fill-rule="evenodd" clip-rule="evenodd" d="M339.599 142.804C342.149 139.154 348.935 137.492 354.756 139.091C388.553 148.377 411.108 161.074 426.244 175.838C441.262 190.486 448.562 206.761 452.937 222.811C455.625 232.684 457.319 243.072 458.933 252.968C459.878 258.762 460.799 264.39 461.873 269.646C464.898 284.461 469.276 297.372 478.484 307.878C481.545 311.369 479.511 315.758 473.944 317.678C468.374 319.597 461.378 318.322 458.318 314.829C446.93 301.835 442.147 286.665 439.046 271.48C437.804 265.412 436.841 259.463 435.885 253.554C434.36 244.114 432.849 234.781 430.25 225.243C426.133 210.13 419.55 195.992 406.887 183.643C394.347 171.409 375.419 160.524 345.521 152.309C339.7 150.71 337.049 146.455 339.599 142.804Z" fill="black"/>
<path fill-rule="evenodd" clip-rule="evenodd" d="M271.355 142.524C272.961 138.668 279.248 136.359 285.397 137.367C311.568 141.655 331.964 153.88 347.804 168.972C363.705 184.123 375.865 202.952 385.171 221.97C403.797 260.035 411.676 300.308 414.286 317.126C414.902 321.09 410.273 324.619 403.947 325.005C397.625 325.392 391.997 322.489 391.381 318.522C388.827 302.062 381.128 262.902 363.17 226.203C354.183 207.839 342.799 190.453 328.581 176.906C314.302 163.301 298.003 154.348 279.579 151.33C273.43 150.322 269.748 146.38 271.355 142.524Z" fill="black"/>
<path fill-rule="evenodd" clip-rule="evenodd" d="M213.738 136.594C216.697 133.067 223.655 131.712 229.279 133.568C278.333 149.752 301.025 172.365 314.576 195.733C320.863 206.573 325.221 217.646 329.32 228.06C329.568 228.691 329.816 229.319 330.062 229.943C334.446 241.06 338.64 251.331 344.728 260.666C347.134 264.355 344.316 268.568 338.434 270.077C332.552 271.586 325.834 269.819 323.428 266.13C316.61 255.678 312.061 244.412 307.722 233.407C307.499 232.842 307.276 232.276 307.054 231.712C302.888 221.134 298.801 210.756 292.949 200.665C280.837 179.78 261.357 160.458 218.564 146.339C212.939 144.484 210.779 140.121 213.738 136.594Z" fill="black"/>
<path fill-rule="evenodd" clip-rule="evenodd" d="M169.953 139.578C174.072 136.543 181.334 136.177 186.173 138.76C224.975 159.474 243.011 182.482 260.385 204.645C263.114 208.126 265.827 211.587 268.602 215.014C271.478 218.568 269.216 222.911 263.549 224.715C257.882 226.519 250.957 225.1 248.081 221.547C245.13 217.901 242.302 214.306 239.513 210.76C222.101 188.624 206.193 168.4 171.256 149.749C166.417 147.166 165.834 142.612 169.953 139.578Z" fill="black"/>
<path fill-rule="evenodd" clip-rule="evenodd" d="M123.936 146.842C127.507 143.545 134.663 142.688 139.92 144.927C159.158 153.121 173.005 162.297 184.907 171.539C190.367 175.778 195.47 180.075 200.42 184.243C200.824 184.583 201.228 184.923 201.63 185.262C207.008 189.786 212.25 194.164 217.895 198.431C221.953 201.498 221.278 206.047 216.387 208.591C211.496 211.136 204.242 210.712 200.184 207.645C194.112 203.056 188.546 198.403 183.178 193.885C182.788 193.557 182.399 193.23 182.011 192.903C177.011 188.694 172.166 184.615 167.003 180.606C155.97 172.039 143.742 164.001 126.99 156.865C121.733 154.626 120.366 150.138 123.936 146.842Z" fill="black"/>
<path fill-rule="evenodd" clip-rule="evenodd" d="M71.111 146.157C75.5716 143.318 82.8573 143.285 87.3835 146.082L138.588 177.728C143.114 180.525 143.167 185.094 138.706 187.932C134.245 190.771 126.96 190.804 122.433 188.007L71.2295 156.361C66.7033 153.563 66.6502 148.995 71.111 146.157Z" fill="black"/>
</g>
<g opacity="0.1">
<path d="M196.705 38.9207C227.817 26.4162 264.787 27.6914 302.798 31.1628C340.81 34.599 379.862 40.1958 415.399 35.5318C417.223 35.2957 418.394 33.7605 418.134 32.1192C417.874 30.4779 416.181 29.3446 414.359 29.5925C380.383 34.2448 341.721 28.9785 303.449 25.6603C265.178 22.3779 227.167 21.02 194.363 34.2919C193.061 34.8116 192.931 36.3937 193.451 37.4565C193.972 38.5309 195.404 39.4283 196.705 38.9207Z" fill="black"/>
<path d="M185.119 87.156C220.657 74.4862 264.655 72.6913 309.956 72.8565C355.257 73.0101 401.6 75.1118 441.955 69.7629C444.296 69.4441 445.989 67.425 445.598 65.2761C445.21 63.1269 442.997 61.6392 440.653 61.9698C401.6 67.6021 355.388 66.0553 309.956 66.3505C264.525 66.681 219.745 68.842 182.906 82.3502C181.604 82.8461 181.213 84.44 181.734 85.5854C182.255 86.7189 183.687 87.652 185.119 87.156Z" fill="black"/>
<path d="M195.528 128.696C245.385 119.273 293.55 118.316 342.236 115.542C390.921 112.755 439.998 108.138 491.025 90.958C494.411 89.8126 496.101 86.3647 494.799 83.2828C493.498 80.201 489.723 78.6304 486.34 79.8113C437.392 96.8026 389.749 101.833 341.454 105.033C293.159 108.256 244.343 109.638 193.444 119.757C190.841 120.277 189.279 122.78 189.8 125.141C190.32 127.503 192.925 129.203 195.528 128.696Z" fill="black"/>
<path d="M191.757 175.846C320.891 144.685 425.031 140.115 557.29 158.122C560.673 158.583 563.799 156.446 564.319 153.375C564.839 150.305 562.497 147.436 559.112 146.999C425.422 129.748 319.069 135.203 189.414 167.616C186.941 168.218 185.77 170.65 186.421 172.764C186.941 174.878 189.414 176.436 191.757 175.846Z" fill="black"/>
<path d="M201.52 228.485C224.561 208.872 253.46 197.891 286.004 192.223C318.418 186.555 354.346 186.272 391.185 188.055C427.895 189.826 465.386 193.664 501.053 196.143C536.723 198.599 570.566 199.721 600.117 195.836C604.021 195.328 606.624 191.987 606.104 188.445C605.454 184.902 601.808 182.446 597.902 183.013C570.306 187.039 537.371 186.484 501.964 184.501C466.557 182.529 428.936 179.187 391.706 177.877C354.476 176.578 317.636 177.322 284.051 183.639C250.466 189.956 220.005 201.941 195.922 223.089C192.668 225.945 198.265 231.295 201.52 228.485Z" fill="black"/>
<path d="M191.886 275.833C199.957 265.466 217.53 257.662 241.612 251.971C253.849 249.066 267.778 246.516 282.878 244.495C298.109 242.488 314.38 240.978 331.433 239.88C365.409 237.671 402.118 237.127 437.787 237.507C508.993 238.261 575.773 242.76 607.275 245.263C611.309 245.582 614.824 242.854 615.215 239.195C615.606 235.522 612.611 232.298 608.577 231.991C576.813 229.582 509.644 225.226 437.918 224.919C401.989 224.777 364.889 225.651 330.392 228.296C313.079 229.629 296.547 231.389 281.056 233.704C265.566 236.007 251.246 238.816 238.489 242.488C226.122 246.056 215.317 250.294 206.335 255.254C197.484 260.224 190.584 265.94 186.288 272.529C184.335 275.409 189.673 278.575 191.886 275.833Z" fill="black"/>
<path d="M175.355 317.741C214.537 289.991 264.914 281.314 317.765 278.905C370.617 276.482 425.68 280.369 473.975 277.145C476.969 276.945 479.313 274.511 479.053 271.748C478.793 268.986 476.19 266.908 473.066 267.143C426.073 270.838 370.878 267.57 317.245 270.58C263.744 273.613 211.543 282.966 170.798 312.497C167.674 314.8 172.23 320.006 175.355 317.741Z" fill="black"/>
<path d="M180.822 352.748C220.135 336.701 261.139 330.053 303.576 324.834C322.452 322.544 341.457 318.907 360.593 314.929C361.374 314.738 362.025 314.031 361.895 313.252C361.764 312.473 360.983 311.929 360.072 311.952C340.546 312.554 321.149 312.872 302.144 315.248C259.446 320.512 217.271 327.988 176.916 345.25C174.833 346.123 174.572 348.723 175.484 350.411C176.395 352.11 178.739 353.599 180.822 352.748Z" fill="black"/>
<path d="M192.668 387.581C217.922 373.862 246.43 366.517 275.589 359.669C290.69 356.127 305.789 351.533 320.369 346.303C321.41 345.948 321.801 344.897 321.541 344.035C321.281 343.173 320.239 342.5 319.198 342.688C303.968 345.429 288.477 347.47 273.247 350.93C243.827 357.602 214.277 365.1 187.461 379.636C185.118 380.945 184.337 383.792 185.768 385.987C187.2 388.185 190.324 388.892 192.668 387.581Z" fill="black"/>
<path d="M187.33 426.632C213.365 416.619 239.4 406.606 265.435 396.591C266.216 396.297 266.476 395.377 266.215 394.714C265.955 394.054 265.044 393.511 264.263 393.758C237.577 402.13 210.761 410.515 184.075 418.898C181.602 419.641 180.56 422.108 181.341 424.245C182.252 426.382 184.987 427.516 187.33 426.632Z" fill="black"/>
</g>
<path d="M46.784 122.512L34.4 65.68H44.192L55.424 119.536C55.712 120.976 56.192 121.648 56.96 121.648C57.728 121.648 58.304 121.072 58.592 119.536L69.248 73.744C70.496 67.792 73.76 65.104 78.176 65.104C82.688 65.104 85.856 67.696 87.2 73.648L98.24 119.536C98.624 120.88 99.008 121.552 99.872 121.552C100.736 121.552 101.12 120.88 101.312 119.536L111.68 65.68H121.472L110.048 121.936C108.896 127.6 105.632 131.152 100.352 131.152C95.264 131.152 91.712 128.08 90.272 122.224L79.136 75.76C78.944 74.896 78.656 74.512 78.176 74.512C77.792 74.512 77.408 74.896 77.216 75.76L66.368 122.8C65.12 128.176 61.376 131.248 56.768 131.248C51.776 131.248 48.032 128.176 46.784 122.512ZM150.331 131.056C136.027 131.056 125.371 120.688 125.371 106.192C125.371 92.656 135.067 81.616 149.179 81.616C163.387 81.616 172.219 91.888 172.219 105.04V108.88H134.587C135.643 116.944 141.787 122.608 150.235 122.608C155.995 122.608 161.179 120.112 163.963 114.928L171.259 118.672C167.131 126.736 159.547 131.056 150.331 131.056ZM134.971 102.736H162.715C162.331 95.248 156.859 90.16 149.083 90.16C141.115 90.16 135.931 95.728 134.971 102.736ZM208.622 131.152C194.414 131.152 183.566 120.496 183.566 106.576V61.36H193.07V88.816C196.91 84.592 202.67 81.808 209.006 81.808C223.31 81.808 233.582 92.272 233.582 106.576C233.582 120.112 222.83 131.152 208.622 131.152ZM208.622 122.224C217.358 122.224 224.078 115.12 224.078 106.48C224.078 97.936 217.358 90.832 208.622 90.832C199.79 90.832 193.07 97.936 193.07 106.48C193.07 115.12 199.79 122.224 208.622 122.224ZM250.94 73.648C247.484 73.648 244.7 70.864 244.7 67.408C244.7 63.952 247.484 61.072 250.94 61.072C254.396 61.072 257.084 63.952 257.084 67.408C257.084 70.864 254.396 73.648 250.94 73.648ZM246.236 82.96H255.74V130H246.236V82.96ZM294.55 90.928C285.334 90.928 280.726 98.512 280.726 107.248V130H271.222V106.288C271.222 92.56 279.382 81.808 294.55 81.808C309.91 81.808 318.262 92.56 318.262 106.192V130H308.758V107.344C308.758 98.512 303.958 90.928 294.55 90.928ZM352.519 131.152C338.887 131.152 328.903 120.016 328.903 106.384C328.903 92.944 339.655 81.808 353.959 81.808C368.167 81.808 379.015 92.368 379.015 106.384V130H369.991V121.744C366.439 127.504 360.199 131.152 352.519 131.152ZM353.959 122.128C362.791 122.128 369.511 115.024 369.511 106.48C369.511 97.84 362.791 90.736 353.959 90.736C345.223 90.736 338.407 97.84 338.407 106.48C338.407 115.024 345.223 122.128 353.959 122.128ZM402.133 130H392.629V101.968C392.629 90.544 399.157 82 411.445 82C414.421 82 417.493 82.576 419.893 83.728V93.136C417.589 91.792 414.901 91.12 412.309 91.12C405.973 91.12 402.133 95.44 402.133 102.352V130Z" fill="black"/>
<path d="M458.759 60.7697C465.233 58.2076 472.925 58.4688 480.835 59.1801C488.744 59.8842 496.87 61.031 504.265 60.0753C504.644 60.0269 504.888 59.7124 504.834 59.3761C504.78 59.0398 504.428 58.8076 504.049 58.8584C496.979 59.8116 488.934 58.7325 480.97 58.0527C473.007 57.3801 465.097 57.1019 458.271 59.8213C458.001 59.9278 457.973 60.2519 458.082 60.4697C458.19 60.6898 458.488 60.8737 458.759 60.7697Z" fill="black"/>
<path d="M456.348 70.6525C463.743 68.0564 472.898 67.6887 482.325 67.7225C491.751 67.754 501.394 68.1846 509.791 67.0886C510.278 67.0233 510.631 66.6096 510.549 66.1693C510.468 65.7289 510.008 65.4241 509.52 65.4918C501.394 66.6459 491.778 66.329 482.325 66.3894C472.871 66.4572 463.554 66.9 455.888 69.6678C455.617 69.7694 455.536 70.096 455.644 70.3307C455.752 70.5629 456.051 70.7541 456.348 70.6525Z" fill="black"/>
<path d="M458.513 79.1653C468.888 77.2347 478.91 77.0386 489.041 76.4701C499.171 75.8991 509.383 74.9531 520.001 71.4329C520.705 71.1982 521.057 70.4917 520.786 69.8603C520.515 69.2288 519.73 68.907 519.026 69.149C508.841 72.6305 498.927 73.6611 488.878 74.3168C478.829 74.9773 468.671 75.2604 458.08 77.3338C457.538 77.4403 457.213 77.9532 457.322 78.4371C457.43 78.921 457.972 79.2694 458.513 79.1653Z" fill="black"/>
<path d="M457.729 88.8267C484.6 82.4419 506.269 81.5056 533.79 85.1952C534.494 85.2895 535.144 84.8516 535.252 84.2226C535.361 83.5935 534.873 83.0056 534.169 82.9161C506.351 79.3813 484.22 80.499 457.242 87.1404C456.727 87.2638 456.484 87.7622 456.619 88.1953C456.727 88.6283 457.242 88.9477 457.729 88.8267Z" fill="black"/>
<path d="M459.761 99.6104C464.555 95.5918 470.569 93.3418 477.34 92.1804C484.085 91.0191 491.561 90.961 499.227 91.3264C506.865 91.6893 514.666 92.4756 522.088 92.9837C529.51 93.4869 536.552 93.7167 542.701 92.9208C543.514 92.8167 544.055 92.132 543.947 91.4062C543.812 90.6804 543.053 90.1771 542.24 90.2933C536.498 91.1183 529.645 91.0046 522.277 90.5981C514.91 90.1941 507.082 89.5094 499.335 89.2409C491.588 88.9747 483.922 89.1271 476.934 90.4215C469.946 91.7159 463.607 94.1716 458.596 98.5048C457.919 99.0901 459.084 100.186 459.761 99.6104Z" fill="black"/>
<path d="M457.757 109.312C459.436 107.188 463.093 105.589 468.104 104.423C470.65 103.828 473.548 103.305 476.69 102.891C479.859 102.48 483.245 102.17 486.794 101.945C493.863 101.493 501.502 101.381 508.924 101.459C523.74 101.614 537.636 102.536 544.191 103.049C545.03 103.114 545.762 102.555 545.843 101.805C545.925 101.053 545.301 100.392 544.462 100.329C537.852 99.8354 523.876 98.9428 508.951 98.8799C501.475 98.8509 493.755 99.0299 486.577 99.5718C482.974 99.8451 479.535 100.206 476.311 100.68C473.088 101.152 470.108 101.727 467.454 102.48C464.88 103.211 462.632 104.079 460.763 105.096C458.921 106.114 457.486 107.285 456.592 108.635C456.185 109.225 457.296 109.874 457.757 109.312Z" fill="black"/>
<path d="M454.317 117.901C462.47 112.214 472.952 110.437 483.95 109.943C494.947 109.447 506.404 110.243 516.454 109.582C517.077 109.541 517.565 109.043 517.51 108.476C517.456 107.911 516.915 107.485 516.265 107.533C506.486 108.29 495.001 107.62 483.841 108.237C472.709 108.859 461.847 110.775 453.369 116.826C452.718 117.298 453.667 118.365 454.317 117.901Z" fill="black"/>
<path d="M455.454 125.074C463.634 121.786 472.166 120.424 480.997 119.354C484.924 118.885 488.879 118.14 492.861 117.325C493.023 117.286 493.159 117.141 493.131 116.981C493.104 116.822 492.942 116.71 492.752 116.715C488.689 116.838 484.653 116.904 480.699 117.39C471.814 118.469 463.038 120.001 454.641 123.538C454.208 123.717 454.153 124.249 454.343 124.595C454.533 124.943 455.02 125.248 455.454 125.074Z" fill="black"/>
<path d="M457.919 132.211C463.174 129.4 469.106 127.895 475.174 126.492C478.316 125.766 481.458 124.825 484.491 123.753C484.708 123.68 484.789 123.465 484.735 123.288C484.681 123.112 484.464 122.974 484.248 123.012C481.078 123.574 477.855 123.992 474.686 124.701C468.564 126.068 462.416 127.605 456.836 130.583C456.348 130.851 456.186 131.435 456.484 131.884C456.781 132.335 457.432 132.48 457.919 132.211Z" fill="black"/>
<path d="M456.808 140.211C462.225 138.16 467.643 136.108 473.06 134.056C473.223 133.996 473.277 133.807 473.223 133.671C473.168 133.536 472.979 133.425 472.816 133.475C467.263 135.191 461.684 136.909 456.131 138.626C455.616 138.779 455.399 139.284 455.562 139.722C455.751 140.16 456.32 140.392 456.808 140.211Z" fill="black"/>
<path fill-rule="evenodd" clip-rule="evenodd" d="M241.752 150.008C247.435 149.93 252.64 150.436 253.799 151.179L260.714 155.606C261.016 155.583 261.326 155.562 261.646 155.542C265.081 155.332 269.087 155.368 272.28 155.637L272.584 155.662L274.865 154.488C276.038 153.885 279.931 153.444 284.603 153.386C289.273 153.327 293.723 153.662 295.728 154.225L296.814 154.53C298.707 154.322 301.108 154.198 303.669 154.19C308.122 154.176 312.209 154.516 314.061 155.054L321.844 157.313L337.488 152.329C339.301 151.752 343.655 151.388 348.362 151.421C353.069 151.454 357.111 151.876 358.456 152.476L366.514 156.068L369.006 155.641C370.765 155.34 373.304 155.145 376.066 155.087V153.507C376.066 152.815 379.672 152.216 384.75 152.064C389.829 151.911 395.026 152.246 397.267 152.87L417.912 158.613C420.562 159.351 418.205 160.234 412.65 160.585C407.096 160.937 400.444 160.624 397.794 159.887L397.522 159.811C396.167 160.25 393.259 160.588 389.6 160.695C384.488 160.844 379.283 160.501 377.091 159.87L375.381 159.378L370.836 160.156C368.277 160.594 364.085 160.806 359.98 160.704C355.873 160.602 352.54 160.204 351.348 159.672L346.026 157.301L332.602 161.576C330.898 162.119 326.935 162.476 322.506 162.486C318.077 162.496 314.023 162.157 312.181 161.622L303.72 159.166C301.886 159.356 299.611 159.469 297.187 159.479C293.666 159.493 290.359 159.285 288.203 158.932C287.012 159.127 285.452 159.281 283.644 159.376C280.806 159.525 277.655 159.512 274.918 159.345L271.228 162.771C270.462 163.482 265.956 164.017 260.544 164.04C255.134 164.062 250.385 163.565 249.285 162.862L247.634 161.805C247.012 161.844 246.353 161.875 245.668 161.899C240.745 162.067 235.586 161.772 233.13 161.181L217.218 157.353L195.744 161.328C193.562 161.732 189.998 161.964 186.257 161.944C182.515 161.925 179.096 161.658 177.156 161.233L170.732 159.826L167.845 162.252C167.09 162.886 163.338 163.383 158.557 163.482C153.777 163.581 149.061 163.259 146.884 162.686L124.99 156.915L113.202 163.511C111.985 164.191 107.343 164.666 102.074 164.648C96.8052 164.63 92.3513 164.125 91.3984 163.437L87.0494 160.297L79.9419 163.457C78.4537 164.119 73.7127 164.556 68.5206 164.51C63.3286 164.464 59.0678 163.947 58.2561 163.265L56.7606 162.008L54.2016 164.706C53.4329 165.516 47.8595 166.09 41.7531 165.988C35.6468 165.886 31.3197 165.147 32.0885 164.336L44.459 151.294C45.1522 150.564 49.7915 150.012 55.3407 150C60.8899 149.989 65.6573 150.521 66.523 151.248L72.6185 156.372L78.9509 153.556C80.4243 152.901 85.0887 152.465 90.2323 152.502C95.3759 152.539 99.658 153.039 100.589 153.712L103.742 155.988L110.357 152.286C111.438 151.682 115.251 151.231 119.902 151.159C124.552 151.086 129.047 151.408 131.153 151.963L151.229 157.254L153.47 155.37C154.2 154.757 157.739 154.27 162.329 154.15C166.92 154.03 171.585 154.304 174.009 154.835L187.47 157.784L209.391 153.726C211.619 153.313 215.286 153.081 219.104 153.111C222.922 153.141 226.357 153.429 228.205 153.873L231.744 154.724V151.479C231.744 150.721 236.066 150.085 241.752 150.008Z" fill="black"/>
<path d="M32.192 198.12V195.744C34.592 195.744 35.72 194.472 35.72 192.312V181.92H38.168V192.144C38.168 195.888 36.152 198.12 32.192 198.12ZM47.5214 198.288C43.9694 198.288 41.2334 195.504 41.2334 192.096C41.2334 188.712 43.9934 185.952 47.5214 185.952C51.0734 185.952 53.7614 188.736 53.7614 192.096C53.7614 195.504 51.0494 198.288 47.5214 198.288ZM47.5214 196.032C49.7054 196.032 51.3854 194.256 51.3854 192.12C51.3854 189.96 49.7054 188.184 47.5214 188.184C45.3134 188.184 43.6094 189.96 43.6094 192.12C43.6094 194.256 45.3134 196.032 47.5214 196.032ZM58.0709 183.912C57.2069 183.912 56.5109 183.216 56.5109 182.352C56.5109 181.488 57.2069 180.768 58.0709 180.768C58.9349 180.768 59.6069 181.488 59.6069 182.352C59.6069 183.216 58.9349 183.912 58.0709 183.912ZM56.8949 186.24H59.2709V198H56.8949V186.24ZM68.9735 188.232C66.6695 188.232 65.5175 190.128 65.5175 192.312V198H63.1415V192.072C63.1415 188.64 65.1815 185.952 68.9735 185.952C72.8135 185.952 74.9015 188.64 74.9015 192.048V198H72.5255V192.336C72.5255 190.128 71.3255 188.232 68.9735 188.232ZM80.0816 198.216C79.2176 198.216 78.5216 197.52 78.5216 196.656C78.5216 195.792 79.2176 195.12 80.0816 195.12C80.9456 195.12 81.6416 195.792 81.6416 196.656C81.6416 197.52 80.9456 198.216 80.0816 198.216ZM95.2783 181.92V195.744H103.27V198H95.0863C93.4543 198 92.8303 197.16 92.8303 195.792V181.92H95.2783ZM110.942 198.264C107.366 198.264 104.702 195.672 104.702 192.048C104.702 188.664 107.126 185.904 110.654 185.904C114.206 185.904 116.414 188.472 116.414 191.76V192.72H107.006C107.27 194.736 108.806 196.152 110.918 196.152C112.358 196.152 113.654 195.528 114.35 194.232L116.174 195.168C115.142 197.184 113.246 198.264 110.942 198.264ZM107.102 191.184H114.038C113.942 189.312 112.574 188.04 110.63 188.04C108.638 188.04 107.342 189.432 107.102 191.184ZM124.411 198.288C121.003 198.288 118.507 195.504 118.507 192.096C118.507 188.736 121.195 185.952 124.771 185.952C128.323 185.952 131.035 188.592 131.035 192.096V198H128.779V195.936C127.891 197.376 126.331 198.288 124.411 198.288ZM124.771 196.032C126.979 196.032 128.659 194.256 128.659 192.12C128.659 189.96 126.979 188.184 124.771 188.184C122.587 188.184 120.883 189.96 120.883 192.12C120.883 194.256 122.587 196.032 124.771 196.032ZM136.814 198H134.438V190.992C134.438 188.136 136.07 186 139.142 186C139.886 186 140.654 186.144 141.254 186.432V188.784C140.678 188.448 140.006 188.28 139.358 188.28C137.774 188.28 136.814 189.36 136.814 191.088V198ZM148.708 188.232C146.404 188.232 145.252 190.128 145.252 192.312V198H142.876V192.072C142.876 188.64 144.916 185.952 148.708 185.952C152.548 185.952 154.636 188.64 154.636 192.048V198H152.26V192.336C152.26 190.128 151.06 188.232 148.708 188.232ZM159.816 198.216C158.952 198.216 158.256 197.52 158.256 196.656C158.256 195.792 158.952 195.12 159.816 195.12C160.68 195.12 161.376 195.792 161.376 196.656C161.376 197.52 160.68 198.216 159.816 198.216ZM183.581 198H174.581C172.925 198 172.325 197.16 172.325 195.792V184.128C172.325 182.76 172.925 181.92 174.581 181.92H183.413V184.152H174.773V188.832H182.933V191.064H174.773V195.768H183.581V198ZM192.442 188.232C190.138 188.232 188.986 190.128 188.986 192.312V198H186.61V192.072C186.61 188.64 188.65 185.952 192.442 185.952C196.282 185.952 198.37 188.64 198.37 192.048V198H195.994V192.336C195.994 190.128 194.794 188.232 192.442 188.232ZM207.078 203.688C204.534 203.688 202.422 202.584 201.342 200.496L203.334 199.416C204.03 200.688 205.326 201.504 207.03 201.504C209.502 201.504 211.182 199.728 211.182 196.968V196.032C210.414 197.256 208.974 198.168 207.006 198.168C203.67 198.168 201.03 195.528 201.03 192.072C201.03 188.712 203.718 185.952 207.294 185.952C210.846 185.952 213.558 188.592 213.558 192.096V196.944C213.558 201.024 210.822 203.688 207.078 203.688ZM207.27 195.936C209.43 195.936 211.158 194.208 211.158 192.048C211.158 189.888 209.43 188.208 207.27 188.208C205.134 188.208 203.382 189.888 203.382 192.048C203.382 194.208 205.134 195.936 207.27 195.936ZM222.122 198.288C218.714 198.288 216.218 195.504 216.218 192.096C216.218 188.736 218.906 185.952 222.482 185.952C226.034 185.952 228.746 188.592 228.746 192.096V198H226.49V195.936C225.602 197.376 224.042 198.288 222.122 198.288ZM222.482 196.032C224.69 196.032 226.37 194.256 226.37 192.12C226.37 189.96 224.69 188.184 222.482 188.184C220.298 188.184 218.594 189.96 218.594 192.12C218.594 194.256 220.298 196.032 222.482 196.032ZM237.453 203.688C234.909 203.688 232.797 202.584 231.717 200.496L233.709 199.416C234.405 200.688 235.701 201.504 237.405 201.504C239.877 201.504 241.557 199.728 241.557 196.968V196.032C240.789 197.256 239.349 198.168 237.381 198.168C234.045 198.168 231.405 195.528 231.405 192.072C231.405 188.712 234.093 185.952 237.669 185.952C241.221 185.952 243.933 188.592 243.933 192.096V196.944C243.933 201.024 241.197 203.688 237.453 203.688ZM237.645 195.936C239.805 195.936 241.533 194.208 241.533 192.048C241.533 189.888 239.805 188.208 237.645 188.208C235.509 188.208 233.757 189.888 233.757 192.048C233.757 194.208 235.509 195.936 237.645 195.936ZM252.833 198.264C249.257 198.264 246.593 195.672 246.593 192.048C246.593 188.664 249.017 185.904 252.545 185.904C256.097 185.904 258.305 188.472 258.305 191.76V192.72H248.897C249.161 194.736 250.697 196.152 252.809 196.152C254.249 196.152 255.545 195.528 256.241 194.232L258.065 195.168C257.033 197.184 255.137 198.264 252.833 198.264ZM248.993 191.184H255.929C255.833 189.312 254.465 188.04 252.521 188.04C250.529 188.04 249.233 189.432 248.993 191.184ZM262.683 198.216C261.819 198.216 261.123 197.52 261.123 196.656C261.123 195.792 261.819 195.12 262.683 195.12C263.547 195.12 264.243 195.792 264.243 196.656C264.243 197.52 263.547 198.216 262.683 198.216Z" fill="black"/>
<path d="M193.654 350.94V361.308H199.648V363H193.51C192.286 363 191.818 362.37 191.818 361.344V350.94H193.654ZM205.402 363.198C202.72 363.198 200.722 361.254 200.722 358.536C200.722 355.998 202.54 353.928 205.186 353.928C207.85 353.928 209.506 355.854 209.506 358.32V359.04H202.45C202.648 360.552 203.8 361.614 205.384 361.614C206.464 361.614 207.436 361.146 207.958 360.174L209.326 360.876C208.552 362.388 207.13 363.198 205.402 363.198ZM202.522 357.888H207.724C207.652 356.484 206.626 355.53 205.168 355.53C203.674 355.53 202.702 356.574 202.522 357.888ZM215.503 363.216C212.947 363.216 211.075 361.128 211.075 358.572C211.075 356.052 213.091 353.964 215.773 353.964C218.437 353.964 220.471 355.944 220.471 358.572V363H218.779V361.452C218.113 362.532 216.943 363.216 215.503 363.216ZM215.773 361.524C217.429 361.524 218.689 360.192 218.689 358.59C218.689 356.97 217.429 355.638 215.773 355.638C214.135 355.638 212.857 356.97 212.857 358.59C212.857 360.192 214.135 361.524 215.773 361.524ZM224.806 363H223.024V357.744C223.024 355.602 224.248 354 226.552 354C227.11 354 227.686 354.108 228.136 354.324V356.088C227.704 355.836 227.2 355.71 226.714 355.71C225.526 355.71 224.806 356.52 224.806 357.816V363ZM233.726 355.674C231.998 355.674 231.134 357.096 231.134 358.734V363H229.352V358.554C229.352 355.98 230.882 353.964 233.726 353.964C236.606 353.964 238.172 355.98 238.172 358.536V363H236.39V358.752C236.39 357.096 235.49 355.674 233.726 355.674ZM249.026 363.198C247.388 363.198 246.128 362.55 245.444 361.236L246.812 360.48C247.262 361.362 247.982 361.686 248.954 361.686C249.962 361.686 250.736 361.272 250.736 360.498C250.736 358.644 245.678 360.048 245.678 356.682C245.678 355.134 247.046 354 248.972 354C250.61 354 251.726 354.756 252.284 355.782L250.916 356.556C250.538 355.782 249.818 355.512 249.008 355.512C248.18 355.512 247.46 355.944 247.46 356.646C247.46 358.446 252.518 357.132 252.518 360.462C252.518 362.136 250.898 363.198 249.026 363.198ZM258.823 363.216C256.159 363.216 254.107 361.128 254.107 358.572C254.107 356.034 256.177 353.964 258.823 353.964C261.487 353.964 263.503 356.052 263.503 358.572C263.503 361.128 261.469 363.216 258.823 363.216ZM258.823 361.524C260.461 361.524 261.721 360.192 261.721 358.59C261.721 356.97 260.461 355.638 258.823 355.638C257.167 355.638 255.889 356.97 255.889 358.59C255.889 360.192 257.167 361.524 258.823 361.524ZM276.437 353.928C279.101 353.928 280.541 355.908 280.541 358.356V363H278.759V358.644C278.759 357.042 277.967 355.638 276.311 355.638C274.709 355.638 273.899 356.988 273.899 358.608V363H272.117V358.608C272.117 356.988 271.307 355.638 269.669 355.638C268.013 355.638 267.275 357.042 267.275 358.644V363H265.493V358.374C265.493 355.908 266.897 353.928 269.543 353.928C271.307 353.928 272.585 354.828 273.035 356.196C273.521 354.828 274.763 353.928 276.437 353.928ZM287.211 363.198C284.529 363.198 282.531 361.254 282.531 358.536C282.531 355.998 284.349 353.928 286.995 353.928C289.659 353.928 291.315 355.854 291.315 358.32V359.04H284.259C284.457 360.552 285.609 361.614 287.193 361.614C288.273 361.614 289.245 361.146 289.767 360.174L291.135 360.876C290.361 362.388 288.939 363.198 287.211 363.198ZM284.331 357.888H289.533C289.461 356.484 288.435 355.53 286.977 355.53C285.483 355.53 284.511 356.574 284.331 357.888ZM297.456 363.234C295.26 363.234 294.09 361.848 294.09 359.832V355.728H292.344V354.18H294.09V351.894H295.872V354.18H299.256V355.728H295.872V359.778C295.872 360.93 296.556 361.614 297.618 361.614C298.194 361.614 298.824 361.398 299.256 361.092V362.73C298.806 363.036 298.104 363.234 297.456 363.234ZM303.688 363H301.906V350.13H303.688V355.17C304.372 354.432 305.434 353.964 306.622 353.964C309.214 353.964 310.672 355.692 310.672 358.392V363H308.89V358.572C308.89 357.006 308.026 355.656 306.352 355.656C304.786 355.656 303.688 356.916 303.688 358.626V363ZM314.459 352.434C313.811 352.434 313.289 351.912 313.289 351.264C313.289 350.616 313.811 350.076 314.459 350.076C315.107 350.076 315.611 350.616 315.611 351.264C315.611 351.912 315.107 352.434 314.459 352.434ZM313.577 354.18H315.359V363H313.577V354.18ZM322.636 355.674C320.908 355.674 320.044 357.096 320.044 358.734V363H318.262V358.554C318.262 355.98 319.792 353.964 322.636 353.964C325.516 353.964 327.082 355.98 327.082 358.536V363H325.3V358.752C325.3 357.096 324.4 355.674 322.636 355.674ZM333.613 367.266C331.705 367.266 330.121 366.438 329.311 364.872L330.805 364.062C331.327 365.016 332.299 365.628 333.577 365.628C335.431 365.628 336.691 364.296 336.691 362.226V361.524C336.115 362.442 335.035 363.126 333.559 363.126C331.057 363.126 329.077 361.146 329.077 358.554C329.077 356.034 331.093 353.964 333.775 353.964C336.439 353.964 338.473 355.944 338.473 358.572V362.208C338.473 365.268 336.421 367.266 333.613 367.266ZM333.757 361.452C335.377 361.452 336.673 360.156 336.673 358.536C336.673 356.916 335.377 355.656 333.757 355.656C332.155 355.656 330.841 356.916 330.841 358.536C330.841 360.156 332.155 361.452 333.757 361.452ZM350.371 361.488C352.009 361.488 352.909 360.066 352.909 358.428V354.18H354.691V358.644C354.691 361.2 353.143 363.216 350.371 363.216C347.635 363.216 346.087 361.182 346.087 358.626V354.18H347.869V358.446C347.869 360.066 348.751 361.488 350.371 361.488ZM360.348 363.198C358.71 363.198 357.45 362.55 356.766 361.236L358.134 360.48C358.584 361.362 359.304 361.686 360.276 361.686C361.284 361.686 362.058 361.272 362.058 360.498C362.058 358.644 357 360.048 357 356.682C357 355.134 358.368 354 360.294 354C361.932 354 363.048 354.756 363.606 355.782L362.238 356.556C361.86 355.782 361.14 355.512 360.33 355.512C359.502 355.512 358.782 355.944 358.782 356.646C358.782 358.446 363.84 357.132 363.84 360.462C363.84 362.136 362.22 363.198 360.348 363.198ZM370.109 363.198C367.427 363.198 365.429 361.254 365.429 358.536C365.429 355.998 367.247 353.928 369.893 353.928C372.557 353.928 374.213 355.854 374.213 358.32V359.04H367.157C367.355 360.552 368.507 361.614 370.091 361.614C371.171 361.614 372.143 361.146 372.665 360.174L374.033 360.876C373.259 362.388 371.837 363.198 370.109 363.198ZM367.229 357.888H372.431C372.359 356.484 371.333 355.53 369.875 355.53C368.381 355.53 367.409 356.574 367.229 357.888ZM379.059 363H377.277V355.728H375.603V354.18H377.277V353.262C377.277 351.39 378.447 349.986 380.661 349.986C381.255 349.986 381.813 350.094 382.263 350.31V352.002C381.849 351.75 381.327 351.606 380.823 351.606C379.725 351.606 379.059 352.092 379.059 353.262V354.18H382.155V355.728H379.059V363ZM387.83 361.488C389.468 361.488 390.368 360.066 390.368 358.428V354.18H392.15V358.644C392.15 361.2 390.602 363.216 387.83 363.216C385.094 363.216 383.546 361.182 383.546 358.626V354.18H385.328V358.446C385.328 360.066 386.21 361.488 387.83 361.488ZM394.911 350.13H396.693V363H394.911V350.13ZM410.345 352.452C409.319 352.452 408.599 353.208 408.599 354.108C408.599 354.936 409.175 355.782 410.219 356.826L412.973 359.544C413.549 358.752 413.981 357.78 414.215 356.736L415.763 357.402C415.421 358.626 414.863 359.76 414.125 360.678L416.483 363H413.999L412.901 361.902C411.839 362.73 410.543 363.216 409.013 363.216C406.331 363.216 404.621 361.704 404.621 359.598C404.621 358.05 405.629 356.754 407.393 356.142C406.961 355.458 406.673 354.72 406.673 353.928C406.673 352.11 408.113 350.724 410.147 350.724C411.965 350.724 413.261 351.66 413.945 353.172L412.505 354.018C412.073 353.064 411.299 352.452 410.345 352.452ZM406.529 359.526C406.529 360.732 407.609 361.614 409.211 361.614C410.147 361.614 411.011 361.308 411.749 360.768L408.743 357.78C408.599 357.636 408.455 357.492 408.329 357.348C407.267 357.654 406.529 358.482 406.529 359.526ZM423.084 363L426.378 352.398C426.738 351.264 427.62 350.724 428.628 350.724C429.654 350.724 430.536 351.264 430.896 352.398L434.19 363H432.318L431.436 360.048L425.82 360.066L424.938 363H423.084ZM427.962 352.938L426.324 358.392H430.95L429.33 352.938C429.204 352.56 428.988 352.38 428.646 352.38C428.286 352.38 428.07 352.56 427.962 352.938ZM439.292 363.198C437.654 363.198 436.394 362.55 435.71 361.236L437.078 360.48C437.528 361.362 438.248 361.686 439.22 361.686C440.228 361.686 441.002 361.272 441.002 360.498C441.002 358.644 435.944 360.048 435.944 356.682C435.944 355.134 437.312 354 439.238 354C440.876 354 441.992 354.756 442.55 355.782L441.182 356.556C440.804 355.782 440.084 355.512 439.274 355.512C438.446 355.512 437.726 355.944 437.726 356.646C437.726 358.446 442.784 357.132 442.784 360.462C442.784 362.136 441.164 363.198 439.292 363.198ZM447.072 363H445.29V350.112H447.072V357.852H448.152C448.242 357.636 448.386 357.438 448.566 357.258L451.392 354.18H453.57L449.772 358.32C449.664 358.41 449.61 358.482 449.61 358.572C449.61 358.662 449.664 358.734 449.772 358.824L453.552 363H451.356L448.548 359.922C448.368 359.706 448.224 359.49 448.134 359.256H447.072V363ZM465.132 363.216C462.468 363.216 460.434 361.218 460.434 358.608V350.13H462.216V355.278C462.936 354.486 464.016 353.964 465.204 353.964C467.886 353.964 469.812 355.926 469.812 358.608C469.812 361.146 467.796 363.216 465.132 363.216ZM465.132 361.542C466.77 361.542 468.03 360.21 468.03 358.59C468.03 356.988 466.77 355.656 465.132 355.656C463.476 355.656 462.216 356.988 462.216 358.59C462.216 360.21 463.476 361.542 465.132 361.542ZM475.947 363.198C473.265 363.198 471.267 361.254 471.267 358.536C471.267 355.998 473.085 353.928 475.731 353.928C478.395 353.928 480.051 355.854 480.051 358.32V359.04H472.995C473.193 360.552 474.345 361.614 475.929 361.614C477.009 361.614 477.981 361.146 478.503 360.174L479.871 360.876C479.097 362.388 477.675 363.198 475.947 363.198ZM473.067 357.888H478.269C478.197 356.484 477.171 355.53 475.713 355.53C474.219 355.53 473.247 356.574 473.067 357.888ZM486.192 363.234C483.996 363.234 482.826 361.848 482.826 359.832V355.728H481.08V354.18H482.826V351.894H484.608V354.18H487.992V355.728H484.608V359.778C484.608 360.93 485.292 361.614 486.354 361.614C486.93 361.614 487.56 361.398 487.992 361.092V362.73C487.542 363.036 486.84 363.234 486.192 363.234ZM494.208 363.234C492.012 363.234 490.842 361.848 490.842 359.832V355.728H489.096V354.18H490.842V351.894H492.624V354.18H496.008V355.728H492.624V359.778C492.624 360.93 493.308 361.614 494.37 361.614C494.946 361.614 495.576 361.398 496.008 361.092V362.73C495.558 363.036 494.856 363.234 494.208 363.234ZM502.244 363.198C499.562 363.198 497.564 361.254 497.564 358.536C497.564 355.998 499.382 353.928 502.028 353.928C504.692 353.928 506.348 355.854 506.348 358.32V359.04H499.292C499.49 360.552 500.642 361.614 502.226 361.614C503.306 361.614 504.278 361.146 504.8 360.174L506.168 360.876C505.394 362.388 503.972 363.198 502.244 363.198ZM499.364 357.888H504.566C504.494 356.484 503.468 355.53 502.01 355.53C500.516 355.53 499.544 356.574 499.364 357.888ZM510.257 363H508.475V357.744C508.475 355.602 509.699 354 512.003 354C512.561 354 513.137 354.108 513.587 354.324V356.088C513.155 355.836 512.651 355.71 512.165 355.71C510.977 355.71 510.257 356.52 510.257 357.816V363ZM528.598 367.05H526.816V361.884C526.096 362.694 524.998 363.216 523.81 363.216C521.146 363.216 519.202 361.236 519.202 358.572C519.202 356.052 521.218 353.964 523.9 353.964C526.564 353.964 528.598 355.944 528.598 358.572V367.05ZM523.9 361.542C525.556 361.542 526.816 360.192 526.816 358.59C526.816 356.97 525.556 355.656 523.9 355.656C522.262 355.656 520.984 356.97 520.984 358.59C520.984 360.192 522.262 361.542 523.9 361.542ZM535.363 361.488C537.001 361.488 537.901 360.066 537.901 358.428V354.18H539.683V358.644C539.683 361.2 538.135 363.216 535.363 363.216C532.627 363.216 531.079 361.182 531.079 358.626V354.18H532.861V358.446C532.861 360.066 533.743 361.488 535.363 361.488ZM546.295 363.198C543.613 363.198 541.615 361.254 541.615 358.536C541.615 355.998 543.433 353.928 546.079 353.928C548.743 353.928 550.399 355.854 550.399 358.32V359.04H543.343C543.541 360.552 544.693 361.614 546.277 361.614C547.357 361.614 548.329 361.146 548.851 360.174L550.219 360.876C549.445 362.388 548.023 363.198 546.295 363.198ZM543.415 357.888H548.617C548.545 356.484 547.519 355.53 546.061 355.53C544.567 355.53 543.595 356.574 543.415 357.888ZM555.694 363.198C554.056 363.198 552.796 362.55 552.112 361.236L553.48 360.48C553.93 361.362 554.65 361.686 555.622 361.686C556.63 361.686 557.404 361.272 557.404 360.498C557.404 358.644 552.346 360.048 552.346 356.682C552.346 355.134 553.714 354 555.64 354C557.278 354 558.394 354.756 558.952 355.782L557.584 356.556C557.206 355.782 556.486 355.512 555.676 355.512C554.848 355.512 554.128 355.944 554.128 356.646C554.128 358.446 559.186 357.132 559.186 360.462C559.186 362.136 557.566 363.198 555.694 363.198ZM565.347 363.234C563.151 363.234 561.981 361.848 561.981 359.832V355.728H560.235V354.18H561.981V351.894H563.763V354.18H567.147V355.728H563.763V359.778C563.763 360.93 564.447 361.614 565.509 361.614C566.085 361.614 566.715 361.398 567.147 361.092V362.73C566.697 363.036 565.995 363.234 565.347 363.234ZM570.678 352.434C570.03 352.434 569.508 351.912 569.508 351.264C569.508 350.616 570.03 350.076 570.678 350.076C571.326 350.076 571.83 350.616 571.83 351.264C571.83 351.912 571.326 352.434 570.678 352.434ZM569.796 354.18H571.578V363H569.796V354.18ZM578.639 363.216C575.975 363.216 573.923 361.128 573.923 358.572C573.923 356.034 575.993 353.964 578.639 353.964C581.303 353.964 583.319 356.052 583.319 358.572C583.319 361.128 581.285 363.216 578.639 363.216ZM578.639 361.524C580.277 361.524 581.537 360.192 581.537 358.59C581.537 356.97 580.277 355.638 578.639 355.638C576.983 355.638 575.705 356.97 575.705 358.59C575.705 360.192 576.983 361.524 578.639 361.524ZM589.683 355.674C587.955 355.674 587.091 357.096 587.091 358.734V363H585.309V358.554C585.309 355.98 586.839 353.964 589.683 353.964C592.563 353.964 594.129 355.98 594.129 358.536V363H592.347V358.752C592.347 357.096 591.447 355.674 589.683 355.674ZM599.85 363.198C598.212 363.198 596.952 362.55 596.268 361.236L597.636 360.48C598.086 361.362 598.806 361.686 599.778 361.686C600.786 361.686 601.56 361.272 601.56 360.498C601.56 358.644 596.502 360.048 596.502 356.682C596.502 355.134 597.87 354 599.796 354C601.434 354 602.55 354.756 603.108 355.782L601.74 356.556C601.362 355.782 600.642 355.512 599.832 355.512C599.004 355.512 598.284 355.944 598.284 356.646C598.284 358.446 603.342 357.132 603.342 360.462C603.342 362.136 601.722 363.198 599.85 363.198ZM606.821 363.162C606.173 363.162 605.651 362.64 605.651 361.992C605.651 361.344 606.173 360.84 606.821 360.84C607.469 360.84 607.991 361.344 607.991 361.992C607.991 362.64 607.469 363.162 606.821 363.162Z" fill="black"/>
</g>
<defs>
<filter id="filter0_i_4240_72179" x="0" y="0" width="800" height="474" filterUnits="userSpaceOnUse" color-interpolation-filters="sRGB">
<feFlood flood-opacity="0" result="BackgroundImageFix"/>
<feBlend mode="normal" in="SourceGraphic" in2="BackgroundImageFix" result="shape"/>
<feColorMatrix in="SourceAlpha" type="matrix" values="0 0 0 0 0 0 0 0 0 0 0 0 0 0 0 0 0 0 127 0" result="hardAlpha"/>
<feMorphology radius="8" operator="erode" in="SourceAlpha" result="effect1_innerShadow_4240_72179"/>
<feOffset dy="24"/>
<feGaussianBlur stdDeviation="30"/>
<feComposite in2="hardAlpha" operator="arithmetic" k2="-1" k3="1"/>
<feColorMatrix type="matrix" values="0 0 0 0 0.258824 0 0 0 0 0.901961 0 0 0 0 1 0 0 0 1 0"/>
<feBlend mode="normal" in2="shape" result="effect1_innerShadow_4240_72179"/>
</filter>
<linearGradient id="paint0_linear_4240_72179" x1="400" y1="0" x2="400" y2="450" gradientUnits="userSpaceOnUse">
<stop stop-color="white"/>
<stop offset="1" stop-color="#EFEFEF"/>
</linearGradient>
</defs>
</svg>
