<svg width="800" height="450" viewBox="0 0 800 450" fill="none" xmlns="http://www.w3.org/2000/svg">
<g filter="url(#filter0_i_1753_20644)">
<g clip-path="url(#clip0_1753_20644)">
<rect width="800" height="450" rx="48" fill="url(#paint0_linear_1753_20644)"/>
<g opacity="0.1">
<path d="M263.895 133.949C239.703 184.852 215.529 235.773 191.336 286.675C190.622 288.156 193.231 289.463 193.999 287.998C220.21 238.114 246.42 188.211 272.631 138.327C273.9 135.933 272.864 132.966 270.452 131.752C268.04 130.554 265.056 131.501 263.895 133.949Z" fill="#535353"/>
<path d="M348.69 203.475C322.659 244.962 296.644 286.449 270.612 327.953C269.611 329.561 272.327 331.438 273.471 329.901C302.897 290.755 332.324 251.608 361.733 212.444C364.36 208.96 363.305 203.921 359.696 201.438C356.087 198.954 351.013 199.776 348.69 203.475Z" fill="#535353"/>
<path d="M394.38 235.114C378.442 268.078 362.488 301.058 346.533 334.023C343.906 339.473 353.554 344.316 356.341 338.938C373.136 306.385 389.949 273.833 406.763 241.297C408.514 237.902 407.084 233.72 403.67 232.005C400.26 230.31 396.059 231.664 394.38 235.114Z" fill="#535353"/>
<path d="M521.137 178.728C511.271 207.779 501.393 236.83 491.511 265.881C488.758 274.013 503.338 279.086 506.217 270.991C516.507 242.082 526.781 213.175 537.07 184.267C538.627 179.889 536.286 175.065 531.874 173.528C527.478 172.01 522.634 174.315 521.137 178.728Z" fill="#535353"/>
<path d="M489.709 124.592C508.059 150.57 526.408 176.566 544.778 202.544C547.241 206.046 553.495 201.865 551.226 198.256C534.29 171.313 517.37 144.388 500.43 117.445C498.537 114.443 494.462 113.693 491.499 115.658C488.549 117.641 487.673 121.679 489.709 124.592Z" fill="#535353"/>
<path d="M417.288 90.5358C434.655 117.658 452.038 144.797 469.422 171.919C471.477 175.153 477.212 171.759 475.39 168.4C460.007 140.081 444.624 111.78 429.241 83.461C427.399 80.0841 423.023 79.0654 419.735 81.0129C416.428 82.9603 415.216 87.302 417.288 90.5358Z" fill="#535353"/>
<path d="M335.476 117.047C361.937 151.066 388.415 185.066 414.893 219.084C418.826 224.158 428.007 217.011 424.078 211.938C397.617 177.919 371.174 143.884 344.713 109.847C342.73 107.292 339.049 106.845 336.494 108.828C333.939 110.812 333.493 114.492 335.476 117.047Z" fill="#535353"/>
<path d="M282.243 155.552C300.449 175.224 318.655 194.894 336.862 214.566C340.078 218.05 346.349 212.565 343.33 208.902C326.249 188.248 309.168 167.612 292.087 146.958C289.783 144.171 285.584 143.957 282.868 146.333C280.152 148.709 279.795 152.908 282.243 155.552Z" fill="#535353"/>
<path d="M189.97 195.181C198.206 203.847 206.711 212.244 215.449 220.356C222.077 226.502 228.83 232.647 236.156 238.061C240.855 241.51 245.876 245.424 252.04 246.691C252.361 246.746 252.665 246.834 252.969 246.905C253.005 246.905 253.022 246.905 253.058 246.925C256.22 247.566 259.115 250.212 261.813 252.838C264.528 255.444 267.102 258.054 270.086 258.715C277.804 260.415 285.647 262.522 293.634 264.648C312.054 269.56 330.493 274.994 349.057 280.479C372.159 287.303 395.279 294.27 418.309 301.649C419.83 302.152 421.382 300.987 421.901 299.648C422.436 298.31 422.095 296.397 420.666 295.7C398.762 285.303 376.643 275.243 354.185 265.971C336.193 258.537 317.915 251.479 299.084 245.653C291.133 243.206 282.949 240.794 274.445 238.92C271.14 238.188 267.369 239.562 263.725 241.134C260.044 242.726 256.525 244.528 253.255 244.6C253.291 244.6 253.308 244.6 253.326 244.62C253.04 244.6 252.772 244.564 252.487 244.513C247.001 243.404 242.284 239.669 237.711 236.025C230.743 230.468 224.471 224.036 218.343 217.461C210.303 208.796 202.691 199.755 195.384 190.482C194.151 188.928 191.81 188.838 190.327 190.125C188.827 191.429 188.594 193.752 189.97 195.181Z" fill="#535353"/>
<path d="M385.858 264C433.973 278.401 482.071 292.801 530.189 307.222C534.688 308.561 539.227 305.345 540.566 301.111C541.909 296.857 540.031 291.621 535.584 290.14C487.913 274.309 440.263 258.479 392.612 242.632C386.734 240.684 380.427 244.042 378.551 249.94C376.693 255.837 379.944 262.214 385.858 264Z" fill="#535353"/>
<path d="M433.112 159.91C447.283 178.58 461.45 197.252 475.617 215.922C476.085 216.53 477.174 215.725 476.726 215.118C463.181 195.983 449.62 176.847 436.078 157.729C435.488 156.89 434.327 156.729 433.508 157.337C432.684 157.927 432.506 159.088 433.112 159.91Z" fill="#535353"/>
<path d="M578.254 45.4033C533.816 89.1947 489.381 132.969 444.967 176.742C444.412 177.278 444.412 178.153 444.967 178.689C445.501 179.243 446.377 179.243 446.931 178.689C490.704 134.273 534.477 89.8379 578.254 45.4033Z" fill="#535353"/>
<path d="M386.264 61.5392C352.567 98.3983 318.87 135.24 285.172 172.081C283.136 174.297 287.084 177.977 289.157 175.797C323.515 139.563 357.855 103.33 392.213 67.0781C393.75 65.4523 393.643 62.8794 391.999 61.3431C390.355 59.8064 387.764 59.8955 386.264 61.5392Z" fill="#535353"/>
<path d="M329.005 42.8144C308.404 72.3836 287.786 101.971 267.185 131.558C266.328 132.773 268.436 134.346 269.365 133.166C291.592 104.776 313.818 76.4032 336.062 48.0127C337.545 46.1191 337.08 43.3325 335.133 41.8852C333.185 40.4559 330.399 40.8309 329.005 42.8144Z" fill="#535353"/>
<path d="M254.355 43.6889C237.239 70.5066 220.141 97.3248 203.042 124.161C202.363 125.233 204.239 126.483 204.972 125.429C223.143 99.3439 241.331 73.2407 259.502 47.1374C260.484 45.7258 260.073 43.778 258.644 42.831C257.233 41.884 255.267 42.2417 254.355 43.6889Z" fill="#535353"/>
<path d="M153.448 102.021C152.662 120.941 151.876 139.879 151.09 158.818C152.823 139.951 154.556 121.083 156.289 102.198C156.361 101.43 155.753 100.752 154.967 100.698C154.181 100.644 153.484 101.234 153.448 102.021Z" fill="#535353"/>
<path d="M194.149 249.384C192.88 268.288 191.629 287.192 190.361 306.076C190.2 308.631 194.81 308.936 194.97 306.397C196.239 287.493 197.508 268.593 198.758 249.689C198.848 248.421 197.882 247.312 196.596 247.221C195.327 247.134 194.22 248.101 194.149 249.384Z" fill="#535353"/>
<path d="M513.731 292.753C504.994 312.37 496.257 331.987 487.52 351.604C498.938 333.417 510.372 315.229 521.791 297.058C523.149 294.911 522.147 292.056 519.914 290.86C517.68 289.679 514.749 290.448 513.731 292.753Z" fill="#535353"/>
<path d="M558.256 211.42C552.327 232.949 546.374 254.459 540.445 275.989C547.107 254.677 553.773 233.377 560.439 212.064C560.617 211.456 560.26 210.831 559.67 210.652C559.06 210.473 558.419 210.813 558.256 211.42Z" fill="#535353"/>
<path d="M532.008 113.456C532.008 128.571 532.008 143.686 532.008 158.819C532.008 159.766 533.758 159.766 533.758 158.819C533.758 143.686 533.758 128.571 533.758 113.456C533.758 112.491 532.008 112.491 532.008 113.456Z" fill="#535353"/>
<path d="M489.567 67.4855C482.565 89.1041 475.543 110.705 468.54 132.324C468.52 132.414 468.647 132.449 468.683 132.377C476.794 111.151 484.906 89.9256 493.017 68.6998C493.373 67.7528 492.855 66.6985 491.908 66.3591C490.946 66.0196 489.872 66.5207 489.567 67.4855Z" fill="#535353"/>
<path d="M446.422 210.992C445.241 218.747 444.025 226.483 442.473 234.146C440.382 244.456 438.382 254.801 434.021 264.326C434.021 264.342 434.005 264.362 434.005 264.378C434.005 264.378 434.021 264.362 434.021 264.342C432.753 266.485 428.876 267.182 427.68 269.364C405.061 310.083 383.369 351.318 361.66 392.556C360.999 393.807 363.161 395.003 363.876 393.807C387.764 353.785 411.651 313.763 434.27 273.028C435.47 270.846 434.021 267.182 435.165 264.968C435.181 264.948 435.181 264.932 435.181 264.932C435.201 264.913 435.201 264.877 435.217 264.861C439.613 255.229 442.509 244.995 445.832 235.042C448.315 227.556 450.671 220.015 452.996 212.493C453.551 210.706 452.283 208.867 450.458 208.456C448.655 208.045 446.707 209.152 446.422 210.992Z" fill="#535353"/>
<path d="M162.931 275.617C160.233 308.51 157.553 341.403 154.873 374.277C159.733 341.653 164.61 309.009 169.487 276.386C169.756 274.58 168.398 272.936 166.576 272.722C164.771 272.508 163.074 273.811 162.931 275.617Z" fill="#535353"/>
<path d="M90.7714 188.568C87.5197 216.351 84.2684 244.15 81.0345 271.934C80.7664 274.168 84.7148 274.722 85.072 272.488C89.378 244.847 93.7023 217.19 98.0083 189.55C98.3117 187.549 96.8827 185.709 94.8814 185.441C92.8804 185.156 91.0039 186.549 90.7714 188.568Z" fill="#535353"/>
<path d="M552.925 247.87C538.489 272.24 524.036 296.61 509.6 320.98C509.188 321.661 510.368 322.393 510.796 321.748C526.591 298.238 542.402 274.723 558.197 251.193C559.143 249.779 558.68 247.815 557.214 246.904C555.765 245.993 553.8 246.385 552.925 247.87Z" fill="#535353"/>
<path d="M329.313 371.631C312.608 393.823 295.884 415.994 279.161 438.17C278.786 438.685 279.643 439.382 280.055 438.918C298.636 418.248 317.199 397.593 335.763 376.939C337.299 375.224 336.96 372.527 335.192 371.061C333.405 369.596 330.707 369.794 329.313 371.631Z" fill="#535353"/>
<path d="M183.907 390.585C204.454 410.384 224.983 430.163 245.529 449.939C245.601 450.014 245.709 449.887 245.655 449.816C225.859 429.284 206.08 408.74 186.301 388.209C185.658 387.531 184.568 387.551 183.907 388.209C183.246 388.87 183.246 389.943 183.907 390.585Z" fill="#535353"/>
<path d="M510.998 262.735C524.453 282.372 537.903 302.005 551.357 321.625C551.662 322.069 552.466 321.57 552.197 321.107C540.461 300.397 528.702 279.706 516.963 259.02C516.001 257.321 513.767 256.873 512.123 257.891C510.46 258.929 509.909 261.143 510.998 262.735Z" fill="#535353"/>
<path d="M411.862 390.998C407.877 408.955 403.893 426.893 399.924 444.83C398.818 449.817 407.109 452.193 408.804 447.369C414.9 430.037 421.011 412.69 427.102 395.358C428.568 391.231 425.871 386.764 421.668 385.552C417.454 384.352 412.808 386.728 411.862 390.998Z" fill="#535353"/>
<path d="M677.482 161.822C670.567 189.731 663.652 217.621 656.741 245.509C656.507 246.495 658.222 246.958 658.507 245.992C666.71 218.46 674.928 190.91 683.126 163.359C683.594 161.823 682.627 160.197 681.075 159.786C679.518 159.357 677.875 160.268 677.482 161.822Z" fill="#535353"/>
<path d="M616.52 96.7888C598.42 137.489 580.34 178.19 562.24 218.89C561.812 219.873 563.527 220.677 564.01 219.712C583.714 179.762 603.423 139.83 623.131 99.8796C624.026 98.0752 623.202 95.8774 621.38 95.0196C619.538 94.1621 617.34 94.9308 616.52 96.7888Z" fill="#535353"/>
<path d="M584.62 25.0877C569.502 37.7014 554.368 50.297 539.255 62.893C537.682 64.1972 540.043 67.0386 541.615 65.7343C556.729 53.1206 571.863 40.5242 586.976 27.9278C588.549 26.6236 586.172 23.783 584.62 25.0877Z" fill="#535353"/>
<path d="M463.472 14.8157C479.675 36.792 495.866 58.7497 512.053 80.7256C513.57 82.7804 517.234 80.3327 515.911 78.1532C501.851 54.7475 487.806 31.3604 473.762 7.97255C471.995 5.04248 468.027 4.36364 465.187 6.25761C462.347 8.15158 461.452 12.0643 463.472 14.8157Z" fill="#535353"/>
<path d="M727.097 184.249C715.287 213.586 703.456 242.907 691.646 272.224C705.029 243.584 718.412 214.945 731.795 186.304C732.401 185.018 731.775 183.499 730.472 182.927C729.169 182.356 727.632 182.945 727.097 184.249Z" fill="#535353"/>
<path d="M579.871 304.777C574.208 313.942 568.845 323.321 563.878 332.862C560.183 339.975 556.52 347.172 553.802 354.748C552.175 359.323 550.23 364.361 551.177 369.383C551.248 369.795 551.264 370.203 551.248 370.65C551.264 370.686 551.264 370.721 551.284 370.741C551.553 373.24 550.836 376.991 552.694 378.995C559.268 386.176 568.346 389.717 576.152 392.699C591.072 398.327 606.598 401.258 621.945 403.65C642.529 406.85 663.275 408.636 683.997 409.528C684.678 409.563 685.249 409.064 685.304 408.403C685.355 407.725 684.856 407.151 684.179 407.064C663.631 404.866 643.19 401.777 623.039 397.61C607.941 394.485 592.985 391 579.012 385.372C571.348 382.318 563.506 378.833 558.733 373.51C557.518 372.116 554.123 372.064 552.266 370.258C552.286 370.294 552.301 370.329 552.301 370.345C552.068 370.008 551.889 369.652 551.818 369.256C550.927 364.487 552.892 359.592 554.698 355.069C557.644 347.675 561.68 340.795 565.898 334.022C571.546 324.948 577.725 316.211 584.157 307.704C585.032 306.563 584.676 304.9 583.495 304.096C582.299 303.276 580.62 303.545 579.871 304.777Z" fill="#535353"/>
<path d="M731.394 298.501C730.483 311.136 729.588 323.766 728.677 336.396C728.626 337.236 730.091 337.379 730.198 336.559C731.822 323.996 733.434 311.421 735.058 298.862C735.184 297.86 734.416 296.949 733.394 296.842C732.396 296.751 731.465 297.483 731.394 298.501Z" fill="#535353"/>
<path d="M577.964 258.266C622.133 259.463 666.318 260.678 710.503 261.875C711.037 261.894 711.501 261.482 711.536 260.928C711.572 260.393 711.144 259.93 710.61 259.874C666.583 256.052 622.56 252.211 578.534 248.369C575.801 248.135 573.46 250.298 573.302 253.031C573.139 255.763 575.231 258.175 577.964 258.266Z" fill="#535353"/>
<path d="M607.431 210.295C636.594 214.262 665.768 218.228 694.926 222.195C696.499 222.409 697.948 221.319 698.213 219.783C698.483 218.246 697.501 216.728 695.948 216.388C667.146 210.278 638.36 204.168 609.558 198.057C606.2 197.343 602.948 199.736 602.378 203.113C601.788 206.49 604.021 209.831 607.431 210.295Z" fill="#535353"/>
<path d="M615.199 100.864C662.097 105.064 708.999 109.263 755.917 113.461C709.573 105.064 663.242 96.648 616.894 88.2507C613.448 87.6253 610.213 90.2163 609.733 93.7005C609.266 97.1847 611.698 100.543 615.199 100.864Z" fill="#535353"/>
<path d="M538.148 263.468C566.094 287.124 594.037 310.761 621.963 334.418C623.963 336.097 627.001 332.897 625.231 330.988C600.255 304.242 575.259 277.476 550.279 250.73C546.976 247.174 541.186 247.514 537.843 251.031C534.484 254.552 534.433 260.323 538.148 263.468Z" fill="#535353"/>
<path d="M652.43 162.129C634.009 220.25 615.572 278.373 597.151 336.491C616.519 278.674 635.887 220.876 655.254 163.058C655.523 162.272 655.092 161.433 654.307 161.183C653.519 160.933 652.684 161.361 652.43 162.129Z" fill="#535353"/>
<path d="M344.316 161.662C335.901 238.83 337.402 303.65 311.352 377.206C310.459 379.725 314.907 381.424 315.908 378.921C345.531 305.65 346.942 239.08 358.538 163.52C359.145 159.608 356.287 155.998 352.374 155.48C348.444 154.962 344.745 157.732 344.316 161.662Z" fill="#535353"/>
<path d="M151.943 275.809C152.246 321.21 152.532 366.626 152.836 412.027C152.854 414.261 156.749 414.368 156.892 412.134C159.715 366.824 162.537 321.499 165.361 276.185C165.575 272.49 162.538 269.397 158.839 269.29C155.123 269.183 151.907 272.114 151.943 275.809Z" fill="#535353"/>
<path d="M46.9223 215.75C103.971 255.486 157.822 298.114 218.123 334.259C219.874 335.296 221.803 332.33 220.142 331.15C163.021 290.72 113.154 244.622 58.6783 200.17C54.5152 196.757 48.2617 197.776 45.01 202.082C41.7584 206.388 42.4914 212.677 46.9223 215.75Z" fill="#535353"/>
<path d="M120.498 396.341C169.703 397.593 218.909 398.844 268.114 400.076C269.83 400.131 271.276 398.844 271.366 397.129C271.455 395.414 270.152 393.984 268.436 393.842C219.356 390.052 170.275 386.265 121.195 382.459C117.371 382.174 114.102 385.212 113.905 389.053C113.708 392.875 116.656 396.234 120.498 396.341Z" fill="#535353"/>
<path d="M296.806 48.5288C260.143 96.0725 223.462 143.598 186.799 191.142C184.976 193.501 189.051 196.788 190.98 194.537C229.912 148.815 268.826 103.112 307.758 57.4089C310.295 54.4432 309.759 49.9411 306.722 47.4935C303.702 45.0454 299.2 45.4557 296.806 48.5288Z" fill="#535353"/>
<path d="M665.033 281.71C675.184 316.659 685.347 351.603 695.498 386.552C696.678 390.627 703.804 388.841 702.928 384.694C695.443 349.084 687.957 313.458 680.471 277.848C679.56 273.543 675.093 270.989 670.823 272.062C666.554 273.135 663.801 277.492 665.033 281.71Z" fill="#535353"/>
</g>
<path d="M47.264 130.096H37.28L46.304 73.072C47.168 67.504 51.2 64.528 56.384 64.528C60.992 64.528 64.928 66.736 66.368 71.824L78.752 116.656C78.944 117.52 79.136 117.808 79.616 117.808C80.192 117.808 80.288 117.52 80.576 116.656L92.864 72.016C94.208 66.928 98.336 64.624 102.944 64.624C108.032 64.624 111.968 67.696 112.832 73.36L120.992 130H111.104L104 76.432C103.808 75.088 103.424 74.224 102.368 74.224C101.504 74.224 100.928 74.896 100.64 76.144L87.392 122.224C86.336 126.064 83.264 127.984 79.616 127.984C76.16 127.984 72.896 126.064 71.84 122.416L58.688 76.048C58.304 74.704 57.824 74.128 56.96 74.128C56.096 74.128 55.424 74.8 55.232 76.336L47.264 130.096ZM155.113 131.056C140.809 131.056 130.153 120.688 130.153 106.192C130.153 92.656 139.849 81.616 153.961 81.616C168.169 81.616 177 91.888 177 105.04V108.88H139.369C140.424 116.944 146.569 122.608 155.017 122.608C160.777 122.608 165.961 120.112 168.745 114.928L176.041 118.672C171.913 126.736 164.329 131.056 155.113 131.056ZM139.753 102.736H167.497C167.113 95.248 161.641 90.16 153.865 90.16C145.897 90.16 140.713 95.728 139.753 102.736ZM210.331 131.056C196.027 131.056 185.371 120.688 185.371 106.192C185.371 92.656 195.067 81.616 209.179 81.616C223.387 81.616 232.219 91.888 232.219 105.04V108.88H194.587C195.643 116.944 201.787 122.608 210.235 122.608C215.995 122.608 221.179 120.112 223.963 114.928L231.259 118.672C227.131 126.736 219.547 131.056 210.331 131.056ZM194.971 102.736H222.715C222.331 95.248 216.859 90.16 209.083 90.16C201.115 90.16 195.931 95.728 194.971 102.736ZM264.974 131.248C253.262 131.248 247.022 123.856 247.022 113.104V91.216H237.71V82.96H247.022V70.768H256.526V82.96H274.574V91.216H256.526V112.816C256.526 118.96 260.174 122.608 265.838 122.608C268.91 122.608 272.27 121.456 274.574 119.824V128.56C272.174 130.192 268.43 131.248 264.974 131.248ZM341.808 130.864C323.664 130.864 315.312 119.92 315.312 102.064V65.68H325.104V101.776C325.104 114.544 330.48 121.648 341.808 121.648C353.136 121.648 358.512 114.544 358.512 101.776V65.68H368.304V102.064C368.304 119.92 359.856 130.864 341.808 130.864ZM392.57 151.6H383.066V106.384C383.066 92.368 393.914 81.808 408.122 81.808C422.33 81.808 433.082 92.944 433.082 106.384C433.082 120.592 422.81 131.152 408.506 131.152C402.17 131.152 396.41 128.368 392.57 124.144V151.6ZM408.122 122.224C416.858 122.224 423.578 115.024 423.578 106.48C423.578 97.84 416.858 90.832 408.122 90.832C399.29 90.832 392.57 97.84 392.57 106.48C392.57 115.024 399.29 122.224 408.122 122.224Z" fill="black"/>
<path d="M459.354 74.5215C461.94 78.1018 464.633 81.8502 468.251 84.4921C473.706 88.4105 479.385 92.3631 485.133 96.124C488.007 98.0044 490.9 99.8369 493.799 101.594C495.242 102.472 496.692 103.331 498.136 104.168C499.585 105.001 501.022 105.827 502.471 106.596C506.383 108.568 510.832 109.261 514.999 109.728C511.85 106.945 508.814 103.875 505.165 101.705C503.778 100.921 502.365 100.141 500.959 99.3217C499.554 98.5062 498.136 97.6669 496.724 96.8076C493.893 95.0885 491.05 93.2896 488.22 91.4391C482.559 87.738 476.948 83.8309 471.537 79.9461C467.913 77.387 463.546 75.9586 459.354 74.5215Z" fill="black"/>
<path d="M497.755 63.1777C498.23 62.2387 498.698 61.2997 499.161 60.3583C498.648 60.263 498.13 60.1671 497.611 60.0718C496.393 62.9367 494.506 66.4946 493.1 70.7846C492.775 71.7759 492.513 72.8182 492.2 73.8755C491.894 74.9353 491.582 76.0193 491.257 77.1246C490.601 79.3337 489.901 81.6245 489.176 83.9632C487.72 88.6412 486.158 93.5098 484.603 98.3042C483.047 103.099 481.51 107.82 480.104 112.208C479.404 114.402 478.736 116.512 478.123 118.508C477.517 120.508 477.161 122.453 476.93 124.263C476.361 129.099 476.537 132.942 476.912 134.767C477.424 132.987 479.285 129.836 481.354 125.529C482.11 123.911 482.872 122.124 483.497 120.156C484.103 118.185 484.765 116.09 485.465 113.908C486.858 109.544 488.395 104.828 489.951 100.026C491.507 95.2245 493.082 90.3361 494.549 85.6207C495.281 83.2633 495.987 80.9489 496.649 78.7092C496.98 77.5897 497.299 76.4888 497.611 75.4103C497.911 74.3301 498.23 73.2815 498.461 72.2373C499.454 67.7237 499.417 63.517 499.167 60.3197C499.124 59.7151 498.755 59.3788 498.348 59.4125C497.936 59.4255 497.611 59.801 497.624 60.0333C497.661 61.0799 497.711 62.1285 497.755 63.1777Z" fill="black"/>
<path d="M512.326 87.6209C510.989 86.7455 508.783 86.446 506.396 86.6583C504.009 86.8681 501.417 87.5848 499.18 88.7797C497.418 89.7336 495.724 90.7236 494.212 91.5909C492.707 92.4565 491.363 93.203 490.407 93.6445C483.247 96.9769 472.963 99.8818 463.66 102.898C459.48 104.378 455.905 107.185 453 109.729C456.855 109.376 461.204 109.442 465.39 108.217C474.581 105.25 484.947 102.344 492.775 98.7253C494.056 98.1307 495.475 97.3325 497.018 96.4483C498.555 95.5654 500.211 94.6009 501.867 93.6999C503.966 92.5424 505.815 91.066 507.515 89.8637C509.22 88.6632 510.745 87.7305 512.326 87.6209Z" fill="black"/>
<path d="M474.367 57.4238C474.561 58.227 474.799 59.6554 475.111 61.5776C475.43 63.4972 475.811 65.9113 476.442 68.621C476.917 70.6534 477.554 72.8427 478.46 75.1005C479.316 77.3732 480.228 79.7946 481.165 82.3164C483.04 87.3593 485.032 92.8001 487.001 98.2458C488.963 103.691 490.9 109.142 492.668 114.203C493.555 116.734 494.398 119.168 495.179 121.455C495.923 123.753 496.836 125.828 497.761 127.681C498.991 130.149 500.216 132.232 501.172 133.893C502.128 135.553 502.821 136.784 503.14 137.509C503.189 136.715 503.171 135.271 503.046 133.334C502.921 131.399 502.709 128.962 502.221 126.218C501.859 124.162 501.321 121.939 500.503 119.65C499.716 117.348 498.872 114.902 497.979 112.361C496.204 107.278 494.261 101.81 492.287 96.3486C490.318 90.8873 488.319 85.4303 486.439 80.3687C485.495 77.8383 484.583 75.4055 483.72 73.121C483.296 71.9747 482.858 70.8751 482.371 69.8415C481.89 68.8066 481.384 67.8303 480.872 66.9119C479.497 64.4642 478.104 62.4213 476.967 60.8161C475.817 59.2133 474.917 58.0484 474.367 57.4238Z" fill="black"/>
<path d="M464.252 64.6895C466.17 69.0524 468.332 73.6103 471.581 77.3456C481.572 88.3168 492.762 99.5541 502.197 110.955C505.384 114.715 509.438 117.646 513.243 120.797C511.65 116.143 509.713 111.323 506.533 107.391C496.867 95.7183 485.627 84.419 475.73 73.586C472.356 70.0537 468.176 67.4242 464.252 64.6895Z" fill="black"/>
<path d="M490.674 53C490.224 54.2285 489.631 56.0361 488.988 58.3007C488.35 60.5659 487.657 63.29 487.175 66.3628C486.994 67.5154 486.851 68.7171 486.757 69.9618C486.663 71.2065 486.632 72.4954 486.57 73.8173C486.463 76.4617 486.363 79.245 486.27 82.1186C486.082 87.8657 485.926 93.9733 485.826 100.05C485.72 106.127 485.657 112.172 485.67 117.795C485.67 120.607 485.695 123.313 485.733 125.866C485.733 128.419 485.982 130.817 486.344 133.002C486.826 135.917 487.488 138.456 488.107 140.498C488.738 142.538 489.331 144.088 489.825 145C489.775 143.97 489.918 142.379 490.181 140.315C490.437 138.251 490.818 135.719 491.093 132.832C491.299 130.667 491.431 128.301 491.356 125.78C491.318 123.258 491.293 120.577 491.293 117.787C491.28 112.208 491.343 106.195 491.443 100.147C491.549 94.1003 491.706 88.0182 491.887 82.2991C491.98 79.4393 492.08 76.6703 492.186 74.042C492.236 72.7276 492.311 71.4493 492.33 70.2102C492.349 68.9711 492.312 67.7707 492.249 66.6156C492.074 63.5353 491.699 60.7789 491.387 58.4694C491.068 56.16 490.799 54.2995 490.674 53Z" fill="black"/>
<path d="M512.326 99.2041C508.383 97.554 504.635 95.7509 500.73 95.2234C488.989 93.6276 477.311 90.9483 465.39 88.7958C461.41 88.0747 457.168 88.7976 453 89.6625C456.799 91.5846 460.473 93.607 464.384 94.31C476.137 96.427 487.89 99.13 499.967 100.776C503.997 101.33 508.227 100.369 512.326 99.2041Z" fill="black"/>
<path d="M505.633 74.915C503.615 76.958 500.629 79.0289 497.717 81.852C496.617 82.9 495.63 84.1459 494.574 85.4192C493.512 86.6907 492.394 88.002 491.238 89.3439C488.92 92.0269 486.439 94.8313 483.921 97.6862C481.397 100.542 478.842 103.448 476.361 106.338C473.881 109.232 471.475 112.1 469.288 114.912C466.489 118.752 465.108 123.253 464.252 127.002C467.095 124.378 470.738 121.859 473.706 118.353C477.973 112.944 483.103 107.088 488.139 101.388C490.657 98.5355 493.15 95.7174 495.499 92.9989C496.674 91.6396 497.81 90.3046 498.898 89.002C499.985 87.7013 501.041 86.4441 501.841 85.078C504.002 81.4648 505.115 77.7288 505.633 74.915Z" fill="black"/>
<path fill-rule="evenodd" clip-rule="evenodd" d="M251.508 150.008C257.455 149.93 262.903 150.436 264.115 151.179L271.352 155.606C271.668 155.583 271.993 155.562 272.328 155.542C275.922 155.332 280.114 155.368 283.456 155.637L283.774 155.662L286.161 154.488C287.389 153.885 291.462 153.444 296.352 153.386C301.239 153.327 305.896 153.662 307.995 154.225L309.131 154.53C311.112 154.322 313.625 154.198 316.305 154.19C320.965 154.176 325.242 154.516 327.18 155.054L335.325 157.313L351.696 152.329C353.594 151.752 358.151 151.388 363.076 151.421C368.002 151.454 372.232 151.876 373.64 152.476L382.073 156.068L384.681 155.641C386.522 155.34 389.178 155.145 392.069 155.087V153.507C392.069 152.815 395.843 152.216 401.157 152.064C406.472 151.911 411.911 152.246 414.256 152.87L435.861 158.613C438.635 159.351 436.169 160.234 430.354 160.585C424.542 160.937 417.581 160.624 414.808 159.887L414.524 159.811C413.105 160.25 410.062 160.588 406.233 160.695C400.883 160.844 395.436 160.501 393.141 159.87L391.352 159.378L386.596 160.156C383.918 160.594 379.531 160.806 375.235 160.704C370.937 160.602 367.449 160.204 366.202 159.672L360.632 157.301L346.584 161.576C344.801 162.119 340.653 162.476 336.018 162.486C331.383 162.496 327.14 162.157 325.212 161.622L316.358 159.166C314.439 159.356 312.058 159.469 309.522 159.479C305.836 159.493 302.376 159.285 300.12 158.932C298.873 159.127 297.24 159.281 295.349 159.376C292.378 159.525 289.081 159.512 286.216 159.345L282.355 162.771C281.554 163.482 276.838 164.017 271.174 164.04C265.513 164.062 260.543 163.565 259.391 162.862L257.663 161.805C257.012 161.844 256.323 161.875 255.606 161.899C250.454 162.067 245.055 161.772 242.485 161.181L225.833 157.353L203.36 161.328C201.077 161.732 197.347 161.964 193.431 161.944C189.516 161.925 185.938 161.658 183.908 161.233L177.185 159.826L174.164 162.252C173.374 162.886 169.446 163.383 164.443 163.482C159.441 163.581 154.505 163.259 152.228 162.686L129.315 156.915L116.978 163.511C115.705 164.191 110.847 164.666 105.333 164.648C99.8194 164.63 95.1583 164.125 94.1611 163.437L89.6099 160.297L82.1717 163.457C80.6143 164.119 75.6528 164.556 70.2193 164.51C64.7858 164.464 60.3268 163.947 59.4773 163.265L57.9123 162.008L55.2342 164.706C54.4297 165.516 48.5972 166.09 42.2068 165.988C35.8164 165.886 31.2881 165.147 32.0926 164.336L45.0385 151.294C45.7639 150.564 50.619 150.012 56.4263 150C62.2336 149.989 67.2227 150.521 68.1288 151.248L74.5078 156.372L81.1346 153.556C82.6766 152.901 87.5579 152.465 92.9408 152.502C98.3236 152.539 102.805 153.039 103.78 153.712L107.079 155.988L114.001 152.286C115.132 151.682 119.123 151.231 123.99 151.159C128.856 151.086 133.561 151.408 135.765 151.963L156.774 157.254L159.12 155.37C159.884 154.757 163.587 154.27 168.391 154.15C173.195 154.03 178.077 154.304 180.614 154.835L194.701 157.784L217.642 153.726C219.974 153.313 223.811 153.081 227.806 153.111C231.802 153.141 235.397 153.429 237.331 153.873L241.035 154.724V151.479C241.035 150.721 245.558 150.085 251.508 150.008Z" fill="black"/>
<path d="M41.144 198.288C36.608 198.288 32.96 194.616 32.96 189.936C32.96 185.304 36.608 181.632 41.144 181.632C43.904 181.632 46.424 183.048 47.648 185.4L45.656 186.552C44.72 184.944 43.112 183.96 41.048 183.96C37.928 183.96 35.48 186.552 35.48 189.936C35.48 193.368 37.904 195.984 41.048 195.984C43.112 195.984 44.744 195 45.656 193.392L47.648 194.544C46.424 196.896 43.904 198.288 41.144 198.288ZM55.4433 198.288C51.8913 198.288 49.1553 195.504 49.1553 192.096C49.1553 188.712 51.9153 185.952 55.4433 185.952C58.9953 185.952 61.6833 188.736 61.6833 192.096C61.6833 195.504 58.9713 198.288 55.4433 198.288ZM55.4433 196.032C57.6273 196.032 59.3073 194.256 59.3073 192.12C59.3073 189.96 57.6273 188.184 55.4433 188.184C53.2353 188.184 51.5313 189.96 51.5313 192.12C51.5313 194.256 53.2353 196.032 55.4433 196.032ZM70.1688 188.232C67.8648 188.232 66.7128 190.128 66.7128 192.312V198H64.3368V192.072C64.3368 188.64 66.3768 185.952 70.1688 185.952C74.0088 185.952 76.0968 188.64 76.0968 192.048V198H73.7208V192.336C73.7208 190.128 72.5208 188.232 70.1688 188.232ZM85.3329 188.232C83.0289 188.232 81.8769 190.128 81.8769 192.312V198H79.5009V192.072C79.5009 188.64 81.5409 185.952 85.3329 185.952C89.1729 185.952 91.2609 188.64 91.2609 192.048V198H88.8849V192.336C88.8849 190.128 87.6849 188.232 85.3329 188.232ZM100.161 198.264C96.5849 198.264 93.9209 195.672 93.9209 192.048C93.9209 188.664 96.3449 185.904 99.8729 185.904C103.425 185.904 105.633 188.472 105.633 191.76V192.72H96.2249C96.4889 194.736 98.0249 196.152 100.137 196.152C101.577 196.152 102.873 195.528 103.569 194.232L105.393 195.168C104.361 197.184 102.465 198.264 100.161 198.264ZM96.3209 191.184H103.257C103.161 189.312 101.793 188.04 99.8489 188.04C97.8569 188.04 96.5609 189.432 96.3209 191.184ZM113.87 198.264C110.486 198.312 107.726 195.504 107.726 192.096C107.726 188.712 110.486 185.928 113.87 185.952C116.03 185.952 118.022 186.936 119.102 189.048L117.134 190.152C116.438 188.88 115.262 188.208 113.87 188.208C111.806 188.208 110.102 189.96 110.102 192.096C110.102 194.256 111.806 196.032 113.87 196.032C115.262 196.032 116.438 195.36 117.134 194.088L119.102 195.168C118.022 197.304 116.03 198.264 113.87 198.264ZM126.876 198.312C123.948 198.312 122.388 196.464 122.388 193.776V188.304H120.06V186.24H122.388V183.192H124.764V186.24H129.276V188.304H124.764V193.704C124.764 195.24 125.676 196.152 127.092 196.152C127.86 196.152 128.7 195.864 129.276 195.456V197.64C128.676 198.048 127.74 198.312 126.876 198.312ZM134.105 198.216C133.241 198.216 132.545 197.52 132.545 196.656C132.545 195.792 133.241 195.12 134.105 195.12C134.969 195.12 135.665 195.792 135.665 196.656C135.665 197.52 134.969 198.216 134.105 198.216ZM153.574 198.288C149.038 198.288 145.39 194.616 145.39 189.936C145.39 185.304 149.038 181.632 153.574 181.632C156.334 181.632 158.854 183.048 160.078 185.4L158.086 186.552C157.15 184.944 155.542 183.96 153.478 183.96C150.358 183.96 147.91 186.552 147.91 189.936C147.91 193.368 150.334 195.984 153.478 195.984C155.542 195.984 157.174 195 158.086 193.392L160.078 194.544C158.854 196.896 156.334 198.288 153.574 198.288ZM165.185 198H162.809V180.84H165.185V187.56C166.097 186.576 167.513 185.952 169.097 185.952C172.553 185.952 174.497 188.256 174.497 191.856V198H172.121V192.096C172.121 190.008 170.969 188.208 168.737 188.208C166.649 188.208 165.185 189.888 165.185 192.168V198ZM183.052 198.288C179.644 198.288 177.148 195.504 177.148 192.096C177.148 188.736 179.836 185.952 183.412 185.952C186.964 185.952 189.676 188.592 189.676 192.096V198H187.42V195.936C186.532 197.376 184.972 198.288 183.052 198.288ZM183.412 196.032C185.62 196.032 187.3 194.256 187.3 192.12C187.3 189.96 185.62 188.184 183.412 188.184C181.228 188.184 179.524 189.96 179.524 192.12C179.524 194.256 181.228 196.032 183.412 196.032ZM198.431 198.312C195.503 198.312 193.943 196.464 193.943 193.776V188.304H191.615V186.24H193.943V183.192H196.319V186.24H200.831V188.304H196.319V193.704C196.319 195.24 197.231 196.152 198.647 196.152C199.415 196.152 200.255 195.864 200.831 195.456V197.64C200.231 198.048 199.295 198.312 198.431 198.312ZM205.66 198.216C204.796 198.216 204.1 197.52 204.1 196.656C204.1 195.792 204.796 195.12 205.66 195.12C206.524 195.12 207.22 195.792 207.22 196.656C207.22 197.52 206.524 198.216 205.66 198.216ZM225.128 198.288C220.592 198.288 216.944 194.616 216.944 189.936C216.944 185.304 220.592 181.632 225.128 181.632C227.888 181.632 230.408 183.048 231.632 185.4L229.64 186.552C228.704 184.944 227.096 183.96 225.032 183.96C221.912 183.96 219.464 186.552 219.464 189.936C219.464 193.368 221.888 195.984 225.032 195.984C227.096 195.984 228.728 195 229.64 193.392L231.632 194.544C230.408 196.896 227.888 198.288 225.128 198.288ZM239.428 198.288C235.876 198.288 233.14 195.504 233.14 192.096C233.14 188.712 235.9 185.952 239.428 185.952C242.98 185.952 245.668 188.736 245.668 192.096C245.668 195.504 242.956 198.288 239.428 198.288ZM239.428 196.032C241.612 196.032 243.292 194.256 243.292 192.12C243.292 189.96 241.612 188.184 239.428 188.184C237.22 188.184 235.516 189.96 235.516 192.12C235.516 194.256 237.22 196.032 239.428 196.032ZM248.801 180.84H251.177V198H248.801V180.84ZM255.528 180.84H257.904V198H255.528V180.84ZM266.934 198.288C263.526 198.288 261.03 195.504 261.03 192.096C261.03 188.736 263.718 185.952 267.294 185.952C270.846 185.952 273.558 188.592 273.558 192.096V198H271.302V195.936C270.414 197.376 268.854 198.288 266.934 198.288ZM267.294 196.032C269.502 196.032 271.182 194.256 271.182 192.12C271.182 189.96 269.502 188.184 267.294 188.184C265.11 188.184 263.406 189.96 263.406 192.12C263.406 194.256 265.11 196.032 267.294 196.032ZM283.226 198.288C279.674 198.288 276.962 195.624 276.962 192.144V180.84H279.338V187.704C280.298 186.648 281.738 185.952 283.322 185.952C286.898 185.952 289.466 188.568 289.466 192.144C289.466 195.528 286.778 198.288 283.226 198.288ZM283.226 196.056C285.41 196.056 287.09 194.28 287.09 192.12C287.09 189.984 285.41 188.208 283.226 188.208C281.018 188.208 279.338 189.984 279.338 192.12C279.338 194.28 281.018 196.056 283.226 196.056ZM297.693 198.288C294.141 198.288 291.405 195.504 291.405 192.096C291.405 188.712 294.165 185.952 297.693 185.952C301.245 185.952 303.933 188.736 303.933 192.096C303.933 195.504 301.221 198.288 297.693 198.288ZM297.693 196.032C299.877 196.032 301.557 194.256 301.557 192.12C301.557 189.96 299.877 188.184 297.693 188.184C295.485 188.184 293.781 189.96 293.781 192.12C293.781 194.256 295.485 196.032 297.693 196.032ZM308.963 198H306.587V190.992C306.587 188.136 308.219 186 311.291 186C312.035 186 312.803 186.144 313.403 186.432V188.784C312.827 188.448 312.155 188.28 311.507 188.28C309.923 188.28 308.963 189.36 308.963 191.088V198ZM320.302 198.288C316.894 198.288 314.398 195.504 314.398 192.096C314.398 188.736 317.086 185.952 320.662 185.952C324.214 185.952 326.926 188.592 326.926 192.096V198H324.67V195.936C323.782 197.376 322.222 198.288 320.302 198.288ZM320.662 196.032C322.87 196.032 324.55 194.256 324.55 192.12C324.55 189.96 322.87 188.184 320.662 188.184C318.478 188.184 316.774 189.96 316.774 192.12C316.774 194.256 318.478 196.032 320.662 196.032ZM335.681 198.312C332.753 198.312 331.193 196.464 331.193 193.776V188.304H328.865V186.24H331.193V183.192H333.569V186.24H338.081V188.304H333.569V193.704C333.569 195.24 334.481 196.152 335.897 196.152C336.665 196.152 337.505 195.864 338.081 195.456V197.64C337.481 198.048 336.545 198.312 335.681 198.312ZM346.395 198.264C342.819 198.264 340.155 195.672 340.155 192.048C340.155 188.664 342.579 185.904 346.107 185.904C349.659 185.904 351.867 188.472 351.867 191.76V192.72H342.459C342.723 194.736 344.259 196.152 346.371 196.152C347.811 196.152 349.107 195.528 349.803 194.232L351.627 195.168C350.595 197.184 348.699 198.264 346.395 198.264ZM342.555 191.184H349.491C349.395 189.312 348.027 188.04 346.083 188.04C344.091 188.04 342.795 189.432 342.555 191.184ZM356.246 198.216C355.382 198.216 354.686 197.52 354.686 196.656C354.686 195.792 355.382 195.12 356.246 195.12C357.11 195.12 357.806 195.792 357.806 196.656C357.806 197.52 357.11 198.216 356.246 198.216Z" fill="black"/>
<path d="M203.858 363.216C200.402 363.216 197.72 360.426 197.72 356.952C197.72 353.55 200.384 350.742 203.858 350.742C205.856 350.742 207.8 351.714 208.736 353.55L207.242 354.414C206.522 353.172 205.262 352.47 203.786 352.47C201.41 352.47 199.61 354.468 199.61 356.988C199.61 359.562 201.41 361.524 203.858 361.524C205.298 361.524 206.468 360.966 207.044 360.282V357.384H208.826V360.912C207.998 362.118 206.216 363.216 203.858 363.216ZM215.215 363.216C212.551 363.216 210.499 361.128 210.499 358.572C210.499 356.034 212.569 353.964 215.215 353.964C217.879 353.964 219.895 356.052 219.895 358.572C219.895 361.128 217.861 363.216 215.215 363.216ZM215.215 361.524C216.853 361.524 218.113 360.192 218.113 358.59C218.113 356.97 216.853 355.638 215.215 355.638C213.559 355.638 212.281 356.97 212.281 358.59C212.281 360.192 213.559 361.524 215.215 361.524ZM226.043 363.216C223.379 363.216 221.327 361.128 221.327 358.572C221.327 356.034 223.397 353.964 226.043 353.964C228.707 353.964 230.723 356.052 230.723 358.572C230.723 361.128 228.689 363.216 226.043 363.216ZM226.043 361.524C227.681 361.524 228.941 360.192 228.941 358.59C228.941 356.97 227.681 355.638 226.043 355.638C224.387 355.638 223.109 356.97 223.109 358.59C223.109 360.192 224.387 361.524 226.043 361.524ZM236.854 363.216C234.172 363.216 232.156 361.146 232.156 358.608C232.156 355.926 234.1 353.964 236.764 353.964C237.952 353.964 239.032 354.486 239.752 355.278L239.77 350.13H241.552V358.608C241.552 361.218 239.518 363.216 236.854 363.216ZM236.854 361.542C238.51 361.542 239.77 360.21 239.77 358.59C239.77 356.988 238.51 355.656 236.854 355.656C235.216 355.656 233.938 356.988 233.938 358.59C233.938 360.21 235.216 361.542 236.854 361.542ZM251.019 367.05H249.237V358.572C249.237 355.944 251.271 353.964 253.935 353.964C256.599 353.964 258.615 356.052 258.615 358.572C258.615 361.236 256.689 363.216 254.007 363.216C252.819 363.216 251.739 362.694 251.019 361.902V367.05ZM253.935 361.542C255.573 361.542 256.833 360.192 256.833 358.59C256.833 356.97 255.573 355.656 253.935 355.656C252.279 355.656 251.019 356.97 251.019 358.59C251.019 360.192 252.279 361.542 253.935 361.542ZM264.75 363.198C262.068 363.198 260.07 361.254 260.07 358.536C260.07 355.998 261.888 353.928 264.534 353.928C267.198 353.928 268.854 355.854 268.854 358.32V359.04H261.798C261.996 360.552 263.148 361.614 264.732 361.614C265.812 361.614 266.784 361.146 267.306 360.174L268.674 360.876C267.9 362.388 266.478 363.198 264.75 363.198ZM261.87 357.888H267.072C267 356.484 265.974 355.53 264.516 355.53C263.022 355.53 262.05 356.574 261.87 357.888ZM275.139 363.216C272.475 363.216 270.423 361.128 270.423 358.572C270.423 356.034 272.493 353.964 275.139 353.964C277.803 353.964 279.819 356.052 279.819 358.572C279.819 361.128 277.785 363.216 275.139 363.216ZM275.139 361.524C276.777 361.524 278.037 360.192 278.037 358.59C278.037 356.97 276.777 355.638 275.139 355.638C273.483 355.638 272.205 356.97 272.205 358.59C272.205 360.192 273.483 361.524 275.139 361.524ZM283.591 367.05H281.809V358.572C281.809 355.944 283.843 353.964 286.507 353.964C289.171 353.964 291.187 356.052 291.187 358.572C291.187 361.236 289.261 363.216 286.579 363.216C285.391 363.216 284.311 362.694 283.591 361.902V367.05ZM286.507 361.542C288.145 361.542 289.405 360.192 289.405 358.59C289.405 356.97 288.145 355.656 286.507 355.656C284.851 355.656 283.591 356.97 283.591 358.59C283.591 360.192 284.851 361.542 286.507 361.542ZM293.56 350.13H295.342V363H293.56V350.13ZM302.367 363.198C299.685 363.198 297.687 361.254 297.687 358.536C297.687 355.998 299.505 353.928 302.151 353.928C304.815 353.928 306.471 355.854 306.471 358.32V359.04H299.415C299.613 360.552 300.765 361.614 302.349 361.614C303.429 361.614 304.401 361.146 304.923 360.174L306.291 360.876C305.517 362.388 304.095 363.198 302.367 363.198ZM299.487 357.888H304.689C304.617 356.484 303.591 355.53 302.133 355.53C300.639 355.53 299.667 356.574 299.487 357.888ZM309.755 363.162C309.107 363.162 308.585 362.64 308.585 361.992C308.585 361.344 309.107 360.84 309.755 360.84C310.403 360.84 310.925 361.344 310.925 361.992C310.925 362.64 310.403 363.162 309.755 363.162ZM324.356 363.216C320.9 363.216 318.218 360.426 318.218 356.952C318.218 353.55 320.882 350.742 324.356 350.742C326.354 350.742 328.298 351.714 329.234 353.55L327.74 354.414C327.02 353.172 325.76 352.47 324.284 352.47C321.908 352.47 320.108 354.468 320.108 356.988C320.108 359.562 321.908 361.524 324.356 361.524C325.796 361.524 326.966 360.966 327.542 360.282V357.384H329.324V360.912C328.496 362.118 326.714 363.216 324.356 363.216ZM333.337 363H331.555V357.744C331.555 355.602 332.779 354 335.083 354C335.641 354 336.217 354.108 336.667 354.324V356.088C336.235 355.836 335.731 355.71 335.245 355.71C334.057 355.71 333.337 356.52 333.337 357.816V363ZM342.093 363.198C339.411 363.198 337.413 361.254 337.413 358.536C337.413 355.998 339.231 353.928 341.877 353.928C344.541 353.928 346.197 355.854 346.197 358.32V359.04H339.141C339.339 360.552 340.491 361.614 342.075 361.614C343.155 361.614 344.127 361.146 344.649 360.174L346.017 360.876C345.243 362.388 343.821 363.198 342.093 363.198ZM339.213 357.888H344.415C344.343 356.484 343.317 355.53 341.859 355.53C340.365 355.53 339.393 356.574 339.213 357.888ZM352.195 363.216C349.639 363.216 347.767 361.128 347.767 358.572C347.767 356.052 349.783 353.964 352.465 353.964C355.129 353.964 357.163 355.944 357.163 358.572V363H355.471V361.452C354.805 362.532 353.635 363.216 352.195 363.216ZM352.465 361.524C354.121 361.524 355.381 360.192 355.381 358.59C355.381 356.97 354.121 355.638 352.465 355.638C350.827 355.638 349.549 356.97 349.549 358.59C349.549 360.192 350.827 361.524 352.465 361.524ZM363.729 363.234C361.534 363.234 360.364 361.848 360.364 359.832V355.728H358.618V354.18H360.364V351.894H362.146V354.18H365.53V355.728H362.146V359.778C362.146 360.93 362.83 361.614 363.892 361.614C364.468 361.614 365.098 361.398 365.53 361.092V362.73C365.08 363.036 364.378 363.234 363.729 363.234ZM377.002 363.198C374.464 363.234 372.394 361.128 372.394 358.572C372.394 356.034 374.464 353.946 377.002 353.964C378.622 353.964 380.116 354.702 380.926 356.286L379.45 357.114C378.928 356.16 378.046 355.656 377.002 355.656C375.454 355.656 374.176 356.97 374.176 358.572C374.176 360.192 375.454 361.524 377.002 361.524C378.046 361.524 378.928 361.02 379.45 360.066L380.926 360.876C380.116 362.478 378.622 363.198 377.002 363.198ZM386.901 363.216C384.237 363.216 382.185 361.128 382.185 358.572C382.185 356.034 384.255 353.964 386.901 353.964C389.565 353.964 391.581 356.052 391.581 358.572C391.581 361.128 389.547 363.216 386.901 363.216ZM386.901 361.524C388.539 361.524 389.799 360.192 389.799 358.59C389.799 356.97 388.539 355.638 386.901 355.638C385.245 355.638 383.967 356.97 383.967 358.59C383.967 360.192 385.245 361.524 386.901 361.524ZM397.945 355.674C396.217 355.674 395.353 357.096 395.353 358.734V363H393.571V358.554C393.571 355.98 395.101 353.964 397.945 353.964C400.825 353.964 402.391 355.98 402.391 358.536V363H400.609V358.752C400.609 357.096 399.709 355.674 397.945 355.674ZM406.514 361.848L403.67 354.18H405.578L408.17 361.362C408.188 361.452 408.26 361.542 408.368 361.542C408.494 361.542 408.566 361.452 408.584 361.362L411.176 354.18H413.066L410.204 361.848C409.862 362.766 409.232 363.234 408.368 363.234C407.54 363.234 406.856 362.766 406.514 361.848ZM418.523 363.198C415.841 363.198 413.843 361.254 413.843 358.536C413.843 355.998 415.661 353.928 418.307 353.928C420.971 353.928 422.627 355.854 422.627 358.32V359.04H415.571C415.769 360.552 416.921 361.614 418.505 361.614C419.585 361.614 420.557 361.146 421.079 360.174L422.447 360.876C421.673 362.388 420.251 363.198 418.523 363.198ZM415.643 357.888H420.845C420.773 356.484 419.747 355.53 418.289 355.53C416.795 355.53 415.823 356.574 415.643 357.888ZM426.537 363H424.755V357.744C424.755 355.602 425.979 354 428.283 354C428.841 354 429.417 354.108 429.867 354.324V356.088C429.435 355.836 428.931 355.71 428.445 355.71C427.257 355.71 426.537 356.52 426.537 357.816V363ZM434.426 363.198C432.788 363.198 431.528 362.55 430.844 361.236L432.212 360.48C432.662 361.362 433.382 361.686 434.354 361.686C435.362 361.686 436.136 361.272 436.136 360.498C436.136 358.644 431.078 360.048 431.078 356.682C431.078 355.134 432.446 354 434.372 354C436.01 354 437.126 354.756 437.684 355.782L436.316 356.556C435.938 355.782 435.218 355.512 434.408 355.512C433.58 355.512 432.86 355.944 432.86 356.646C432.86 358.446 437.918 357.132 437.918 360.462C437.918 362.136 436.298 363.198 434.426 363.198ZM443.935 363.216C441.379 363.216 439.507 361.128 439.507 358.572C439.507 356.052 441.523 353.964 444.205 353.964C446.869 353.964 448.903 355.944 448.903 358.572V363H447.211V361.452C446.545 362.532 445.375 363.216 443.935 363.216ZM444.205 361.524C445.861 361.524 447.121 360.192 447.121 358.59C447.121 356.97 445.861 355.638 444.205 355.638C442.567 355.638 441.289 356.97 441.289 358.59C441.289 360.192 442.567 361.524 444.205 361.524ZM455.47 363.234C453.274 363.234 452.104 361.848 452.104 359.832V355.728H450.358V354.18H452.104V351.894H453.886V354.18H457.27V355.728H453.886V359.778C453.886 360.93 454.57 361.614 455.632 361.614C456.208 361.614 456.838 361.398 457.27 361.092V362.73C456.82 363.036 456.118 363.234 455.47 363.234ZM460.801 352.434C460.153 352.434 459.631 351.912 459.631 351.264C459.631 350.616 460.153 350.076 460.801 350.076C461.449 350.076 461.953 350.616 461.953 351.264C461.953 351.912 461.449 352.434 460.801 352.434ZM459.919 354.18H461.701V363H459.919V354.18ZM468.762 363.216C466.098 363.216 464.046 361.128 464.046 358.572C464.046 356.034 466.116 353.964 468.762 353.964C471.426 353.964 473.442 356.052 473.442 358.572C473.442 361.128 471.408 363.216 468.762 363.216ZM468.762 361.524C470.4 361.524 471.66 360.192 471.66 358.59C471.66 356.97 470.4 355.638 468.762 355.638C467.106 355.638 465.828 356.97 465.828 358.59C465.828 360.192 467.106 361.524 468.762 361.524ZM479.806 355.674C478.078 355.674 477.214 357.096 477.214 358.734V363H475.432V358.554C475.432 355.98 476.962 353.964 479.806 353.964C482.686 353.964 484.252 355.98 484.252 358.536V363H482.47V358.752C482.47 357.096 481.57 355.674 479.806 355.674ZM489.973 363.198C488.335 363.198 487.075 362.55 486.391 361.236L487.759 360.48C488.209 361.362 488.929 361.686 489.901 361.686C490.909 361.686 491.683 361.272 491.683 360.498C491.683 358.644 486.625 360.048 486.625 356.682C486.625 355.134 487.993 354 489.919 354C491.557 354 492.673 354.756 493.231 355.782L491.863 356.556C491.485 355.782 490.765 355.512 489.955 355.512C489.127 355.512 488.407 355.944 488.407 356.646C488.407 358.446 493.465 357.132 493.465 360.462C493.465 362.136 491.845 363.198 489.973 363.198ZM496.944 363.162C496.296 363.162 495.774 362.64 495.774 361.992C495.774 361.344 496.296 360.84 496.944 360.84C497.592 360.84 498.114 361.344 498.114 361.992C498.114 362.64 497.592 363.162 496.944 363.162ZM514.768 363H508.018C506.776 363 506.326 362.37 506.326 361.344V352.596C506.326 351.57 506.776 350.94 508.018 350.94H514.642V352.614H508.162V356.124H514.282V357.798H508.162V361.326H514.768V363ZM520.91 363.216C518.354 363.216 516.482 361.128 516.482 358.572C516.482 356.052 518.498 353.964 521.18 353.964C523.844 353.964 525.878 355.944 525.878 358.572V363H524.186V361.452C523.52 362.532 522.35 363.216 520.91 363.216ZM521.18 361.524C522.836 361.524 524.096 360.192 524.096 358.59C524.096 356.97 522.836 355.638 521.18 355.638C519.542 355.638 518.264 356.97 518.264 358.59C518.264 360.192 519.542 361.524 521.18 361.524ZM531.598 363.198C529.96 363.198 528.7 362.55 528.016 361.236L529.384 360.48C529.834 361.362 530.554 361.686 531.526 361.686C532.534 361.686 533.308 361.272 533.308 360.498C533.308 358.644 528.25 360.048 528.25 356.682C528.25 355.134 529.618 354 531.544 354C533.182 354 534.298 354.756 534.856 355.782L533.488 356.556C533.11 355.782 532.39 355.512 531.58 355.512C530.752 355.512 530.032 355.944 530.032 356.646C530.032 358.446 535.09 357.132 535.09 360.462C535.09 362.136 533.47 363.198 531.598 363.198ZM541.269 367.284C539.397 367.284 537.849 366.492 537.057 364.926L538.533 364.116C539.037 365.07 540.027 365.628 541.233 365.628C543.105 365.628 544.077 364.224 544.077 362.316V361.542C543.555 362.532 542.619 363.126 541.287 363.126C538.587 363.126 537.273 361.344 537.273 358.752V354.18H539.037V358.662C539.037 360.318 539.901 361.452 541.503 361.452C543.051 361.452 544.059 360.156 544.059 358.536V354.18H545.859V362.298C545.859 365.25 544.131 367.284 541.269 367.284ZM555.489 361.848L552.645 354.18H554.553L557.145 361.362C557.163 361.452 557.235 361.542 557.343 361.542C557.469 361.542 557.541 361.452 557.559 361.362L560.151 354.18H562.041L559.179 361.848C558.837 362.766 558.207 363.234 557.343 363.234C556.515 363.234 555.831 362.766 555.489 361.848ZM564.741 352.434C564.093 352.434 563.571 351.912 563.571 351.264C563.571 350.616 564.093 350.076 564.741 350.076C565.389 350.076 565.893 350.616 565.893 351.264C565.893 351.912 565.389 352.434 564.741 352.434ZM563.859 354.18H565.641V363H563.859V354.18ZM573.242 363.216C570.578 363.216 568.544 361.218 568.544 358.608V350.13H570.326V355.278C571.046 354.486 572.126 353.964 573.314 353.964C575.996 353.964 577.922 355.926 577.922 358.608C577.922 361.146 575.906 363.216 573.242 363.216ZM573.242 361.542C574.88 361.542 576.14 360.21 576.14 358.59C576.14 356.988 574.88 355.656 573.242 355.656C571.586 355.656 570.326 356.988 570.326 358.59C570.326 360.21 571.586 361.542 573.242 361.542ZM584.056 363.198C581.374 363.198 579.376 361.254 579.376 358.536C579.376 355.998 581.194 353.928 583.84 353.928C586.504 353.928 588.16 355.854 588.16 358.32V359.04H581.104C581.302 360.552 582.454 361.614 584.038 361.614C585.118 361.614 586.09 361.146 586.612 360.174L587.98 360.876C587.206 362.388 585.784 363.198 584.056 363.198ZM581.176 357.888H586.378C586.306 356.484 585.28 355.53 583.822 355.53C582.328 355.53 581.356 356.574 581.176 357.888ZM593.456 363.198C591.818 363.198 590.558 362.55 589.874 361.236L591.242 360.48C591.692 361.362 592.412 361.686 593.384 361.686C594.392 361.686 595.166 361.272 595.166 360.498C595.166 358.644 590.108 360.048 590.108 356.682C590.108 355.134 591.476 354 593.402 354C595.04 354 596.156 354.756 596.714 355.782L595.346 356.556C594.968 355.782 594.248 355.512 593.438 355.512C592.61 355.512 591.89 355.944 591.89 356.646C591.89 358.446 596.948 357.132 596.948 360.462C596.948 362.136 595.328 363.198 593.456 363.198ZM600.426 363.162C599.778 363.162 599.256 362.64 599.256 361.992C599.256 361.344 599.778 360.84 600.426 360.84C601.074 360.84 601.596 361.344 601.596 361.992C601.596 362.64 601.074 363.162 600.426 363.162Z" fill="black"/>
</g>
</g>
<defs>
<filter id="filter0_i_1753_20644" x="0" y="0" width="800" height="474" filterUnits="userSpaceOnUse" color-interpolation-filters="sRGB">
<feFlood flood-opacity="0" result="BackgroundImageFix"/>
<feBlend mode="normal" in="SourceGraphic" in2="BackgroundImageFix" result="shape"/>
<feColorMatrix in="SourceAlpha" type="matrix" values="0 0 0 0 0 0 0 0 0 0 0 0 0 0 0 0 0 0 127 0" result="hardAlpha"/>
<feMorphology radius="8" operator="erode" in="SourceAlpha" result="effect1_innerShadow_1753_20644"/>
<feOffset dy="24"/>
<feGaussianBlur stdDeviation="30"/>
<feComposite in2="hardAlpha" operator="arithmetic" k2="-1" k3="1"/>
<feColorMatrix type="matrix" values="0 0 0 0 1 0 0 0 0 0.690196 0 0 0 0 0.560784 0 0 0 1 0"/>
<feBlend mode="normal" in2="shape" result="effect1_innerShadow_1753_20644"/>
</filter>
<linearGradient id="paint0_linear_1753_20644" x1="400" y1="0" x2="400" y2="450" gradientUnits="userSpaceOnUse">
<stop stop-color="white"/>
<stop offset="1" stop-color="#EFEFEF"/>
</linearGradient>
<clipPath id="clip0_1753_20644">
<rect width="800" height="450" rx="48" fill="white"/>
</clipPath>
</defs>
</svg>
