<svg width="800" height="450" viewBox="0 0 800 450" fill="none" xmlns="http://www.w3.org/2000/svg">
<g filter="url(#filter0_i_4240_72137)">
<rect width="800" height="450" rx="48" fill="url(#paint0_linear_4240_72137)"/>
<g opacity="0.1">
<path d="M346.341 145.651C345.287 148.063 344.761 150.398 344.233 152.949C343.706 155.483 343.445 158.159 343.181 160.844C342.917 163.531 342.653 166.209 342.653 168.787C342.917 171.407 342.917 173.773 343.971 176.694C345.025 180.123 347.924 183.123 351.876 185.163C355.829 187.222 360.834 188.29 366.105 188.127C371.111 187.982 375.856 186.607 379.545 184.313C383.498 182.037 385.868 178.867 386.396 175.303C387.977 166.225 389.295 157.147 390.876 148.069C393.511 132.296 350.821 129.134 348.186 144.899C346.605 153.971 345.025 163.042 343.444 172.115C357.673 171.65 371.903 171.187 386.133 170.724C386.133 170.778 386.133 170.801 386.133 170.801C386.133 170.801 386.133 170.775 386.133 170.729C386.133 170.639 386.133 170.469 386.133 170.245C386.133 169.796 385.868 169.134 385.868 168.359C385.868 166.806 386.133 164.811 386.133 162.79C386.397 160.769 386.922 158.702 387.185 156.964C387.449 155.244 387.977 153.779 388.241 153.367C391.666 145.715 384.814 137.716 373.22 135.584C361.625 133.451 349.503 137.924 346.341 145.651Z" fill="black"/>
<path d="M560.051 181.124C564.53 176.087 569.012 171.048 573.754 166.01C579.814 159.179 576.388 150.305 566.374 146.202C556.098 142.102 542.658 144.313 536.598 151.157C532.119 156.203 527.64 161.248 523.158 166.294C510.773 179.953 547.667 194.759 560.051 181.124Z" fill="black"/>
<path d="M349.501 308.994C353.19 309.432 356.879 309.868 360.832 310.304C372.163 311.621 382.704 306.295 385.075 298.899C387.184 291.503 380.596 283.851 369.265 282.136C365.575 281.564 361.623 280.992 357.934 280.422C346.34 278.636 334.744 283.96 332.373 291.85C330.001 299.74 337.643 307.625 349.501 308.994Z" fill="black"/>
<path d="M551.626 306.919C552.945 299.396 554.263 291.873 555.319 284.355C556.108 280.691 554.526 277.195 551.626 274.427C548.729 271.646 544.247 269.612 539.242 268.805C534.233 267.977 528.965 268.384 524.486 269.928C519.741 271.455 516.052 274.087 514.207 277.46C509.202 285.993 504.193 294.526 498.925 303.061C490.49 317.755 530.018 328.25 538.716 313.578C543.984 305.059 548.992 296.537 554 288.017C540.297 285.719 526.594 283.421 512.628 281.122C511.573 288.638 510.254 296.154 508.939 303.67C507.357 311.571 516.052 318.707 527.91 319.604C539.768 320.5 550.311 314.822 551.626 306.919Z" fill="black"/>
<path d="M436.987 237.416C438.832 238.711 440.94 240.006 442.785 241.301C452.272 247.546 469.402 236.255 459.914 229.864C458.07 228.538 455.962 227.214 454.117 225.888C449.372 222.672 441.733 222.709 436.987 225.892C432.245 229.074 431.982 234.272 436.987 237.416Z" fill="black"/>
<path d="M640.687 243.842C641.743 242.053 642.535 240.267 643.587 238.478C645.695 234.268 642.269 229.718 635.945 228.316C629.621 226.914 622.772 229.191 620.66 233.4C619.871 235.185 618.819 236.969 618.026 238.754C615.918 242.963 619.342 247.511 625.669 248.918C631.992 250.322 638.579 248.05 640.687 243.842Z" fill="black"/>
<path d="M416.178 381.473C417.76 378.48 419.605 375.492 421.449 372.499C426.191 364.254 404.057 358.386 399.05 366.557C397.205 369.518 395.362 372.479 393.517 375.443C391.146 379.584 394.043 384.323 400.367 385.987C406.691 387.652 413.807 385.649 416.178 381.473Z" fill="black"/>
<path d="M204.574 275.847C208.79 274.152 213.27 272.456 217.75 270.763C222.756 268.863 222.229 263.759 219.857 260.862C217.222 257.967 211.164 254.999 206.157 256.837C201.677 258.477 197.196 260.117 192.716 261.756C186.655 263.897 184.811 268.854 187.973 272.746C191.135 276.637 198.777 278.061 204.574 275.847Z" fill="black"/>
<path d="M252.265 116.464C251.211 118.251 249.893 120.04 248.575 121.829C243.041 129.849 264.649 136.578 270.446 128.595C271.5 126.812 272.819 125.028 274.136 123.246C277.035 119.237 274.399 114.453 268.339 112.582C262.278 110.708 255.164 112.437 252.265 116.464Z" fill="black"/>
<path d="M473.627 71.4616C472.046 75.034 470.201 78.6065 468.619 82.179C464.929 90.6989 487.853 95.3209 491.806 86.8061C493.388 83.2354 494.969 79.6645 496.551 76.092C498.659 71.8276 494.969 67.3309 488.646 66.0526C482.056 64.7743 475.472 67.1936 473.627 71.4616Z" fill="black"/>
<path d="M653.078 153.903C655.186 153.069 657.293 152.236 659.401 151.401C664.41 149.48 663.617 144.339 661.246 141.497C658.609 138.655 652.288 135.68 647.543 137.601C645.172 138.433 643.064 139.266 640.956 140.099C636.215 142.018 636.741 147.16 639.375 150.005C641.746 152.85 648.069 155.822 653.078 153.903Z" fill="black"/>
<path d="M580.074 350.937C585.346 351.825 590.617 352.712 595.885 353.602C601.949 354.644 607.747 351.778 609.328 347.893C611.173 344.008 608.01 339.496 602.212 338.301C596.941 337.286 591.932 336.27 586.664 335.253C580.341 333.978 573.487 336.601 571.643 340.931C569.798 345.263 573.751 349.822 580.074 350.937Z" fill="black"/>
<path d="M255.428 373.633C261.225 367.525 267.024 361.418 272.821 355.31C279.936 347.825 259.909 339.199 252.53 346.593C246.733 352.631 240.673 358.668 234.612 364.702C230.923 368.491 232.765 373.602 238.299 376.067C244.097 378.533 251.738 377.464 255.428 373.633Z" fill="black"/>
<path d="M174.009 184.801C182.178 184.754 189.293 186.101 199.043 188.203C205.104 189.476 211.164 186.601 213.009 182.801C214.853 179.002 212.482 174.264 206.421 172.947C196.671 170.788 186.658 168.538 174.009 168.49C167.158 168.464 161.624 172.154 161.624 176.658C161.624 181.162 167.158 184.84 174.009 184.801Z" fill="black"/>
<path d="M388.5 61.3915C389.554 59.3667 390.345 57.342 391.135 55.317C383.494 54.7906 375.589 54.2624 367.947 53.7359C368.474 58.4618 367.948 63.633 367.684 69.2691C367.421 73.6973 372.691 77.3895 379.542 77.5127C386.13 77.636 391.663 74.1463 391.663 69.7163C391.927 64.3866 392.453 58.6096 391.663 52.3874C391.136 48.5666 386.394 45.3991 380.86 45.1014C375.59 44.6613 369.793 47.1368 368.212 50.806C367.421 52.8292 366.367 54.8522 365.577 56.8772C361.888 65.3462 384.811 69.8536 388.5 61.3915Z" fill="black"/>
<path d="M600.63 98.2432C608.009 92.3834 613.018 88.6615 619.867 85.5996C639.631 76.5777 616.444 52.6496 596.151 61.2419C583.504 66.6084 575.069 72.9418 567.427 78.6025C558.995 84.6576 560.051 94.1283 569.275 99.5513C578.495 104.976 592.725 104.48 600.63 98.2432Z" fill="black"/>
<path d="M155.561 347.481C168.21 342.842 177.695 337.224 186.128 332.618C204.837 322.432 177.433 299.891 158.724 309.997C149.501 314.849 141.859 319.039 134.48 321.564C123.676 325.325 119.987 334.329 125.785 341.487C131.318 348.643 145.021 351.415 155.561 347.481Z" fill="black"/>
<path d="M185.343 91.9054C180.6 92.3878 175.067 93.2965 169.27 96.2174C166.635 97.6577 163.998 99.6333 162.417 101.779C160.572 103.924 159.781 106.142 159.254 108.051C158.464 111.921 159.52 114.562 160.047 116.64C160.837 118.709 161.626 120.277 162.417 121.598C166.106 129.232 178.492 133.335 189.823 130.793C201.418 128.252 207.478 119.999 203.789 112.395C202.998 111.035 202.472 110.046 202.472 109.754C202.472 109.719 202.472 109.696 202.472 109.685C202.472 109.696 202.472 109.678 202.472 109.696C202.472 109.731 202.472 109.824 202.472 109.99C202.472 110.319 202.472 110.949 202.472 111.928C202.208 112.895 201.68 114.237 200.626 115.583C199.572 116.932 197.992 118.189 196.411 118.999C194.83 119.827 193.249 120.244 192.459 120.448C191.931 120.552 191.668 120.605 191.668 120.633C191.405 120.647 191.403 120.654 191.403 120.658C191.403 120.662 191.403 120.661 191.403 120.658C202.998 119.352 210.903 111.796 209.322 104.074C207.741 96.3512 197.201 90.7399 185.343 91.9054Z" fill="black"/>
<path d="M106.814 225.82C105.496 227.767 104.179 229.714 102.861 231.663C93.3748 246.15 129.739 258.327 141.333 244.504C142.914 242.641 144.495 240.777 146.076 238.914C151.873 231.854 146.867 222.88 136.063 219.265C125.259 215.648 111.557 218.423 106.814 225.82Z" fill="black"/>
<path d="M275.46 239.444C278.886 241.202 282.31 242.96 285.736 244.72C304.445 254.408 330.798 232.149 312.352 222.163C308.926 220.35 305.765 218.536 302.339 216.723C293.116 211.696 279.412 212.842 271.77 219.117C264.392 225.392 265.974 234.567 275.46 239.444Z" fill="black"/>
<path d="M657.82 288.865C657.03 291.003 656.504 293.141 655.712 295.279C653.078 303.129 660.457 310.926 672.315 312.672C683.907 314.421 695.768 309.477 698.402 301.609C698.928 299.465 699.721 297.315 700.247 295.168C705.519 279.466 663.091 273.194 657.82 288.865Z" fill="black"/>
<path d="M509.195 396.455C509.195 396.69 508.932 396.737 508.932 396.737C509.195 396.733 509.195 396.666 509.195 396.57C509.195 396.372 509.458 396.05 509.458 395.656C509.984 394.859 510.514 393.805 510.777 392.423C511.303 390.983 511.829 389.395 511.303 386.231C511.04 384.638 510.514 382.457 508.139 379.62C506.824 378.232 504.979 376.719 502.608 375.453C500.237 374.18 497.337 373.226 494.436 372.736C492.855 372.442 490.747 372.167 487.85 372.195C484.949 372.227 481.263 372.625 477.573 373.933C473.884 375.201 470.457 377.433 468.612 379.602C466.767 381.787 466.241 383.768 465.715 385.298C465.189 388.38 465.978 390.04 466.241 391.384C466.767 392.699 467.297 393.636 467.823 394.463C468.612 396.09 469.668 397.265 470.457 398.25C470.986 398.74 471.246 399.16 471.509 399.559C471.776 399.761 472.039 399.952 472.305 400.197C472.305 400.322 472.565 400.46 472.565 400.66C472.828 400.878 473.094 401.092 473.884 401.746C481.526 407.884 495.229 408.668 504.187 403.499C513.411 398.33 514.466 389.163 506.824 383.027C507.613 383.661 507.876 383.843 508.139 384.021C508.139 384.182 508.402 384.266 508.402 384.328C508.402 384.451 508.406 384.482 508.669 384.489C508.406 384.482 508.402 384.393 508.402 384.275C508.139 384.157 508.139 384.015 508.139 383.915C508.139 383.863 507.876 383.823 507.876 383.806C507.876 383.797 507.876 383.797 507.876 383.797C507.876 383.797 507.876 383.81 507.876 383.832C508.143 383.923 508.139 384.137 508.402 384.798C508.665 385.488 509.195 386.558 508.669 389.17C508.406 390.463 507.876 392.238 506.031 394.252C504.453 396.252 501.289 398.344 497.863 399.516C494.436 400.733 491.01 401.078 488.639 401.105C486.268 401.129 484.686 400.893 483.367 400.698C480.996 400.262 478.099 399.389 475.991 398.23C473.884 397.08 472.039 395.711 470.986 394.492C468.879 391.996 468.615 390.256 468.352 389.174C468.086 387.036 468.352 386.754 468.352 386.654C468.352 386.667 468.352 386.651 468.352 386.682C468.352 386.711 468.352 386.76 468.352 386.818C468.352 386.936 468.349 387.101 468.086 387.283C468.086 387.466 468.086 387.661 467.823 387.899C467.823 388.16 467.56 388.367 467.297 389.03C464.133 396.728 470.983 404.645 482.578 406.696C494.173 408.746 506.035 404.169 509.195 396.455Z" fill="black"/>
<path d="M307.869 381.397C305.761 381.486 303.917 381.575 301.809 381.662C289.95 382.194 281.255 389.36 282.572 397.257C283.627 405.151 293.903 411.154 305.761 410.253C307.869 410.104 309.714 409.955 311.559 409.804C323.417 408.914 331.849 402.067 330.795 394.324C329.741 386.581 319.464 380.87 307.869 381.397Z" fill="black"/>
</g>
<path d="M50.72 130H40.928V74.512C40.928 69.04 43.328 65.68 49.952 65.68H85.28V74.704H50.72V96.496H83.072V105.52H50.72V130ZM117.238 131.056C102.934 131.056 92.2775 120.688 92.2775 106.192C92.2775 92.656 101.974 81.616 116.086 81.616C130.294 81.616 139.125 91.888 139.125 105.04V108.88H101.494C102.549 116.944 108.694 122.608 117.142 122.608C122.902 122.608 128.086 120.112 130.87 114.928L138.166 118.672C134.038 126.736 126.454 131.056 117.238 131.056ZM101.878 102.736H129.622C129.238 95.248 123.766 90.16 115.99 90.16C108.022 90.16 102.838 95.728 101.878 102.736ZM167.368 131.056C158.632 131.056 151.912 127.6 148.264 120.592L155.56 116.56C157.96 121.264 161.8 122.992 166.984 122.992C172.36 122.992 176.488 120.784 176.488 116.656C176.488 106.768 149.512 114.256 149.512 96.304C149.512 88.048 156.808 82 167.08 82C175.816 82 181.768 86.032 184.744 91.504L177.448 95.632C175.432 91.504 171.592 90.064 167.272 90.064C162.856 90.064 159.016 92.368 159.016 96.112C159.016 105.712 185.992 98.704 185.992 116.464C185.992 125.392 177.352 131.056 167.368 131.056ZM218.849 131.248C207.137 131.248 200.897 123.856 200.897 113.104V91.216H191.585V82.96H200.897V70.768H210.401V82.96H228.449V91.216H210.401V112.816C210.401 118.96 214.049 122.608 219.713 122.608C222.785 122.608 226.145 121.456 228.449 119.824V128.56C226.049 130.192 222.305 131.248 218.849 131.248Z" fill="black"/>
<path d="M306.375 82.0786C306.218 82.5773 306.14 83.06 306.062 83.5874C305.983 84.1113 305.944 84.6645 305.905 85.2197C305.866 85.7751 305.827 86.3288 305.827 86.8617C305.866 87.4034 305.866 87.8926 306.023 88.4965C306.179 89.2053 306.61 89.8255 307.198 90.2474C307.785 90.6729 308.529 90.8939 309.313 90.86C310.057 90.8302 310.762 90.5459 311.311 90.0716C311.898 89.6009 312.251 88.9457 312.329 88.2089C312.564 86.3321 312.76 84.4552 312.995 82.5784C313.387 79.3176 307.041 78.6638 306.649 81.9232C306.414 83.7986 306.179 85.674 305.944 87.5497C308.059 87.4536 310.175 87.3579 312.29 87.2622C312.29 87.2734 312.29 87.2782 312.29 87.2782C312.29 87.2782 312.29 87.2727 312.29 87.2632C312.29 87.2447 312.29 87.2094 312.29 87.1631C312.29 87.0703 312.25 86.9335 312.25 86.7733C312.25 86.4522 312.29 86.0398 312.29 85.6219C312.329 85.204 312.407 84.7767 312.446 84.4174C312.485 84.0618 312.564 83.7589 312.603 83.6737C313.112 82.0917 312.094 80.438 310.37 79.9972C308.647 79.5564 306.845 80.481 306.375 82.0786Z" fill="black"/>
<path d="M338.143 89.4132C338.809 88.3718 339.475 87.33 340.18 86.2885C341.081 84.8762 340.571 83.0415 339.083 82.1934C337.555 81.3456 335.557 81.8028 334.657 83.2178C333.991 84.261 333.325 85.3039 332.659 86.3471C330.818 89.1712 336.302 92.2321 338.143 89.4132Z" fill="black"/>
<path d="M306.845 115.848C307.393 115.938 307.941 116.028 308.529 116.119C310.213 116.391 311.78 115.29 312.133 113.761C312.446 112.232 311.467 110.65 309.782 110.295C309.234 110.177 308.647 110.058 308.098 109.941C306.375 109.571 304.651 110.672 304.299 112.303C303.946 113.934 305.082 115.565 306.845 115.848Z" fill="black"/>
<path d="M336.891 115.42C337.087 113.864 337.283 112.309 337.44 110.755C337.557 109.997 337.322 109.275 336.891 108.702C336.46 108.127 335.794 107.707 335.05 107.54C334.305 107.369 333.522 107.453 332.856 107.772C332.151 108.088 331.602 108.632 331.328 109.329C330.584 111.093 329.84 112.858 329.057 114.622C327.803 117.66 333.678 119.83 334.971 116.797C335.755 115.035 336.499 113.273 337.243 111.512C335.207 111.037 333.17 110.562 331.094 110.086C330.937 111.64 330.741 113.194 330.545 114.748C330.31 116.382 331.602 117.857 333.365 118.042C335.128 118.228 336.695 117.054 336.891 115.42Z" fill="black"/>
<path d="M319.85 101.051C320.124 101.319 320.437 101.586 320.711 101.854C322.122 103.145 324.668 100.811 323.258 99.4897C322.983 99.2155 322.67 98.9418 322.396 98.6677C321.69 98.0027 320.555 98.0103 319.85 98.6684C319.145 99.3264 319.106 100.401 319.85 101.051Z" fill="black"/>
<path d="M350.129 102.379C350.286 102.01 350.404 101.64 350.56 101.27C350.873 100.4 350.364 99.4594 349.424 99.1696C348.484 98.8796 347.466 99.3503 347.152 100.221C347.035 100.59 346.878 100.958 346.76 101.327C346.447 102.198 346.956 103.138 347.896 103.429C348.836 103.719 349.816 103.249 350.129 102.379Z" fill="black"/>
<path d="M316.756 130.833C316.992 130.214 317.266 129.596 317.54 128.977C318.245 127.273 314.955 126.06 314.21 127.749C313.936 128.361 313.662 128.973 313.388 129.586C313.035 130.442 313.466 131.422 314.406 131.766C315.346 132.11 316.404 131.696 316.756 130.833Z" fill="black"/>
<path d="M285.302 108.995C285.928 108.644 286.594 108.294 287.26 107.944C288.004 107.551 287.926 106.496 287.573 105.897C287.182 105.298 286.281 104.685 285.537 105.065C284.871 105.404 284.205 105.743 283.539 106.082C282.638 106.524 282.364 107.549 282.834 108.354C283.304 109.158 284.44 109.453 285.302 108.995Z" fill="black"/>
<path d="M292.391 76.0448C292.234 76.4142 292.038 76.7841 291.842 77.1539C291.019 78.812 294.231 80.2033 295.093 78.5528C295.25 78.1841 295.446 77.8153 295.642 77.4469C296.073 76.6181 295.681 75.6291 294.78 75.2421C293.879 74.8548 292.821 75.2123 292.391 76.0448Z" fill="black"/>
<path d="M325.296 66.7397C325.061 67.4783 324.787 68.2168 324.552 68.9554C324.003 70.7168 327.411 71.6724 327.998 69.912C328.234 69.1738 328.469 68.4356 328.704 67.697C329.017 66.8153 328.469 65.8857 327.529 65.6214C326.549 65.3571 325.57 65.8573 325.296 66.7397Z" fill="black"/>
<path d="M351.971 83.7837C352.284 83.6112 352.598 83.439 352.911 83.2664C353.655 82.8693 353.538 81.8064 353.185 81.2189C352.793 80.6314 351.854 80.0162 351.148 80.4133C350.796 80.5855 350.482 80.7577 350.169 80.9298C349.464 81.3266 349.542 82.3895 349.934 82.9778C350.286 83.566 351.226 84.1805 351.971 83.7837Z" fill="black"/>
<path d="M341.119 124.52C341.903 124.704 342.687 124.887 343.47 125.071C344.371 125.287 345.233 124.694 345.468 123.891C345.742 123.088 345.272 122.155 344.41 121.908C343.627 121.698 342.882 121.488 342.099 121.278C341.159 121.014 340.14 121.556 339.866 122.452C339.592 123.347 340.179 124.29 341.119 124.52Z" fill="black"/>
<path d="M292.861 129.211C293.723 127.948 294.585 126.686 295.447 125.423C296.504 123.876 293.527 122.092 292.43 123.621C291.569 124.869 290.668 126.117 289.767 127.365C289.218 128.148 289.492 129.205 290.315 129.714C291.177 130.224 292.313 130.003 292.861 129.211Z" fill="black"/>
<path d="M280.758 90.173C281.972 90.1632 283.03 90.4416 284.479 90.8763C285.38 91.1394 286.281 90.545 286.555 89.7595C286.83 88.9739 286.477 87.9944 285.576 87.7221C284.127 87.2759 282.638 86.8106 280.758 86.8008C279.74 86.7953 278.917 87.5583 278.917 88.4894C278.917 89.4206 279.74 90.181 280.758 90.173Z" fill="black"/>
<path d="M312.642 64.6576C312.799 64.239 312.916 63.8204 313.034 63.4018C311.898 63.2929 310.723 63.1837 309.587 63.0749C309.665 64.0519 309.587 65.121 309.548 66.2862C309.508 67.2017 310.292 67.965 311.31 67.9905C312.29 68.016 313.112 67.2946 313.112 66.3787C313.151 65.2768 313.23 64.0825 313.112 62.7961C313.034 62.0062 312.329 61.3513 311.506 61.2898C310.723 61.1988 309.861 61.7106 309.626 62.4692C309.509 62.8874 309.352 63.3057 309.234 63.7243C308.686 65.4752 312.093 66.4071 312.642 64.6576Z" fill="black"/>
<path d="M344.175 72.2765C345.272 71.065 346.016 70.2955 347.034 69.6625C349.972 67.7973 346.526 62.8504 343.509 64.6267C341.629 65.7362 340.375 67.0456 339.239 68.2159C337.986 69.4677 338.143 71.4257 339.514 72.5469C340.885 73.6684 343 73.5658 344.175 72.2765Z" fill="black"/>
<path d="M278.016 123.806C279.896 122.846 281.306 121.685 282.56 120.733C285.341 118.627 281.267 113.967 278.486 116.056C277.115 117.059 275.979 117.925 274.882 118.447C273.276 119.225 272.728 121.087 273.59 122.566C274.412 124.046 276.449 124.619 278.016 123.806Z" fill="black"/>
<path d="M282.443 70.9673C281.738 71.067 280.915 71.2549 280.053 71.8587C279.662 72.1565 279.27 72.5649 279.035 73.0087C278.761 73.452 278.643 73.9107 278.565 74.3053C278.447 75.1054 278.604 75.6514 278.682 76.0809C278.8 76.5087 278.917 76.833 279.035 77.106C279.583 78.6843 281.424 79.5325 283.109 79.0069C284.832 78.4816 285.733 76.7755 285.185 75.2033C285.067 74.9223 284.989 74.7177 284.989 74.6573C284.989 74.65 284.989 74.6452 284.989 74.6431C284.989 74.6452 284.989 74.6416 284.989 74.6452C284.989 74.6526 284.989 74.6718 284.989 74.7061C284.989 74.7741 284.989 74.9045 284.989 75.1068C284.95 75.3067 284.871 75.5841 284.715 75.8625C284.558 76.1413 284.323 76.4012 284.088 76.5687C283.853 76.7398 283.618 76.8261 283.5 76.8683C283.422 76.8898 283.383 76.9007 283.383 76.9065C283.344 76.9094 283.344 76.9109 283.344 76.9116C283.344 76.9124 283.344 76.9123 283.344 76.9116C285.067 76.6416 286.242 75.0795 286.007 73.483C285.772 71.8864 284.205 70.7263 282.443 70.9673Z" fill="black"/>
<path d="M270.77 98.652C270.574 99.0546 270.378 99.4571 270.182 99.86C268.772 102.855 274.178 105.373 275.901 102.515C276.136 102.13 276.371 101.744 276.606 101.359C277.468 99.8996 276.724 98.0441 275.118 97.2968C273.512 96.5491 271.475 97.1228 270.77 98.652Z" fill="black"/>
<path d="M295.839 101.469C296.348 101.832 296.857 102.196 297.366 102.559C300.147 104.562 304.065 99.9604 301.323 97.896C300.814 97.521 300.344 97.1461 299.834 96.7712C298.463 95.7319 296.426 95.9689 295.29 97.2662C294.194 98.5636 294.429 100.46 295.839 101.469Z" fill="black"/>
<path d="M352.676 111.686C352.558 112.129 352.48 112.571 352.362 113.013C351.971 114.636 353.068 116.247 354.83 116.608C356.554 116.97 358.317 115.948 358.708 114.321C358.787 113.878 358.904 113.434 358.983 112.99C359.766 109.743 353.459 108.447 352.676 111.686Z" fill="black"/>
<path d="M330.583 133.93C330.583 133.979 330.544 133.988 330.544 133.988C330.583 133.987 330.583 133.974 330.583 133.954C330.583 133.913 330.622 133.846 330.622 133.765C330.701 133.6 330.779 133.382 330.818 133.096C330.897 132.799 330.975 132.47 330.897 131.816C330.858 131.487 330.779 131.036 330.426 130.45C330.231 130.162 329.957 129.85 329.604 129.588C329.252 129.325 328.821 129.127 328.389 129.026C328.154 128.966 327.841 128.909 327.41 128.914C326.979 128.921 326.431 129.003 325.883 129.274C325.334 129.536 324.825 129.997 324.551 130.446C324.276 130.898 324.198 131.307 324.12 131.623C324.042 132.261 324.159 132.604 324.198 132.882C324.276 133.153 324.355 133.347 324.433 133.518C324.551 133.854 324.708 134.097 324.825 134.301C324.904 134.402 324.942 134.489 324.981 134.572C325.021 134.613 325.06 134.653 325.1 134.704C325.1 134.729 325.138 134.758 325.138 134.799C325.177 134.844 325.217 134.889 325.334 135.024C326.47 136.293 328.507 136.455 329.839 135.386C331.21 134.318 331.367 132.422 330.231 131.154C330.348 131.285 330.387 131.323 330.426 131.359C330.426 131.393 330.465 131.41 330.465 131.423C330.465 131.448 330.466 131.455 330.505 131.456C330.466 131.455 330.465 131.436 330.465 131.412C330.426 131.387 330.426 131.358 330.426 131.337C330.426 131.327 330.387 131.318 330.387 131.315C330.387 131.313 330.387 131.313 330.387 131.313C330.387 131.313 330.387 131.316 330.387 131.32C330.427 131.339 330.426 131.383 330.465 131.52C330.505 131.663 330.583 131.884 330.505 132.424C330.466 132.691 330.387 133.058 330.113 133.474C329.878 133.888 329.408 134.32 328.899 134.563C328.389 134.814 327.88 134.886 327.528 134.891C327.175 134.896 326.94 134.848 326.744 134.807C326.392 134.717 325.961 134.537 325.648 134.297C325.334 134.059 325.06 133.776 324.904 133.524C324.59 133.008 324.551 132.648 324.512 132.425C324.472 131.983 324.512 131.924 324.512 131.904C324.512 131.906 324.512 131.903 324.512 131.91C324.512 131.916 324.512 131.926 324.512 131.938C324.512 131.962 324.512 131.996 324.473 132.034C324.473 132.071 324.472 132.112 324.433 132.161C324.433 132.215 324.394 132.258 324.355 132.395C323.885 133.986 324.903 135.623 326.627 136.047C328.35 136.471 330.114 135.525 330.583 133.93Z" fill="black"/>
<path d="M300.656 130.818C300.343 130.836 300.069 130.854 299.756 130.872C297.993 130.982 296.7 132.464 296.896 134.096C297.053 135.728 298.58 136.97 300.343 136.783C300.656 136.752 300.931 136.722 301.205 136.69C302.968 136.506 304.221 135.091 304.064 133.49C303.908 131.889 302.38 130.709 300.656 130.818Z" fill="black"/>
<path fill-rule="evenodd" clip-rule="evenodd" d="M141.483 150.008C144.449 149.93 147.166 150.436 147.771 151.179L151.381 155.606C151.538 155.583 151.7 155.562 151.867 155.542C153.66 155.332 155.751 155.368 157.417 155.637L157.576 155.662L158.767 154.488C159.379 153.885 161.411 153.444 163.85 153.386C166.287 153.327 168.61 153.662 169.657 154.225L170.224 154.53C171.211 154.322 172.465 154.198 173.801 154.19C176.126 154.176 178.259 154.516 179.226 155.054L183.288 157.313L191.453 152.329C192.4 151.752 194.673 151.388 197.129 151.421C199.586 151.454 201.696 151.876 202.398 152.476L206.604 156.068L207.905 155.641C208.823 155.34 210.148 155.145 211.59 155.087V153.507C211.59 152.815 213.472 152.216 216.123 152.064C218.774 151.911 221.487 152.246 222.656 152.87L233.432 158.613C234.815 159.351 233.585 160.234 230.685 160.585C227.787 160.937 224.315 160.624 222.931 159.887L222.79 159.811C222.082 160.25 220.564 160.588 218.654 160.695C215.986 160.844 213.269 160.501 212.125 159.87L211.232 159.378L208.86 160.156C207.524 160.594 205.336 160.806 203.194 160.704C201.05 160.602 199.31 160.204 198.688 159.672L195.91 157.301L188.904 161.576C188.014 162.119 185.946 162.476 183.634 162.486C181.322 162.496 179.206 162.157 178.244 161.622L173.828 159.166C172.871 159.356 171.683 159.469 170.418 159.479C168.58 159.493 166.854 159.285 165.729 158.932C165.107 159.127 164.293 159.281 163.349 159.376C161.868 159.525 160.223 159.512 158.794 159.345L156.868 162.771C156.469 163.482 154.117 164.017 151.292 164.04C148.468 164.062 145.989 163.565 145.415 162.862L144.553 161.805C144.228 161.844 143.885 161.875 143.527 161.899C140.957 162.067 138.265 161.772 136.983 161.181L128.677 157.353L117.469 161.328C116.33 161.732 114.469 161.964 112.516 161.944C110.563 161.925 108.779 161.658 107.766 161.233L104.413 159.826L102.906 162.252C102.512 162.886 100.553 163.383 98.0582 163.482C95.563 163.581 93.1014 163.259 91.9655 162.686L80.5374 156.915L74.3843 163.511C73.7493 164.191 71.3261 164.666 68.5761 164.648C65.8259 164.63 63.5012 164.125 63.0038 163.437L60.7338 160.297L57.0239 163.457C56.2471 164.119 53.7725 164.556 51.0624 164.51C48.3524 164.464 46.1284 163.947 45.7047 163.265L44.9242 162.008L43.5884 164.706C43.1872 165.516 40.2781 166.09 37.0908 165.988C33.9035 165.886 31.6449 165.147 32.0462 164.336L38.5032 151.294C38.865 150.564 41.2865 150.012 44.183 150C47.0795 149.989 49.5679 150.521 50.0198 151.248L53.2014 156.372L56.5067 153.556C57.2757 152.901 59.7104 152.465 62.3952 152.502C65.0799 152.539 67.315 153.039 67.8012 153.712L69.4466 155.988L72.8995 152.286C73.4636 151.682 75.454 151.231 77.8814 151.159C80.3087 151.086 82.6552 151.408 83.7544 151.963L94.2331 157.254L95.4031 155.37C95.784 154.757 97.631 154.27 100.027 154.15C102.423 154.03 104.858 154.304 106.123 154.835L113.15 157.784L124.592 153.726C125.755 153.313 127.669 153.081 129.661 153.111C131.654 153.141 133.447 153.429 134.412 153.873L136.259 154.724V151.479C136.259 150.721 138.515 150.085 141.483 150.008Z" fill="black"/>
<path d="M41.144 198.288C36.608 198.288 32.96 194.616 32.96 189.936C32.96 185.304 36.608 181.632 41.144 181.632C43.904 181.632 46.424 183.048 47.648 185.4L45.656 186.552C44.72 184.944 43.112 183.96 41.048 183.96C37.928 183.96 35.48 186.552 35.48 189.936C35.48 193.368 37.904 195.984 41.048 195.984C43.112 195.984 44.744 195 45.656 193.392L47.648 194.544C46.424 196.896 43.904 198.288 41.144 198.288ZM55.3953 198.264C51.8193 198.264 49.1553 195.672 49.1553 192.048C49.1553 188.664 51.5793 185.904 55.1073 185.904C58.6593 185.904 60.8673 188.472 60.8673 191.76V192.72H51.4593C51.7233 194.736 53.2593 196.152 55.3713 196.152C56.8113 196.152 58.1073 195.528 58.8033 194.232L60.6273 195.168C59.5953 197.184 57.6993 198.264 55.3953 198.264ZM51.5553 191.184H58.4913C58.3953 189.312 57.0273 188.04 55.0833 188.04C53.0913 188.04 51.7953 189.432 51.5553 191.184ZM64.184 180.84H66.56V198H64.184V180.84ZM75.9266 198.264C72.3506 198.264 69.6866 195.672 69.6866 192.048C69.6866 188.664 72.1106 185.904 75.6386 185.904C79.1906 185.904 81.3986 188.472 81.3986 191.76V192.72H71.9906C72.2546 194.736 73.7906 196.152 75.9026 196.152C77.3426 196.152 78.6386 195.528 79.3346 194.232L81.1586 195.168C80.1266 197.184 78.2306 198.264 75.9266 198.264ZM72.0866 191.184H79.0226C78.9266 189.312 77.5586 188.04 75.6146 188.04C73.6226 188.04 72.3266 189.432 72.0866 191.184ZM90.4993 198.288C86.9473 198.288 84.2353 195.624 84.2353 192.144V180.84H86.6113V187.704C87.5713 186.648 89.0113 185.952 90.5953 185.952C94.1713 185.952 96.7393 188.568 96.7393 192.144C96.7393 195.528 94.0513 198.288 90.4993 198.288ZM90.4993 196.056C92.6833 196.056 94.3633 194.28 94.3633 192.12C94.3633 189.984 92.6833 188.208 90.4993 188.208C88.2913 188.208 86.6113 189.984 86.6113 192.12C86.6113 194.28 88.2913 196.056 90.4993 196.056ZM101.799 198H99.4228V190.992C99.4228 188.136 101.055 186 104.127 186C104.871 186 105.639 186.144 106.239 186.432V188.784C105.663 188.448 104.991 188.28 104.343 188.28C102.759 188.28 101.799 189.36 101.799 191.088V198ZM113.137 198.288C109.729 198.288 107.233 195.504 107.233 192.096C107.233 188.736 109.921 185.952 113.497 185.952C117.049 185.952 119.761 188.592 119.761 192.096V198H117.505V195.936C116.617 197.376 115.057 198.288 113.137 198.288ZM113.497 196.032C115.705 196.032 117.385 194.256 117.385 192.12C117.385 189.96 115.705 188.184 113.497 188.184C111.313 188.184 109.609 189.96 109.609 192.12C109.609 194.256 111.313 196.032 113.497 196.032ZM128.517 198.312C125.589 198.312 124.029 196.464 124.029 193.776V188.304H121.701V186.24H124.029V183.192H126.405V186.24H130.917V188.304H126.405V193.704C126.405 195.24 127.317 196.152 128.733 196.152C129.501 196.152 130.341 195.864 130.917 195.456V197.64C130.317 198.048 129.381 198.312 128.517 198.312ZM139.231 198.264C135.655 198.264 132.991 195.672 132.991 192.048C132.991 188.664 135.415 185.904 138.943 185.904C142.495 185.904 144.703 188.472 144.703 191.76V192.72H135.295C135.559 194.736 137.095 196.152 139.207 196.152C140.647 196.152 141.943 195.528 142.639 194.232L144.463 195.168C143.431 197.184 141.535 198.264 139.231 198.264ZM135.391 191.184H142.327C142.231 189.312 140.863 188.04 138.919 188.04C136.927 188.04 135.631 189.432 135.391 191.184ZM149.082 198.216C148.218 198.216 147.522 197.52 147.522 196.656C147.522 195.792 148.218 195.12 149.082 195.12C149.946 195.12 150.642 195.792 150.642 196.656C150.642 197.52 149.946 198.216 149.082 198.216ZM167.374 198.312C165.79 198.312 164.734 197.424 164.182 195.672L159.958 181.92H162.454L166.438 195.048C166.606 195.624 166.894 195.912 167.374 195.912C167.854 195.912 168.142 195.624 168.31 195.048L172.246 181.92H174.766L170.542 195.672C169.99 197.424 168.91 198.312 167.374 198.312ZM178.68 183.912C177.816 183.912 177.12 183.216 177.12 182.352C177.12 181.488 177.816 180.768 178.68 180.768C179.544 180.768 180.216 181.488 180.216 182.352C180.216 183.216 179.544 183.912 178.68 183.912ZM177.504 186.24H179.88V198H177.504V186.24ZM190.015 198.288C186.463 198.288 183.751 195.624 183.751 192.144V180.84H186.127V187.704C187.087 186.648 188.527 185.952 190.111 185.952C193.687 185.952 196.255 188.568 196.255 192.144C196.255 195.528 193.567 198.288 190.015 198.288ZM190.015 196.056C192.199 196.056 193.879 194.28 193.879 192.12C193.879 189.984 192.199 188.208 190.015 188.208C187.807 188.208 186.127 189.984 186.127 192.12C186.127 194.28 187.807 196.056 190.015 196.056ZM204.434 198.264C200.858 198.264 198.194 195.672 198.194 192.048C198.194 188.664 200.618 185.904 204.146 185.904C207.698 185.904 209.906 188.472 209.906 191.76V192.72H200.498C200.762 194.736 202.298 196.152 204.41 196.152C205.85 196.152 207.146 195.528 207.842 194.232L209.666 195.168C208.634 197.184 206.738 198.264 204.434 198.264ZM200.594 191.184H207.53C207.434 189.312 206.066 188.04 204.122 188.04C202.13 188.04 200.834 189.432 200.594 191.184ZM214.285 198.216C213.421 198.216 212.725 197.52 212.725 196.656C212.725 195.792 213.421 195.12 214.285 195.12C215.149 195.12 215.845 195.792 215.845 196.656C215.845 197.52 215.149 198.216 214.285 198.216ZM232.553 198H227.033V181.92H232.673C236.609 181.92 239.009 183.48 239.009 186.192C239.009 188.16 237.953 189.432 236.249 189.96C238.097 190.392 239.249 191.496 239.249 193.56C239.249 196.896 236.297 198 232.553 198ZM229.481 183.96V188.976H232.745C235.433 188.976 236.561 188.16 236.561 186.36C236.561 184.776 235.169 183.96 232.793 183.96H229.481ZM229.481 191.016V195.96H232.673C234.881 195.96 236.801 195.528 236.801 193.392C236.801 191.64 235.505 191.016 232.745 191.016H229.481ZM247.817 198.264C244.241 198.264 241.577 195.672 241.577 192.048C241.577 188.664 244.001 185.904 247.529 185.904C251.081 185.904 253.289 188.472 253.289 191.76V192.72H243.881C244.145 194.736 245.681 196.152 247.793 196.152C249.233 196.152 250.529 195.528 251.225 194.232L253.049 195.168C252.017 197.184 250.121 198.264 247.817 198.264ZM243.977 191.184H250.913C250.817 189.312 249.449 188.04 247.505 188.04C245.513 188.04 244.217 189.432 243.977 191.184ZM256.606 180.84H258.982V198H256.606V180.84ZM268.396 198.288C264.844 198.288 262.108 195.504 262.108 192.096C262.108 188.712 264.868 185.952 268.396 185.952C271.948 185.952 274.636 188.736 274.636 192.096C274.636 195.504 271.924 198.288 268.396 198.288ZM268.396 196.032C270.58 196.032 272.26 194.256 272.26 192.12C272.26 189.96 270.58 188.184 268.396 188.184C266.188 188.184 264.484 189.96 264.484 192.12C264.484 194.256 266.188 196.032 268.396 196.032ZM283.122 188.232C280.818 188.232 279.666 190.128 279.666 192.312V198H277.29V192.072C277.29 188.64 279.33 185.952 283.122 185.952C286.962 185.952 289.05 188.64 289.05 192.048V198H286.674V192.336C286.674 190.128 285.474 188.232 283.122 188.232ZM297.758 203.688C295.214 203.688 293.102 202.584 292.022 200.496L294.014 199.416C294.71 200.688 296.006 201.504 297.71 201.504C300.182 201.504 301.862 199.728 301.862 196.968V196.032C301.094 197.256 299.654 198.168 297.686 198.168C294.35 198.168 291.71 195.528 291.71 192.072C291.71 188.712 294.398 185.952 297.974 185.952C301.526 185.952 304.238 188.592 304.238 192.096V196.944C304.238 201.024 301.502 203.688 297.758 203.688ZM297.95 195.936C300.11 195.936 301.838 194.208 301.838 192.048C301.838 189.888 300.11 188.208 297.95 188.208C295.814 188.208 294.062 189.888 294.062 192.048C294.062 194.208 295.814 195.936 297.95 195.936ZM309.418 198.216C308.554 198.216 307.858 197.52 307.858 196.656C307.858 195.792 308.554 195.12 309.418 195.12C310.282 195.12 310.978 195.792 310.978 196.656C310.978 197.52 310.282 198.216 309.418 198.216Z" fill="black"/>
<path d="M275.418 363.198C273.384 363.198 271.674 362.28 270.954 360.624L272.502 359.868C272.97 360.912 273.996 361.47 275.418 361.47C276.822 361.47 277.902 360.804 277.902 359.616C277.902 358.284 276.678 358.05 275.256 357.78C273.438 357.42 271.188 356.826 271.188 354.27C271.188 352.272 273.006 350.76 275.292 350.76C277.128 350.76 278.766 351.624 279.486 353.28L277.956 354.072C277.47 353.082 276.552 352.47 275.22 352.47C273.996 352.47 273.006 353.19 273.006 354.216C273.006 355.512 274.284 355.8 275.742 356.088C277.542 356.448 279.738 357.042 279.738 359.598C279.738 361.722 277.848 363.198 275.418 363.198ZM284.125 363H282.343V350.13H284.125V355.17C284.809 354.432 285.871 353.964 287.059 353.964C289.651 353.964 291.109 355.692 291.109 358.392V363H289.327V358.572C289.327 357.006 288.463 355.656 286.789 355.656C285.223 355.656 284.125 356.916 284.125 358.626V363ZM297.813 363.216C295.149 363.216 293.097 361.128 293.097 358.572C293.097 356.034 295.167 353.964 297.813 353.964C300.477 353.964 302.493 356.052 302.493 358.572C302.493 361.128 300.459 363.216 297.813 363.216ZM297.813 361.524C299.451 361.524 300.711 360.192 300.711 358.59C300.711 356.97 299.451 355.638 297.813 355.638C296.157 355.638 294.879 356.97 294.879 358.59C294.879 360.192 296.157 361.524 297.813 361.524ZM307.15 363.234C306.268 363.234 305.512 362.694 305.26 361.614L303.532 354.18H305.206L306.826 361.272C306.88 361.488 306.952 361.596 307.15 361.596C307.294 361.596 307.402 361.47 307.438 361.308L308.878 355.566C309.148 354.486 309.76 353.964 310.696 353.964C311.632 353.964 312.226 354.468 312.496 355.548L313.918 361.308C313.972 361.488 314.062 361.596 314.242 361.596C314.404 361.596 314.494 361.488 314.548 361.272L316.114 354.18H317.77L316.096 361.614C315.844 362.694 315.106 363.234 314.224 363.234C313.306 363.234 312.694 362.694 312.442 361.632L311.002 355.8C310.948 355.62 310.858 355.512 310.678 355.512C310.516 355.512 310.426 355.62 310.39 355.8L308.932 361.632C308.68 362.694 308.068 363.234 307.15 363.234ZM328.84 361.488C330.478 361.488 331.378 360.066 331.378 358.428V354.18H333.16V358.644C333.16 361.2 331.612 363.216 328.84 363.216C326.104 363.216 324.556 361.182 324.556 358.626V354.18H326.338V358.446C326.338 360.066 327.22 361.488 328.84 361.488ZM337.431 367.05H335.649V358.572C335.649 355.944 337.683 353.964 340.347 353.964C343.011 353.964 345.027 356.052 345.027 358.572C345.027 361.236 343.101 363.216 340.419 363.216C339.231 363.216 338.151 362.694 337.431 361.902V367.05ZM340.347 361.542C341.985 361.542 343.245 360.192 343.245 358.59C343.245 356.97 341.985 355.656 340.347 355.656C338.691 355.656 337.431 356.97 337.431 358.59C337.431 360.192 338.691 361.542 340.347 361.542ZM347.897 366.366H346.709L347.231 362.946C346.943 362.73 346.745 362.388 346.745 361.992C346.745 361.344 347.267 360.84 347.915 360.84C348.563 360.84 349.085 361.344 349.085 361.992C349.085 362.136 349.067 362.28 349.013 362.406L347.897 366.366ZM361.058 363.198C358.376 363.198 356.378 361.254 356.378 358.536C356.378 355.998 358.196 353.928 360.842 353.928C363.506 353.928 365.162 355.854 365.162 358.32V359.04H358.106C358.304 360.552 359.456 361.614 361.04 361.614C362.12 361.614 363.092 361.146 363.614 360.174L364.982 360.876C364.208 362.388 362.786 363.198 361.058 363.198ZM358.178 357.888H363.38C363.308 356.484 362.282 355.53 360.824 355.53C359.33 355.53 358.358 356.574 358.178 357.888ZM368.896 363H366.88L369.112 359.652C369.382 359.256 369.508 358.914 369.508 358.59C369.508 358.284 369.4 357.978 369.148 357.6L366.88 354.18H368.896L370.696 356.862C370.876 357.132 371.02 357.438 371.092 357.744H372.046C372.136 357.438 372.262 357.132 372.442 356.862L374.224 354.18H376.258L373.99 357.6C373.738 357.978 373.63 358.284 373.63 358.59C373.63 358.914 373.756 359.256 374.026 359.652L376.258 363H374.242L372.442 360.336C372.244 360.03 372.1 359.706 372.01 359.364H371.128C371.038 359.706 370.894 360.03 370.696 360.336L368.896 363ZM380.357 367.05H378.575V358.572C378.575 355.944 380.609 353.964 383.273 353.964C385.937 353.964 387.953 356.052 387.953 358.572C387.953 361.236 386.027 363.216 383.345 363.216C382.157 363.216 381.077 362.694 380.357 361.902V367.05ZM383.273 361.542C384.911 361.542 386.171 360.192 386.171 358.59C386.171 356.97 384.911 355.656 383.273 355.656C381.617 355.656 380.357 356.97 380.357 358.59C380.357 360.192 381.617 361.542 383.273 361.542ZM390.326 350.13H392.108V363H390.326V350.13ZM399.168 363.216C396.504 363.216 394.452 361.128 394.452 358.572C394.452 356.034 396.522 353.964 399.168 353.964C401.832 353.964 403.848 356.052 403.848 358.572C403.848 361.128 401.814 363.216 399.168 363.216ZM399.168 361.524C400.806 361.524 402.066 360.192 402.066 358.59C402.066 356.97 400.806 355.638 399.168 355.638C397.512 355.638 396.234 356.97 396.234 358.59C396.234 360.192 397.512 361.524 399.168 361.524ZM407.621 363H405.839V357.744C405.839 355.602 407.063 354 409.367 354C409.925 354 410.501 354.108 410.951 354.324V356.088C410.519 355.836 410.015 355.71 409.529 355.71C408.341 355.71 407.621 356.52 407.621 357.816V363ZM416.377 363.198C413.695 363.198 411.697 361.254 411.697 358.536C411.697 355.998 413.515 353.928 416.161 353.928C418.825 353.928 420.481 355.854 420.481 358.32V359.04H413.425C413.623 360.552 414.775 361.614 416.359 361.614C417.439 361.614 418.411 361.146 418.933 360.174L420.301 360.876C419.527 362.388 418.105 363.198 416.377 363.198ZM413.497 357.888H418.699C418.627 356.484 417.601 355.53 416.143 355.53C414.649 355.53 413.677 356.574 413.497 357.888ZM433.357 352.452C432.331 352.452 431.611 353.208 431.611 354.108C431.611 354.936 432.187 355.782 433.231 356.826L435.985 359.544C436.561 358.752 436.993 357.78 437.227 356.736L438.775 357.402C438.433 358.626 437.875 359.76 437.137 360.678L439.495 363H437.011L435.913 361.902C434.851 362.73 433.555 363.216 432.025 363.216C429.343 363.216 427.633 361.704 427.633 359.598C427.633 358.05 428.641 356.754 430.405 356.142C429.973 355.458 429.685 354.72 429.685 353.928C429.685 352.11 431.125 350.724 433.159 350.724C434.977 350.724 436.273 351.66 436.957 353.172L435.517 354.018C435.085 353.064 434.311 352.452 433.357 352.452ZM429.541 359.526C429.541 360.732 430.621 361.614 432.223 361.614C433.159 361.614 434.023 361.308 434.761 360.768L431.755 357.78C431.611 357.636 431.467 357.492 431.341 357.348C430.279 357.654 429.541 358.482 429.541 359.526ZM449.101 363H447.265V350.94H449.101V356.142H455.491V350.94H457.327V363H455.491V357.834H449.101V363ZM464.289 363.216C461.733 363.216 459.861 361.128 459.861 358.572C459.861 356.052 461.877 353.964 464.559 353.964C467.223 353.964 469.257 355.944 469.257 358.572V363H467.565V361.452C466.899 362.532 465.729 363.216 464.289 363.216ZM464.559 361.524C466.215 361.524 467.475 360.192 467.475 358.59C467.475 356.97 466.215 355.638 464.559 355.638C462.921 355.638 461.643 356.97 461.643 358.59C461.643 360.192 462.921 361.524 464.559 361.524ZM473.379 361.848L470.535 354.18H472.443L475.035 361.362C475.053 361.452 475.125 361.542 475.233 361.542C475.359 361.542 475.431 361.452 475.449 361.362L478.041 354.18H479.931L477.069 361.848C476.727 362.766 476.097 363.234 475.233 363.234C474.405 363.234 473.721 362.766 473.379 361.848ZM485.388 363.198C482.706 363.198 480.708 361.254 480.708 358.536C480.708 355.998 482.526 353.928 485.172 353.928C487.836 353.928 489.492 355.854 489.492 358.32V359.04H482.436C482.634 360.552 483.786 361.614 485.37 361.614C486.45 361.614 487.422 361.146 487.944 360.174L489.312 360.876C488.538 362.388 487.116 363.198 485.388 363.198ZM482.508 357.888H487.71C487.638 356.484 486.612 355.53 485.154 355.53C483.66 355.53 482.688 356.574 482.508 357.888ZM499.471 363H497.689V355.728H496.015V354.18H497.689V353.262C497.689 351.39 498.859 349.986 501.073 349.986C501.667 349.986 502.225 350.094 502.675 350.31V352.002C502.261 351.75 501.739 351.606 501.235 351.606C500.137 351.606 499.471 352.092 499.471 353.262V354.18H502.567V355.728H499.471V363ZM508.242 361.488C509.88 361.488 510.78 360.066 510.78 358.428V354.18H512.562V358.644C512.562 361.2 511.014 363.216 508.242 363.216C505.506 363.216 503.958 361.182 503.958 358.626V354.18H505.74V358.446C505.74 360.066 506.622 361.488 508.242 361.488ZM519.425 355.674C517.697 355.674 516.833 357.096 516.833 358.734V363H515.051V358.554C515.051 355.98 516.581 353.964 519.425 353.964C522.305 353.964 523.871 355.98 523.871 358.536V363H522.089V358.752C522.089 357.096 521.189 355.674 519.425 355.674ZM527.756 363.162C527.108 363.162 526.586 362.64 526.586 361.992C526.586 361.344 527.108 360.84 527.756 360.84C528.404 360.84 528.926 361.344 528.926 361.992C528.926 362.64 528.404 363.162 527.756 363.162Z" fill="black"/>
</g>
<defs>
<filter id="filter0_i_4240_72137" x="0" y="0" width="800" height="474" filterUnits="userSpaceOnUse" color-interpolation-filters="sRGB">
<feFlood flood-opacity="0" result="BackgroundImageFix"/>
<feBlend mode="normal" in="SourceGraphic" in2="BackgroundImageFix" result="shape"/>
<feColorMatrix in="SourceAlpha" type="matrix" values="0 0 0 0 0 0 0 0 0 0 0 0 0 0 0 0 0 0 127 0" result="hardAlpha"/>
<feMorphology radius="8" operator="erode" in="SourceAlpha" result="effect1_innerShadow_4240_72137"/>
<feOffset dy="24"/>
<feGaussianBlur stdDeviation="30"/>
<feComposite in2="hardAlpha" operator="arithmetic" k2="-1" k3="1"/>
<feColorMatrix type="matrix" values="0 0 0 0 1 0 0 0 0 0.819608 0 0 0 0 0.4 0 0 0 1 0"/>
<feBlend mode="normal" in2="shape" result="effect1_innerShadow_4240_72137"/>
</filter>
<linearGradient id="paint0_linear_4240_72137" x1="400" y1="0" x2="400" y2="450" gradientUnits="userSpaceOnUse">
<stop stop-color="white"/>
<stop offset="1" stop-color="#EFEFEF"/>
</linearGradient>
</defs>
</svg>
