<svg width="800" height="450" viewBox="0 0 800 450" fill="none" xmlns="http://www.w3.org/2000/svg">
<g filter="url(#filter0_i_1753_20717)">
<rect width="800" height="450" rx="48" fill="url(#paint0_linear_1753_20717)"/>
<g opacity="0.1">
<path d="M336.305 123.972C335.087 126.943 334.478 129.819 333.869 132.961C333.259 136.082 332.957 139.379 332.652 142.686C332.347 145.995 332.042 149.294 332.042 152.469C332.347 155.696 332.347 158.61 333.565 162.208C334.784 166.431 338.135 170.126 342.705 172.64C347.275 175.175 353.062 176.491 359.155 176.289C364.944 176.112 370.43 174.418 374.695 171.592C379.265 168.788 382.005 164.885 382.615 160.495C384.443 149.313 385.967 138.132 387.795 126.95C390.841 107.523 341.485 103.628 338.439 123.046C336.611 134.219 334.784 145.392 332.956 156.568C349.407 155.995 365.86 155.425 382.311 154.854C382.311 154.922 382.311 154.95 382.311 154.95C382.311 154.95 382.311 154.917 382.311 154.861C382.311 154.75 382.311 154.54 382.311 154.264C382.311 153.711 382.005 152.896 382.005 151.942C382.005 150.029 382.311 147.572 382.311 145.082C382.616 142.593 383.224 140.046 383.528 137.906C383.833 135.787 384.444 133.983 384.748 133.475C388.709 124.05 380.787 114.198 367.382 111.572C353.977 108.945 339.961 114.454 336.305 123.972Z" fill="#535353"/>
<path d="M583.389 167.668C588.567 161.463 593.749 155.256 599.232 149.052C606.239 140.637 602.277 129.707 590.7 124.654C578.819 119.603 563.28 122.327 556.273 130.757C551.095 136.972 545.917 143.186 540.735 149.401C526.417 166.226 569.071 184.462 583.389 167.668Z" fill="#535353"/>
<path d="M339.96 325.165C344.225 325.705 348.49 326.242 353.06 326.779C366.16 328.401 378.348 321.841 381.09 312.731C383.527 303.621 375.91 294.197 362.81 292.084C358.544 291.379 353.975 290.675 349.71 289.973C336.305 287.773 322.899 294.331 320.157 304.049C317.415 313.767 326.25 323.479 339.96 325.165Z" fill="#535353"/>
<path d="M573.648 322.611C575.172 313.345 576.697 304.08 577.917 294.819C578.83 290.306 577.001 286 573.648 282.591C570.298 279.165 565.116 276.66 559.329 275.666C553.539 274.646 547.448 275.148 542.27 277.05C536.784 278.93 532.518 282.172 530.385 286.326C524.599 296.836 518.808 307.346 512.717 317.859C502.965 335.958 548.665 348.885 558.721 330.814C564.812 320.32 570.602 309.824 576.393 299.33C560.55 296.499 544.707 293.668 528.56 290.837C527.34 300.095 525.815 309.352 524.294 318.61C522.466 328.342 532.518 337.131 546.228 338.235C559.938 339.34 572.127 332.346 573.648 322.611Z" fill="#535353"/>
<path d="M441.106 237.008C443.238 238.603 445.675 240.198 447.808 241.793C458.777 249.486 478.581 235.577 467.613 227.707C465.48 226.073 463.043 224.442 460.91 222.809C455.424 218.847 446.592 218.893 441.106 222.814C435.623 226.734 435.319 233.136 441.106 237.008Z" fill="#535353"/>
<path d="M676.617 244.921C677.837 242.717 678.753 240.516 679.97 238.313C682.407 233.128 678.445 227.523 671.134 225.797C663.823 224.07 655.904 226.874 653.463 232.059C652.55 234.257 651.334 236.455 650.417 238.653C647.98 243.838 651.938 249.44 659.253 251.172C666.564 252.901 674.18 250.103 676.617 244.921Z" fill="#535353"/>
<path d="M417.049 414.44C418.878 410.754 421.011 407.073 423.144 403.387C428.626 393.231 403.035 386.004 397.247 396.067C395.114 399.715 392.982 403.363 390.85 407.013C388.108 412.113 391.458 417.951 398.77 420C406.081 422.05 414.308 419.584 417.049 414.44Z" fill="#535353"/>
<path d="M172.399 284.339C177.274 282.251 182.453 280.162 187.632 278.077C193.42 275.736 192.811 269.449 190.069 265.881C187.022 262.316 180.017 258.66 174.229 260.924C169.05 262.943 163.868 264.963 158.689 266.983C151.682 269.619 149.55 275.725 153.206 280.518C156.862 285.312 165.696 287.066 172.399 284.339Z" fill="#535353"/>
<path d="M227.542 88.0269C226.323 90.2281 224.799 92.4315 223.275 94.6349C216.877 104.513 241.859 112.802 248.562 102.969C249.78 100.772 251.305 98.5753 252.828 96.3807C256.179 91.4427 253.132 85.5503 246.125 83.2449C239.118 80.9374 230.893 83.0671 227.542 88.0269Z" fill="#535353"/>
<path d="M483.47 32.6007C481.641 37.0009 479.508 41.4012 477.68 45.8014C473.414 56.2955 499.917 61.9885 504.487 51.5006C506.316 47.1026 508.145 42.7043 509.974 38.3041C512.411 33.0515 508.145 27.5128 500.834 25.9384C493.214 24.364 485.603 27.3438 483.47 32.6007Z" fill="#535353"/>
<path d="M690.94 134.138C693.377 133.11 695.814 132.085 698.251 131.057C704.041 128.691 703.125 122.358 700.384 118.858C697.335 115.358 690.027 111.693 684.541 114.058C681.8 115.084 679.363 116.11 676.926 117.136C671.443 119.5 672.052 125.832 675.097 129.337C677.838 132.841 685.149 136.502 690.94 134.138Z" fill="#535353"/>
<path d="M606.54 376.829C612.635 377.923 618.729 379.016 624.82 380.113C631.831 381.395 638.534 377.865 640.362 373.08C642.495 368.295 638.838 362.737 632.135 361.266C626.04 360.016 620.25 358.764 614.159 357.511C606.848 355.941 598.925 359.172 596.792 364.505C594.659 369.841 599.229 375.456 606.54 376.829Z" fill="#535353"/>
<path d="M231.195 404.781C237.897 397.258 244.602 389.736 251.304 382.213C259.53 372.994 236.375 362.368 227.845 371.475C221.142 378.913 214.136 386.348 207.128 393.781C202.863 398.448 204.994 404.743 211.392 407.779C218.094 410.816 226.929 409.5 231.195 404.781Z" fill="#535353"/>
<path d="M137.061 172.196C146.506 172.138 154.732 173.797 166.004 176.386C173.011 177.954 180.018 174.413 182.151 169.733C184.283 165.053 181.541 159.217 174.534 157.594C163.261 154.936 151.685 152.164 137.061 152.106C129.14 152.073 122.741 156.619 122.741 162.166C122.741 167.714 129.14 172.244 137.061 172.196Z" fill="#535353"/>
<path d="M385.049 20.1915C386.268 17.6976 387.182 15.2036 388.096 12.7095C379.261 12.0611 370.121 11.4104 361.286 10.762C361.895 16.583 361.287 22.9523 360.983 29.8944C360.678 35.3486 366.771 39.8963 374.692 40.0481C382.309 40.2 388.706 35.9017 388.706 30.4452C389.011 23.8805 389.62 16.7649 388.706 9.10098C388.097 4.39491 382.614 0.493452 376.216 0.126766C370.122 -0.415316 363.421 2.63382 361.593 7.15327C360.679 9.64526 359.46 12.137 358.546 14.6311C354.281 25.0625 380.784 30.6143 385.049 20.1915Z" fill="#535353"/>
<path d="M630.305 65.581C638.836 58.3635 644.627 53.7791 652.546 50.0078C675.396 38.8954 648.588 9.42298 625.127 20.0062C610.504 26.6161 600.752 34.4171 591.916 41.3893C582.168 48.8475 583.389 60.5126 594.053 67.1922C604.714 73.8739 621.165 73.2625 630.305 65.581Z" fill="#535353"/>
<path d="M115.734 372.57C130.358 366.855 141.324 359.936 151.074 354.263C172.705 341.716 141.021 313.952 119.391 326.399C108.727 332.377 99.8915 337.537 91.361 340.648C78.8697 345.279 74.605 356.37 81.3075 365.186C87.7054 374 103.547 377.415 115.734 372.57Z" fill="#535353"/>
<path d="M150.169 57.7788C144.685 58.373 138.289 59.4922 131.586 63.09C128.54 64.864 125.491 67.2973 123.663 69.9408C121.53 72.5825 120.616 75.3148 120.006 77.6657C119.092 82.4326 120.314 85.6856 120.923 88.2447C121.837 90.7929 122.749 92.725 123.663 94.3515C127.928 103.755 142.249 108.808 155.349 105.677C168.754 102.547 175.761 92.3824 171.496 83.016C170.582 81.3416 169.973 80.1228 169.973 79.763C169.973 79.7194 169.973 79.6912 169.973 79.6783C169.973 79.6912 169.973 79.6695 169.973 79.6912C169.973 79.7348 169.973 79.8496 169.973 80.0535C169.973 80.4591 169.973 81.2355 169.973 82.4411C169.668 83.6318 169.058 85.2844 167.839 86.9432C166.62 88.6046 164.794 90.153 162.966 91.1505C161.138 92.1698 159.31 92.6839 158.396 92.9355C157.787 93.0635 157.482 93.1284 157.482 93.1632C157.178 93.1805 157.176 93.1892 157.176 93.1936C157.176 93.198 157.176 93.1977 157.176 93.1936C170.581 91.5847 179.72 82.2786 177.892 72.7666C176.064 63.2547 163.879 56.3433 150.169 57.7788Z" fill="#535353"/>
<path d="M59.3752 222.72C57.8518 225.118 56.3287 227.516 54.8053 229.917C43.8374 247.761 85.8798 262.76 99.2847 245.733C101.113 243.439 102.94 241.142 104.768 238.848C111.471 230.153 105.683 219.098 93.1917 214.646C80.7004 210.192 64.8592 213.609 59.3752 222.72Z" fill="#535353"/>
<path d="M254.358 239.498C258.318 241.664 262.277 243.829 266.238 245.996C287.869 257.929 318.337 230.512 297.01 218.213C293.05 215.979 289.395 213.746 285.434 211.512C274.771 205.32 258.926 206.732 250.091 214.461C241.561 222.19 243.39 233.491 254.358 239.498Z" fill="#535353"/>
<path d="M696.424 300.373C695.512 303.007 694.904 305.641 693.987 308.274C690.942 317.943 699.474 327.546 713.183 329.697C726.585 331.851 740.299 325.762 743.344 316.071C743.953 313.429 744.869 310.782 745.477 308.137C751.572 288.797 702.519 281.072 696.424 300.373Z" fill="#535353"/>
<path d="M524.592 432.895C524.592 433.185 524.288 433.243 524.288 433.243C524.592 433.237 524.592 433.155 524.592 433.037C524.592 432.793 524.896 432.396 524.896 431.911C525.505 430.93 526.117 429.631 526.421 427.929C527.029 426.156 527.638 424.199 527.029 420.302C526.725 418.339 526.117 415.654 523.372 412.16C521.851 410.449 519.718 408.586 516.977 407.026C514.236 405.459 510.882 404.283 507.529 403.68C505.7 403.318 503.263 402.979 499.914 403.014C496.56 403.053 492.298 403.543 488.033 405.155C483.767 406.717 479.805 409.466 477.672 412.138C475.539 414.829 474.931 417.268 474.323 419.153C473.714 422.949 474.627 424.994 474.931 426.649C475.539 428.269 476.152 429.422 476.76 430.442C477.672 432.445 478.893 433.892 479.805 435.106C480.417 435.709 480.718 436.227 481.022 436.718C481.33 436.967 481.634 437.203 481.942 437.504C481.942 437.658 482.242 437.828 482.242 438.074C482.546 438.343 482.854 438.606 483.767 439.412C492.603 446.973 508.445 447.937 518.802 441.571C529.466 435.205 530.687 423.914 521.851 416.355C522.764 417.136 523.068 417.361 523.372 417.58C523.372 417.778 523.676 417.882 523.676 417.959C523.676 418.109 523.68 418.148 523.984 418.156C523.68 418.148 523.676 418.038 523.676 417.893C523.372 417.748 523.372 417.572 523.372 417.449C523.372 417.386 523.068 417.336 523.068 417.315C523.068 417.304 523.068 417.304 523.068 417.304C523.068 417.304 523.068 417.32 523.068 417.347C523.376 417.46 523.372 417.723 523.676 418.537C523.98 419.386 524.592 420.705 523.984 423.922C523.68 425.514 523.068 427.701 520.935 430.181C519.11 432.645 515.452 435.221 511.491 436.666C507.529 438.165 503.567 438.589 500.826 438.622C498.085 438.652 496.256 438.362 494.732 438.121C491.99 437.584 488.641 436.509 486.204 435.082C483.767 433.665 481.634 431.979 480.417 430.477C477.98 427.402 477.676 425.259 477.372 423.927C477.064 421.294 477.372 420.946 477.372 420.822C477.372 420.839 477.372 420.82 477.372 420.858C477.372 420.894 477.372 420.954 477.372 421.025C477.372 421.17 477.368 421.373 477.064 421.598C477.064 421.823 477.064 422.064 476.76 422.357C476.76 422.678 476.456 422.933 476.152 423.749C472.494 433.232 480.414 442.983 493.819 445.509C507.225 448.033 520.939 442.396 524.592 432.895Z" fill="#535353"/>
<path d="M291.829 414.346C289.391 414.456 287.26 414.565 284.822 414.672C271.112 415.327 261.059 424.155 262.582 433.881C263.801 443.604 275.682 450.998 289.392 449.888C291.83 449.705 293.963 449.521 296.095 449.335C309.805 448.239 319.554 439.806 318.335 430.269C317.116 420.732 305.234 413.697 291.829 414.346Z" fill="#535353"/>
</g>
<path d="M46.784 122.512L34.4 65.68H44.192L55.424 119.536C55.712 120.976 56.192 121.648 56.96 121.648C57.728 121.648 58.304 121.072 58.592 119.536L69.248 73.744C70.496 67.792 73.76 65.104 78.176 65.104C82.688 65.104 85.856 67.696 87.2 73.648L98.24 119.536C98.624 120.88 99.008 121.552 99.872 121.552C100.736 121.552 101.12 120.88 101.312 119.536L111.68 65.68H121.472L110.048 121.936C108.896 127.6 105.632 131.152 100.352 131.152C95.264 131.152 91.712 128.08 90.272 122.224L79.136 75.76C78.944 74.896 78.656 74.512 78.176 74.512C77.792 74.512 77.408 74.896 77.216 75.76L66.368 122.8C65.12 128.176 61.376 131.248 56.768 131.248C51.776 131.248 48.032 128.176 46.784 122.512ZM150.523 131.152C136.315 131.152 125.371 120.016 125.371 106.384C125.371 92.848 136.411 81.808 150.523 81.808C164.731 81.808 175.483 92.944 175.483 106.384C175.483 120.016 164.635 131.152 150.523 131.152ZM150.523 122.128C159.259 122.128 165.979 115.024 165.979 106.48C165.979 97.84 159.259 90.736 150.523 90.736C141.691 90.736 134.875 97.84 134.875 106.48C134.875 115.024 141.691 122.128 150.523 122.128ZM195.601 130H186.097V101.968C186.097 90.544 192.625 82 204.913 82C207.889 82 210.961 82.576 213.361 83.728V93.136C211.057 91.792 208.369 91.12 205.777 91.12C199.441 91.12 195.601 95.44 195.601 102.352V130ZM230.334 130H220.83V61.264H230.334V102.544H236.094C236.574 101.392 237.342 100.336 238.302 99.376L253.374 82.96H264.99L244.734 105.04C244.158 105.52 243.87 105.904 243.87 106.384C243.87 106.864 244.158 107.248 244.734 107.728L264.894 130H253.182L238.206 113.584C237.246 112.432 236.478 111.28 235.998 110.032H230.334V130ZM291.118 131.056C282.382 131.056 275.662 127.6 272.014 120.592L279.31 116.56C281.71 121.264 285.55 122.992 290.734 122.992C296.11 122.992 300.238 120.784 300.238 116.656C300.238 106.768 273.262 114.256 273.262 96.304C273.262 88.048 280.558 82 290.83 82C299.566 82 305.518 86.032 308.494 91.504L301.198 95.632C299.182 91.504 295.342 90.064 291.022 90.064C286.606 90.064 282.766 92.368 282.766 96.112C282.766 105.712 309.742 98.704 309.742 116.464C309.742 125.392 301.102 131.056 291.118 131.056ZM332.615 130H323.111V61.36H332.615V88.24C336.263 84.304 341.927 81.808 348.263 81.808C362.087 81.808 369.863 91.024 369.863 105.424V130H360.359V106.384C360.359 98.032 355.751 90.832 346.823 90.832C338.471 90.832 332.615 97.552 332.615 106.672V130ZM405.617 131.152C391.409 131.152 380.465 120.016 380.465 106.384C380.465 92.848 391.505 81.808 405.617 81.808C419.825 81.808 430.577 92.944 430.577 106.384C430.577 120.016 419.729 131.152 405.617 131.152ZM405.617 122.128C414.353 122.128 421.073 115.024 421.073 106.48C421.073 97.84 414.353 90.736 405.617 90.736C396.785 90.736 389.969 97.84 389.969 106.48C389.969 115.024 396.785 122.128 405.617 122.128ZM450.695 151.6H441.191V106.384C441.191 92.368 452.039 81.808 466.247 81.808C480.455 81.808 491.207 92.944 491.207 106.384C491.207 120.592 480.935 131.152 466.631 131.152C460.295 131.152 454.535 128.368 450.695 124.144V151.6ZM466.247 122.224C474.983 122.224 481.703 115.024 481.703 106.48C481.703 97.84 474.983 90.832 466.247 90.832C457.415 90.832 450.695 97.84 450.695 106.48C450.695 115.024 457.415 122.224 466.247 122.224Z" fill="black"/>
<path d="M524.874 68.6449C517.528 84.9428 514.643 100.504 513.041 117.407C512.889 118.969 516.786 119.184 516.974 117.626C518.973 100.848 522.194 85.6243 529.746 69.8087C530.206 68.8475 529.468 67.7996 528.122 67.4781C526.78 67.1566 525.312 67.6741 524.874 68.6449Z" fill="black"/>
<path d="M547.16 54.6777C537.18 69.5869 528.555 85.2323 521.831 101.27C517.147 112.45 514.06 123.939 512.029 135.389C511.475 138.52 518.919 139.453 519.872 136.37C523.289 125.334 527.709 114.421 532.277 103.53C538.83 87.9003 547.08 72.57 556.675 57.934C559.158 54.1505 549.683 50.907 547.16 54.6777Z" fill="black"/>
<path d="M565.411 84.4735C563.643 81.4871 561.876 78.4976 560.1 75.5113C559.85 75.0933 559.223 74.7976 558.57 74.7944C557.922 74.7815 557.277 75.0611 556.969 75.5369C551.176 84.3963 546.013 93.3779 541.482 102.52C537.33 110.901 534.154 119.512 531.116 128.188C530.857 128.931 532.584 129.323 532.964 128.607C537.375 120.248 541.897 112.003 546.018 103.68C550.518 94.5994 555.068 85.5407 560.114 76.5206C559.071 76.527 558.029 76.5367 556.982 76.5431C558.995 79.4523 561.013 82.3582 563.031 85.2642C563.674 86.1964 565.978 85.4346 565.411 84.4735Z" fill="black"/>
<path d="M593.714 65.8263C593.714 62.4253 593.714 59.0275 593.714 55.6265C593.714 54.7521 591.514 54.7521 591.514 55.6265C591.514 59.0275 591.514 62.4253 591.514 65.8263C591.514 66.7007 593.714 66.7007 593.714 65.8263Z" fill="black"/>
<path d="M589.435 87.4988C588.858 84.2649 588.285 81.0342 587.686 77.8067C587.592 77.3085 586.872 76.8392 586.067 76.8263C585.261 76.791 584.488 77.2121 584.277 77.8936C581.311 87.4569 578.408 96.7341 575.876 105.992C572.467 118.474 569.233 130.908 564.612 143.693C564.178 144.904 566.992 145.554 567.618 144.387C574.266 131.975 579.513 119.644 582.975 106.995C585.543 97.6118 586.854 88.0452 587.704 78.244C586.572 78.2729 585.436 78.3019 584.3 78.3308C585.592 81.4489 586.907 84.567 588.228 87.6819C588.424 88.1545 589.52 87.9842 589.435 87.4988Z" fill="black"/>
<path d="M583.195 64.5771C576.856 73.9154 570.916 83.2922 566.227 92.9906C560.099 105.666 555.902 118.778 553.268 132.273C553.035 133.465 555.849 133.855 556.247 132.684C560.743 119.559 566.63 107.087 572.669 94.6011C577.29 85.0474 581.88 75.4166 586.895 65.7182C587.673 64.2202 584.17 63.1401 583.195 64.5771Z" fill="black"/>
<path d="M599.28 94.8054C595.196 103.199 591.107 111.589 587.023 119.982C585.591 122.92 592.982 124.788 594.422 121.85C598.538 113.466 602.653 105.082 606.774 96.6987C607.503 95.2104 606.412 93.5838 604.345 93.0598C602.273 92.5391 600.005 93.3202 599.28 94.8054Z" fill="black"/>
<path fill-rule="evenodd" clip-rule="evenodd" d="M251.508 150.008C257.455 149.93 262.903 150.436 264.115 151.179L271.352 155.606C271.668 155.583 271.993 155.562 272.328 155.542C275.922 155.332 280.114 155.368 283.456 155.637L283.774 155.662L286.161 154.488C287.389 153.885 291.462 153.444 296.352 153.386C301.239 153.327 305.896 153.662 307.995 154.225L309.131 154.53C311.112 154.322 313.625 154.198 316.305 154.19C320.965 154.176 325.242 154.516 327.18 155.054L335.325 157.313L351.696 152.329C353.594 151.752 358.151 151.388 363.076 151.421C368.002 151.454 372.232 151.876 373.64 152.476L382.073 156.068L384.681 155.641C386.522 155.34 389.178 155.145 392.069 155.087V153.507C392.069 152.815 395.843 152.216 401.157 152.064C406.472 151.911 411.911 152.246 414.256 152.87L435.861 158.613C438.635 159.351 436.169 160.234 430.354 160.585C424.542 160.937 417.581 160.624 414.808 159.887L414.524 159.811C413.105 160.25 410.062 160.588 406.233 160.695C400.883 160.844 395.436 160.501 393.141 159.87L391.352 159.378L386.596 160.156C383.918 160.594 379.531 160.806 375.235 160.704C370.937 160.602 367.449 160.204 366.202 159.672L360.632 157.301L346.584 161.576C344.801 162.119 340.653 162.476 336.018 162.486C331.383 162.496 327.14 162.157 325.212 161.622L316.358 159.166C314.439 159.356 312.058 159.469 309.522 159.479C305.836 159.493 302.376 159.285 300.12 158.932C298.873 159.127 297.24 159.281 295.349 159.376C292.378 159.525 289.081 159.512 286.216 159.345L282.355 162.771C281.554 163.482 276.838 164.017 271.174 164.04C265.513 164.062 260.543 163.565 259.391 162.862L257.663 161.805C257.012 161.844 256.323 161.875 255.606 161.899C250.454 162.067 245.055 161.772 242.485 161.181L225.833 157.353L203.36 161.328C201.077 161.732 197.347 161.964 193.431 161.944C189.516 161.925 185.938 161.658 183.908 161.233L177.185 159.826L174.164 162.252C173.374 162.886 169.446 163.383 164.443 163.482C159.441 163.581 154.505 163.259 152.228 162.686L129.315 156.915L116.978 163.511C115.705 164.191 110.847 164.666 105.333 164.648C99.8194 164.63 95.1583 164.125 94.1611 163.437L89.6099 160.297L82.1717 163.457C80.6143 164.119 75.6528 164.556 70.2193 164.51C64.7858 164.464 60.3268 163.947 59.4773 163.265L57.9123 162.008L55.2342 164.706C54.4297 165.516 48.5972 166.09 42.2068 165.988C35.8164 165.886 31.2881 165.147 32.0926 164.336L45.0385 151.294C45.7639 150.564 50.619 150.012 56.4263 150C62.2336 149.989 67.2227 150.521 68.1288 151.248L74.5078 156.372L81.1346 153.556C82.6766 152.901 87.5579 152.465 92.9408 152.502C98.3236 152.539 102.805 153.039 103.78 153.712L107.079 155.988L114.001 152.286C115.132 151.682 119.123 151.231 123.99 151.159C128.856 151.086 133.561 151.408 135.765 151.963L156.774 157.254L159.12 155.37C159.884 154.757 163.587 154.27 168.391 154.15C173.195 154.03 178.077 154.304 180.614 154.835L194.701 157.784L217.642 153.726C219.974 153.313 223.811 153.081 227.806 153.111C231.802 153.141 235.397 153.429 237.331 153.873L241.035 154.724V151.479C241.035 150.721 245.558 150.085 251.508 150.008Z" fill="black"/>
<path d="M36.872 181.92V195.744H44.864V198H36.68C35.048 198 34.424 197.16 34.424 195.792V181.92H36.872ZM52.5359 198.264C48.9599 198.264 46.2959 195.672 46.2959 192.048C46.2959 188.664 48.7199 185.904 52.2479 185.904C55.7999 185.904 58.0079 188.472 58.0079 191.76V192.72H48.5999C48.8639 194.736 50.3999 196.152 52.5119 196.152C53.9519 196.152 55.2479 195.528 55.9439 194.232L57.7679 195.168C56.7359 197.184 54.8399 198.264 52.5359 198.264ZM48.6959 191.184H55.6319C55.5359 189.312 54.1679 188.04 52.2239 188.04C50.2319 188.04 48.9359 189.432 48.6959 191.184ZM66.0046 198.288C62.5966 198.288 60.1006 195.504 60.1006 192.096C60.1006 188.736 62.7886 185.952 66.3646 185.952C69.9166 185.952 72.6286 188.592 72.6286 192.096V198H70.3726V195.936C69.4846 197.376 67.9246 198.288 66.0046 198.288ZM66.3646 196.032C68.5726 196.032 70.2526 194.256 70.2526 192.12C70.2526 189.96 68.5726 188.184 66.3646 188.184C64.1806 188.184 62.4766 189.96 62.4766 192.12C62.4766 194.256 64.1806 196.032 66.3646 196.032ZM78.4081 198H76.0321V190.992C76.0321 188.136 77.6641 186 80.7361 186C81.4801 186 82.2481 186.144 82.8481 186.432V188.784C82.2721 188.448 81.6001 188.28 80.9521 188.28C79.3681 188.28 78.4081 189.36 78.4081 191.088V198ZM90.3016 188.232C87.9976 188.232 86.8456 190.128 86.8456 192.312V198H84.4696V192.072C84.4696 188.64 86.5096 185.952 90.3016 185.952C94.1416 185.952 96.2296 188.64 96.2296 192.048V198H93.8536V192.336C93.8536 190.128 92.6536 188.232 90.3016 188.232ZM101.41 198.216C100.546 198.216 99.8497 197.52 99.8497 196.656C99.8497 195.792 100.546 195.12 101.41 195.12C102.274 195.12 102.97 195.792 102.97 196.656C102.97 197.52 102.274 198.216 101.41 198.216ZM124.382 181.92V184.176H119.438V198H116.99V184.176H112.07V181.92H124.382ZM128.072 198H125.696V190.992C125.696 188.136 127.328 186 130.4 186C131.144 186 131.912 186.144 132.512 186.432V188.784C131.936 188.448 131.264 188.28 130.616 188.28C129.032 188.28 128.072 189.36 128.072 191.088V198ZM140.002 203.712C137.506 203.712 135.442 202.656 134.386 200.568L136.354 199.488C137.026 200.76 138.346 201.504 139.954 201.504C142.45 201.504 143.746 199.632 143.746 197.088V196.056C143.05 197.376 141.802 198.168 140.026 198.168C136.426 198.168 134.674 195.792 134.674 192.336V186.24H137.026V192.216C137.026 194.424 138.178 195.936 140.314 195.936C142.378 195.936 143.722 194.208 143.722 192.048V186.24H146.122V197.064C146.122 201 143.818 203.712 140.002 203.712ZM151.566 198.216C150.702 198.216 150.006 197.52 150.006 196.656C150.006 195.792 150.702 195.12 151.566 195.12C152.43 195.12 153.126 195.792 153.126 196.656C153.126 197.52 152.43 198.216 151.566 198.216ZM166.715 198H164.315V181.92H169.907C173.315 181.92 175.979 183.48 175.979 186.792C175.979 189.072 174.587 190.728 172.331 191.208C173.627 191.832 174.323 193.152 175.259 195.048L176.723 198H174.083L172.739 195.288C171.779 193.392 170.987 192.144 168.731 192.144H166.739L166.715 198ZM169.931 184.176H166.763L166.739 189.96H169.883C171.947 189.96 173.459 188.952 173.459 187.008C173.459 185.016 171.875 184.176 169.931 184.176ZM184.044 198.264C180.468 198.264 177.804 195.672 177.804 192.048C177.804 188.664 180.228 185.904 183.756 185.904C187.308 185.904 189.516 188.472 189.516 191.76V192.72H180.108C180.372 194.736 181.908 196.152 184.02 196.152C185.46 196.152 186.756 195.528 187.452 194.232L189.276 195.168C188.244 197.184 186.348 198.264 184.044 198.264ZM180.204 191.184H187.14C187.044 189.312 185.676 188.04 183.732 188.04C181.74 188.04 180.444 189.432 180.204 191.184ZM194.728 203.4H192.352V192.096C192.352 188.592 195.064 185.952 198.616 185.952C202.168 185.952 204.856 188.736 204.856 192.096C204.856 195.648 202.288 198.288 198.712 198.288C197.128 198.288 195.688 197.592 194.728 196.536V203.4ZM198.616 196.056C200.8 196.056 202.48 194.256 202.48 192.12C202.48 189.96 200.8 188.208 198.616 188.208C196.408 188.208 194.728 189.96 194.728 192.12C194.728 194.256 196.408 196.056 198.616 196.056ZM213.036 198.264C209.46 198.264 206.796 195.672 206.796 192.048C206.796 188.664 209.22 185.904 212.748 185.904C216.3 185.904 218.508 188.472 218.508 191.76V192.72H209.1C209.364 194.736 210.9 196.152 213.012 196.152C214.452 196.152 215.748 195.528 216.444 194.232L218.268 195.168C217.236 197.184 215.34 198.264 213.036 198.264ZM209.196 191.184H216.132C216.036 189.312 214.668 188.04 212.724 188.04C210.732 188.04 209.436 189.432 209.196 191.184ZM226.505 198.288C223.097 198.288 220.601 195.504 220.601 192.096C220.601 188.736 223.289 185.952 226.865 185.952C230.417 185.952 233.129 188.592 233.129 192.096V198H230.873V195.936C229.985 197.376 228.425 198.288 226.505 198.288ZM226.865 196.032C229.073 196.032 230.753 194.256 230.753 192.12C230.753 189.96 229.073 188.184 226.865 188.184C224.681 188.184 222.977 189.96 222.977 192.12C222.977 194.256 224.681 196.032 226.865 196.032ZM241.884 198.312C238.956 198.312 237.396 196.464 237.396 193.776V188.304H235.068V186.24H237.396V183.192H239.772V186.24H244.284V188.304H239.772V193.704C239.772 195.24 240.684 196.152 242.1 196.152C242.868 196.152 243.708 195.864 244.284 195.456V197.64C243.684 198.048 242.748 198.312 241.884 198.312ZM249.113 198.216C248.249 198.216 247.553 197.52 247.553 196.656C247.553 195.792 248.249 195.12 249.113 195.12C249.977 195.12 250.673 195.792 250.673 196.656C250.673 197.52 249.977 198.216 249.113 198.216Z" fill="black"/>
<path d="M223.781 363L227.075 352.398C227.435 351.264 228.317 350.724 229.325 350.724C230.351 350.724 231.233 351.264 231.593 352.398L234.887 363H233.015L232.133 360.048L226.517 360.066L225.635 363H223.781ZM228.659 352.938L227.021 358.392H231.647L230.027 352.938C229.901 352.56 229.685 352.38 229.343 352.38C228.983 352.38 228.767 352.56 228.659 352.938ZM244.096 363H242.314V350.13H244.096V355.17C244.78 354.432 245.842 353.964 247.03 353.964C249.622 353.964 251.08 355.692 251.08 358.392V363H249.298V358.572C249.298 357.006 248.434 355.656 246.76 355.656C245.194 355.656 244.096 356.916 244.096 358.626V363ZM257.496 363.216C254.94 363.216 253.068 361.128 253.068 358.572C253.068 356.052 255.084 353.964 257.766 353.964C260.43 353.964 262.464 355.944 262.464 358.572V363H260.772V361.452C260.106 362.532 258.936 363.216 257.496 363.216ZM257.766 361.524C259.422 361.524 260.682 360.192 260.682 358.59C260.682 356.97 259.422 355.638 257.766 355.638C256.128 355.638 254.85 356.97 254.85 358.59C254.85 360.192 256.128 361.524 257.766 361.524ZM269.39 355.674C267.662 355.674 266.798 357.096 266.798 358.734V363H265.016V358.554C265.016 355.98 266.546 353.964 269.39 353.964C272.27 353.964 273.836 355.98 273.836 358.536V363H272.054V358.752C272.054 357.096 271.154 355.674 269.39 355.674ZM280.529 363.216C277.847 363.216 275.831 361.146 275.831 358.608C275.831 355.926 277.775 353.964 280.439 353.964C281.627 353.964 282.707 354.486 283.427 355.278L283.445 350.13H285.227V358.608C285.227 361.218 283.193 363.216 280.529 363.216ZM280.529 361.542C282.185 361.542 283.445 360.21 283.445 358.59C283.445 356.988 282.185 355.656 280.529 355.656C278.891 355.656 277.613 356.988 277.613 358.59C277.613 360.21 278.891 361.542 280.529 361.542ZM290.948 363.198C289.31 363.198 288.05 362.55 287.366 361.236L288.734 360.48C289.184 361.362 289.904 361.686 290.876 361.686C291.884 361.686 292.658 361.272 292.658 360.498C292.658 358.644 287.6 360.048 287.6 356.682C287.6 355.134 288.968 354 290.894 354C292.532 354 293.648 354.756 294.206 355.782L292.838 356.556C292.46 355.782 291.74 355.512 290.93 355.512C290.102 355.512 289.382 355.944 289.382 356.646C289.382 358.446 294.44 357.132 294.44 360.462C294.44 362.136 292.82 363.198 290.948 363.198ZM303.517 356.628V358.248H297.289V356.628H303.517ZM310.94 363.216C308.276 363.216 306.224 361.128 306.224 358.572C306.224 356.034 308.294 353.964 310.94 353.964C313.604 353.964 315.62 356.052 315.62 358.572C315.62 361.128 313.586 363.216 310.94 363.216ZM310.94 361.524C312.578 361.524 313.838 360.192 313.838 358.59C313.838 356.97 312.578 355.638 310.94 355.638C309.284 355.638 308.006 356.97 308.006 358.59C308.006 360.192 309.284 361.524 310.94 361.524ZM321.984 355.674C320.256 355.674 319.392 357.096 319.392 358.734V363H317.61V358.554C317.61 355.98 319.14 353.964 321.984 353.964C324.864 353.964 326.43 355.98 326.43 358.536V363H324.648V358.752C324.648 357.096 323.748 355.674 321.984 355.674ZM337.284 363.198C335.646 363.198 334.386 362.55 333.702 361.236L335.07 360.48C335.52 361.362 336.24 361.686 337.212 361.686C338.22 361.686 338.994 361.272 338.994 360.498C338.994 358.644 333.936 360.048 333.936 356.682C333.936 355.134 335.304 354 337.23 354C338.868 354 339.984 354.756 340.542 355.782L339.174 356.556C338.796 355.782 338.076 355.512 337.266 355.512C336.438 355.512 335.718 355.944 335.718 356.646C335.718 358.446 340.776 357.132 340.776 360.462C340.776 362.136 339.156 363.198 337.284 363.198ZM347.045 363.198C344.363 363.198 342.365 361.254 342.365 358.536C342.365 355.998 344.183 353.928 346.829 353.928C349.493 353.928 351.149 355.854 351.149 358.32V359.04H344.093C344.291 360.552 345.443 361.614 347.027 361.614C348.107 361.614 349.079 361.146 349.601 360.174L350.969 360.876C350.195 362.388 348.773 363.198 347.045 363.198ZM344.165 357.888H349.367C349.295 356.484 348.269 355.53 346.811 355.53C345.317 355.53 344.345 356.574 344.165 357.888ZM356.444 363.198C354.806 363.198 353.546 362.55 352.862 361.236L354.23 360.48C354.68 361.362 355.4 361.686 356.372 361.686C357.38 361.686 358.154 361.272 358.154 360.498C358.154 358.644 353.096 360.048 353.096 356.682C353.096 355.134 354.464 354 356.39 354C358.028 354 359.144 354.756 359.702 355.782L358.334 356.556C357.956 355.782 357.236 355.512 356.426 355.512C355.598 355.512 354.878 355.944 354.878 356.646C354.878 358.446 359.936 357.132 359.936 360.462C359.936 362.136 358.316 363.198 356.444 363.198ZM365.251 363.198C363.613 363.198 362.353 362.55 361.669 361.236L363.037 360.48C363.487 361.362 364.207 361.686 365.179 361.686C366.187 361.686 366.961 361.272 366.961 360.498C366.961 358.644 361.903 360.048 361.903 356.682C361.903 355.134 363.271 354 365.197 354C366.835 354 367.951 354.756 368.509 355.782L367.141 356.556C366.763 355.782 366.043 355.512 365.233 355.512C364.405 355.512 363.685 355.944 363.685 356.646C363.685 358.446 368.743 357.132 368.743 360.462C368.743 362.136 367.123 363.198 365.251 363.198ZM372.131 352.434C371.483 352.434 370.961 351.912 370.961 351.264C370.961 350.616 371.483 350.076 372.131 350.076C372.779 350.076 373.283 350.616 373.283 351.264C373.283 351.912 372.779 352.434 372.131 352.434ZM371.249 354.18H373.031V363H371.249V354.18ZM380.092 363.216C377.428 363.216 375.376 361.128 375.376 358.572C375.376 356.034 377.446 353.964 380.092 353.964C382.756 353.964 384.772 356.052 384.772 358.572C384.772 361.128 382.738 363.216 380.092 363.216ZM380.092 361.524C381.73 361.524 382.99 360.192 382.99 358.59C382.99 356.97 381.73 355.638 380.092 355.638C378.436 355.638 377.158 356.97 377.158 358.59C377.158 360.192 378.436 361.524 380.092 361.524ZM391.136 355.674C389.408 355.674 388.544 357.096 388.544 358.734V363H386.762V358.554C386.762 355.98 388.292 353.964 391.136 353.964C394.016 353.964 395.582 355.98 395.582 358.536V363H393.8V358.752C393.8 357.096 392.9 355.674 391.136 355.674ZM406.058 363.234C405.176 363.234 404.42 362.694 404.168 361.614L402.44 354.18H404.114L405.734 361.272C405.788 361.488 405.86 361.596 406.058 361.596C406.202 361.596 406.31 361.47 406.346 361.308L407.786 355.566C408.056 354.486 408.668 353.964 409.604 353.964C410.54 353.964 411.134 354.468 411.404 355.548L412.826 361.308C412.88 361.488 412.97 361.596 413.15 361.596C413.312 361.596 413.402 361.488 413.456 361.272L415.022 354.18H416.678L415.004 361.614C414.752 362.694 414.014 363.234 413.132 363.234C412.214 363.234 411.602 362.694 411.35 361.632L409.91 355.8C409.856 355.62 409.766 355.512 409.586 355.512C409.424 355.512 409.334 355.62 409.298 355.8L407.84 361.632C407.588 362.694 406.976 363.234 406.058 363.234ZM419.645 352.434C418.997 352.434 418.475 351.912 418.475 351.264C418.475 350.616 418.997 350.076 419.645 350.076C420.293 350.076 420.797 350.616 420.797 351.264C420.797 351.912 420.293 352.434 419.645 352.434ZM418.763 354.18H420.545V363H418.763V354.18ZM427.462 363.234C425.266 363.234 424.096 361.848 424.096 359.832V355.728H422.35V354.18H424.096V351.894H425.878V354.18H429.262V355.728H425.878V359.778C425.878 360.93 426.562 361.614 427.624 361.614C428.2 361.614 428.83 361.398 429.262 361.092V362.73C428.812 363.036 428.11 363.234 427.462 363.234ZM433.693 363H431.911V350.13H433.693V355.17C434.377 354.432 435.439 353.964 436.627 353.964C439.219 353.964 440.677 355.692 440.677 358.392V363H438.895V358.572C438.895 357.006 438.031 355.656 436.357 355.656C434.791 355.656 433.693 356.916 433.693 358.626V363ZM450.138 363H448.356V357.744C448.356 355.602 449.58 354 451.884 354C452.442 354 453.018 354.108 453.468 354.324V356.088C453.036 355.836 452.532 355.71 452.046 355.71C450.858 355.71 450.138 356.52 450.138 357.816V363ZM458.894 363.198C456.212 363.198 454.214 361.254 454.214 358.536C454.214 355.998 456.032 353.928 458.678 353.928C461.342 353.928 462.998 355.854 462.998 358.32V359.04H455.942C456.14 360.552 457.292 361.614 458.876 361.614C459.956 361.614 460.928 361.146 461.45 360.174L462.818 360.876C462.044 362.388 460.622 363.198 458.894 363.198ZM456.014 357.888H461.216C461.144 356.484 460.118 355.53 458.66 355.53C457.166 355.53 456.194 356.574 456.014 357.888ZM468.996 363.216C466.44 363.216 464.568 361.128 464.568 358.572C464.568 356.052 466.584 353.964 469.266 353.964C471.93 353.964 473.964 355.944 473.964 358.572V363H472.272V361.452C471.606 362.532 470.436 363.216 468.996 363.216ZM469.266 361.524C470.922 361.524 472.182 360.192 472.182 358.59C472.182 356.97 470.922 355.638 469.266 355.638C467.628 355.638 466.35 356.97 466.35 358.59C466.35 360.192 467.628 361.524 469.266 361.524ZM476.876 350.13H478.658V363H476.876V350.13ZM490.708 363.234C488.512 363.234 487.342 361.848 487.342 359.832V355.728H485.596V354.18H487.342V351.894H489.124V354.18H492.508V355.728H489.124V359.778C489.124 360.93 489.808 361.614 490.87 361.614C491.446 361.614 492.076 361.398 492.508 361.092V362.73C492.058 363.036 491.356 363.234 490.708 363.234ZM498.492 363.216C495.936 363.216 494.064 361.128 494.064 358.572C494.064 356.052 496.08 353.964 498.762 353.964C501.426 353.964 503.46 355.944 503.46 358.572V363H501.768V361.452C501.102 362.532 499.932 363.216 498.492 363.216ZM498.762 361.524C500.418 361.524 501.678 360.192 501.678 358.59C501.678 356.97 500.418 355.638 498.762 355.638C497.124 355.638 495.846 356.97 495.846 358.59C495.846 360.192 497.124 361.524 498.762 361.524ZM508.154 363H506.372V350.112H508.154V357.852H509.234C509.324 357.636 509.468 357.438 509.648 357.258L512.474 354.18H514.652L510.854 358.32C510.746 358.41 510.692 358.482 510.692 358.572C510.692 358.662 510.746 358.734 510.854 358.824L514.634 363H512.438L509.63 359.922C509.45 359.706 509.306 359.49 509.216 359.256H508.154V363ZM519.961 363.198C517.279 363.198 515.281 361.254 515.281 358.536C515.281 355.998 517.099 353.928 519.745 353.928C522.409 353.928 524.065 355.854 524.065 358.32V359.04H517.009C517.207 360.552 518.359 361.614 519.943 361.614C521.023 361.614 521.995 361.146 522.517 360.174L523.885 360.876C523.111 362.388 521.689 363.198 519.961 363.198ZM517.081 357.888H522.283C522.211 356.484 521.185 355.53 519.727 355.53C518.233 355.53 517.261 356.574 517.081 357.888ZM530.062 363.216C527.506 363.216 525.634 361.128 525.634 358.572C525.634 356.052 527.65 353.964 530.332 353.964C532.996 353.964 535.03 355.944 535.03 358.572V363H533.338V361.452C532.672 362.532 531.502 363.216 530.062 363.216ZM530.332 361.524C531.988 361.524 533.248 360.192 533.248 358.59C533.248 356.97 531.988 355.638 530.332 355.638C528.694 355.638 527.416 356.97 527.416 358.59C527.416 360.192 528.694 361.524 530.332 361.524ZM540.197 363.234C539.315 363.234 538.559 362.694 538.307 361.614L536.579 354.18H538.253L539.873 361.272C539.927 361.488 539.999 361.596 540.197 361.596C540.341 361.596 540.449 361.47 540.485 361.308L541.925 355.566C542.195 354.486 542.807 353.964 543.743 353.964C544.679 353.964 545.273 354.468 545.543 355.548L546.965 361.308C547.019 361.488 547.109 361.596 547.289 361.596C547.451 361.596 547.541 361.488 547.595 361.272L549.161 354.18H550.817L549.143 361.614C548.891 362.694 548.153 363.234 547.271 363.234C546.353 363.234 545.741 362.694 545.489 361.632L544.049 355.8C543.995 355.62 543.905 355.512 543.725 355.512C543.563 355.512 543.473 355.62 543.437 355.8L541.979 361.632C541.727 362.694 541.115 363.234 540.197 363.234ZM556.289 363.216C553.733 363.216 551.861 361.128 551.861 358.572C551.861 356.052 553.877 353.964 556.559 353.964C559.223 353.964 561.257 355.944 561.257 358.572V363H559.565V361.452C558.899 362.532 557.729 363.216 556.289 363.216ZM556.559 361.524C558.215 361.524 559.475 360.192 559.475 358.59C559.475 356.97 558.215 355.638 556.559 355.638C554.921 355.638 553.643 356.97 553.643 358.59C553.643 360.192 554.921 361.524 556.559 361.524ZM567.841 367.284C565.969 367.284 564.421 366.492 563.629 364.926L565.105 364.116C565.609 365.07 566.599 365.628 567.805 365.628C569.677 365.628 570.649 364.224 570.649 362.316V361.542C570.127 362.532 569.191 363.126 567.859 363.126C565.159 363.126 563.845 361.344 563.845 358.752V354.18H565.609V358.662C565.609 360.318 566.473 361.452 568.075 361.452C569.623 361.452 570.631 360.156 570.631 358.536V354.18H572.431V362.298C572.431 365.25 570.703 367.284 567.841 367.284ZM578.35 363.198C576.712 363.198 575.452 362.55 574.768 361.236L576.136 360.48C576.586 361.362 577.306 361.686 578.278 361.686C579.286 361.686 580.06 361.272 580.06 360.498C580.06 358.644 575.002 360.048 575.002 356.682C575.002 355.134 576.37 354 578.296 354C579.934 354 581.05 354.756 581.608 355.782L580.24 356.556C579.862 355.782 579.142 355.512 578.332 355.512C577.504 355.512 576.784 355.944 576.784 356.646C576.784 358.446 581.842 357.132 581.842 360.462C581.842 362.136 580.222 363.198 578.35 363.198Z" fill="black"/>
</g>
<defs>
<filter id="filter0_i_1753_20717" x="0" y="0" width="800" height="474" filterUnits="userSpaceOnUse" color-interpolation-filters="sRGB">
<feFlood flood-opacity="0" result="BackgroundImageFix"/>
<feBlend mode="normal" in="SourceGraphic" in2="BackgroundImageFix" result="shape"/>
<feColorMatrix in="SourceAlpha" type="matrix" values="0 0 0 0 0 0 0 0 0 0 0 0 0 0 0 0 0 0 127 0" result="hardAlpha"/>
<feMorphology radius="8" operator="erode" in="SourceAlpha" result="effect1_innerShadow_1753_20717"/>
<feOffset dy="24"/>
<feGaussianBlur stdDeviation="30"/>
<feComposite in2="hardAlpha" operator="arithmetic" k2="-1" k3="1"/>
<feColorMatrix type="matrix" values="0 0 0 0 1 0 0 0 0 0.494118 0 0 0 0 0.611765 0 0 0 1 0"/>
<feBlend mode="normal" in2="shape" result="effect1_innerShadow_1753_20717"/>
</filter>
<linearGradient id="paint0_linear_1753_20717" x1="400" y1="0" x2="400" y2="450" gradientUnits="userSpaceOnUse">
<stop stop-color="white"/>
<stop offset="1" stop-color="#EFEFEF"/>
</linearGradient>
</defs>
</svg>
