<svg width="800" height="450" viewBox="0 0 800 450" fill="none" xmlns="http://www.w3.org/2000/svg">
<g filter="url(#filter0_i_4248_69192)">
<g clip-path="url(#clip0_4248_69192)">
<rect width="800" height="450" rx="48" fill="url(#paint0_linear_4248_69192)"/>
<g opacity="0.1">
<path d="M650.717 229.95C661.593 198.371 672.443 166.768 683.173 135.14C684.27 131.848 682.539 127.849 679.296 126.459C676.102 124.898 671.956 126.191 669.982 129.507C643.28 174.717 617.31 220.488 592.704 267.015C556.054 336.318 523.914 407.984 493.018 479.849C492.238 481.676 495.287 483.165 496.238 481.433C534.108 413.008 573.075 345.072 609.628 275.964C634.184 229.559 658.326 182.96 682.589 136.506C678.175 134.628 673.785 132.751 669.396 130.873C660.349 163.013 651.473 195.225 642.573 227.438C641.327 231.974 649.204 234.412 650.717 229.95Z" fill="black"/>
<path d="M448.74 325.198C498.315 297.911 539.818 288.767 583.37 287.694C626.848 286.645 672.497 294.107 728.315 300.52C732.778 301.057 736.775 297.789 737.312 293.351C737.849 288.913 734.728 284.792 730.265 284.256C674.96 277.379 628.897 269.259 583.028 269.868C537.208 270.429 491.731 280.11 439.547 308.275C434.865 310.812 433.158 316.688 435.694 321.345C438.23 326.028 444.082 327.759 448.74 325.198Z" fill="black"/>
</g>
<g opacity="0.1">
<path d="M198.717 229.95C209.593 198.371 220.443 166.768 231.173 135.14C232.27 131.848 230.539 127.849 227.296 126.459C224.102 124.898 219.956 126.191 217.982 129.507C191.28 174.717 165.31 220.488 140.704 267.015C104.054 336.318 71.9139 407.984 41.018 479.849C40.2377 481.676 43.2867 483.165 44.2377 481.433C82.1076 413.008 121.075 345.072 157.628 275.964C182.184 229.559 206.326 182.96 230.589 136.506C226.175 134.628 221.785 132.751 217.396 130.873C208.349 163.013 199.473 195.225 190.573 227.438C189.327 231.974 197.204 234.412 198.717 229.95Z" fill="black"/>
<path d="M-3.26018 325.198C46.3147 297.911 87.818 288.767 131.37 287.694C174.848 286.645 220.497 294.107 276.315 300.52C280.778 301.057 284.775 297.789 285.312 293.351C285.849 288.913 282.728 284.792 278.265 284.256C222.96 277.379 176.897 269.259 131.028 269.868C85.2084 270.429 39.7308 280.11 -12.4533 308.275C-17.1352 310.812 -18.8424 316.688 -16.3064 321.345C-13.7704 326.028 -7.91773 327.759 -3.26018 325.198Z" fill="black"/>
</g>
<g opacity="0.1">
<path d="M472.717 133.95C483.593 102.371 494.443 70.7678 505.173 39.1402C506.27 35.8483 504.539 31.8491 501.296 30.4591C498.102 28.8985 493.956 30.1908 491.982 33.5073C465.28 78.7171 439.31 124.488 414.704 171.015C378.054 240.318 345.914 311.984 315.018 383.849C314.238 385.676 317.287 387.165 318.238 385.433C356.108 317.008 395.075 249.072 431.628 179.964C456.184 133.559 480.326 86.9596 504.589 40.506C500.175 38.6284 495.785 36.7506 491.396 34.8729C482.349 67.0125 473.473 99.2253 464.573 131.438C463.327 135.974 471.204 138.412 472.717 133.95Z" fill="black"/>
<path d="M270.74 229.198C320.315 201.911 361.818 192.767 405.37 191.694C448.848 190.645 494.497 198.107 550.315 204.52C554.778 205.057 558.775 201.789 559.312 197.351C559.849 192.913 556.728 188.792 552.265 188.256C496.96 181.379 450.897 173.259 405.028 173.868C359.208 174.429 313.731 184.11 261.547 212.275C256.865 214.812 255.158 220.688 257.694 225.345C260.23 230.028 266.082 231.759 270.74 229.198Z" fill="black"/>
</g>
<g opacity="0.1">
<path d="M696.717 37.9488C707.593 6.37017 718.443 -25.2332 729.173 -56.8607C730.27 -60.1527 728.539 -64.1519 725.296 -65.5418C722.102 -67.1025 717.956 -65.8101 715.982 -62.4936C689.28 -17.2839 663.31 28.4874 638.704 75.014C602.054 144.317 569.914 215.983 539.018 287.848C538.238 289.675 541.287 291.164 542.238 289.432C580.108 221.007 619.075 153.071 655.628 83.9632C680.184 37.5583 704.326 -9.04136 728.589 -55.4949C724.175 -57.3726 719.785 -59.2504 715.396 -61.128C706.349 -28.9885 697.473 3.22435 688.573 35.4372C687.327 39.9728 695.204 42.4113 696.717 37.9488Z" fill="black"/>
<path d="M494.74 133.198C544.315 105.911 585.818 96.7668 629.37 95.6938C672.848 94.6452 718.497 102.107 774.315 108.52C778.778 109.057 782.775 105.789 783.312 101.351C783.849 96.9133 780.728 92.7922 776.265 92.2558C720.96 85.3792 674.897 77.2587 629.028 77.8683C583.208 78.429 537.731 88.11 485.547 116.275C480.865 118.812 479.158 124.688 481.694 129.345C484.23 134.028 490.082 135.759 494.74 133.198Z" fill="black"/>
</g>
<g opacity="0.1">
<path d="M320.717 271.95C331.593 240.371 342.443 208.768 353.173 177.14C354.27 173.848 352.539 169.849 349.296 168.459C346.102 166.898 341.956 168.191 339.982 171.507C313.28 216.717 287.31 262.488 262.704 309.015C226.054 378.318 193.914 449.984 163.018 521.849C162.238 523.676 165.287 525.165 166.238 523.433C204.108 455.008 243.075 387.072 279.628 317.964C304.184 271.559 328.326 224.96 352.589 178.506C348.175 176.628 343.785 174.751 339.396 172.873C330.349 205.013 321.473 237.225 312.573 269.438C311.327 273.974 319.204 276.412 320.717 271.95Z" fill="black"/>
<path d="M118.74 367.198C168.315 339.911 209.818 330.767 253.37 329.694C296.848 328.645 342.497 336.107 398.315 342.52C402.778 343.057 406.775 339.789 407.312 335.351C407.849 330.913 404.728 326.792 400.265 326.256C344.96 319.379 298.897 311.259 253.028 311.868C207.208 312.429 161.731 322.11 109.547 350.275C104.865 352.812 103.158 358.688 105.694 363.345C108.23 368.028 114.082 369.759 118.74 367.198Z" fill="black"/>
</g>
<path d="M60.896 131.056C50.048 131.056 40.928 126.16 37.088 117.328L45.344 113.296C47.84 118.864 53.312 121.84 60.896 121.84C68.384 121.84 74.144 118.288 74.144 111.952C74.144 104.848 67.616 103.6 60.032 102.16C50.336 100.24 38.336 97.072 38.336 83.44C38.336 72.784 48.032 64.72 60.224 64.72C70.016 64.72 78.752 69.328 82.592 78.16L74.432 82.384C71.84 77.104 66.944 73.84 59.84 73.84C53.312 73.84 48.032 77.68 48.032 83.152C48.032 90.064 54.848 91.6 62.624 93.136C72.224 95.056 83.936 98.224 83.936 111.856C83.936 123.184 73.856 131.056 60.896 131.056ZM117.436 121.936C126.172 121.936 130.972 114.352 130.972 105.616V82.96H140.476V106.768C140.476 120.4 132.22 131.152 117.436 131.152C102.844 131.152 94.5883 120.304 94.5883 106.672V82.96H104.092V105.712C104.092 114.352 108.796 121.936 117.436 121.936ZM212.122 81.616C226.33 81.616 234.01 92.176 234.01 105.232V130H224.506V106.768C224.506 98.224 220.282 90.736 211.45 90.736C202.906 90.736 198.586 97.936 198.586 106.576V130H189.082V106.576C189.082 97.936 184.762 90.736 176.026 90.736C167.194 90.736 163.258 98.224 163.258 106.768V130H153.754V105.328C153.754 92.176 161.242 81.616 175.354 81.616C184.762 81.616 191.578 86.416 193.978 93.712C196.57 86.416 203.194 81.616 212.122 81.616ZM305.965 81.616C320.173 81.616 327.853 92.176 327.853 105.232V130H318.349V106.768C318.349 98.224 314.125 90.736 305.293 90.736C296.749 90.736 292.429 97.936 292.429 106.576V130H282.925V106.576C282.925 97.936 278.605 90.736 269.869 90.736C261.037 90.736 257.101 98.224 257.101 106.768V130H247.597V105.328C247.597 92.176 255.085 81.616 269.197 81.616C278.605 81.616 285.421 86.416 287.821 93.712C290.413 86.416 297.037 81.616 305.965 81.616ZM348.065 73.648C344.609 73.648 341.825 70.864 341.825 67.408C341.825 63.952 344.609 61.072 348.065 61.072C351.521 61.072 354.209 63.952 354.209 67.408C354.209 70.864 351.521 73.648 348.065 73.648ZM343.361 82.96H352.865V130H343.361V82.96ZM389.755 131.248C378.043 131.248 371.803 123.856 371.803 113.104V91.216H362.491V82.96H371.803V70.768H381.307V82.96H399.355V91.216H381.307V112.816C381.307 118.96 384.955 122.608 390.619 122.608C393.691 122.608 397.051 121.456 399.355 119.824V128.56C396.955 130.192 393.211 131.248 389.755 131.248Z" fill="black"/>
<path fill-rule="evenodd" clip-rule="evenodd" d="M237.416 150.008C242.982 149.93 248.079 150.436 249.214 151.179L255.986 155.606C256.282 155.583 256.586 155.562 256.899 155.542C260.263 155.332 264.186 155.368 267.313 155.637L267.61 155.662L269.845 154.488C270.994 153.885 274.805 153.444 279.381 153.386C283.955 153.327 288.312 153.662 290.277 154.225L291.34 154.53C293.194 154.322 295.545 154.198 298.053 154.19C302.414 154.176 306.417 154.516 308.23 155.054L315.852 157.313L331.173 152.329C332.948 151.752 337.213 151.388 341.822 151.421C346.432 151.454 350.39 151.876 351.708 152.476L359.599 156.068L362.04 155.641C363.762 155.34 366.248 155.145 368.953 155.087V153.507C368.953 152.815 372.485 152.216 377.458 152.064C382.432 151.911 387.522 152.246 389.716 152.87L409.934 158.613C412.53 159.351 410.222 160.234 404.781 160.585C399.342 160.937 392.828 160.624 390.232 159.887L389.966 159.811C388.639 160.25 385.792 160.588 382.208 160.695C377.202 160.844 372.104 160.501 369.957 159.87L368.282 159.378L363.832 160.156C361.326 160.594 357.22 160.806 353.2 160.704C349.178 160.602 345.914 160.204 344.747 159.672L339.534 157.301L326.388 161.576C324.72 162.119 320.838 162.476 316.501 162.486C312.163 162.496 308.193 162.157 306.389 161.622L298.103 159.166C296.307 159.356 294.079 159.469 291.705 159.479C288.257 159.493 285.018 159.285 282.907 158.932C281.74 159.127 280.212 159.281 278.442 159.376C275.663 159.525 272.577 159.512 269.896 159.345L266.283 162.771C265.533 163.482 261.12 164.017 255.82 164.04C250.522 164.062 245.871 163.565 244.793 162.862L243.176 161.805C242.567 161.844 241.922 161.875 241.251 161.899C236.43 162.067 231.378 161.772 228.973 161.181L213.389 157.353L192.359 161.328C190.223 161.732 186.732 161.964 183.068 161.944C179.404 161.925 176.056 161.658 174.156 161.233L167.864 159.826L165.037 162.252C164.298 162.886 160.623 163.383 155.941 163.482C151.259 163.581 146.641 163.259 144.51 162.686L123.068 156.915L111.523 163.511C110.332 164.191 105.785 164.666 100.625 164.648C95.4655 164.63 91.1037 164.125 90.1705 163.437L85.9114 160.297L78.9508 163.457C77.4934 164.119 72.8504 164.556 67.7657 164.51C62.681 164.464 58.5083 163.947 57.7134 163.265L56.2488 162.008L53.7426 164.706C52.9898 165.516 47.5317 166.09 41.5515 165.988C35.5714 165.886 31.3338 165.147 32.0866 164.336L44.2015 151.294C44.8803 150.564 49.4237 150.012 54.8582 150C60.2927 149.989 64.9615 150.521 65.8094 151.248L71.7789 156.372L77.9803 153.556C79.4233 152.901 83.9913 152.465 89.0285 152.502C94.0658 152.539 98.2594 153.039 99.1715 153.712L102.259 155.988L108.737 152.286C109.796 151.682 113.53 151.231 118.084 151.159C122.639 151.086 127.041 151.408 129.103 151.963L148.764 157.254L150.959 155.37C151.674 154.757 155.139 154.27 159.635 154.15C164.131 154.03 168.699 154.304 171.073 154.835L184.256 157.784L205.724 153.726C207.906 153.313 211.497 153.081 215.236 153.111C218.975 153.141 222.339 153.429 224.149 153.873L227.615 154.724V151.479C227.615 150.721 231.848 150.085 237.416 150.008Z" fill="black"/>
<path d="M34.424 181.92H36.872V198H34.424V181.92ZM46.4896 198.288C42.9136 198.288 40.2256 195.528 40.2256 192.144C40.2256 188.568 42.8176 185.952 46.3696 185.952C47.9536 185.952 49.3936 186.648 50.3536 187.704L50.3776 180.84H52.7536V192.144C52.7536 195.624 50.0416 198.288 46.4896 198.288ZM46.4896 196.056C48.6976 196.056 50.3776 194.28 50.3776 192.12C50.3776 189.984 48.6976 188.208 46.4896 188.208C44.3056 188.208 42.6016 189.984 42.6016 192.12C42.6016 194.28 44.3056 196.056 46.4896 196.056ZM61.6531 198.264C58.0771 198.264 55.4131 195.672 55.4131 192.048C55.4131 188.664 57.8371 185.904 61.3651 185.904C64.9171 185.904 67.1251 188.472 67.1251 191.76V192.72H57.7171C57.9811 194.736 59.5171 196.152 61.6291 196.152C63.0691 196.152 64.3651 195.528 65.0611 194.232L66.8851 195.168C65.8531 197.184 63.9571 198.264 61.6531 198.264ZM57.8131 191.184H64.7491C64.6531 189.312 63.2851 188.04 61.3411 188.04C59.3491 188.04 58.0531 189.432 57.8131 191.184ZM75.1218 198.288C71.7138 198.288 69.2178 195.504 69.2178 192.096C69.2178 188.736 71.9058 185.952 75.4818 185.952C79.0338 185.952 81.7458 188.592 81.7458 192.096V198H79.4898V195.936C78.6018 197.376 77.0418 198.288 75.1218 198.288ZM75.4818 196.032C77.6898 196.032 79.3698 194.256 79.3698 192.12C79.3698 189.96 77.6898 188.184 75.4818 188.184C73.2978 188.184 71.5938 189.96 71.5938 192.12C71.5938 194.256 73.2978 196.032 75.4818 196.032ZM89.3733 198.264C87.1893 198.264 85.5093 197.4 84.5973 195.648L86.4213 194.64C87.0213 195.816 87.9813 196.248 89.2773 196.248C90.6213 196.248 91.6533 195.696 91.6533 194.664C91.6533 192.192 84.9093 194.064 84.9093 189.576C84.9093 187.512 86.7333 186 89.3013 186C91.4853 186 92.9733 187.008 93.7173 188.376L91.8933 189.408C91.3893 188.376 90.4293 188.016 89.3493 188.016C88.2453 188.016 87.2853 188.592 87.2853 189.528C87.2853 191.928 94.0293 190.176 94.0293 194.616C94.0293 196.848 91.8693 198.264 89.3733 198.264ZM98.6675 198.216C97.8035 198.216 97.1075 197.52 97.1075 196.656C97.1075 195.792 97.8035 195.12 98.6675 195.12C99.5315 195.12 100.228 195.792 100.228 196.656C100.228 197.52 99.5315 198.216 98.6675 198.216ZM113.864 181.92V195.744H121.856V198H113.672C112.04 198 111.416 197.16 111.416 195.792V181.92H113.864ZM129.528 198.264C125.952 198.264 123.288 195.672 123.288 192.048C123.288 188.664 125.712 185.904 129.24 185.904C132.792 185.904 135 188.472 135 191.76V192.72H125.592C125.856 194.736 127.392 196.152 129.504 196.152C130.944 196.152 132.24 195.528 132.936 194.232L134.76 195.168C133.728 197.184 131.832 198.264 129.528 198.264ZM125.688 191.184H132.624C132.528 189.312 131.16 188.04 129.216 188.04C127.224 188.04 125.928 189.432 125.688 191.184ZM142.997 198.288C139.589 198.288 137.093 195.504 137.093 192.096C137.093 188.736 139.781 185.952 143.357 185.952C146.909 185.952 149.621 188.592 149.621 192.096V198H147.365V195.936C146.477 197.376 144.917 198.288 142.997 198.288ZM143.357 196.032C145.565 196.032 147.245 194.256 147.245 192.12C147.245 189.96 145.565 188.184 143.357 188.184C141.173 188.184 139.469 189.96 139.469 192.12C139.469 194.256 141.173 196.032 143.357 196.032ZM158.544 198.288C154.968 198.288 152.28 195.528 152.28 192.144C152.28 188.568 154.872 185.952 158.424 185.952C160.008 185.952 161.448 186.648 162.408 187.704L162.432 180.84H164.808V192.144C164.808 195.624 162.096 198.288 158.544 198.288ZM158.544 196.056C160.752 196.056 162.432 194.28 162.432 192.12C162.432 189.984 160.752 188.208 158.544 188.208C156.36 188.208 154.656 189.984 154.656 192.12C154.656 194.28 156.36 196.056 158.544 196.056ZM173.708 198.264C170.132 198.264 167.468 195.672 167.468 192.048C167.468 188.664 169.892 185.904 173.42 185.904C176.972 185.904 179.18 188.472 179.18 191.76V192.72H169.772C170.036 194.736 171.572 196.152 173.684 196.152C175.124 196.152 176.42 195.528 177.116 194.232L178.94 195.168C177.908 197.184 176.012 198.264 173.708 198.264ZM169.868 191.184H176.804C176.708 189.312 175.34 188.04 173.396 188.04C171.404 188.04 170.108 189.432 169.868 191.184ZM184.393 198H182.017V190.992C182.017 188.136 183.649 186 186.721 186C187.465 186 188.233 186.144 188.833 186.432V188.784C188.257 188.448 187.585 188.28 186.937 188.28C185.353 188.28 184.393 189.36 184.393 191.088V198ZM194.912 198.264C192.728 198.264 191.048 197.4 190.136 195.648L191.96 194.64C192.56 195.816 193.52 196.248 194.816 196.248C196.16 196.248 197.192 195.696 197.192 194.664C197.192 192.192 190.448 194.064 190.448 189.576C190.448 187.512 192.272 186 194.84 186C197.024 186 198.512 187.008 199.256 188.376L197.432 189.408C196.928 188.376 195.968 188.016 194.888 188.016C193.784 188.016 192.824 188.592 192.824 189.528C192.824 191.928 199.568 190.176 199.568 194.616C199.568 196.848 197.408 198.264 194.912 198.264ZM204.207 198.216C203.343 198.216 202.647 197.52 202.647 196.656C202.647 195.792 203.343 195.12 204.207 195.12C205.071 195.12 205.767 195.792 205.767 196.656C205.767 197.52 205.071 198.216 204.207 198.216ZM216.955 181.92H219.403V198H216.955V181.92ZM238.093 185.904C241.645 185.904 243.565 188.544 243.565 191.808V198H241.189V192.192C241.189 190.056 240.133 188.184 237.925 188.184C235.789 188.184 234.709 189.984 234.709 192.144V198H232.333V192.144C232.333 189.984 231.253 188.184 229.069 188.184C226.861 188.184 225.877 190.056 225.877 192.192V198H223.501V191.832C223.501 188.544 225.373 185.904 228.901 185.904C231.253 185.904 232.957 187.104 233.557 188.928C234.205 187.104 235.861 185.904 238.093 185.904ZM249.338 203.4H246.962V192.096C246.962 188.592 249.674 185.952 253.226 185.952C256.778 185.952 259.466 188.736 259.466 192.096C259.466 195.648 256.898 198.288 253.322 198.288C251.738 198.288 250.298 197.592 249.338 196.536V203.4ZM253.226 196.056C255.41 196.056 257.09 194.256 257.09 192.12C257.09 189.96 255.41 188.208 253.226 188.208C251.018 188.208 249.338 189.96 249.338 192.12C249.338 194.256 251.018 196.056 253.226 196.056ZM267.309 198.288C263.901 198.288 261.405 195.504 261.405 192.096C261.405 188.736 264.093 185.952 267.669 185.952C271.221 185.952 273.933 188.592 273.933 192.096V198H271.677V195.936C270.789 197.376 269.229 198.288 267.309 198.288ZM267.669 196.032C269.877 196.032 271.557 194.256 271.557 192.12C271.557 189.96 269.877 188.184 267.669 188.184C265.485 188.184 263.781 189.96 263.781 192.12C263.781 194.256 265.485 196.032 267.669 196.032ZM282.737 198.264C279.353 198.312 276.593 195.504 276.593 192.096C276.593 188.712 279.353 185.928 282.737 185.952C284.897 185.952 286.889 186.936 287.969 189.048L286.001 190.152C285.305 188.88 284.129 188.208 282.737 188.208C280.673 188.208 278.969 189.96 278.969 192.096C278.969 194.256 280.673 196.032 282.737 196.032C284.129 196.032 285.305 195.36 286.001 194.088L287.969 195.168C286.889 197.304 284.897 198.264 282.737 198.264ZM295.743 198.312C292.816 198.312 291.256 196.464 291.256 193.776V188.304H288.928V186.24H291.256V183.192H293.632V186.24H298.144V188.304H293.632V193.704C293.632 195.24 294.544 196.152 295.96 196.152C296.728 196.152 297.568 195.864 298.144 195.456V197.64C297.544 198.048 296.608 198.312 295.743 198.312ZM302.972 198.216C302.108 198.216 301.412 197.52 301.412 196.656C301.412 195.792 302.108 195.12 302.972 195.12C303.836 195.12 304.532 195.792 304.532 196.656C304.532 197.52 303.836 198.216 302.972 198.216Z" fill="black"/>
<path d="M192.772 361.596L190.45 350.94H192.286L194.392 361.038C194.446 361.308 194.536 361.434 194.68 361.434C194.824 361.434 194.932 361.326 194.986 361.038L196.984 352.452C197.218 351.336 197.83 350.832 198.658 350.832C199.504 350.832 200.098 351.318 200.35 352.434L202.42 361.038C202.492 361.29 202.564 361.416 202.726 361.416C202.888 361.416 202.96 361.29 202.996 361.038L204.94 350.94H206.776L204.634 361.488C204.418 362.55 203.806 363.216 202.816 363.216C201.862 363.216 201.196 362.64 200.926 361.542L198.838 352.83C198.802 352.668 198.748 352.596 198.658 352.596C198.586 352.596 198.514 352.668 198.478 352.83L196.444 361.65C196.21 362.658 195.508 363.234 194.644 363.234C193.708 363.234 193.006 362.658 192.772 361.596ZM210.664 363H208.882V350.13H210.664V355.17C211.348 354.432 212.41 353.964 213.598 353.964C216.19 353.964 217.648 355.692 217.648 358.392V363H215.866V358.572C215.866 357.006 215.002 355.656 213.328 355.656C211.762 355.656 210.664 356.916 210.664 358.626V363ZM224.316 363.198C221.634 363.198 219.636 361.254 219.636 358.536C219.636 355.998 221.454 353.928 224.1 353.928C226.764 353.928 228.42 355.854 228.42 358.32V359.04H221.364C221.562 360.552 222.714 361.614 224.298 361.614C225.378 361.614 226.35 361.146 226.872 360.174L228.24 360.876C227.466 362.388 226.044 363.198 224.316 363.198ZM221.436 357.888H226.638C226.566 356.484 225.54 355.53 224.082 355.53C222.588 355.53 221.616 356.574 221.436 357.888ZM232.33 363H230.548V357.744C230.548 355.602 231.772 354 234.076 354C234.634 354 235.21 354.108 235.66 354.324V356.088C235.228 355.836 234.724 355.71 234.238 355.71C233.05 355.71 232.33 356.52 232.33 357.816V363ZM241.086 363.198C238.404 363.198 236.406 361.254 236.406 358.536C236.406 355.998 238.224 353.928 240.87 353.928C243.534 353.928 245.19 355.854 245.19 358.32V359.04H238.134C238.332 360.552 239.484 361.614 241.068 361.614C242.148 361.614 243.12 361.146 243.642 360.174L245.01 360.876C244.236 362.388 242.814 363.198 241.086 363.198ZM238.206 357.888H243.408C243.336 356.484 242.31 355.53 240.852 355.53C239.358 355.53 238.386 356.574 238.206 357.888ZM252.81 350.13H254.592V363H252.81V350.13ZM261.617 363.198C258.935 363.198 256.937 361.254 256.937 358.536C256.937 355.998 258.755 353.928 261.401 353.928C264.065 353.928 265.721 355.854 265.721 358.32V359.04H258.665C258.863 360.552 260.015 361.614 261.599 361.614C262.679 361.614 263.651 361.146 264.173 360.174L265.541 360.876C264.767 362.388 263.345 363.198 261.617 363.198ZM258.737 357.888H263.939C263.867 356.484 262.841 355.53 261.383 355.53C259.889 355.53 258.917 356.574 258.737 357.888ZM271.718 363.216C269.162 363.216 267.29 361.128 267.29 358.572C267.29 356.052 269.306 353.964 271.988 353.964C274.652 353.964 276.686 355.944 276.686 358.572V363H274.994V361.452C274.328 362.532 273.158 363.216 271.718 363.216ZM271.988 361.524C273.644 361.524 274.904 360.192 274.904 358.59C274.904 356.97 273.644 355.638 271.988 355.638C270.35 355.638 269.072 356.97 269.072 358.59C269.072 360.192 270.35 361.524 271.988 361.524ZM283.379 363.216C280.697 363.216 278.681 361.146 278.681 358.608C278.681 355.926 280.625 353.964 283.289 353.964C284.477 353.964 285.557 354.486 286.277 355.278L286.295 350.13H288.077V358.608C288.077 361.218 286.043 363.216 283.379 363.216ZM283.379 361.542C285.035 361.542 286.295 360.21 286.295 358.59C286.295 356.988 285.035 355.656 283.379 355.656C281.741 355.656 280.463 356.988 280.463 358.59C280.463 360.21 281.741 361.542 283.379 361.542ZM294.752 363.198C292.07 363.198 290.072 361.254 290.072 358.536C290.072 355.998 291.89 353.928 294.536 353.928C297.2 353.928 298.856 355.854 298.856 358.32V359.04H291.8C291.998 360.552 293.15 361.614 294.734 361.614C295.814 361.614 296.786 361.146 297.308 360.174L298.676 360.876C297.902 362.388 296.48 363.198 294.752 363.198ZM291.872 357.888H297.074C297.002 356.484 295.976 355.53 294.518 355.53C293.024 355.53 292.052 356.574 291.872 357.888ZM302.765 363H300.983V357.744C300.983 355.602 302.207 354 304.511 354C305.069 354 305.645 354.108 306.095 354.324V356.088C305.663 355.836 305.159 355.71 304.673 355.71C303.485 355.71 302.765 356.52 302.765 357.816V363ZM310.655 363.198C309.017 363.198 307.757 362.55 307.073 361.236L308.441 360.48C308.891 361.362 309.611 361.686 310.583 361.686C311.591 361.686 312.365 361.272 312.365 360.498C312.365 358.644 307.307 360.048 307.307 356.682C307.307 355.134 308.675 354 310.601 354C312.239 354 313.355 354.756 313.913 355.782L312.545 356.556C312.167 355.782 311.447 355.512 310.637 355.512C309.809 355.512 309.089 355.944 309.089 356.646C309.089 358.446 314.147 357.132 314.147 360.462C314.147 362.136 312.527 363.198 310.655 363.198ZM332.37 353.928C335.034 353.928 336.474 355.908 336.474 358.356V363H334.692V358.644C334.692 357.042 333.9 355.638 332.244 355.638C330.642 355.638 329.832 356.988 329.832 358.608V363H328.05V358.608C328.05 356.988 327.24 355.638 325.602 355.638C323.946 355.638 323.208 357.042 323.208 358.644V363H321.426V358.374C321.426 355.908 322.83 353.928 325.476 353.928C327.24 353.928 328.518 354.828 328.968 356.196C329.454 354.828 330.696 353.928 332.37 353.928ZM343.144 363.198C340.462 363.198 338.464 361.254 338.464 358.536C338.464 355.998 340.282 353.928 342.928 353.928C345.592 353.928 347.248 355.854 347.248 358.32V359.04H340.192C340.39 360.552 341.542 361.614 343.126 361.614C344.206 361.614 345.178 361.146 345.7 360.174L347.068 360.876C346.294 362.388 344.872 363.198 343.144 363.198ZM340.264 357.888H345.466C345.394 356.484 344.368 355.53 342.91 355.53C341.416 355.53 340.444 356.574 340.264 357.888ZM353.498 363.198C350.816 363.198 348.818 361.254 348.818 358.536C348.818 355.998 350.636 353.928 353.282 353.928C355.946 353.928 357.602 355.854 357.602 358.32V359.04H350.546C350.744 360.552 351.896 361.614 353.48 361.614C354.56 361.614 355.532 361.146 356.054 360.174L357.422 360.876C356.648 362.388 355.226 363.198 353.498 363.198ZM350.618 357.888H355.82C355.748 356.484 354.722 355.53 353.264 355.53C351.77 355.53 350.798 356.574 350.618 357.888ZM363.743 363.234C361.547 363.234 360.377 361.848 360.377 359.832V355.728H358.631V354.18H360.377V351.894H362.159V354.18H365.543V355.728H362.159V359.778C362.159 360.93 362.843 361.614 363.905 361.614C364.481 361.614 365.111 361.398 365.543 361.092V362.73C365.093 363.036 364.391 363.234 363.743 363.234ZM378.582 352.452C377.556 352.452 376.836 353.208 376.836 354.108C376.836 354.936 377.412 355.782 378.456 356.826L381.21 359.544C381.786 358.752 382.218 357.78 382.452 356.736L384 357.402C383.658 358.626 383.1 359.76 382.362 360.678L384.72 363H382.236L381.138 361.902C380.076 362.73 378.78 363.216 377.25 363.216C374.568 363.216 372.858 361.704 372.858 359.598C372.858 358.05 373.866 356.754 375.63 356.142C375.198 355.458 374.91 354.72 374.91 353.928C374.91 352.11 376.35 350.724 378.384 350.724C380.202 350.724 381.498 351.66 382.182 353.172L380.742 354.018C380.31 353.064 379.536 352.452 378.582 352.452ZM374.766 359.526C374.766 360.732 375.846 361.614 377.448 361.614C378.384 361.614 379.248 361.308 379.986 360.768L376.979 357.78C376.836 357.636 376.692 357.492 376.566 357.348C375.504 357.654 374.766 358.482 374.766 359.526ZM403.128 356.916C403.128 360.696 400.302 363 396.576 363H392.49V350.94H396.666C400.536 350.94 403.128 353.334 403.128 356.916ZM401.238 356.916C401.238 354.36 399.366 352.632 396.666 352.632H394.326V361.326H396.576C399.204 361.326 401.238 359.67 401.238 356.916ZM409.449 363.198C406.767 363.198 404.769 361.254 404.769 358.536C404.769 355.998 406.587 353.928 409.233 353.928C411.897 353.928 413.553 355.854 413.553 358.32V359.04H406.497C406.695 360.552 407.847 361.614 409.431 361.614C410.511 361.614 411.483 361.146 412.005 360.174L413.373 360.876C412.599 362.388 411.177 363.198 409.449 363.198ZM406.569 357.888H411.771C411.699 356.484 410.673 355.53 409.215 355.53C407.721 355.53 406.749 356.574 406.569 357.888ZM419.73 363.198C417.192 363.234 415.122 361.128 415.122 358.572C415.122 356.034 417.192 353.946 419.73 353.964C421.35 353.964 422.844 354.702 423.654 356.286L422.178 357.114C421.656 356.16 420.774 355.656 419.73 355.656C418.182 355.656 416.904 356.97 416.904 358.572C416.904 360.192 418.182 361.524 419.73 361.524C420.774 361.524 421.656 361.02 422.178 360.066L423.654 360.876C422.844 362.478 421.35 363.198 419.73 363.198ZM426.713 352.434C426.065 352.434 425.543 351.912 425.543 351.264C425.543 350.616 426.065 350.076 426.713 350.076C427.361 350.076 427.865 350.616 427.865 351.264C427.865 351.912 427.361 352.434 426.713 352.434ZM425.831 354.18H427.613V363H425.831V354.18ZM433.684 363.198C432.046 363.198 430.786 362.55 430.102 361.236L431.47 360.48C431.92 361.362 432.64 361.686 433.612 361.686C434.62 361.686 435.394 361.272 435.394 360.498C435.394 358.644 430.336 360.048 430.336 356.682C430.336 355.134 431.704 354 433.63 354C435.268 354 436.384 354.756 436.942 355.782L435.574 356.556C435.196 355.782 434.476 355.512 433.666 355.512C432.838 355.512 432.118 355.944 432.118 356.646C432.118 358.446 437.176 357.132 437.176 360.462C437.176 362.136 435.556 363.198 433.684 363.198ZM440.565 352.434C439.917 352.434 439.395 351.912 439.395 351.264C439.395 350.616 439.917 350.076 440.565 350.076C441.213 350.076 441.717 350.616 441.717 351.264C441.717 351.912 441.213 352.434 440.565 352.434ZM439.683 354.18H441.465V363H439.683V354.18ZM448.526 363.216C445.862 363.216 443.81 361.128 443.81 358.572C443.81 356.034 445.88 353.964 448.526 353.964C451.19 353.964 453.206 356.052 453.206 358.572C453.206 361.128 451.172 363.216 448.526 363.216ZM448.526 361.524C450.164 361.524 451.424 360.192 451.424 358.59C451.424 356.97 450.164 355.638 448.526 355.638C446.87 355.638 445.592 356.97 445.592 358.59C445.592 360.192 446.87 361.524 448.526 361.524ZM459.57 355.674C457.842 355.674 456.978 357.096 456.978 358.734V363H455.196V358.554C455.196 355.98 456.726 353.964 459.57 353.964C462.45 353.964 464.016 355.98 464.016 358.536V363H462.234V358.752C462.234 357.096 461.334 355.674 459.57 355.674ZM469.737 363.198C468.099 363.198 466.839 362.55 466.155 361.236L467.523 360.48C467.973 361.362 468.693 361.686 469.665 361.686C470.673 361.686 471.447 361.272 471.447 360.498C471.447 358.644 466.389 360.048 466.389 356.682C466.389 355.134 467.757 354 469.683 354C471.321 354 472.437 354.756 472.995 355.782L471.627 356.556C471.249 355.782 470.529 355.512 469.719 355.512C468.891 355.512 468.171 355.944 468.171 356.646C468.171 358.446 473.229 357.132 473.229 360.462C473.229 362.136 471.609 363.198 469.737 363.198ZM484.522 363.234C482.326 363.234 481.156 361.848 481.156 359.832V355.728H479.41V354.18H481.156V351.894H482.938V354.18H486.322V355.728H482.938V359.778C482.938 360.93 483.622 361.614 484.684 361.614C485.26 361.614 485.89 361.398 486.322 361.092V362.73C485.872 363.036 485.17 363.234 484.522 363.234ZM492.306 363.216C489.75 363.216 487.878 361.128 487.878 358.572C487.878 356.052 489.894 353.964 492.576 353.964C495.24 353.964 497.274 355.944 497.274 358.572V363H495.582V361.452C494.916 362.532 493.746 363.216 492.306 363.216ZM492.576 361.524C494.232 361.524 495.492 360.192 495.492 358.59C495.492 356.97 494.232 355.638 492.576 355.638C490.938 355.638 489.66 356.97 489.66 358.59C489.66 360.192 490.938 361.524 492.576 361.524ZM501.969 363H500.187V350.112H501.969V357.852H503.049C503.139 357.636 503.283 357.438 503.463 357.258L506.289 354.18H508.467L504.669 358.32C504.561 358.41 504.507 358.482 504.507 358.572C504.507 358.662 504.561 358.734 504.669 358.824L508.449 363H506.253L503.445 359.922C503.265 359.706 503.121 359.49 503.031 359.256H501.969V363ZM513.775 363.198C511.093 363.198 509.095 361.254 509.095 358.536C509.095 355.998 510.913 353.928 513.559 353.928C516.223 353.928 517.879 355.854 517.879 358.32V359.04H510.823C511.021 360.552 512.173 361.614 513.757 361.614C514.837 361.614 515.809 361.146 516.331 360.174L517.699 360.876C516.925 362.388 515.503 363.198 513.775 363.198ZM510.895 357.888H516.097C516.025 356.484 514.999 355.53 513.541 355.53C512.047 355.53 511.075 356.574 510.895 357.888ZM528.307 363.198C526.669 363.198 525.409 362.55 524.725 361.236L526.093 360.48C526.543 361.362 527.263 361.686 528.235 361.686C529.243 361.686 530.017 361.272 530.017 360.498C530.017 358.644 524.959 360.048 524.959 356.682C524.959 355.134 526.327 354 528.253 354C529.891 354 531.007 354.756 531.565 355.782L530.197 356.556C529.819 355.782 529.099 355.512 528.289 355.512C527.461 355.512 526.741 355.944 526.741 356.646C526.741 358.446 531.799 357.132 531.799 360.462C531.799 362.136 530.179 363.198 528.307 363.198ZM536.088 363H534.306V350.13H536.088V355.17C536.772 354.432 537.834 353.964 539.022 353.964C541.614 353.964 543.072 355.692 543.072 358.392V363H541.29V358.572C541.29 357.006 540.426 355.656 538.752 355.656C537.186 355.656 536.088 356.916 536.088 358.626V363ZM549.488 363.216C546.932 363.216 545.06 361.128 545.06 358.572C545.06 356.052 547.076 353.964 549.758 353.964C552.422 353.964 554.456 355.944 554.456 358.572V363H552.764V361.452C552.098 362.532 550.928 363.216 549.488 363.216ZM549.758 361.524C551.414 361.524 552.674 360.192 552.674 358.59C552.674 356.97 551.414 355.638 549.758 355.638C548.12 355.638 546.842 356.97 546.842 358.59C546.842 360.192 548.12 361.524 549.758 361.524ZM558.79 367.05H557.008V358.572C557.008 355.944 559.042 353.964 561.706 353.964C564.37 353.964 566.386 356.052 566.386 358.572C566.386 361.236 564.46 363.216 561.778 363.216C560.59 363.216 559.51 362.694 558.79 361.902V367.05ZM561.706 361.542C563.344 361.542 564.604 360.192 564.604 358.59C564.604 356.97 563.344 355.656 561.706 355.656C560.05 355.656 558.79 356.97 558.79 358.59C558.79 360.192 560.05 361.542 561.706 361.542ZM572.521 363.198C569.839 363.198 567.841 361.254 567.841 358.536C567.841 355.998 569.659 353.928 572.305 353.928C574.969 353.928 576.625 355.854 576.625 358.32V359.04H569.569C569.767 360.552 570.919 361.614 572.503 361.614C573.583 361.614 574.555 361.146 575.077 360.174L576.445 360.876C575.671 362.388 574.249 363.198 572.521 363.198ZM569.641 357.888H574.843C574.771 356.484 573.745 355.53 572.287 355.53C570.793 355.53 569.821 356.574 569.641 357.888ZM579.909 363.162C579.261 363.162 578.739 362.64 578.739 361.992C578.739 361.344 579.261 360.84 579.909 360.84C580.557 360.84 581.079 361.344 581.079 361.992C581.079 362.64 580.557 363.162 579.909 363.162Z" fill="black"/>
<path d="M453.423 93.1941C449.483 99.1061 445.547 105.02 441.607 110.932C441.491 111.104 441.915 111.256 442.041 111.086C446.309 105.292 450.577 99.4962 454.846 93.7025C455.052 93.4245 454.884 93.08 454.491 92.9389C454.098 92.7998 453.612 92.9098 453.423 93.1941Z" fill="black"/>
<path d="M467.233 101.269C462.994 106.088 458.757 110.906 454.518 115.726C454.355 115.913 454.797 116.131 454.983 115.953C459.776 111.406 464.568 106.859 469.357 102.311C469.785 101.906 469.613 101.321 469.025 101.032C468.438 100.744 467.611 100.84 467.233 101.269Z" fill="black"/>
<path d="M474.673 104.944C472.077 108.772 469.479 112.603 466.881 116.431C466.453 117.064 468.024 117.627 468.478 117.002C471.213 113.221 473.951 109.441 476.689 105.662C476.974 105.268 476.742 104.782 476.186 104.583C475.63 104.386 474.946 104.543 474.673 104.944Z" fill="black"/>
<path d="M495.315 98.3944C493.709 101.769 492.1 105.143 490.491 108.517C490.042 109.461 492.417 110.05 492.885 109.11C494.561 105.753 496.234 102.395 497.91 99.0378C498.164 98.5293 497.782 97.969 497.064 97.7906C496.348 97.6141 495.559 97.8819 495.315 98.3944Z" fill="black"/>
<path d="M490.198 92.1075C493.186 95.1247 496.174 98.1439 499.166 101.161C499.567 101.568 500.585 101.082 500.216 100.663C497.458 97.5339 494.702 94.4067 491.944 91.2774C491.635 90.9288 490.972 90.8417 490.489 91.0699C490.009 91.3002 489.866 91.7693 490.198 92.1075Z" fill="black"/>
<path d="M478.404 88.1517C481.232 91.3017 484.063 94.4538 486.894 97.6038C487.228 97.9793 488.162 97.5852 487.866 97.195C485.361 93.906 482.855 90.619 480.35 87.33C480.05 86.9378 479.338 86.8195 478.802 87.0457C478.264 87.2718 478.066 87.7761 478.404 88.1517Z" fill="black"/>
<path d="M465.08 91.231C469.39 95.182 473.702 99.1309 478.014 103.082C478.654 103.671 480.149 102.841 479.509 102.252C475.2 98.3008 470.894 94.3479 466.585 90.3948C466.262 90.098 465.662 90.0461 465.246 90.2764C464.83 90.5068 464.757 90.9343 465.08 91.231Z" fill="black"/>
<path d="M456.411 95.7022C459.376 97.987 462.341 100.272 465.306 102.556C465.829 102.961 466.851 102.324 466.359 101.898C463.577 99.4997 460.796 97.1029 458.014 94.7041C457.639 94.3804 456.955 94.3555 456.513 94.6314C456.07 94.9074 456.012 95.3951 456.411 95.7022Z" fill="black"/>
<path d="M441.384 100.306C442.725 101.313 444.11 102.288 445.533 103.23C446.612 103.944 447.712 104.658 448.905 105.286C449.67 105.687 450.488 106.142 451.492 106.289C451.544 106.295 451.594 106.305 451.643 106.314C451.649 106.314 451.652 106.314 451.658 106.316C452.173 106.39 452.644 106.698 453.084 107.003C453.526 107.305 453.945 107.609 454.431 107.685C455.688 107.883 456.965 108.127 458.266 108.374C461.265 108.945 464.268 109.576 467.291 110.213C471.054 111.006 474.819 111.815 478.569 112.672C478.817 112.73 479.07 112.595 479.154 112.439C479.241 112.284 479.186 112.062 478.953 111.981C475.386 110.773 471.784 109.605 468.127 108.528C465.196 107.665 462.22 106.845 459.153 106.168C457.858 105.884 456.526 105.604 455.141 105.386C454.602 105.301 453.988 105.461 453.395 105.643C452.796 105.828 452.222 106.038 451.69 106.046C451.696 106.046 451.698 106.046 451.701 106.048C451.655 106.046 451.611 106.042 451.565 106.036C450.671 105.907 449.903 105.473 449.158 105.05C448.024 104.405 447.002 103.658 446.004 102.894C444.695 101.887 443.455 100.838 442.265 99.7605C442.065 99.58 441.683 99.5696 441.442 99.719C441.198 99.8704 441.16 100.14 441.384 100.306Z" fill="black"/>
<path d="M473.286 108.298C481.121 109.971 488.954 111.643 496.79 113.318C497.523 113.474 498.262 113.1 498.48 112.608C498.699 112.114 498.393 111.506 497.669 111.334C489.906 109.496 482.146 107.657 474.386 105.816C473.428 105.59 472.401 105.98 472.096 106.665C471.793 107.35 472.323 108.091 473.286 108.298Z" fill="black"/>
<path d="M480.98 96.2085C483.288 98.377 485.595 100.546 487.903 102.714C487.979 102.785 488.156 102.691 488.083 102.621C485.877 100.398 483.669 98.1757 481.464 95.9553C481.367 95.8578 481.178 95.8392 481.045 95.9097C480.911 95.9782 480.882 96.1131 480.98 96.2085Z" fill="black"/>
<path d="M504.618 82.9102C497.381 87.9962 490.145 93.0803 482.911 98.1643C482.821 98.2265 482.821 98.3282 482.911 98.3904C482.999 98.4548 483.141 98.4548 483.231 98.3904C490.36 93.2317 497.488 88.0709 504.618 82.9102Z" fill="black"/>
<path d="M473.351 84.783C467.864 89.0639 462.376 93.3429 456.888 97.6217C456.557 97.8791 457.2 98.3064 457.537 98.0533C463.132 93.8449 468.725 89.6367 474.32 85.4263C474.57 85.2375 474.553 84.9387 474.285 84.7602C474.017 84.5817 473.596 84.5921 473.351 84.783Z" fill="black"/>
<path d="M464.027 82.6084C460.672 86.0427 457.314 89.4791 453.959 92.9154C453.82 93.0565 454.163 93.2391 454.314 93.1021C457.934 89.8048 461.554 86.5095 465.176 83.2121C465.418 82.9922 465.342 82.6686 465.025 82.5005C464.708 82.3345 464.254 82.378 464.027 82.6084Z" fill="black"/>
<path d="M451.869 82.7115C449.082 85.8263 446.298 88.941 443.513 92.0578C443.402 92.1823 443.708 92.3276 443.827 92.2052C446.786 89.1755 449.748 86.1438 452.708 83.1121C452.868 82.9481 452.801 82.7219 452.568 82.6119C452.338 82.5019 452.018 82.5435 451.869 82.7115Z" fill="black"/>
<path d="M435.437 89.4861C435.309 91.6836 435.181 93.8831 435.053 96.0827C435.335 93.8914 435.617 91.7001 435.899 89.5067C435.911 89.4175 435.812 89.3387 435.684 89.3324C435.556 89.3262 435.443 89.3948 435.437 89.4861Z" fill="black"/>
<path d="M442.065 106.601C441.858 108.797 441.655 110.993 441.448 113.186C441.422 113.483 442.172 113.518 442.199 113.223C442.405 111.028 442.612 108.832 442.816 106.637C442.83 106.49 442.673 106.361 442.463 106.35C442.257 106.34 442.076 106.452 442.065 106.601Z" fill="black"/>
<path d="M494.109 111.637C492.687 113.915 491.264 116.194 489.841 118.472C491.7 116.36 493.562 114.248 495.422 112.137C495.643 111.888 495.48 111.556 495.116 111.417C494.752 111.28 494.275 111.369 494.109 111.637Z" fill="black"/>
<path d="M501.36 102.192C500.394 104.693 499.425 107.191 498.459 109.692C499.544 107.216 500.629 104.743 501.715 102.267C501.744 102.197 501.686 102.124 501.59 102.103C501.49 102.082 501.386 102.122 501.36 102.192Z" fill="black"/>
<path d="M497.086 90.8145C497.086 92.5701 497.086 94.3256 497.086 96.0832C497.086 96.1932 497.371 96.1932 497.371 96.0832C497.371 94.3256 497.371 92.5701 497.371 90.8145C497.371 90.7025 497.086 90.7025 497.086 90.8145Z" fill="black"/>
<path d="M490.175 85.4752C489.034 87.986 487.891 90.4949 486.75 93.0058C486.747 93.0161 486.768 93.0202 486.774 93.0119C488.095 90.5467 489.415 88.0815 490.736 85.6162C490.794 85.5062 490.71 85.3838 490.556 85.3444C490.399 85.3049 490.224 85.3631 490.175 85.4752Z" fill="black"/>
<path d="M483.148 102.142C482.956 103.043 482.758 103.942 482.505 104.832C482.164 106.029 481.839 107.231 481.129 108.337C481.129 108.339 481.126 108.341 481.126 108.343C481.126 108.343 481.129 108.341 481.129 108.339C480.922 108.588 480.291 108.669 480.096 108.922C476.412 113.651 472.88 118.44 469.344 123.23C469.237 123.375 469.589 123.514 469.705 123.375C473.595 118.727 477.486 114.079 481.169 109.347C481.365 109.094 481.129 108.669 481.315 108.411C481.317 108.409 481.317 108.407 481.317 108.407C481.321 108.405 481.321 108.401 481.323 108.399C482.039 107.28 482.511 106.092 483.052 104.936C483.456 104.066 483.84 103.19 484.219 102.317C484.309 102.109 484.103 101.896 483.805 101.848C483.512 101.8 483.194 101.929 483.148 102.142Z" fill="black"/>
<path d="M436.981 109.648C436.542 113.468 436.105 117.288 435.669 121.106C436.46 117.317 437.255 113.526 438.049 109.737C438.093 109.527 437.871 109.336 437.575 109.311C437.281 109.286 437.004 109.438 436.981 109.648Z" fill="black"/>
<path d="M425.229 99.5374C424.7 102.764 424.17 105.993 423.644 109.22C423.6 109.479 424.243 109.544 424.301 109.284C425.002 106.074 425.707 102.862 426.408 99.6514C426.457 99.4191 426.225 99.2053 425.899 99.1742C425.573 99.141 425.267 99.3029 425.229 99.5374Z" fill="black"/>
<path d="M500.492 106.425C498.141 109.255 495.788 112.085 493.437 114.916C493.37 114.995 493.562 115.08 493.632 115.005C496.204 112.274 498.779 109.543 501.351 106.811C501.505 106.646 501.43 106.418 501.191 106.312C500.955 106.207 500.635 106.252 500.492 106.425Z" fill="black"/>
<path d="M464.077 120.8C461.356 123.377 458.633 125.952 455.91 128.528C455.849 128.588 455.988 128.669 456.055 128.615C459.081 126.214 462.104 123.815 465.127 121.416C465.378 121.217 465.322 120.904 465.034 120.734C464.743 120.564 464.304 120.587 464.077 120.8Z" fill="black"/>
<path d="M440.397 123C443.743 125.3 447.086 127.597 450.432 129.894C450.444 129.902 450.462 129.888 450.453 129.879C447.229 127.495 444.008 125.109 440.787 122.724C440.682 122.645 440.505 122.648 440.397 122.724C440.289 122.801 440.289 122.926 440.397 123Z" fill="black"/>
<path d="M493.664 108.151C495.855 110.431 498.046 112.712 500.237 114.99C500.286 115.042 500.417 114.984 500.373 114.93C498.462 112.525 496.547 110.122 494.635 107.719C494.479 107.522 494.115 107.47 493.847 107.588C493.576 107.709 493.487 107.966 493.664 108.151Z" fill="black"/>
<path d="M477.519 123.049C476.87 125.135 476.221 127.218 475.575 129.302C475.395 129.881 476.745 130.157 477.021 129.597C478.014 127.584 479.009 125.569 480.001 123.556C480.24 123.077 479.8 122.558 479.116 122.417C478.43 122.278 477.673 122.554 477.519 123.049Z" fill="black"/>
<path d="M520.776 96.4305C519.65 99.6719 518.524 102.911 517.398 106.15C517.36 106.265 517.639 106.318 517.686 106.206C519.022 103.009 520.36 99.8088 521.695 96.6089C521.771 96.4305 521.614 96.2417 521.361 96.1939C521.107 96.1442 520.84 96.25 520.776 96.4305Z" fill="black"/>
<path d="M510.849 88.877C507.901 93.604 504.957 98.3311 502.009 103.058C501.939 103.172 502.219 103.266 502.297 103.154C505.506 98.5137 508.716 93.8759 511.925 89.2359C512.071 89.0264 511.937 88.7711 511.64 88.6715C511.34 88.5719 510.982 88.6612 510.849 88.877Z" fill="black"/>
<path d="M505.655 80.5506C503.193 82.0156 500.728 83.4785 498.267 84.9414C498.011 85.0929 498.395 85.4229 498.651 85.2714C501.113 83.8064 503.577 82.3434 506.039 80.8805C506.295 80.729 505.908 80.3991 505.655 80.5506Z" fill="black"/>
<path d="M485.925 79.3576C488.564 81.91 491.201 84.4602 493.837 87.0126C494.084 87.2512 494.68 86.9669 494.465 86.7138C492.175 83.9954 489.888 81.2791 487.601 78.5628C487.313 78.2225 486.667 78.1436 486.205 78.3636C485.742 78.5836 485.596 79.038 485.925 79.3576Z" fill="black"/>
<path d="M528.857 99.0363C526.934 102.444 525.007 105.849 523.084 109.254C525.263 105.928 527.443 102.601 529.622 99.275C529.721 99.1256 529.619 98.9492 529.407 98.8828C529.195 98.8164 528.944 98.8848 528.857 99.0363Z" fill="black"/>
<path d="M504.882 113.034C503.959 114.099 503.086 115.188 502.277 116.296C501.675 117.122 501.079 117.958 500.636 118.838C500.371 119.369 500.054 119.954 500.208 120.538C500.22 120.585 500.223 120.633 500.22 120.685C500.223 120.689 500.223 120.693 500.226 120.695C500.27 120.986 500.153 121.421 500.456 121.654C501.526 122.488 503.005 122.899 504.276 123.246C506.706 123.899 509.234 124.24 511.733 124.518C515.085 124.889 518.464 125.097 521.839 125.2C521.95 125.204 522.042 125.146 522.051 125.07C522.06 124.991 521.979 124.924 521.868 124.914C518.522 124.659 515.193 124.3 511.911 123.816C509.453 123.453 507.017 123.048 504.742 122.395C503.493 122.04 502.216 121.635 501.439 121.017C501.241 120.855 500.688 120.849 500.386 120.639C500.389 120.643 500.392 120.648 500.392 120.649C500.354 120.61 500.325 120.569 500.313 120.523C500.168 119.969 500.488 119.4 500.782 118.875C501.262 118.016 501.919 117.217 502.606 116.431C503.526 115.377 504.532 114.362 505.579 113.374C505.722 113.242 505.664 113.048 505.472 112.955C505.277 112.86 505.003 112.891 504.882 113.034Z" fill="black"/>
<path d="M529.557 112.305C529.409 113.772 529.263 115.239 529.114 116.706C529.106 116.804 529.345 116.82 529.362 116.725C529.627 115.266 529.889 113.805 530.154 112.347C530.174 112.23 530.049 112.125 529.883 112.112C529.72 112.102 529.569 112.187 529.557 112.305Z" fill="black"/>
<path d="M504.57 107.632C511.763 107.771 518.959 107.912 526.154 108.051C526.242 108.053 526.317 108.006 526.323 107.941C526.329 107.879 526.259 107.825 526.172 107.819C519.002 107.375 511.833 106.929 504.663 106.482C504.218 106.455 503.837 106.706 503.811 107.024C503.785 107.341 504.125 107.621 504.57 107.632Z" fill="black"/>
<path d="M509.369 102.061C514.118 102.522 518.869 102.982 523.617 103.443C523.873 103.468 524.11 103.341 524.153 103.163C524.197 102.985 524.037 102.808 523.784 102.769C519.093 102.059 514.405 101.349 509.715 100.64C509.168 100.557 508.639 100.835 508.546 101.227C508.45 101.619 508.813 102.007 509.369 102.061Z" fill="black"/>
<path d="M510.634 89.3509C518.271 89.8386 525.909 90.3262 533.55 90.8139C526.003 89.8386 518.458 88.8611 510.91 87.8859C510.349 87.8132 509.822 88.1142 509.744 88.5188C509.668 88.9235 510.064 89.3135 510.634 89.3509Z" fill="black"/>
<path d="M498.086 108.237C502.637 110.985 507.187 113.73 511.735 116.478C512.061 116.673 512.556 116.301 512.267 116.079C508.2 112.973 504.13 109.864 500.062 106.758C499.524 106.345 498.581 106.385 498.036 106.793C497.489 107.202 497.481 107.872 498.086 108.237Z" fill="black"/>
<path d="M516.697 96.4659C513.697 103.216 510.694 109.967 507.694 116.717C510.848 110.002 514.002 103.289 517.156 96.5738C517.2 96.4825 517.13 96.385 517.002 96.3559C516.874 96.3269 516.738 96.3767 516.697 96.4659Z" fill="black"/>
<path d="M466.52 96.4128C465.15 105.375 465.394 112.904 461.152 121.447C461.006 121.739 461.731 121.937 461.894 121.646C466.718 113.136 466.948 105.404 468.836 96.6285C468.935 96.1741 468.47 95.7549 467.833 95.6947C467.192 95.6346 466.59 95.9562 466.52 96.4128Z" fill="black"/>
<path d="M435.191 109.67C435.241 114.943 435.287 120.217 435.337 125.49C435.34 125.75 435.974 125.762 435.997 125.503C436.457 120.24 436.917 114.976 437.377 109.713C437.411 109.284 436.917 108.925 436.315 108.912C435.709 108.9 435.186 109.24 435.191 109.67Z" fill="black"/>
<path d="M418.089 102.695C427.38 107.31 436.149 112.261 445.969 116.459C446.254 116.58 446.569 116.235 446.298 116.098C436.996 111.402 428.875 106.048 420.003 100.886C419.325 100.489 418.307 100.608 417.778 101.108C417.248 101.608 417.367 102.338 418.089 102.695Z" fill="black"/>
<path d="M430.071 123.669C438.084 123.815 446.098 123.96 454.111 124.103C454.39 124.109 454.626 123.96 454.64 123.761C454.655 123.562 454.443 123.395 454.163 123.379C446.171 122.939 438.178 122.499 430.185 122.057C429.562 122.024 429.03 122.377 428.998 122.823C428.966 123.267 429.446 123.657 430.071 123.669Z" fill="black"/>
<path d="M458.782 83.2735C452.812 88.7953 446.838 94.3152 440.868 99.837C440.571 100.111 441.234 100.493 441.549 100.231C447.889 94.9211 454.226 89.6129 460.566 84.3048C460.979 83.9604 460.892 83.4375 460.397 83.1532C459.906 82.8689 459.172 82.9165 458.782 83.2735Z" fill="black"/>
<path d="M518.749 110.356C520.402 114.415 522.057 118.474 523.711 122.533C523.903 123.006 525.063 122.799 524.921 122.317C523.702 118.181 522.483 114.043 521.264 109.908C521.115 109.407 520.388 109.111 519.692 109.235C518.997 109.36 518.549 109.866 518.749 110.356Z" fill="black"/>
</g>
</g>
<defs>
<filter id="filter0_i_4248_69192" x="0" y="0" width="800" height="474" filterUnits="userSpaceOnUse" color-interpolation-filters="sRGB">
<feFlood flood-opacity="0" result="BackgroundImageFix"/>
<feBlend mode="normal" in="SourceGraphic" in2="BackgroundImageFix" result="shape"/>
<feColorMatrix in="SourceAlpha" type="matrix" values="0 0 0 0 0 0 0 0 0 0 0 0 0 0 0 0 0 0 127 0" result="hardAlpha"/>
<feMorphology radius="8" operator="erode" in="SourceAlpha" result="effect1_innerShadow_4248_69192"/>
<feOffset dy="24"/>
<feGaussianBlur stdDeviation="30"/>
<feComposite in2="hardAlpha" operator="arithmetic" k2="-1" k3="1"/>
<feColorMatrix type="matrix" values="0 0 0 0 1 0 0 0 0 0.623529 0 0 0 0 0.109804 0 0 0 1 0"/>
<feBlend mode="normal" in2="shape" result="effect1_innerShadow_4248_69192"/>
</filter>
<linearGradient id="paint0_linear_4248_69192" x1="400" y1="0" x2="400" y2="450" gradientUnits="userSpaceOnUse">
<stop stop-color="white"/>
<stop offset="1" stop-color="#EFEFEF"/>
</linearGradient>
<clipPath id="clip0_4248_69192">
<rect width="800" height="450" rx="48" fill="white"/>
</clipPath>
</defs>
</svg>
