<svg width="800" height="450" viewBox="0 0 800 450" fill="none" xmlns="http://www.w3.org/2000/svg">
<g filter="url(#filter0_i_1753_20707)">
<rect width="800" height="450" rx="48" fill="url(#paint0_linear_1753_20707)"/>
<g opacity="0.1">
<path d="M38.0692 147.294C51.7637 233.659 62.1454 290.249 70.1194 384.797C70.4587 388.807 74.0825 392.253 78.4044 392.722C82.7029 393.334 87.2173 390.908 88.7914 387.011C105.948 344.524 107.873 299.886 109.865 256.333C111.786 212.73 113.829 170.211 129.312 131.606C121.955 131.17 114.599 130.733 107.24 130.297C107.968 133.434 108.923 139.984 109.882 148.443C110.857 156.95 111.89 167.494 112.986 179.317C115.178 202.946 117.623 231.653 120.407 259.537C123.195 287.419 126.308 314.428 129.905 335.03C131.719 345.364 133.611 354.033 135.872 360.874C137.035 364.338 138.222 367.311 140.045 370.24C140.987 371.728 142.087 373.231 143.882 374.818C145.645 376.336 148.403 378.132 152.341 378.73C154.367 379.038 156.631 378.862 158.473 378.312C160.335 377.777 161.765 376.967 162.803 376.208C164.869 374.639 165.667 373.378 166.292 372.425C167.421 370.5 167.737 369.349 168.117 368.136C168.779 365.826 169.184 363.48 169.614 360.537C170.446 354.73 171.192 346.87 171.977 337.229C173.538 317.984 175.206 291.832 177.437 263.723C179.665 235.647 182.458 205.631 186.241 178.929C188.128 165.586 190.268 153.068 192.677 142.119C195.075 131.17 197.78 121.757 200.596 114.819C191.799 114.188 183.001 113.557 174.203 112.91C183.561 157.079 182.399 206.681 184.431 256.48C186.38 302.493 191.025 348.861 210.936 391.476C213.31 396.553 219.314 399.691 225.124 399.06C230.952 398.591 236.108 394.386 237.27 388.968C242.197 366.021 246.085 336.746 249.324 305.531C252.555 274.332 255.112 241.226 257.252 210.951C259.391 180.675 261.116 153.197 262.665 133.434C263.436 123.552 264.173 115.579 264.855 110.371C265.185 107.783 265.531 105.843 265.715 105.131C265.736 105.05 265.752 104.985 265.763 104.953C265.766 104.937 265.772 104.921 265.772 104.921C265.772 104.921 265.77 104.921 265.766 104.937C265.745 104.985 265.692 105.18 265.474 105.633C265.228 106.102 264.919 106.845 263.704 108.204C263.076 108.867 262.178 109.724 260.67 110.597C259.195 111.455 256.961 112.296 254.407 112.425C251.399 112.603 248.722 111.778 247.054 110.921C245.337 110.047 244.366 109.19 243.676 108.527C242.352 107.169 241.985 106.425 241.665 105.907C241.123 104.889 241.092 104.646 241.041 104.533C241.032 104.517 241.03 104.517 241.03 104.517C241.03 104.517 241.035 104.517 241.042 104.549C241.055 104.597 241.078 104.678 241.108 104.775C241.167 105.002 241.251 105.341 241.347 105.746C241.736 107.411 242.302 110.274 242.962 113.961C244.29 121.369 246.028 132.221 248.017 145.369C252.002 171.699 257.014 207.312 261.98 244.122C266.946 280.93 271.867 318.97 275.673 350.151C277.575 365.746 279.198 379.635 280.406 390.779C281.613 401.89 282.406 410.38 282.636 414.731C282.8 417.836 284.267 420.637 286.558 422.642C288.835 424.662 291.956 425.875 295.142 425.989C298.328 426.117 301.547 425.117 303.993 423.273C306.452 421.429 308.161 418.742 308.593 415.703C323.135 312.955 323.719 199.501 332.298 95.5244C324.176 96.123 316.054 96.7209 307.933 97.3195C336.024 200.778 338.019 315.088 344.884 412.323C345.071 414.959 346.292 417.319 348.177 419.068C350.051 420.813 352.615 421.96 355.295 422.221C357.973 422.481 360.746 421.88 362.997 420.538C365.254 419.196 367.006 417.14 367.802 414.651C383.228 366.343 383.797 305.048 382.643 244.056C381.409 183.166 378.317 122.565 384.944 77.7824C377.714 78.2835 370.486 78.7854 363.256 79.303C391.876 166.54 402.974 262.415 423.492 348.502C424.086 350.976 425.68 353.066 427.815 354.44C429.947 355.815 432.64 356.446 435.237 356.185C437.841 355.943 440.325 354.811 442.08 353.047C443.852 351.302 444.919 348.956 444.919 346.416C444.883 303.204 441.841 234.58 444.009 171.117C445.506 127.288 450.561 85.8042 459.965 58.4557C452.151 58.9733 444.337 59.4905 436.523 60.0242C450.371 89.6533 457.275 121.029 460.98 154.604C464.697 188.18 465.154 223.955 466.399 262.074C467.467 294.842 469.279 329.337 473.881 365.339C474.371 369.155 476.219 372.263 478.925 374.477C481.623 376.71 485.206 378.037 488.854 378.165C492.506 378.294 496.187 377.227 499.062 375.174C501.954 373.15 504.057 370.192 504.749 366.955C516.595 311.727 525.727 236.538 538.33 172.266C542.507 150.885 547.09 130.765 551.85 113.088C543.523 113.266 535.195 113.444 526.864 113.606C543.195 172.993 538.851 234.808 540.975 298.27C541.86 324.033 543.931 350.023 548.534 375.947C549.242 379.91 551.324 383.033 554.261 385.167C557.177 387.319 560.97 388.466 564.732 388.352C568.497 388.239 572.194 386.864 574.948 384.536C577.718 382.223 579.567 378.99 579.902 375.706C582.151 353.678 584.101 325.085 586.345 294.032C588.594 262.997 591.263 229.518 595.134 197.98C600.4 153.618 606.466 112.733 613.018 88.2467C605.297 87.8424 597.577 87.4538 589.856 87.0656C601.674 178.67 607.481 280.963 608.553 371.743C608.59 374.994 610.086 378.066 612.517 380.284C614.927 382.531 618.296 383.873 621.742 384.005C625.188 384.148 628.674 383.066 631.291 381.028C633.924 379.005 635.704 376.061 636.072 372.634C637.641 358.029 644.011 296.297 650.373 239.577C653.556 211.242 656.731 184.153 659.323 164.988C660.613 155.429 661.778 147.795 662.652 143.316C662.866 142.2 663.06 141.294 663.21 140.679C663.283 140.372 663.347 140.146 663.384 140.017C663.404 139.952 663.416 139.92 663.416 139.92C663.416 139.92 663.408 139.951 663.38 140.032C663.311 140.21 663.21 140.534 662.761 141.375C662.522 141.795 662.195 142.346 661.548 143.154C660.876 143.946 659.93 145.062 657.839 146.372C656.791 147.019 655.42 147.682 653.681 148.151C651.962 148.62 649.859 148.863 647.792 148.653C645.722 148.475 643.76 147.877 642.227 147.149C640.678 146.405 639.526 145.564 638.668 144.804C636.957 143.267 636.266 142.103 635.776 141.262C635.303 140.404 635.089 139.839 634.935 139.418C634.923 139.385 634.915 139.369 634.915 139.369C634.923 139.402 634.943 139.466 634.967 139.547C635.016 139.725 635.093 140.016 635.182 140.356C635.364 141.068 635.594 142.038 635.865 143.235C636.407 145.645 637.087 148.896 637.863 152.826C639.424 160.653 641.378 171.166 643.521 183.263C647.809 207.458 652.86 238.107 657.087 267.103C660.201 288.5 662.858 309.058 664.375 325.345C665.135 333.494 665.604 340.58 665.721 346.027C665.778 348.747 665.746 351.042 665.645 352.772C665.552 354.488 665.341 355.668 665.313 355.734C675.561 356.929 685.806 358.124 696.051 359.323C697.11 313.439 703.864 267.283 710.323 220.688C714.619 189.651 719.533 158.632 724.661 127.595C715.484 127.434 706.307 127.288 697.131 127.142C702.809 166.104 708.653 205.048 714.882 243.976C724.042 301.228 733.082 358.74 745.324 415.864C747.524 426.136 767.807 422.785 765.87 412.484C755.209 355.716 747.686 298.398 739.872 240.937C734.582 202.024 729.619 163.063 724.726 124.07C724.341 121.013 722.675 118.231 720.236 116.242C717.806 114.253 714.578 113.088 711.302 113.007C708.026 112.926 704.73 113.945 702.19 115.805C699.634 117.681 697.806 120.366 697.203 123.633C691.436 154.701 685.919 185.867 681.082 217.162C673.919 263.562 666.381 310.609 664.904 358.627C664.791 362.252 666.239 365.661 668.726 368.235C671.198 370.823 674.74 372.553 678.486 372.975C682.231 373.425 686.142 372.568 689.252 370.628C692.378 368.719 694.732 365.746 695.638 362.219C696.322 359.55 696.593 357.109 696.783 354.389C696.961 351.706 697.005 348.777 696.961 345.558C696.864 339.154 696.386 331.57 695.634 323.014C694.126 305.953 691.48 285.073 688.326 263.386C684.059 233.982 678.846 203.156 674.352 178.686C672.108 166.459 670.045 155.833 668.362 147.731C667.525 143.671 666.781 140.259 666.142 137.526C665.822 136.167 665.531 134.97 665.248 133.919C664.961 132.836 664.718 131.962 664.33 130.846C664.116 130.248 663.837 129.552 663.303 128.582C662.745 127.628 661.984 126.366 660.209 124.765C659.315 123.973 658.13 123.116 656.545 122.355C654.975 121.611 652.977 120.997 650.874 120.819C648.771 120.625 646.632 120.851 644.872 121.337C643.097 121.822 641.685 122.501 640.601 123.164C638.434 124.523 637.41 125.703 636.658 126.593C635.93 127.515 635.526 128.194 635.202 128.76C634.583 129.892 634.308 130.636 634.057 131.299C633.592 132.625 633.329 133.66 633.05 134.825C632.783 135.989 632.533 137.235 632.278 138.609C631.275 144.076 630.175 151.936 628.953 161.737C626.515 181.338 623.655 208.558 620.86 237.04C615.271 293.97 609.928 355.896 608.606 370.401C617.779 370.694 626.951 370.984 636.124 371.292C633.536 279.768 625.965 176.972 613.253 84.4944C612.889 81.8419 611.51 79.5453 609.508 77.8957C607.514 76.2299 604.873 75.227 602.171 75.1137C599.469 74.9682 596.723 75.7284 594.551 77.1841C592.371 78.6398 590.733 80.7909 590.086 83.3137C583.267 109.886 577.553 150.998 572.238 195.733C568.59 227.497 564.348 260.926 560.145 291.785C555.943 322.643 551.907 350.976 548.501 372.344C558.956 372.263 569.415 372.179 579.87 372.117C576.954 347.549 575.991 322.61 575.126 297.298C572.942 235.097 572.028 170.454 551.709 107.492C550.782 104.63 548.999 102.479 546.689 101.007C544.388 99.5351 541.545 98.7749 538.73 98.9043C535.919 99.0014 533.157 99.9717 531.005 101.621C528.845 103.255 527.268 105.552 526.722 108.026C522.645 126.383 518.714 146.906 514.564 168.481C502.152 233.222 487.928 307.845 474.157 361.02C484.446 361.556 494.735 362.105 505.024 362.637C502.108 327.592 501.319 293.823 500.049 261.088C498.585 223.049 496.684 186.417 491.07 151.257C485.453 116.113 476.065 82.4401 459.334 50.6761C456.943 46.1478 451.758 43.5605 446.731 44.0616C441.692 44.4337 437.146 47.8623 435.888 52.2455C426.897 83.6047 423.969 125.897 422.46 170.519C420.281 234.888 423.286 303.882 423.249 346.416C430.392 345.738 437.534 345.041 444.673 344.348C424.539 259.746 413.676 163.322 384.588 73.5774C383.119 69.049 378.094 65.9603 373.078 66.3807C368.05 66.6556 363.598 70.3914 362.898 75.0976C355.795 122.825 358.907 183.813 359.867 244.397C360.909 304.883 359.667 364.95 345.333 408.683C352.972 409.46 360.612 410.237 368.252 410.996C361.746 314.476 360.45 198.967 331.983 92.0148C331.262 89.3138 329.488 87.0334 327.134 85.5293C324.793 84.0091 321.849 83.2811 318.978 83.4915C316.103 83.6854 313.325 84.8339 311.278 86.6774C309.218 88.5052 307.86 90.9961 307.617 93.8099C298.534 198.822 297.414 312.002 282.73 412.646C291.383 412.968 300.035 413.294 308.688 413.617C308.422 408.36 307.642 399.819 306.461 388.499C305.279 377.194 303.7 363.238 301.848 347.567C298.142 316.239 293.347 278.133 288.492 241.212C283.637 204.304 278.726 168.61 274.788 142.07C272.818 128.808 271.096 117.843 269.726 110.048C269.037 106.15 268.447 103.077 267.901 100.7C267.617 99.4867 267.376 98.4999 266.978 97.3034C266.752 96.6725 266.559 96.0416 265.874 94.7803C265.481 94.1171 265.044 93.2927 263.656 91.8693C262.933 91.1739 261.932 90.2842 260.183 89.3949C258.484 88.5213 255.779 87.68 252.742 87.8743C250.096 88.0037 247.769 88.8772 246.201 89.7831C244.6 90.705 243.61 91.6427 242.889 92.4191C241.49 93.9716 240.996 95.0068 240.566 95.8642C239.797 97.53 239.527 98.5971 239.224 99.7617C238.673 102.01 238.289 104.419 237.88 107.444C237.086 113.428 236.322 121.595 235.509 131.655C233.885 151.726 232.099 179.155 229.901 209.334C227.706 239.496 225.101 272.393 221.862 303.171C218.631 333.949 214.739 362.67 210.094 384.166C218.871 383.341 227.649 382.498 236.428 381.673C218.761 343.96 214.009 300.663 212.168 255.541C210.098 206.73 211.401 156.012 201.181 108.204C200.005 102.689 194.69 98.4677 188.766 98.1443C182.858 97.6267 176.882 101.055 174.789 106.279C171.256 115.11 168.379 125.574 165.844 137.332C163.317 149.073 161.167 162.109 159.295 175.856C155.553 203.35 152.928 233.755 150.887 262.074C148.848 290.395 147.393 316.657 146.021 335.598C145.34 345.041 144.665 352.706 144.005 357.608C143.689 360.02 143.329 361.798 143.195 362.252C143.181 362.3 143.181 362.314 143.177 362.314C143.181 362.314 143.193 362.267 143.225 362.186C143.295 362.025 143.414 361.717 143.796 361.086C144.212 360.456 144.799 359.451 146.651 358.044C147.583 357.366 148.905 356.607 150.659 356.09C152.391 355.569 154.547 355.408 156.463 355.701C159.304 356.138 160.978 357.366 161.67 357.981C162.038 358.304 162.221 358.513 162.311 358.627C162.355 358.678 162.375 358.707 162.375 358.707C162.375 358.707 162.361 358.693 162.332 358.66C162.062 358.289 161.208 356.559 160.38 354.099C158.655 349.103 156.753 341.079 154.956 331.328C151.331 311.76 147.95 285.04 144.879 257.4C141.803 229.744 139.021 201.118 136.525 177.392C135.276 165.521 134.098 154.879 132.985 146.146C131.859 137.364 130.849 130.652 129.721 125.929C128.625 121.352 124.122 117.924 119.179 117.714C114.245 117.374 109.317 120.285 107.649 124.636C91.1857 167.511 90.0439 212.1 88.668 255.67C87.3653 299.274 85.8826 341.856 70.6533 381.109C76.8768 381.853 83.1008 382.597 89.3248 383.341C79.8285 288.225 68.4029 231.136 53.3698 145.208C52.0314 137.558 36.8536 139.629 38.0692 147.294Z" fill="#535353"/>
</g>
<path d="M68.576 131.152C50.432 131.152 35.84 116.464 35.84 97.744C35.84 79.216 50.432 64.528 68.576 64.528C79.616 64.528 89.696 70.192 94.592 79.6L86.624 84.208C82.88 77.776 76.448 73.84 68.192 73.84C55.712 73.84 45.92 84.208 45.92 97.744C45.92 111.472 55.616 121.936 68.192 121.936C76.448 121.936 82.976 118 86.624 111.568L94.592 116.176C89.696 125.584 79.616 131.152 68.576 131.152ZM125.773 131.152C111.565 131.152 100.621 120.016 100.621 106.384C100.621 92.848 111.661 81.808 125.773 81.808C139.981 81.808 150.733 92.944 150.733 106.384C150.733 120.016 139.885 131.152 125.773 131.152ZM125.773 122.128C134.509 122.128 141.229 115.024 141.229 106.48C141.229 97.84 134.509 90.736 125.773 90.736C116.941 90.736 110.125 97.84 110.125 106.48C110.125 115.024 116.941 122.128 125.773 122.128ZM184.675 90.928C175.459 90.928 170.851 98.512 170.851 107.248V130H161.347V106.288C161.347 92.56 169.507 81.808 184.675 81.808C200.035 81.808 208.387 92.56 208.387 106.192V130H198.883V107.344C198.883 98.512 194.083 90.928 184.675 90.928ZM236.5 130H226.996V91.216H218.068V82.96H226.996V78.064C226.996 68.08 233.236 60.592 245.044 60.592C248.212 60.592 251.188 61.168 253.588 62.32V71.344C251.38 70 248.596 69.232 245.908 69.232C240.052 69.232 236.5 71.824 236.5 78.064V82.96H253.012V91.216H236.5V130ZM282.331 131.056C268.027 131.056 257.371 120.688 257.371 106.192C257.371 92.656 267.067 81.616 281.179 81.616C295.387 81.616 304.219 91.888 304.219 105.04V108.88H266.587C267.643 116.944 273.787 122.608 282.235 122.608C287.995 122.608 293.179 120.112 295.963 114.928L303.259 118.672C299.131 126.736 291.547 131.056 282.331 131.056ZM266.971 102.736H294.715C294.331 95.248 288.859 90.16 281.083 90.16C273.115 90.16 267.931 95.728 266.971 102.736ZM325.07 130H315.566V101.968C315.566 90.544 322.094 82 334.382 82C337.358 82 340.43 82.576 342.83 83.728V93.136C340.526 91.792 337.838 91.12 335.246 91.12C328.91 91.12 325.07 95.44 325.07 102.352V130ZM371.769 131.056C357.465 131.056 346.809 120.688 346.809 106.192C346.809 92.656 356.505 81.616 370.617 81.616C384.825 81.616 393.657 91.888 393.657 105.04V108.88H356.025C357.081 116.944 363.225 122.608 371.673 122.608C377.433 122.608 382.617 120.112 385.401 114.928L392.697 118.672C388.569 126.736 380.985 131.056 371.769 131.056ZM356.409 102.736H384.153C383.769 95.248 378.297 90.16 370.521 90.16C362.553 90.16 357.369 95.728 356.409 102.736ZM428.332 90.928C419.116 90.928 414.508 98.512 414.508 107.248V130H405.004V106.288C405.004 92.56 413.164 81.808 428.332 81.808C443.692 81.808 452.044 92.56 452.044 106.192V130H442.54V107.344C442.54 98.512 437.74 90.928 428.332 90.928ZM487.26 131.056C473.724 131.248 462.684 120.016 462.684 106.384C462.684 92.848 473.724 81.712 487.26 81.808C495.9 81.808 503.868 85.744 508.188 94.192L500.316 98.608C497.532 93.52 492.828 90.832 487.26 90.832C479.004 90.832 472.188 97.84 472.188 106.384C472.188 115.024 479.004 122.128 487.26 122.128C492.828 122.128 497.532 119.44 500.316 114.352L508.188 118.672C503.868 127.216 495.9 131.056 487.26 131.056ZM539.863 131.056C525.559 131.056 514.903 120.688 514.903 106.192C514.903 92.656 524.599 81.616 538.711 81.616C552.919 81.616 561.75 91.888 561.75 105.04V108.88H524.119C525.174 116.944 531.319 122.608 539.767 122.608C545.527 122.608 550.711 120.112 553.495 114.928L560.791 118.672C556.663 126.736 549.079 131.056 539.863 131.056ZM524.503 102.736H552.247C551.863 95.248 546.391 90.16 538.615 90.16C530.647 90.16 525.463 95.728 524.503 102.736Z" fill="black"/>
<path d="M596.956 102.29C595.681 99.8376 594.393 95.2253 593.548 89.9411C592.7 84.6538 592.285 78.6796 592.689 73.4827C592.89 70.8858 593.297 68.4847 593.935 66.4812C594.572 64.4718 595.439 62.878 596.506 61.8145C597.58 60.7541 598.83 60.1666 600.508 60.1304C602.184 60.1003 604.308 60.6847 606.921 62.1489C607.032 62.2091 607.336 62.4351 607.692 62.7695C608.053 63.1039 608.485 63.5499 608.951 64.0741C610.824 66.1709 613.217 69.5512 614.36 72.3681C614.647 73.0671 614.856 73.7237 614.969 74.2931C615.085 74.8595 615.101 75.3325 615.05 75.6579C614.997 75.9923 614.909 76.1731 614.758 76.3539C614.603 76.5286 614.337 76.7245 613.825 76.8751C612.873 77.1553 612.299 77.0769 612.022 76.9504C611.878 76.8841 611.788 76.8087 611.697 76.7032C611.607 76.5948 611.518 76.4442 611.437 76.2183C611.274 75.7754 611.176 75.0342 611.214 74.1183C611.248 73.2025 611.406 72.1179 611.662 70.9791C612.173 68.6955 613.073 66.1829 614.034 64.1373C614.514 63.116 615.01 62.2092 615.463 61.5133C615.908 60.8173 616.339 60.3352 616.529 60.2027C618.726 58.5186 620.728 57.4913 622.539 56.943C624.35 56.3977 625.971 56.3254 627.453 56.5725C630.405 57.0666 632.887 58.8831 634.897 61.1637C636.905 63.4323 638.392 66.1378 639.295 68.1383C639.748 69.1355 640.055 69.9669 640.206 70.4369C640.244 70.5544 640.271 70.6478 640.284 70.7051C640.3 70.7593 640.303 70.7924 640.29 70.708C640.284 70.6568 640.266 70.5936 640.274 70.3495C640.284 70.22 640.284 70.0391 640.427 69.6867C640.5 69.5149 640.624 69.2891 640.847 69.0752C641.068 68.8613 641.4 68.6956 641.704 68.6595C642.012 68.6202 642.262 68.6835 642.437 68.7498C642.613 68.819 642.728 68.8974 642.815 68.9637C642.982 69.0932 643.049 69.1806 643.1 69.2439C643.198 69.3674 643.216 69.4126 643.232 69.4368C643.249 69.4548 643.311 69.6114 643.305 69.7832C643.305 69.9519 643.249 70.0814 643.24 70.0905C643.24 70.0905 643.243 70.0874 643.243 70.0844C643.249 70.0784 643.257 70.0693 643.27 70.0543C643.295 70.0241 643.335 69.979 643.394 69.9278C643.507 69.8193 643.688 69.6838 643.917 69.5391C644.844 68.9426 646.528 68.2919 648.318 67.7677C650.115 67.2374 652.044 66.8005 653.594 66.4963C654.368 66.3426 655.05 66.2221 655.572 66.1377C655.834 66.0956 656.054 66.0624 656.224 66.0383C656.391 66.0173 656.518 66.0022 656.542 66.0022C661.765 65.5864 666.405 66.5535 670.138 68.4424C673.873 70.3374 676.692 73.1453 678.357 76.4232C680.02 79.71 680.575 83.4519 679.726 87.513C678.869 91.568 676.56 95.9755 672.283 100.335C671.949 100.675 671.747 101.127 671.687 101.597C671.626 102.067 671.711 102.558 671.927 102.968C672.14 103.381 672.482 103.706 672.879 103.875C673.274 104.05 673.724 104.074 674.164 103.911C675.517 103.414 677.277 102.859 679.141 102.468C681.006 102.073 682.981 101.847 684.736 101.965C686.495 102.073 687.994 102.54 689.012 103.332C689.524 103.73 689.937 104.203 690.274 104.815C690.611 105.426 690.872 106.195 691.018 107.207C691.115 107.912 691.085 108.641 690.929 109.43C690.772 110.217 690.486 111.057 690.074 111.925C689.258 113.663 687.951 115.501 686.42 117.248C683.356 120.758 679.449 123.888 676.969 125.865C670.251 131.218 663.705 134.375 657.901 136.171C652.098 137.967 647.032 138.397 643.324 138.274C641.47 138.214 639.956 138.012 638.886 137.789C638.352 137.677 637.929 137.557 637.654 137.46C637.517 137.412 637.417 137.37 637.374 137.349C637.363 137.343 637.355 137.34 637.352 137.337C637.349 137.337 637.349 137.337 637.349 137.337C637.349 137.337 637.352 137.337 637.355 137.34C637.366 137.346 637.398 137.364 637.46 137.415C637.519 137.463 637.614 137.542 637.748 137.716C637.875 137.888 638.069 138.18 638.166 138.692C638.212 138.946 638.22 139.25 638.169 139.542C638.118 139.837 638.012 140.111 637.891 140.326C637.638 140.756 637.374 140.943 637.207 141.048C636.862 141.247 636.773 141.224 636.757 141.235C636.759 141.235 636.757 141.235 636.765 141.235C636.77 141.235 636.784 141.232 636.8 141.232C636.835 141.229 636.886 141.229 636.951 141.229C637.482 141.224 638.759 141.368 640.667 141.79C640.513 140.322 640.36 138.852 640.209 137.385C637.826 138.593 634.525 139.482 630.755 139.94C626.981 140.404 622.732 140.455 618.406 140.088C612.955 139.627 607.373 138.569 602.407 136.915C597.44 135.262 593.1 132.995 590.122 130.209C588.63 128.817 587.478 127.308 586.71 125.681C585.944 124.048 585.547 122.3 585.594 120.33C585.643 118.363 586.151 116.158 587.268 113.705C588.385 111.256 590.11 108.565 592.549 105.668C593.104 105.007 592.111 103.887 591.516 104.502C588.826 107.286 586.824 109.966 585.432 112.567C584.041 115.167 583.259 117.7 583.055 120.149C582.848 122.596 583.234 124.946 584.103 127.091C584.972 129.239 586.309 131.182 587.977 132.917C591.318 136.388 595.978 139.076 601.233 141.052C606.488 143.022 612.346 144.263 618.092 144.748C622.652 145.131 627.136 145.079 631.211 144.579C635.288 144.07 638.953 143.128 641.925 141.624C642.75 141.208 643.249 140.199 643.133 139.235C643.046 138.265 642.354 137.412 641.465 137.223C639.387 136.774 637.972 136.584 636.948 136.58C636.687 136.584 636.444 136.593 636.185 136.635C635.921 136.683 635.652 136.72 635.194 136.985C634.97 137.129 634.663 137.352 634.388 137.825C634.253 138.06 634.14 138.355 634.086 138.671C634.032 138.988 634.038 139.316 634.089 139.59C634.194 140.154 634.412 140.494 634.579 140.72C634.754 140.946 634.903 141.079 635.035 141.187C635.299 141.395 635.512 141.507 635.733 141.615C635.951 141.72 636.175 141.808 636.417 141.895C636.899 142.061 637.463 142.214 638.126 142.35C639.446 142.624 641.155 142.838 643.206 142.901C647.307 143.028 652.772 142.54 659.003 140.593C665.23 138.644 672.218 135.234 679.316 129.528C681.81 127.522 685.884 124.256 689.271 120.351C690.966 118.393 692.5 116.272 693.575 113.973C694.108 112.823 694.529 111.623 694.774 110.373C695.017 109.123 695.078 107.818 694.887 106.514C694.669 105.007 694.232 103.664 693.596 102.522C692.966 101.378 692.136 100.446 691.209 99.7416C689.338 98.3285 687.145 97.7892 684.949 97.6536C682.744 97.5271 680.497 97.8164 678.422 98.2652C676.347 98.7142 674.447 99.3284 672.965 99.8863C673.592 101.079 674.22 102.269 674.849 103.462C679.532 98.6328 682.297 93.4931 683.329 88.4468C684.369 83.4096 683.626 78.508 681.499 74.4077C679.376 70.3014 675.916 66.9904 671.582 64.8392C667.246 62.6882 662.021 61.685 656.286 62.1911C656.143 62.2032 655.992 62.2242 655.791 62.2544C655.591 62.2815 655.351 62.3206 655.071 62.3688C654.51 62.4652 653.799 62.5978 652.991 62.7635C651.374 63.0979 649.374 63.5649 647.45 64.1554C645.518 64.7489 643.685 65.4327 642.276 66.3336C641.57 66.8005 640.936 67.3007 640.449 68.1443C640.211 68.569 640.028 69.1143 640.02 69.7168C640.009 70.3163 640.185 70.9099 640.446 71.3709C640.491 71.4492 640.535 71.5305 640.651 71.6811C640.715 71.7564 640.791 71.853 640.966 71.9915C641.055 72.0578 641.173 72.1391 641.354 72.2083C641.532 72.2776 641.785 72.341 642.095 72.2988C642.402 72.2657 642.736 72.0969 642.957 71.88C643.186 71.6661 643.311 71.437 643.386 71.2623C643.529 70.9038 643.532 70.711 643.545 70.5694C643.556 70.2983 643.532 70.1959 643.52 70.0905C643.489 69.9037 643.459 69.7832 643.418 69.6385C643.38 69.5 643.335 69.3523 643.281 69.1896C643.068 68.5359 642.71 67.6049 642.192 66.4842C641.157 64.2488 639.503 61.2753 637.153 58.6543C634.808 56.0453 631.725 53.7555 627.896 53.153C625.989 52.8517 623.916 52.9812 621.73 53.6682C619.543 54.3521 617.245 55.5873 614.836 57.4702C614.168 58.0035 613.628 58.7145 613.065 59.5852C612.511 60.4588 611.963 61.4922 611.439 62.634C610.393 64.9147 609.448 67.62 608.888 70.2199C608.609 71.5214 608.426 72.7959 608.39 74.0009C608.358 75.206 608.461 76.3538 608.845 77.4053C609.039 77.9295 609.311 78.4295 609.679 78.8573C610.046 79.2851 610.509 79.6316 611.025 79.8485C612.069 80.2884 613.239 80.2372 614.533 79.8485C615.405 79.5864 616.164 79.1345 616.73 78.4718C617.3 77.809 617.628 76.9624 617.737 76.128C617.85 75.2844 617.776 74.4438 617.601 73.6123C617.424 72.7778 617.142 71.9403 616.79 71.1027C615.377 67.7737 612.843 64.3211 610.769 62.0284C610.251 61.459 609.76 60.965 609.311 60.5583C608.857 60.1515 608.462 59.8352 608.04 59.6032C605.157 58.0487 602.648 57.3557 600.443 57.4461C598.243 57.5244 596.368 58.4494 594.963 59.9436C593.551 61.4349 592.585 63.4384 591.926 65.722C591.269 68.0117 590.919 70.5996 590.791 73.3352C590.537 78.8062 591.181 84.8798 592.239 90.2334C593.302 95.5899 594.77 100.208 596.232 102.781C596.483 103.224 597.191 102.742 596.956 102.29Z" fill="black"/>
<path fill-rule="evenodd" clip-rule="evenodd" d="M313.295 150.008C320.917 149.93 327.897 150.436 329.452 151.179L338.726 155.606C339.13 155.583 339.546 155.562 339.976 155.542C344.581 155.332 349.953 155.368 354.236 155.637L354.643 155.662L357.703 154.488C359.276 153.885 364.496 153.444 370.762 153.386C377.025 153.327 382.992 153.662 385.682 154.225L387.139 154.53C389.677 154.322 392.897 154.198 396.331 154.19C402.304 154.176 407.784 154.516 410.268 155.054L420.705 157.313L441.685 152.329C444.117 151.752 449.956 151.388 456.268 151.421C462.58 151.454 468.001 151.876 469.806 152.476L480.612 156.068L483.954 155.641C486.313 155.34 489.718 155.145 493.421 155.087V153.507C493.421 152.815 498.258 152.216 505.067 152.064C511.879 151.911 518.849 152.246 521.854 152.87L549.54 158.613C553.095 159.351 549.934 160.234 542.484 160.585C535.036 160.937 526.115 160.624 522.561 159.887L522.197 159.811C520.379 160.25 516.48 160.588 511.572 160.695C504.717 160.844 497.736 160.501 494.796 159.87L492.503 159.378L486.408 160.156C482.976 160.594 477.354 160.806 471.849 160.704C466.341 160.602 461.871 160.204 460.274 159.672L453.135 157.301L435.133 161.576C432.848 162.119 427.533 162.476 421.593 162.486C415.654 162.496 410.216 162.157 407.746 161.622L396.399 159.166C393.94 159.356 390.889 159.469 387.639 159.479C382.916 159.493 378.482 159.285 375.59 158.932C373.993 159.127 371.9 159.281 369.477 159.376C365.67 159.525 361.444 159.512 357.773 159.345L352.825 162.771C351.798 163.482 345.755 164.017 338.497 164.04C331.242 164.062 324.873 163.565 323.398 162.862L321.183 161.805C320.349 161.844 319.466 161.875 318.547 161.899C311.944 162.067 305.026 161.772 301.733 161.181L280.393 157.353L251.595 161.328C248.669 161.732 243.889 161.964 238.871 161.944C233.854 161.925 229.269 161.658 226.667 161.233L218.052 159.826L214.18 162.252C213.168 162.886 208.135 163.383 201.724 163.482C195.313 163.581 188.988 163.259 186.07 162.686L156.708 156.915L140.898 163.511C139.267 164.191 133.041 164.666 125.975 164.648C118.909 164.63 112.936 164.125 111.658 163.437L105.826 160.297L96.2941 163.457C94.2983 164.119 87.9402 164.556 80.9773 164.51C74.0143 164.464 68.3002 163.947 67.2117 163.265L65.2061 162.008L61.7742 164.706C60.7433 165.516 53.269 166.09 45.0798 165.988C36.8906 165.886 31.0877 165.147 32.1186 164.336L48.7086 151.294C49.6382 150.564 55.8599 150.012 63.3019 150C70.7439 149.989 77.1373 150.521 78.2984 151.248L86.4729 156.372L94.9651 153.556C96.9411 152.901 103.196 152.465 110.094 152.502C116.992 152.539 122.735 153.039 123.984 153.712L128.212 155.988L137.083 152.286C138.533 151.682 143.647 151.231 149.883 151.159C156.12 151.086 162.149 151.408 164.973 151.963L191.896 157.254L194.902 155.37C195.881 154.757 200.626 154.27 206.782 154.15C212.939 154.03 219.195 154.304 222.446 154.835L240.498 157.784L269.896 153.726C272.885 153.313 277.802 153.081 282.922 153.111C288.042 153.141 292.649 153.429 295.127 153.873L299.874 154.724V151.479C299.874 150.721 305.67 150.085 313.295 150.008Z" fill="black"/>
<path d="M36.872 181.92V195.744H44.864V198H36.68C35.048 198 34.424 197.16 34.424 195.792V181.92H36.872ZM48.4616 183.912C47.5976 183.912 46.9016 183.216 46.9016 182.352C46.9016 181.488 47.5976 180.768 48.4616 180.768C49.3256 180.768 49.9976 181.488 49.9976 182.352C49.9976 183.216 49.3256 183.912 48.4616 183.912ZM47.2856 186.24H49.6616V198H47.2856V186.24ZM57.7561 198.264C55.5721 198.264 53.8921 197.4 52.9801 195.648L54.8041 194.64C55.4041 195.816 56.3641 196.248 57.6601 196.248C59.0041 196.248 60.0361 195.696 60.0361 194.664C60.0361 192.192 53.2921 194.064 53.2921 189.576C53.2921 187.512 55.1161 186 57.6841 186C59.8681 186 61.3561 187.008 62.1001 188.376L60.2761 189.408C59.7721 188.376 58.8121 188.016 57.7321 188.016C56.6281 188.016 55.6681 188.592 55.6681 189.528C55.6681 191.928 62.4121 190.176 62.4121 194.616C62.4121 196.848 60.2521 198.264 57.7561 198.264ZM70.6263 198.312C67.6983 198.312 66.1383 196.464 66.1383 193.776V188.304H63.8103V186.24H66.1383V183.192H68.5143V186.24H73.0263V188.304H68.5143V193.704C68.5143 195.24 69.4263 196.152 70.8423 196.152C71.6103 196.152 72.4503 195.864 73.0263 195.456V197.64C72.4263 198.048 71.4903 198.312 70.6263 198.312ZM81.3406 198.264C77.7646 198.264 75.1006 195.672 75.1006 192.048C75.1006 188.664 77.5246 185.904 81.0526 185.904C84.6046 185.904 86.8126 188.472 86.8126 191.76V192.72H77.4046C77.6686 194.736 79.2046 196.152 81.3166 196.152C82.7566 196.152 84.0526 195.528 84.7486 194.232L86.5726 195.168C85.5406 197.184 83.6446 198.264 81.3406 198.264ZM77.5006 191.184H84.4366C84.3406 189.312 82.9726 188.04 81.0286 188.04C79.0366 188.04 77.7406 189.432 77.5006 191.184ZM95.4813 188.232C93.1773 188.232 92.0253 190.128 92.0253 192.312V198H89.6493V192.072C89.6493 188.64 91.6893 185.952 95.4813 185.952C99.3213 185.952 101.409 188.64 101.409 192.048V198H99.0333V192.336C99.0333 190.128 97.8333 188.232 95.4813 188.232ZM106.589 198.216C105.725 198.216 105.029 197.52 105.029 196.656C105.029 195.792 105.725 195.12 106.589 195.12C107.453 195.12 108.149 195.792 108.149 196.656C108.149 197.52 107.453 198.216 106.589 198.216ZM121.786 181.92V195.744H129.778V198H121.594C119.962 198 119.338 197.16 119.338 195.792V181.92H121.786ZM137.45 198.264C133.874 198.264 131.21 195.672 131.21 192.048C131.21 188.664 133.634 185.904 137.162 185.904C140.714 185.904 142.922 188.472 142.922 191.76V192.72H133.514C133.778 194.736 135.314 196.152 137.426 196.152C138.866 196.152 140.162 195.528 140.858 194.232L142.682 195.168C141.65 197.184 139.754 198.264 137.45 198.264ZM133.61 191.184H140.546C140.45 189.312 139.082 188.04 137.138 188.04C135.146 188.04 133.85 189.432 133.61 191.184ZM150.919 198.288C147.511 198.288 145.015 195.504 145.015 192.096C145.015 188.736 147.703 185.952 151.279 185.952C154.831 185.952 157.543 188.592 157.543 192.096V198H155.287V195.936C154.399 197.376 152.839 198.288 150.919 198.288ZM151.279 196.032C153.487 196.032 155.167 194.256 155.167 192.12C155.167 189.96 153.487 188.184 151.279 188.184C149.095 188.184 147.391 189.96 147.391 192.12C147.391 194.256 149.095 196.032 151.279 196.032ZM163.322 198H160.946V190.992C160.946 188.136 162.578 186 165.65 186C166.394 186 167.162 186.144 167.762 186.432V188.784C167.186 188.448 166.514 188.28 165.866 188.28C164.282 188.28 163.322 189.36 163.322 191.088V198ZM175.216 188.232C172.912 188.232 171.76 190.128 171.76 192.312V198H169.384V192.072C169.384 188.64 171.424 185.952 175.216 185.952C179.056 185.952 181.144 188.64 181.144 192.048V198H178.768V192.336C178.768 190.128 177.568 188.232 175.216 188.232ZM186.324 198.216C185.46 198.216 184.764 197.52 184.764 196.656C184.764 195.792 185.46 195.12 186.324 195.12C187.188 195.12 187.884 195.792 187.884 196.656C187.884 197.52 187.188 198.216 186.324 198.216ZM201.52 181.92V195.744H209.512V198H201.328C199.696 198 199.072 197.16 199.072 195.792V181.92H201.52ZM217.184 198.264C213.608 198.264 210.944 195.672 210.944 192.048C210.944 188.664 213.368 185.904 216.896 185.904C220.448 185.904 222.656 188.472 222.656 191.76V192.72H213.248C213.512 194.736 215.048 196.152 217.16 196.152C218.6 196.152 219.896 195.528 220.592 194.232L222.416 195.168C221.384 197.184 219.488 198.264 217.184 198.264ZM213.344 191.184H220.28C220.184 189.312 218.816 188.04 216.872 188.04C214.88 188.04 213.584 189.432 213.344 191.184ZM230.653 198.288C227.245 198.288 224.749 195.504 224.749 192.096C224.749 188.736 227.437 185.952 231.013 185.952C234.565 185.952 237.277 188.592 237.277 192.096V198H235.021V195.936C234.133 197.376 232.573 198.288 230.653 198.288ZM231.013 196.032C233.221 196.032 234.901 194.256 234.901 192.12C234.901 189.96 233.221 188.184 231.013 188.184C228.829 188.184 227.125 189.96 227.125 192.12C227.125 194.256 228.829 196.032 231.013 196.032ZM243.057 203.4H240.681V192.096C240.681 188.592 243.393 185.952 246.945 185.952C250.497 185.952 253.185 188.736 253.185 192.096C253.185 195.648 250.617 198.288 247.041 198.288C245.457 198.288 244.017 197.592 243.057 196.536V203.4ZM246.945 196.056C249.129 196.056 250.809 194.256 250.809 192.12C250.809 189.96 249.129 188.208 246.945 188.208C244.737 188.208 243.057 189.96 243.057 192.12C243.057 194.256 244.737 196.056 246.945 196.056ZM257.035 198.216C256.171 198.216 255.475 197.52 255.475 196.656C255.475 195.792 256.171 195.12 257.035 195.12C257.899 195.12 258.595 195.792 258.595 196.656C258.595 197.52 257.899 198.216 257.035 198.216Z" fill="black"/>
<path d="M250.818 350.94H252.654V363H250.818V350.94ZM260.101 355.674C258.373 355.674 257.509 357.096 257.509 358.734V363H255.727V358.554C255.727 355.98 257.257 353.964 260.101 353.964C262.981 353.964 264.547 355.98 264.547 358.536V363H262.765V358.752C262.765 357.096 261.865 355.674 260.101 355.674ZM270.268 363.198C268.63 363.198 267.37 362.55 266.686 361.236L268.054 360.48C268.504 361.362 269.224 361.686 270.196 361.686C271.204 361.686 271.978 361.272 271.978 360.498C271.978 358.644 266.92 360.048 266.92 356.682C266.92 355.134 268.288 354 270.214 354C271.852 354 272.968 354.756 273.526 355.782L272.158 356.556C271.78 355.782 271.06 355.512 270.25 355.512C269.422 355.512 268.702 355.944 268.702 356.646C268.702 358.446 273.76 357.132 273.76 360.462C273.76 362.136 272.14 363.198 270.268 363.198ZM277.149 352.434C276.501 352.434 275.979 351.912 275.979 351.264C275.979 350.616 276.501 350.076 277.149 350.076C277.797 350.076 278.301 350.616 278.301 351.264C278.301 351.912 277.797 352.434 277.149 352.434ZM276.267 354.18H278.049V363H276.267V354.18ZM284.93 367.266C283.022 367.266 281.438 366.438 280.628 364.872L282.122 364.062C282.644 365.016 283.616 365.628 284.894 365.628C286.748 365.628 288.008 364.296 288.008 362.226V361.524C287.432 362.442 286.352 363.126 284.876 363.126C282.374 363.126 280.394 361.146 280.394 358.554C280.394 356.034 282.41 353.964 285.092 353.964C287.756 353.964 289.79 355.944 289.79 358.572V362.208C289.79 365.268 287.738 367.266 284.93 367.266ZM285.074 361.452C286.694 361.452 287.99 360.156 287.99 358.536C287.99 356.916 286.694 355.656 285.074 355.656C283.472 355.656 282.158 356.916 282.158 358.536C282.158 360.156 283.472 361.452 285.074 361.452ZM294.484 363H292.702V350.13H294.484V355.17C295.168 354.432 296.23 353.964 297.418 353.964C300.01 353.964 301.468 355.692 301.468 358.392V363H299.686V358.572C299.686 357.006 298.822 355.656 297.148 355.656C295.582 355.656 294.484 356.916 294.484 358.626V363ZM308.028 363.234C305.832 363.234 304.662 361.848 304.662 359.832V355.728H302.916V354.18H304.662V351.894H306.444V354.18H309.828V355.728H306.444V359.778C306.444 360.93 307.128 361.614 308.19 361.614C308.766 361.614 309.396 361.398 309.828 361.092V362.73C309.378 363.036 308.676 363.234 308.028 363.234ZM315.11 363.198C313.472 363.198 312.212 362.55 311.528 361.236L312.896 360.48C313.346 361.362 314.066 361.686 315.038 361.686C316.046 361.686 316.82 361.272 316.82 360.498C316.82 358.644 311.762 360.048 311.762 356.682C311.762 355.134 313.13 354 315.056 354C316.694 354 317.81 354.756 318.368 355.782L317 356.556C316.622 355.782 315.902 355.512 315.092 355.512C314.264 355.512 313.544 355.944 313.544 356.646C313.544 358.446 318.602 357.132 318.602 360.462C318.602 362.136 316.982 363.198 315.11 363.198ZM329.914 367.284C328.042 367.284 326.494 366.492 325.702 364.926L327.178 364.116C327.682 365.07 328.672 365.628 329.878 365.628C331.75 365.628 332.722 364.224 332.722 362.316V361.542C332.2 362.532 331.264 363.126 329.932 363.126C327.232 363.126 325.918 361.344 325.918 358.752V354.18H327.682V358.662C327.682 360.318 328.546 361.452 330.148 361.452C331.696 361.452 332.704 360.156 332.704 358.536V354.18H334.504V362.298C334.504 365.25 332.776 367.284 329.914 367.284ZM341.413 363.216C338.749 363.216 336.697 361.128 336.697 358.572C336.697 356.034 338.767 353.964 341.413 353.964C344.077 353.964 346.093 356.052 346.093 358.572C346.093 361.128 344.059 363.216 341.413 363.216ZM341.413 361.524C343.051 361.524 344.311 360.192 344.311 358.59C344.311 356.97 343.051 355.638 341.413 355.638C339.757 355.638 338.479 356.97 338.479 358.59C338.479 360.192 339.757 361.524 341.413 361.524ZM352.295 361.488C353.933 361.488 354.833 360.066 354.833 358.428V354.18H356.615V358.644C356.615 361.2 355.067 363.216 352.295 363.216C349.559 363.216 348.011 361.182 348.011 358.626V354.18H349.793V358.446C349.793 360.066 350.675 361.488 352.295 361.488ZM360.31 355.584H359.14L359.788 352.56C359.518 352.344 359.338 352.02 359.338 351.642C359.338 351.012 359.878 350.49 360.526 350.49C361.156 350.49 361.678 351.012 361.678 351.642C361.678 351.84 361.624 352.02 361.552 352.182L360.31 355.584ZM364.755 350.13H366.537V363H364.755V350.13ZM369.8 350.13H371.582V363H369.8V350.13ZM383.488 363.216C380.932 363.216 379.06 361.128 379.06 358.572C379.06 356.052 381.076 353.964 383.758 353.964C386.422 353.964 388.456 355.944 388.456 358.572V363H386.764V361.452C386.098 362.532 384.928 363.216 383.488 363.216ZM383.758 361.524C385.414 361.524 386.674 360.192 386.674 358.59C386.674 356.97 385.414 355.638 383.758 355.638C382.12 355.638 380.842 356.97 380.842 358.59C380.842 360.192 382.12 361.524 383.758 361.524ZM395.058 363.198C392.52 363.234 390.45 361.128 390.45 358.572C390.45 356.034 392.52 353.946 395.058 353.964C396.678 353.964 398.172 354.702 398.982 356.286L397.506 357.114C396.984 356.16 396.102 355.656 395.058 355.656C393.51 355.656 392.232 356.97 392.232 358.572C392.232 360.192 393.51 361.524 395.058 361.524C396.102 361.524 396.984 361.02 397.506 360.066L398.982 360.876C398.172 362.478 396.678 363.198 395.058 363.198ZM404.813 363.234C402.617 363.234 401.447 361.848 401.447 359.832V355.728H399.701V354.18H401.447V351.894H403.229V354.18H406.613V355.728H403.229V359.778C403.229 360.93 403.913 361.614 404.975 361.614C405.551 361.614 406.181 361.398 406.613 361.092V362.73C406.163 363.036 405.461 363.234 404.813 363.234ZM413.115 361.488C414.753 361.488 415.653 360.066 415.653 358.428V354.18H417.435V358.644C417.435 361.2 415.887 363.216 413.115 363.216C410.379 363.216 408.831 361.182 408.831 358.626V354.18H410.613V358.446C410.613 360.066 411.495 361.488 413.115 361.488ZM423.794 363.216C421.238 363.216 419.366 361.128 419.366 358.572C419.366 356.052 421.382 353.964 424.064 353.964C426.728 353.964 428.762 355.944 428.762 358.572V363H427.07V361.452C426.404 362.532 425.234 363.216 423.794 363.216ZM424.064 361.524C425.72 361.524 426.98 360.192 426.98 358.59C426.98 356.97 425.72 355.638 424.064 355.638C422.426 355.638 421.148 356.97 421.148 358.59C421.148 360.192 422.426 361.524 424.064 361.524ZM431.675 350.13H433.457V363H431.675V350.13ZM436.72 350.13H438.502V363H436.72V350.13ZM445.437 367.284C443.565 367.284 442.017 366.492 441.225 364.926L442.701 364.116C443.205 365.07 444.195 365.628 445.401 365.628C447.273 365.628 448.245 364.224 448.245 362.316V361.542C447.723 362.532 446.787 363.126 445.455 363.126C442.755 363.126 441.441 361.344 441.441 358.752V354.18H443.205V358.662C443.205 360.318 444.069 361.452 445.671 361.452C447.219 361.452 448.227 360.156 448.227 358.536V354.18H450.027V362.298C450.027 365.25 448.299 367.284 445.437 367.284ZM459.693 363H457.911V357.744C457.911 355.602 459.135 354 461.439 354C461.997 354 462.573 354.108 463.023 354.324V356.088C462.591 355.836 462.087 355.71 461.601 355.71C460.413 355.71 459.693 356.52 459.693 357.816V363ZM468.449 363.198C465.767 363.198 463.769 361.254 463.769 358.536C463.769 355.998 465.587 353.928 468.233 353.928C470.897 353.928 472.553 355.854 472.553 358.32V359.04H465.497C465.695 360.552 466.847 361.614 468.431 361.614C469.511 361.614 470.483 361.146 471.005 360.174L472.373 360.876C471.599 362.388 470.177 363.198 468.449 363.198ZM465.569 357.888H470.771C470.699 356.484 469.673 355.53 468.215 355.53C466.721 355.53 465.749 356.574 465.569 357.888ZM485.624 353.928C488.288 353.928 489.728 355.908 489.728 358.356V363H487.946V358.644C487.946 357.042 487.154 355.638 485.498 355.638C483.896 355.638 483.086 356.988 483.086 358.608V363H481.304V358.608C481.304 356.988 480.494 355.638 478.856 355.638C477.2 355.638 476.462 357.042 476.462 358.644V363H474.68V358.374C474.68 355.908 476.084 353.928 478.73 353.928C480.494 353.928 481.772 354.828 482.222 356.196C482.708 354.828 483.95 353.928 485.624 353.928ZM496.398 363.198C493.716 363.198 491.718 361.254 491.718 358.536C491.718 355.998 493.536 353.928 496.182 353.928C498.846 353.928 500.502 355.854 500.502 358.32V359.04H493.446C493.644 360.552 494.796 361.614 496.38 361.614C497.46 361.614 498.432 361.146 498.954 360.174L500.322 360.876C499.548 362.388 498.126 363.198 496.398 363.198ZM493.518 357.888H498.72C498.648 356.484 497.622 355.53 496.164 355.53C494.67 355.53 493.698 356.574 493.518 357.888ZM513.574 353.928C516.238 353.928 517.678 355.908 517.678 358.356V363H515.896V358.644C515.896 357.042 515.104 355.638 513.448 355.638C511.846 355.638 511.036 356.988 511.036 358.608V363H509.254V358.608C509.254 356.988 508.444 355.638 506.806 355.638C505.15 355.638 504.412 357.042 504.412 358.644V363H502.63V358.374C502.63 355.908 504.034 353.928 506.68 353.928C508.444 353.928 509.722 354.828 510.172 356.196C510.658 354.828 511.9 353.928 513.574 353.928ZM524.923 363.216C522.259 363.216 520.225 361.218 520.225 358.608V350.13H522.007V355.278C522.727 354.486 523.807 353.964 524.995 353.964C527.677 353.964 529.603 355.926 529.603 358.608C529.603 361.146 527.587 363.216 524.923 363.216ZM524.923 361.542C526.561 361.542 527.821 360.21 527.821 358.59C527.821 356.988 526.561 355.656 524.923 355.656C523.267 355.656 522.007 356.988 522.007 358.59C522.007 360.21 523.267 361.542 524.923 361.542ZM535.738 363.198C533.056 363.198 531.058 361.254 531.058 358.536C531.058 355.998 532.876 353.928 535.522 353.928C538.186 353.928 539.842 355.854 539.842 358.32V359.04H532.786C532.984 360.552 534.136 361.614 535.72 361.614C536.8 361.614 537.772 361.146 538.294 360.174L539.662 360.876C538.888 362.388 537.466 363.198 535.738 363.198ZM532.858 357.888H538.06C537.988 356.484 536.962 355.53 535.504 355.53C534.01 355.53 533.038 356.574 532.858 357.888ZM543.751 363H541.969V357.744C541.969 355.602 543.193 354 545.497 354C546.055 354 546.631 354.108 547.081 354.324V356.088C546.649 355.836 546.145 355.71 545.659 355.71C544.471 355.71 543.751 356.52 543.751 357.816V363ZM548.557 363.162C547.909 363.162 547.387 362.64 547.387 361.992C547.387 361.344 547.909 360.84 548.557 360.84C549.205 360.84 549.727 361.344 549.727 361.992C549.727 362.64 549.205 363.162 548.557 363.162Z" fill="black"/>
</g>
<defs>
<filter id="filter0_i_1753_20707" x="0" y="0" width="800" height="474" filterUnits="userSpaceOnUse" color-interpolation-filters="sRGB">
<feFlood flood-opacity="0" result="BackgroundImageFix"/>
<feBlend mode="normal" in="SourceGraphic" in2="BackgroundImageFix" result="shape"/>
<feColorMatrix in="SourceAlpha" type="matrix" values="0 0 0 0 0 0 0 0 0 0 0 0 0 0 0 0 0 0 127 0" result="hardAlpha"/>
<feMorphology radius="8" operator="erode" in="SourceAlpha" result="effect1_innerShadow_1753_20707"/>
<feOffset dy="24"/>
<feGaussianBlur stdDeviation="30"/>
<feComposite in2="hardAlpha" operator="arithmetic" k2="-1" k3="1"/>
<feColorMatrix type="matrix" values="0 0 0 0 0.447059 0 0 0 0 0.764706 0 0 0 0 1 0 0 0 1 0"/>
<feBlend mode="normal" in2="shape" result="effect1_innerShadow_1753_20707"/>
</filter>
<linearGradient id="paint0_linear_1753_20707" x1="400" y1="0" x2="400" y2="450" gradientUnits="userSpaceOnUse">
<stop stop-color="white"/>
<stop offset="1" stop-color="#EFEFEF"/>
</linearGradient>
</defs>
</svg>
